<svg xmlns="http://www.w3.org/2000/svg" viewBox="0 0 28.497 23.607" width="28" height="23">
<path style="fill:none;stroke:#c8d4e3;stroke-width:2;stroke-linecap:round;stroke-linejoin:round;stroke-miterlimit:10;" d="
	M21.788,19.252c-0.479,0.037-0.995,0.037-1.474,0.074c-1.843,0.147-3.65,0.848-5.53,1.033c-2.064,0.185-3.834-0.737-5.825-1.033
	C7.595,19.142,6.12,19.4,4.829,18.81c-1.106-0.516-1.88-1.659-2.212-2.839c-0.332-1.18-0.332-2.433-0.295-3.687
	c0.037-0.848,0.074-1.733,0.221-2.581c0.405-1.991,1.585-3.687,2.876-5.199c1.29-1.548,2.36-2.912,4.424-3.318
	c1.106-0.221,2.286-0.185,3.429-0.185c1.512,0.037,3.023,0.074,4.535,0.111c0.59,0,1.216,0.037,1.77,0.221
	c0.774,0.258,1.438,0.848,1.991,1.438c1.18,1.216,2.249,2.544,3.133,3.981c0.627,0.995,1.18,2.064,1.364,3.208
	c0.147,0.922,0.037,1.88,0.037,2.802c0,1.106,0.147,2.212-0.147,3.282c-0.405,1.474-1.622,2.728-3.133,3.06
	C22.525,19.178,22.157,19.216,21.788,19.252z"/>
<path style="fill:none;stroke:#c8d4e3;stroke-width:2;stroke-linecap:round;stroke-linejoin:round;stroke-miterlimit:10;" d="
	M3.465,7.491c0,0,10.913,4.977,21.678,0"/>
<path style="fill:none;stroke:#c8d4e3;stroke-width:2;stroke-linecap:round;stroke-linejoin:round;stroke-miterlimit:10;" d="
	M2.396,11.289c0,0,4.24-0.443,5.457,2.728"/>
<path style="fill:none;stroke:#c8d4e3;stroke-width:2;stroke-linecap:round;stroke-linejoin:round;stroke-miterlimit:10;" d="
	M26.138,11.363c0,0-4.24-0.443-5.457,2.728"/>
<line style="fill:none;stroke:#c8d4e3;stroke-width:2;stroke-linecap:round;stroke-linejoin:round;stroke-miterlimit:10;" x1="12.091" y1="14.017" x2="16.331" y2="14.017"/>
<path style="fill:none;stroke:#c8d4e3;stroke-width:2;stroke-linecap:round;stroke-linejoin:round;stroke-miterlimit:10;" d="
	M1.806,8.229c-0.774-0.774-1.033-1.733-0.59-2.175c0.443-0.443,1.438-0.185,2.175,0.59"/>
<path style="fill:none;stroke:#c8d4e3;stroke-width:2;stroke-linecap:round;stroke-linejoin:round;stroke-miterlimit:10;" d="
	M26.691,8.339c0.774-0.774,1.033-1.733,0.59-2.175c-0.443-0.443-1.438-0.185-2.175,0.59"/>
<path style="fill:none;stroke:#c8d4e3;stroke-width:2;stroke-linecap:round;stroke-linejoin:round;stroke-miterlimit:10;" d="
	M7.852,19.657v1.438c0,0.848-0.701,1.512-1.512,1.512H4.607c-0.848,0-1.512-0.701-1.512-1.512v-3.981"/>
<path style="fill:none;stroke:#c8d4e3;stroke-width:2;stroke-linecap:round;stroke-linejoin:round;stroke-miterlimit:10;" d="
	M20.645,19.657v1.438c0,0.848,0.701,1.512,1.512,1.512h1.733c0.848,0,1.512-0.701,1.512-1.512v-3.613"/>
</svg>