<?xml version="1.0" encoding="utf-8"?>
<!-- Generator: Adobe Illustrator 22.0.1, SVG Export Plug-In . SVG Version: 6.00 Build 0)  -->
<svg version="1.1" id="Слой_1" xmlns="http://www.w3.org/2000/svg" xmlns:xlink="http://www.w3.org/1999/xlink" x="0px" y="0px"
	 viewBox="0 0 180 180" style="enable-background:new 0 0 180 180;" xml:space="preserve">
<g>
	<circle style="fill:#9C1C1F;" cx="90" cy="90" r="90"/>
</g>
<path style="fill:none;stroke:#FFFFFF;stroke-width:2;stroke-linecap:round;stroke-linejoin:round;stroke-miterlimit:10;" d="
	M80.02,108.863H59.109c-2.839,0-5.109-2.271-5.109-5.062V70.779v-3.217c0-2.791,2.271-5.062,5.109-5.062h53.696
	c2.791,0,5.109,2.271,5.109,5.109V99.07"/>
<line style="fill:none;stroke:#FFFFFF;stroke-width:2;stroke-linecap:round;stroke-linejoin:round;stroke-miterlimit:10;" x1="117.631" y1="70.779" x2="54.237" y2="70.779"/>
<line style="fill:none;stroke:#FFFFFF;stroke-width:2;stroke-linecap:round;stroke-linejoin:round;stroke-miterlimit:10;" x1="92.557" y1="90.176" x2="112.427" y2="90.176"/>
<line style="fill:none;stroke:#FFFFFF;stroke-width:2;stroke-linecap:round;stroke-linejoin:round;stroke-miterlimit:10;" x1="92.557" y1="81.66" x2="102.019" y2="81.66"/>
<line style="fill:none;stroke:#FFFFFF;stroke-width:2;stroke-linecap:round;stroke-linejoin:round;stroke-miterlimit:10;" x1="106.277" y1="81.66" x2="111.954" y2="81.66"/>
<path style="fill:none;stroke:#FFFFFF;stroke-width:2;stroke-linecap:round;stroke-linejoin:round;stroke-miterlimit:10;" d="
	M78.837,103.423h-19.87c0,0,1.892-6.623,9.935-7.096c0-1.419,0-2.365,0-2.365s-2.365-2.365-2.365-4.258
	c-2.034-1.798-1.892-4.258,0-5.677c0.284-2.791-0.946-6.15,4.258-6.623c0.946,0,1.892,0,1.892,0s9.935-4.258,7.57,4.258v2.365
	c0,0,3.075,3.075-0.473,5.63c0,0-0.473,2.886-2.839,4.305"/>
<path style="fill:none;stroke:#FFFFFF;stroke-width:2;stroke-linecap:round;stroke-linejoin:round;stroke-miterlimit:10;" d="
	M76.945,93.961v2.365c0,0,5.204,0,8.516,3.312"/>
<path style="fill:none;stroke:#FFFFFF;stroke-width:2;stroke-linecap:round;stroke-linejoin:round;stroke-miterlimit:10;" d="
	M110.819,121.495c-0.615,0.047-1.277,0.047-1.892,0.095c-2.365,0.189-4.684,1.088-7.096,1.325c-2.649,0.237-4.92-0.946-7.475-1.325
	c-1.75-0.237-3.643,0.095-5.299-0.662c-1.419-0.662-2.413-2.129-2.839-3.643c-0.426-1.514-0.426-3.122-0.378-4.731
	c0.047-1.088,0.095-2.224,0.284-3.312c0.52-2.555,2.034-4.731,3.69-6.671c1.656-1.987,3.028-3.737,5.677-4.258
	c1.419-0.284,2.933-0.237,4.4-0.237c1.94,0.047,3.879,0.095,5.819,0.142c0.757,0,1.561,0.047,2.271,0.284
	c0.993,0.331,1.845,1.088,2.555,1.845c1.514,1.561,2.886,3.264,4.021,5.109c0.804,1.277,1.514,2.649,1.75,4.116
	c0.189,1.183,0.047,2.413,0.047,3.596c0,1.419,0.189,2.839-0.189,4.211c-0.52,1.892-2.082,3.501-4.021,3.927
	C111.765,121.4,111.292,121.448,110.819,121.495z"/>
<path style="fill:none;stroke:#FFFFFF;stroke-width:2;stroke-linecap:round;stroke-linejoin:round;stroke-miterlimit:10;" d="
	M87.306,106.403c0,0,14.004,6.387,27.818,0"/>
<path style="fill:none;stroke:#FFFFFF;stroke-width:2;stroke-linecap:round;stroke-linejoin:round;stroke-miterlimit:10;" d="
	M85.934,111.276c0,0,5.441-0.568,7.002,3.501"/>
<path style="fill:none;stroke:#FFFFFF;stroke-width:2;stroke-linecap:round;stroke-linejoin:round;stroke-miterlimit:10;" d="
	M116.401,111.371c0,0-5.441-0.568-7.002,3.501"/>
<line style="fill:none;stroke:#FFFFFF;stroke-width:2;stroke-linecap:round;stroke-linejoin:round;stroke-miterlimit:10;" x1="98.376" y1="114.777" x2="103.817" y2="114.777"/>
<path style="fill:none;stroke:#FFFFFF;stroke-width:2;stroke-linecap:round;stroke-linejoin:round;stroke-miterlimit:10;" d="
	M85.177,107.349c-0.993-0.993-1.325-2.224-0.757-2.791c0.568-0.568,1.845-0.237,2.791,0.757"/>
<path style="fill:none;stroke:#FFFFFF;stroke-width:2;stroke-linecap:round;stroke-linejoin:round;stroke-miterlimit:10;" d="
	M117.111,107.491c0.993-0.993,1.325-2.224,0.757-2.791c-0.568-0.568-1.845-0.237-2.791,0.757"/>
<path style="fill:none;stroke:#FFFFFF;stroke-width:2;stroke-linecap:round;stroke-linejoin:round;stroke-miterlimit:10;" d="
	M92.936,122.015v1.845c0,1.088-0.899,1.94-1.94,1.94h-2.224c-1.088,0-1.94-0.899-1.94-1.94v-5.109"/>
<path style="fill:none;stroke:#FFFFFF;stroke-width:2;stroke-linecap:round;stroke-linejoin:round;stroke-miterlimit:10;" d="
	M109.352,122.015v1.845c0,1.088,0.899,1.94,1.94,1.94h2.224c1.088,0,1.94-0.899,1.94-1.94v-4.636"/>
</svg>
