<?xml version="1.0" encoding="utf-8"?>
<!-- Generator: Adobe Illustrator 22.0.1, SVG Export Plug-In . SVG Version: 6.00 Build 0)  -->
<svg version="1.1" id="Слой_1" xmlns="http://www.w3.org/2000/svg" xmlns:xlink="http://www.w3.org/1999/xlink" x="0px" y="0px"
	 viewBox="0 0 180 180" style="enable-background:new 0 0 180 180;" xml:space="preserve">
<g>
	<circle style="fill:#9C1C1F;" cx="90" cy="90" r="90"/>
</g>
<g>
	<path style="fill:none;stroke:#FFFFFF;stroke-width:2;stroke-linecap:round;stroke-linejoin:round;stroke-miterlimit:10;" d="
		M89.82,80.929c7.27,0,13.194-5.924,13.194-13.194c0-7.36-5.924-13.284-13.194-13.284c-7.27,0-13.194,5.924-13.194,13.194
		C76.535,75.005,82.549,80.929,89.82,80.929z"/>
	<path style="fill:none;stroke:#FFFFFF;stroke-width:2;stroke-linecap:round;stroke-linejoin:round;stroke-miterlimit:10;" d="
		M67.29,95.2c0-1.167-1.077-2.064-2.423-2.064c-1.346,0-2.423,0.987-2.423,2.154v4.667h1.436
		C64.867,98.252,66.034,96.726,67.29,95.2z"/>
	<path style="fill:none;stroke:#FFFFFF;stroke-width:2;stroke-linecap:round;stroke-linejoin:round;stroke-miterlimit:10;" d="
		M117.555,100.586v-4.667c0-1.167-1.077-2.154-2.423-2.154c-1.077,0-1.975,0.628-2.244,1.526c1.346,1.616,2.513,3.411,3.501,5.206
		h1.167V100.586z"/>
	<path style="fill:none;stroke:#FFFFFF;stroke-width:2;stroke-linecap:round;stroke-linejoin:round;stroke-miterlimit:10;" d="
		M106.335,111.716h-6.283c-0.18-0.539-0.449-1.167-0.718-1.705l6.732-5.924 M62.802,116.383c0.539,0.718,1.346,1.167,2.334,1.167
		h49.816l0,0l0,0c0.539,0,1.077-0.18,1.526-0.449 M74.112,104.086l6.463,5.745c-0.359,0.628-0.628,1.257-0.898,1.885h-5.655
		 M114.054,100.586c-0.359-0.718-0.808-1.346-1.257-1.975c-0.628-0.898-1.257-1.705-1.975-2.513l-0.09-0.09l-0.09-0.09
		c-5.116-5.565-12.387-9.066-20.555-9.066s-15.438,3.501-20.555,9.066l-0.09,0.09l-0.09,0.09c-0.718,0.808-1.346,1.616-1.975,2.513
		c-0.269,0.449-0.539,0.898-0.898,1.257 M89.82,104.445c-1.795,0-3.59,0.449-5.116,1.257l-8.886-7.899
		c3.86-3.231,8.796-5.206,14.182-5.206s10.322,1.975,14.182,5.206l-9.066,7.988C93.59,104.984,91.705,104.445,89.82,104.445z"/>
	<path style="fill:none;stroke:#FFFFFF;stroke-width:2;stroke-linecap:round;stroke-linejoin:round;stroke-miterlimit:10;" d="
		M72.407,112.703c0-0.359-0.09-0.718-0.269-0.987c-0.359-0.628-0.987-1.077-1.705-1.077h-1.975h-4.129V110.1h4.129h1.885
		c0.539,0,0.987-0.18,1.346-0.539s0.628-0.898,0.628-1.436c0-0.539-0.18-1.077-0.539-1.436s-0.898-0.628-1.436-0.628h-0.539h-3.231
		h-2.244v-0.449h2.603h3.052h0.449c1.077,0,1.975-0.898,1.975-1.975c0-0.539-0.18-0.987-0.539-1.346
		c-0.359-0.359-0.898-0.628-1.436-0.628H67.29h-1.885h-2.334h-0.628h-0.808c-0.09,0-0.09,0-0.18,0c-0.09,0-0.18,0-0.269,0
		c-3.142,0-3.052,6.463-3.052,6.463s0,6.552,3.052,6.552c0.09,0,0.18,0,0.269,0s0.09,0,0.18,0h0.539h8.168
		C71.509,114.678,72.407,113.78,72.407,112.703z"/>
	<path style="fill:none;stroke:#FFFFFF;stroke-width:2;stroke-linecap:round;stroke-linejoin:round;stroke-miterlimit:10;" d="
		M118.901,102.381c-0.09,0-0.18,0-0.269,0c-0.09,0-0.09,0-0.18,0h-0.808h-0.269h-2.334h-2.244h-3.142
		c-0.449,0-0.898,0.18-1.167,0.359c-0.449,0.359-0.808,0.987-0.808,1.616c0,1.077,0.898,1.975,1.975,1.975h0.718h2.783h2.603v0.449
		h-2.244h-2.962h-0.898c-0.449,0-0.898,0.18-1.257,0.449c-0.449,0.359-0.808,0.898-0.808,1.616c0,0.269,0.09,0.539,0.18,0.808
		c0.269,0.718,0.987,1.257,1.885,1.257h1.975h4.039v0.539h-3.949h-2.064c-0.449,0-0.808,0.09-1.077,0.359
		c-0.539,0.359-0.898,0.987-0.898,1.705c0,1.077,0.898,1.975,1.975,1.975h8.078h0.628c0.09,0,0.09,0,0.18,0c0.09,0,0.18,0,0.269,0
		c3.052,0,3.052-6.552,3.052-6.552S122.043,102.381,118.901,102.381z"/>
</g>
</svg>
