<svg xmlns="http://www.w3.org/2000/svg" viewBox="0 0 29.538 21.976" width="29" height="22">
<path style="fill:#c8d4e3;" d="M29.538,3.201C29.538,1.436,28.102,0,26.336,0H3.201C1.436,0,0,1.427,0,3.181v15.614
	c0,1.754,1.436,3.181,3.201,3.181h5.393h12.348h5.394c1.765,0,3.201-1.427,3.201-3.181c0-0.024-0.012-0.044-0.014-0.068
	c0.002-0.025,0.015-0.047,0.015-0.073V3.201z M3.201,2h23.135c0.663,0,1.202,0.539,1.202,1.202v0.366H2V3.181
	C2,2.53,2.539,2,3.201,2z M26.336,19.976h-5.394H8.594H3.201C2.539,19.976,2,19.447,2,18.795V5.567h25.538v13.087
	c0,0.024,0.012,0.044,0.014,0.068c-0.002,0.025-0.015,0.047-0.015,0.073C27.537,19.447,26.998,19.976,26.336,19.976z"/>
<path style="fill:#c8d4e3;" d="M26.174,11.924h-8.562c-0.552,0-1,0.447-1,1s0.448,1,1,1h8.562c0.553,0,1-0.447,1-1
	S26.727,11.924,26.174,11.924z"/>
<path style="fill:#c8d4e3;" d="M17.612,10.255h4.077c0.553,0,1-0.448,1-1s-0.447-1-1-1h-4.077c-0.552,0-1,0.448-1,1
	S17.06,10.255,17.612,10.255z"/>
<path style="fill:#c8d4e3;" d="M12.053,14.899c0.549-0.557,0.82-1.215,0.946-1.633c0.625-0.564,0.805-1.172,0.84-1.606
	c0.061-0.745-0.265-1.367-0.525-1.736V9.387c0.329-1.291,0.141-2.254-0.56-2.867C11.592,5.505,9.584,6.14,8.854,6.423L8.146,6.426
	C5.42,6.673,5.423,8.632,5.424,9.573c0,0.082,0.001,0.163,0,0.244c-0.398,0.435-0.632,0.98-0.655,1.55
	c-0.026,0.655,0.216,1.29,0.687,1.821c0.133,0.594,0.487,1.149,0.792,1.542c-3.199,0.717-4.031,3.497-4.068,3.628
	c-0.152,0.531,0.156,1.084,0.687,1.236c0.092,0.025,0.184,0.038,0.275,0.038c0.435,0,0.835-0.286,0.961-0.726
	c0.006-0.021,0.652-2.173,3.377-2.334c0.529-0.031,0.941-0.469,0.941-0.998v-1.019c0-0.265-0.105-0.52-0.293-0.707
	c-0.356-0.356-0.723-0.926-0.726-1.128c0-0.287-0.123-0.56-0.338-0.749c-0.198-0.175-0.303-0.361-0.296-0.525
	c0.007-0.167,0.131-0.295,0.234-0.372c0.223-0.167,0.366-0.421,0.395-0.698c0.027-0.263,0.028-0.535,0.028-0.807
	C7.423,8.58,7.423,8.5,8.236,8.422h0.815c0.134,0,0.269-0.028,0.392-0.08c0.827-0.351,1.804-0.471,1.99-0.32
	c0.001,0.002,0.122,0.229-0.083,0.967c-0.024,0.087-0.037,0.177-0.037,0.268v1.019c0,0.266,0.105,0.52,0.293,0.707
	c0.053,0.053,0.254,0.327,0.239,0.517c-0.012,0.147-0.206,0.309-0.32,0.391c-0.209,0.15-0.354,0.387-0.401,0.641
	c-0.001,0.008-0.155,0.811-0.752,1.169c-0.032,0.019-0.051,0.051-0.08,0.073c-0.059,0.044-0.112,0.089-0.16,0.146
	c-0.04,0.047-0.07,0.096-0.1,0.148c-0.033,0.057-0.062,0.114-0.083,0.177c-0.022,0.065-0.031,0.129-0.04,0.196
	c-0.005,0.04-0.023,0.075-0.023,0.116v1.02c0,0.454,0.306,0.852,0.746,0.967c1.084,0.286,3.429,1.24,3.753,2.367
	c0.126,0.438,0.526,0.724,0.96,0.724c0.092,0,0.185-0.013,0.277-0.039c0.531-0.152,0.837-0.707,0.684-1.237
	C15.765,16.475,13.401,15.382,12.053,14.899z"/>
</svg>