<?xml version="1.0" encoding="utf-8"?>
<!-- Generator: Adobe Illustrator 22.0.1, SVG Export Plug-In . SVG Version: 6.00 Build 0)  -->
<svg version="1.1" id="Слой_1" xmlns="http://www.w3.org/2000/svg" xmlns:xlink="http://www.w3.org/1999/xlink" x="0px" y="0px"
	 viewBox="0 0 44.012 46.959" style="enable-background:new 0 0 44.012 46.959;" xml:space="preserve">
<title>support</title>
<path style="fill:none;stroke:#C9D5E4;stroke-width:2;stroke-linecap:round;stroke-linejoin:round;" d="M22.009,15.848
	c4.215,0,7.632,3.417,7.632,7.632s-3.417,7.632-7.632,7.632c-4.198,0-7.608-3.391-7.632-7.588c-0.019-4.22,3.386-7.656,7.606-7.675
	C21.991,15.848,22,15.848,22.009,15.848z"/>
<path style="fill:none;stroke:#C9D5E4;stroke-width:2;stroke-linecap:round;stroke-linejoin:round;" d="M19.722,45.959h4.565
	c1.791-0.005,3.24-1.458,3.24-3.248V39.67c2.108-0.721,4.055-1.845,5.735-3.309l2.599,1.525c0.493,0.283,1.051,0.432,1.62,0.433
	c0.293,0.003,0.584-0.035,0.866-0.113c0.829-0.223,1.536-0.765,1.966-1.507l2.261-3.959c0.895-1.549,0.364-3.531-1.185-4.426
	c0,0-0.001-0.001-0.001-0.001l-2.599-1.525c0.427-2.185,0.427-4.433,0-6.618l2.599-1.525c1.551-0.892,2.085-2.872,1.194-4.424
	c-0.002-0.004-0.004-0.008-0.007-0.012l-2.278-3.95c-0.898-1.552-2.883-2.083-4.435-1.187l-2.599,1.525
	c-1.679-1.464-3.627-2.588-5.735-3.309V4.24c-0.005-1.787-1.452-3.235-3.24-3.24h-4.565c-1.787,0.005-3.235,1.452-3.24,3.24v3.049
	c-2.108,0.721-4.055,1.845-5.735,3.309L8.148,9.074c-1.549-0.895-3.531-0.364-4.426,1.185c0,0-0.001,0.001-0.001,0.001l-2.287,3.959
	C0.54,15.769,1.071,17.75,2.62,18.645c0,0,0.001,0.001,0.001,0.001l2.642,1.525c-0.427,2.185-0.427,4.433,0,6.618l-2.642,1.525
	c-1.55,0.894-2.082,2.875-1.188,4.425c0,0,0.001,0.001,0.001,0.001l2.287,3.959c0.412,0.75,1.103,1.307,1.923,1.551
	c0.282,0.078,0.574,0.116,0.866,0.113c0.566-0.001,1.121-0.15,1.611-0.433l2.599-1.525c1.677,1.462,3.622,2.586,5.726,3.309v3.041
	C16.476,44.539,17.936,45.969,19.722,45.959z"/>
</svg>
