<?xml version="1.0" encoding="utf-8"?>
<!-- Generator: Adobe Illustrator 22.0.1, SVG Export Plug-In . SVG Version: 6.00 Build 0)  -->
<svg version="1.1" id="Слой_1" xmlns="http://www.w3.org/2000/svg" xmlns:xlink="http://www.w3.org/1999/xlink" x="0px" y="0px"
	 viewBox="0 0 180 180" style="enable-background:new 0 0 180 180;" xml:space="preserve">
<g>
	<circle style="fill:#9C1C1F;" cx="90" cy="90" r="90"/>
</g>
<path style="fill:none;stroke:#FFFFFF;stroke-width:2;stroke-linecap:round;stroke-linejoin:round;stroke-miterlimit:10;" d="
	M91.538,54.416l33.439,30.647L93.404,95.193l-3.884,1.32L58.428,64.584L91.538,54.416z M84.454,103.513L52.74,71.743
	c-0.484-0.66-0.743-1.458-0.74-2.277c0.015-1.671,1.098-3.145,2.688-3.658l3.74-1.225 M84.455,113.37L52.74,81.64
	c-0.485-0.663-0.745-1.464-0.74-2.285V79.33c-0.001-1.592,0.98-3.02,2.466-3.592l1.618-0.649 M84.526,123.397L52.74,91.627
	c-0.484-0.66-0.743-1.458-0.74-2.277v-0.025c-0.009-1.601,0.973-3.04,2.466-3.617l1.734-0.611 M91.307,119.822
	c0.02-0.006,0.039,0.028,0.058,0.021l33.563-10.844v4.17L88.85,124.787c-1.59,0.514-3.331-0.045-4.324-1.389
	c-0.497-0.667-0.762-1.478-0.756-2.31c0-0.821,0.259-1.62,0.74-2.285c0.483-0.664,1.165-1.157,1.948-1.406l38.471-12.39v4.1
	 M86.466,107.41l29.616-9.601l8.838-2.798l0.008,4.339 M91.307,109.946c0.02-0.006,0.039-0.012,0.058-0.019l33.563-10.804v6.052
	 M89.04,106.537c-1.098,0.006-2.212-0.324-3.076-1.016c-2.532-2.027-2.738-6.535,0.461-8.009l38.503-12.415v4.586 M91.307,100.08
	c0.02-0.006,0.039-0.012,0.058-0.019l33.563-10.804v5.417"/>
<path style="fill:none;stroke:#FFFFFF;stroke-width:2;stroke-linecap:round;stroke-linejoin:round;stroke-miterlimit:10;" d="
	M91.538,63.524l18.47,16.593L90.19,86.528L73.397,69.097L91.538,63.524z"/>
<path style="fill:none;stroke:#FFFFFF;stroke-width:2;stroke-linecap:round;stroke-linejoin:round;stroke-miterlimit:10;" d="
	M89.142,116.49c-1.098,0.006-2.292-0.364-3.156-1.056c-2.532-2.027-2.738-6.535,0.461-8.009"/>
</svg>
