<?xml version="1.0" encoding="utf-8"?>
<!-- Generator: Adobe Illustrator 22.0.1, SVG Export Plug-In . SVG Version: 6.00 Build 0)  -->
<svg version="1.1" id="Layer_1" xmlns="http://www.w3.org/2000/svg" xmlns:xlink="http://www.w3.org/1999/xlink" x="0px" y="0px"
	 viewBox="0 0 371.896 358.368" style="enable-background:new 0 0 371.896 358.368;" xml:space="preserve">
<path style="fill:#9C1C1F;" d="M359.883,195.569c0.388-0.585,0.688-1.16,1.1-1.637c1.057-1.222,2.014-2.601,3.285-3.55
	c1.995-1.49,3.75-0.788,4.294,1.669c0.882,3.981,1.135,8.013,0.305,12.053c-0.969,4.715-1.851,9.451-2.955,14.135
	c-0.64,2.712-1.545,5.374-2.503,7.996c-2.082,5.698-4.238,11.369-6.433,17.024c-2.017,5.197-4.091,10.373-6.218,15.527
	c-0.545,1.322-1.47,2.484-2.07,3.789c-3.732,8.126-9.094,15.195-14.435,22.273c-1.268,1.681-2.488,3.375-3.661,5.121
	c-1.345,2.001-3.664,3.331-5.486,5.032c-1.539,1.437-3.079,2.899-4.428,4.51c-1.862,2.224-3.667,4.453-6.168,6.033
	c-1.131,0.714-2.159,1.626-3.123,2.562c-5.489,5.329-11.495,9.962-18.099,13.839c-2.974,1.746-5.833,3.686-8.771,5.494
	c-0.644,0.396-1.398,0.618-2.11,0.898c-0.536,0.211-1.217,0.243-1.609,0.602c-2.181,1.995-4.907,3.002-7.488,4.271
	c-3.873,1.904-7.684,3.896-11.855,5.185c-3.295,1.019-6.405,2.636-9.592,3.998c-0.531,0.227-1.014,0.628-1.563,0.744
	c-4.797,1.012-9.299,2.994-14.006,4.257c-3.983,1.068-8.165,1.381-12.169,2.385c-8.944,2.242-18.025,2.886-27.196,2.963
	c-6.058,0.051-12.115,0.427-18.172,0.429c-3.455,0.002-6.965-0.154-10.354-0.77c-6.158-1.118-12.245-2.626-18.359-3.984
	c-3.471-0.771-6.984-1.399-10.393-2.387c-5.544-1.607-11.021-3.448-16.519-5.213c-1.099-0.353-2.165-0.811-3.25-1.209
	c-10.413-3.817-20.463-8.465-30.115-13.887c-5.016-2.818-9.588-6.418-14.398-9.608c-7.146-4.74-12.915-10.944-18.559-17.291
	c-1.474-1.658-3.046-3.232-4.462-4.937c-3.069-3.698-6.04-7.477-9.104-11.179c-1.35-1.631-2.735-3.255-4.275-4.7
	c-1.273-1.195-2.305-0.728-2.538,1.03c-0.126,0.948-0.061,1.925-0.038,2.889c0.036,1.541-0.29,2.914-1.796,3.658
	c-1.449,0.715-2.881,0.406-4.094-0.511c-2.238-1.691-4.221-3.598-5.493-6.211c-2.986-6.138-6.109-12.21-9.145-18.324
	c-0.425-0.855-0.63-1.816-1.014-2.694c-0.687-1.571-1.436-3.115-2.153-4.673c-0.319-0.693-0.791-1.364-0.912-2.092
	c-0.561-3.388-2.02-6.413-3.561-9.425c-0.433-0.846-0.721-1.783-0.957-2.708c-0.428-1.673-0.656-3.404-1.162-5.05
	c-2.248-7.312-3.252-14.861-4.364-22.39c-1.114-7.546-1.699-15.134-1.74-22.762c-0.052-9.571,0.717-19.103,2.824-28.419
	c1.118-4.943,1.793-9.973,3.198-14.895c1.123-3.933,1.659-8.109,3.125-11.977c1.805-4.761,3.902-9.41,5.878-14.106
	c0.223-0.531,0.539-1.029,0.712-1.575c1.797-5.665,4.919-10.647,8.042-15.625c2.092-3.335,4.227-6.644,6.362-9.952
	c1.932-2.993,3.877-5.977,5.84-8.949c1.802-2.729,3.688-5.405,5.44-8.166c1.4-2.208,3.091-4.107,4.911-5.994
	c3.263-3.385,6.13-7.151,9.186-10.737c1.058-1.241,2.107-2.506,3.294-3.616c5.211-4.874,10.806-9.279,16.63-13.396
	c0.236-0.167,0.54-0.296,0.687-0.524c3.449-5.335,9.796-6.815,14.299-10.759c4.523-3.963,9.829-6.739,15.099-9.548
	c0.506-0.27,0.994-0.608,1.419-0.992c3.608-3.264,8.106-4.639,12.577-6.188c2.986-1.034,5.766-2.655,8.668-3.948
	c1.223-0.544,2.493-1.038,3.79-1.35c8.148-1.96,16.358-3.682,24.446-5.858c4.355-1.172,8.728-1.381,13.147-1.628
	c2.115-0.118,4.222-0.463,6.336-0.497c7.908-0.127,15.808-0.062,23.615,1.515c1.599,0.323,3.272,0.272,4.882,0.557
	c5.404,0.954,10.781,2.07,16.195,2.962c8.494,1.399,16.616,4.225,24.92,6.351c1.651,0.423,3.101,1.625,4.751,2.054
	c6.804,1.77,12.709,5.466,18.887,8.58c0.601,0.303,1.217,0.625,1.723,1.058c3.55,3.038,7.619,5.222,11.777,7.273
	c0.591,0.291,1.282,0.655,1.6,1.183c3.19,5.291,8.562,8.245,12.997,12.192c2.293,2.041,5.095,3.581,7.121,5.837
	c5.08,5.657,9.899,11.553,14.724,17.434c2.811,3.426,5.55,6.925,8.106,10.543c2.554,3.614,4.881,7.392,7.231,11.145
	c2.145,3.425,4.343,6.832,6.232,10.399c1.835,3.465,3.34,7.109,4.93,10.7c1.558,3.518,3.052,7.065,4.553,10.608
	c3.203,7.565,5.804,15.32,7.149,23.446c0.612,3.702,1.029,7.436,1.531,11.155c0.026,0.19,0.059,0.393,0.023,0.577
	c-1.116,5.687,0.559,11.315,0.342,16.991c-0.214,5.583-0.166,11.175-0.278,16.762c-0.021,1.054-0.318,2.1-0.374,3.155
	C358.49,193.639,358.368,194.848,359.883,195.569z M173.661,13.78c-4.843,0.553-9.923,1.04-14.972,1.746
	c-2.757,0.386-5.478,1.08-8.187,1.749c-4.291,1.059-8.679,1.885-12.808,3.401c-6.946,2.552-13.736,5.534-20.554,8.423
	c-1.125,0.477-2.115,1.339-3.051,2.156c-0.35,0.305-0.632,1.103-0.471,1.468c0.17,0.387,0.928,0.777,1.385,0.73
	c1.712-0.176,3.503-0.273,5.09-0.866c5.047-1.884,9.895-4.401,15.05-5.868c4.88-1.389,9.815-2.615,14.693-4.061
	c3.78-1.12,7.664-1.956,11.553-2.619c3.974-0.678,7.811-2.089,11.933-2.051c1.903,0.017,3.827-0.444,5.707-0.849
	c0.54-0.116,1.416-0.917,1.342-1.183c-0.172-0.62-0.753-1.464-1.302-1.579C177.389,14.025,175.646,13.974,173.661,13.78z
	 M349.019,177.528c0.288,0.007,0.576,0.014,0.864,0.021c0.353-0.641,0.99-1.273,1.011-1.924c0.143-4.382,0.228-8.769,0.156-13.152
	c-0.016-0.981-0.664-2.231-1.949-2.094c-1.439,0.153-1.246,1.526-1.214,2.529c0.133,4.107,0.315,8.213,0.545,12.315
	C348.476,176,348.816,176.76,349.019,177.528z"/>
<path style="fill:#9C1C1F;" d="M282.4,13.023c1.796,0.626,3.724,1.015,5.361,1.925c3.784,2.103,7.576,4.25,11.093,6.761
	c5.641,4.027,11.039,8.361,15.555,13.722c2.538,3.012,5.543,5.626,8.176,8.564c3.464,3.866,6.97,7.724,10.092,11.861
	c4.108,5.445,8.04,11.043,11.714,16.789c3.513,5.495,7.063,10.985,8.919,17.41c1.033,3.576,3.278,6.802,4.315,10.377
	c1.224,4.22,1.776,8.639,2.512,12.991c0.136,0.803-0.089,1.755-0.41,2.529c-0.912,2.198-3.62,2.69-5.194,0.908
	c-0.673-0.762-1.114-1.79-1.46-2.767c-0.641-1.813-1.115-3.684-1.694-5.52c-1.127-3.576-2.191-7.144-4.077-10.467
	c-1.554-2.737-2.266-5.951-3.813-8.693c-2.738-4.851-5.82-9.507-8.775-14.234c-0.51-0.816-1.146-1.552-1.652-2.37
	c-3.061-4.947-7.278-8.933-11.062-13.274c-3.038-3.485-6.157-6.91-9.399-10.205c-2.077-2.111-4.447-3.935-6.679-5.894
	c-1.878-1.648-3.713-3.347-5.626-4.951c-3.236-2.714-6.569-5.313-9.77-8.067c-3.429-2.95-6.775-5.999-10.104-9.062
	c-0.696-0.64-1.172-1.523-1.727-2.31c-0.863-1.224-1.528-2.523-0.729-4.019c0.797-1.491,2.242-1.675,3.743-1.664
	c0.193,0.001,0.386,0,0.578,0C282.324,13.249,282.362,13.136,282.4,13.023z"/>
<path style="fill:#9C1C1F;" d="M362.813,143.26c-0.185-1.822-0.463-4.206-0.654-6.598c-0.083-1.046-0.097-2.122,0.052-3.156
	c0.343-2.374,1.439-3.592,3.264-3.845c1.878-0.261,3.841,0.76,4.814,2.515c0.139,0.251,0.306,0.518,0.338,0.791
	c0.618,5.308,2.219,10.592,0.485,15.965c-0.232,0.72-0.508,1.482-0.97,2.06c-1.564,1.954-3.475,1.945-5.125,0.071
	C363.399,149.226,362.745,147.089,362.813,143.26z"/>
<path style="fill:#9C1C1F;" d="M57.701,309.638c-0.078,1.915-1.527,2.927-3.06,2.332c-0.795-0.309-1.571-0.776-2.22-1.331
	c-2.485-2.125-5.066-4.171-7.305-6.537c-1.274-1.346-2.118-3.185-2.853-4.93c-0.638-1.514,0.002-3.104,1.117-3.875
	c1.299-0.899,2.536-0.309,3.443,0.498c3.816,3.391,7.473,6.958,10.106,11.396C57.403,307.99,57.51,309.007,57.701,309.638z"/>
<path style="fill:#9C1C1F;" d="M70.107,320.269c0.311,0.07,0.952,0.057,1.403,0.343c1.607,1.02,3.268,2.008,4.686,3.261
	c1.627,1.437,1.152,3.224-0.867,3.992c-3.423,1.302-7.779-1.508-8.03-5.181C67.2,321.234,68.156,320.331,70.107,320.269z"/>
<path style="fill:#9C1C1F;" d="M130.126,351.092c2.034-0.001,3.983,1.822,4.047,3.785c0.056,1.711-1.546,3.458-3.201,3.49
	c-1.87,0.036-4.343-2.496-4.319-4.422C126.672,352.514,128.401,351.093,130.126,351.092z"/>
<path style="fill:#9C1C1F;" d="M97.867,343.769c-2.104-0.05-3.778-1.613-3.82-3.567c-0.033-1.547,1.113-2.527,2.888-2.47
	c2.081,0.066,4.184,1.869,4.248,3.641C101.235,342.836,99.879,343.817,97.867,343.769z"/>
<path style="fill:#FFFFFF;" d="M125.55,113.668c-0.457,0.029-0.898-0.007-1.328-0.287c0.175-0.382,0.488-0.322,0.767-0.324
	c1.16-0.009,2.321-0.002,3.481-0.019c1.402-0.02,2.805-0.085,4.207-0.082c1.78,0.004,3.563,0.018,5.34,0.108
	c0.824,0.042,1.65,0.228,2.452,0.436c0.52,0.135,0.9,0.531,0.916,1.114c0.038,1.351-0.061,2.682-0.461,3.995
	c-0.659,2.163-1.494,4.272-1.923,6.509c-0.31,1.614-0.727,3.209-1.12,4.806c-0.38,1.544-0.379,3.093-0.192,4.663
	c0.129,1.085,0.311,2.143,0.894,3.082c0.251,0.405,0.558,0.784,0.89,1.126c0.419,0.432,0.506,0.665,0.311,1.215
	c-0.062,0.176-0.115,0.356-0.156,0.538c-0.133,0.59-0.379,0.821-0.993,0.851c-0.349,0.017-0.701-0.032-1.051-0.033
	c-0.267-0.001-0.546-0.019-0.799,0.048c-1.191,0.314-2.205,0.02-3.151-0.752c-1.523-1.243-2.243-2.85-2.369-4.78
	c-0.13-2.002-0.041-3.989,0.298-5.965c0.323-1.886,0.74-3.75,1.176-5.614c0.444-1.894,0.942-3.765,1.499-5.624
	c0.029-0.098,0.009-0.21,0.016-0.428c-0.326-0.07-0.651-0.192-0.979-0.2c-1.025-0.023-2.051,0.006-3.077-0.003
	c-0.46-0.004-0.662,0.227-0.787,0.646c-0.602,2.017-1.231,4.025-1.84,6.039c-0.461,1.524-0.915,3.051-1.355,4.581
	c-0.328,1.141-0.608,2.296-0.95,3.432c-0.17,0.565-0.393,1.124-0.672,1.642c-0.155,0.288-0.436,0.569-0.729,0.707
	c-0.443,0.21-0.656,0.526-0.773,0.966c-0.077,0.286-0.173,0.569-0.287,0.843c-0.175,0.424-0.504,0.694-0.932,0.843
	c-0.444,0.155-0.766-0.003-0.834-0.46c-0.039-0.257,0.003-0.539,0.063-0.797c0.209-0.893,0.446-1.78,0.664-2.672
	c0.053-0.218,0.073-0.444,0.108-0.666c-0.055-0.014-0.109-0.028-0.164-0.041c-0.089,0.238-0.196,0.472-0.265,0.716
	c-0.189,0.676-0.357,1.358-0.545,2.034c-0.079,0.285-0.167,0.572-0.291,0.84c-0.23,0.496-0.546,0.735-0.831,0.628
	c-0.387-0.144-0.488-0.494-0.485-0.857c0.005-0.511-0.022-1.04,0.098-1.53c0.313-1.284,0.696-2.55,1.055-3.822
	c0.081-0.285,0.177-0.567,0.268-0.849c0.134-0.417,0.093-0.814-0.204-1.14c-0.354-0.389-0.364-0.809-0.223-1.281
	c0.626-2.094,1.234-4.194,1.866-6.286c0.25-0.826,0.549-1.638,0.814-2.459c0.071-0.22,0.099-0.454,0.163-0.758
	c-0.372-0.047-0.66-0.116-0.948-0.115c-1.322,0.006-2.643,0.039-3.964,0.045c-0.624,0.003-0.985,0.215-1.285,0.84
	c-0.627,1.31-0.87,2.722-1.29,4.085c-0.508,1.651-0.985,3.311-1.46,4.971c-0.431,1.505-0.822,3.022-1.268,4.522
	c-0.254,0.853-0.582,1.683-0.877,2.523c-0.114,0.324-0.295,0.594-0.664,0.632c-0.36,0.037-0.494,0.28-0.61,0.566
	c-0.122,0.3-0.22,0.615-0.388,0.888c-0.526,0.855-1.57,0.94-2.257,0.236c-0.194-0.199-0.465-0.378-0.731-0.439
	c-0.465-0.108-0.728-0.39-0.797-0.81c-0.091-0.553-0.188-1.13-0.126-1.678c0.271-2.376,0.931-4.653,1.897-6.84
	c0.228-0.515,0.528-1.01,0.165-1.603c-0.078-0.127-0.01-0.374,0.047-0.547c0.471-1.434,0.95-2.865,1.439-4.293
	c0.297-0.869,0.624-1.727,0.917-2.596c0.178-0.53,0.033-0.766-0.561-0.781c-1.024-0.025-2.05,0.024-3.075,0.032
	c-0.322,0.002-0.652,0.009-0.965-0.052c-0.941-0.183-1.062-0.465-0.568-1.372c-0.26-0.077-0.52-0.12-0.747-0.231
	c-0.177-0.087-0.427-0.247-0.44-0.393c-0.018-0.2,0.102-0.51,0.263-0.607c0.363-0.22,0.783-0.352,1.189-0.492
	c0.354-0.122,0.72-0.205,1.095-0.31c-0.518-0.854-0.328-1.201,0.671-1.246c1.832-0.083,3.665-0.174,5.498-0.198
	c3.208-0.042,6.416-0.036,9.624-0.045c0.1,0,0.2,0.055,0.35,0.1c-0.047,0.204-0.091,0.394-0.142,0.617
	c0.847,0.177,1.639,0.208,2.424-0.091c0.259,0.075,0.514,0.204,0.771,0.21c0.938,0.022,1.877,0.017,2.814-0.006
	c0.524-0.013,1.046-0.081,1.569-0.124c-0.005-0.057-0.01-0.115-0.016-0.172C128.973,113.604,127.261,113.636,125.55,113.668z
	 M136.482,130.14c0.3-1.32,0.595-2.642,0.903-3.961c0.305-1.309,0.624-2.615,0.936-3.923c-0.051-0.016-0.102-0.032-0.154-0.048
	c-0.088,0.297-0.184,0.593-0.263,0.893c-0.504,1.927-1.002,3.855-1.507,5.782C136.288,129.302,136.278,129.714,136.482,130.14z
	 M112.095,130.349c0.079,0.034,0.157,0.068,0.236,0.103c0.225-0.643,0.447-1.287,0.675-1.93c0.486-1.374,0.5-1.441,0.326-2.097
	C112.652,127.734,112.362,129.038,112.095,130.349z M126.878,122.838c-0.486,1.036-1.202,4.057-1.156,4.809
	C126.319,125.976,126.574,124.398,126.878,122.838z M114.108,123.813c0.716-0.684,1.05-1.984,0.784-2.65
	C114.643,122.002,114.401,122.821,114.108,123.813z M140.56,116.98c0.63-0.436,0.706-0.903,0.374-1.55
	C140.8,115.986,140.68,116.483,140.56,116.98z"/>
<path style="fill:#FFFFFF;" d="M87.039,110.748c-0.328-0.056-0.485-0.109-0.641-0.105c-1.186,0.028-2.373,0.044-3.557,0.11
	c-1.858,0.104-3.715,0.242-5.571,0.371c-1.157,0.081-2.311,0.213-3.469,0.244c-0.692,0.019-1.415-0.016-2.077-0.197
	c-1.176-0.322-1.569-1.217-1.102-2.329c0.094-0.223,0.307-0.439,0.521-0.561c0.743-0.425,1.574-0.54,2.415-0.588
	c0.647-0.037,1.293-0.087,1.94-0.099c0.365-0.007,0.629-0.096,0.73-0.484c0.097-0.368,0.403-0.49,0.731-0.553
	c0.423-0.082,0.848-0.184,1.276-0.205c4.176-0.203,8.352-0.422,12.53-0.566c1.48-0.051,2.967,0.089,4.45,0.154
	c0.813,0.035,0.813,0.047,0.916,0.935c0.201-0.019,0.438,0.023,0.602-0.067c1.32-0.727,2.577-0.352,3.795,0.231
	c1.51,0.723,2.542,1.934,3.061,3.505c0.335,1.014,0.246,2.108-0.122,3.106c-0.41,1.109-0.933,2.18-1.459,3.241
	c-0.364,0.734-0.388,0.87,0.314,1.305c2.08,1.29,3.218,3.228,3.754,5.538c0.322,1.388,0.228,2.794-0.271,4.148
	c-0.437,1.188-0.791,2.42-1.356,3.545c-1.305,2.598-3.316,4.574-5.824,6.017c-1.423,0.819-2.882,1.597-4.389,2.242
	c-0.927,0.397-1.965,0.578-2.972,0.728c-1.059,0.157-1.137,0.033-1.243-1.069c-0.601-0.3-1.255-0.566-1.84-0.94
	c-0.418-0.267-0.809-0.633-1.095-1.038c-0.461-0.651-0.017-1.507,0.785-1.621c0.234-0.033,0.471-0.046,0.811-0.079
	c-0.134-0.22-0.205-0.38-0.315-0.507c-0.159-0.182-0.357-0.329-0.519-0.509c-0.526-0.584-0.527-0.666-0.064-1.422
	c0.583-0.075,1.103,0.153,1.584,0.45c1.72,1.061,3.53,0.944,5.276,0.233c1.902-0.775,3.523-1.992,4.589-3.817
	c0.244-0.417,0.437-0.865,0.645-1.303c0.081-0.17,0.141-0.351,0.204-0.529c0.113-0.318,0.261-0.666,0.647-0.595
	c0.202,0.038,0.356,0.328,0.573,0.546c0.239-0.403,0.238-0.891,0.239-1.33c-0.331-0.178-0.709-0.268-0.879-0.507
	c-0.16-0.225-0.137-0.607-0.131-0.919c0.034-1.904-0.744-2.946-2.5-3.626c-1.203-0.466-2.408-0.354-3.65-0.015
	c-2.352,0.643-4.352,1.85-6.101,3.513c-0.916,0.871-1.441,2.01-2.105,3.055c-0.771,1.215-1.086,2.574-1.373,3.951
	c-0.149,0.712-0.316,1.402-0.937,1.917c-0.234,0.194-0.291,0.621-0.392,0.952c-0.231,0.758-0.508,1.475-1.18,1.974
	c-0.348,0.258-0.681,0.438-1.11,0.216c-0.442-0.229-0.479-0.628-0.417-1.045c0.191-1.281,0.368-2.565,0.609-3.837
	c0.211-1.113,0.511-2.208,0.753-3.316c0.078-0.354,0.098-0.72,0.164-1.232c-0.419,0.247-0.424,0.533-0.479,0.768
	c-0.342,1.444-0.68,2.889-0.996,4.339c-0.235,1.08-0.432,2.168-0.65,3.252c-0.059,0.291-0.103,0.624-0.49,0.646
	c-0.386,0.022-0.738-0.157-0.815-0.532c-0.102-0.492-0.146-1.014-0.107-1.515c0.229-2.953,1.191-5.746,1.889-8.599
	c0.688-2.812,1.572-5.56,2.554-8.273c0.632-1.746,1.31-3.492,2.311-5.076C85.966,112.258,86.476,111.567,87.039,110.748z
	 M102.425,111.906c-0.278,0.539-0.27,1.109-0.197,1.686c0.251-0.539,0.367-1.092,0.185-1.676c0.018-0.538,0.086-1.089-0.298-1.526
	c-0.058,0.016-0.117,0.032-0.175,0.048C102.102,110.926,102.266,111.414,102.425,111.906z M92.048,138.57
	c0.693-0.049,1.405,0.01,2.039-0.38c-0.652,0.036-1.293,0.148-1.932,0.268c-0.039,0.007-0.065,0.08-0.103,0.116
	c-0.26-0.077-0.52-0.154-0.78-0.231c-0.009,0.044-0.019,0.088-0.028,0.132C91.512,138.507,91.78,138.538,92.048,138.57z
	 M98.011,112.556c-0.087,0.011-0.175,0.023-0.262,0.034c-0.205-0.643-0.409-1.286-0.636-1.998c-0.141-0.009-0.355-0.054-0.56-0.03
	c-1.425,0.167-2.697,0.736-3.835,1.581c-1.46,1.085-2.408,2.592-3.258,4.162c-0.326,0.602-0.584,1.563-0.562,2.001
	c0.232-0.109,0.46-0.186,0.656-0.312c1.179-0.759,2.546-1.009,3.848-1.434c0.2-0.065,0.426-0.047,0.64-0.072
	c2.438-0.279,2.217,0.183,3.159-2.305c0.12-0.316,0.175-0.687,0.559-0.827c0.33,0.373,0.33,0.373,0.39,1.07
	c0.695-1.211,0.68-2.315-0.044-3.175C98.073,111.685,98.042,112.121,98.011,112.556z M86.408,114.218
	c-1.067,1.07-3.283,6.695-3.009,7.724C84.291,119.323,85.084,116.666,86.408,114.218z M99.405,135.756
	c1.704-1.055,2.819-2.606,3.597-4.189C101.886,132.867,100.646,134.311,99.405,135.756z"/>
<path style="fill:#FFFFFF;" d="M55.019,119.628c0.41-0.188,1.066-1.089,1.324-1.641c-0.768-0.486-0.761-0.684-0.264-1.458
	c1.004-1.563,2.485-2.524,4.181-3.009c2.315-0.662,4.694-0.143,6.132,2.047c0.202,0.308,0.334,0.676,0.425,1.036
	c0.045,0.178-0.01,0.466-0.135,0.585c-0.331,0.316-0.379,0.688-0.394,1.103c-0.017,0.457-0.086,0.911-0.104,1.368
	c-0.008,0.196,0.056,0.395,0.227,0.583c0.023-0.501,0.031-1.004,0.073-1.503c0.03-0.358-0.072-0.904,0.41-0.929
	c0.501-0.026,0.43,0.518,0.464,0.876c0.035,0.375,0.032,0.752,0.057,1.128c0.013,0.201,0.049,0.401,0.082,0.653
	c0.177-0.056,0.296-0.061,0.367-0.122c0.672-0.583,1.351-1.159,1.999-1.768c0.999-0.939,1.974-1.903,2.961-2.855
	c0.291-0.281,0.605-0.541,0.873-0.842c0.679-0.762,1.584-1.107,2.523-1.371c0.19-0.054,0.466,0.049,0.653,0.161
	c0.386,0.232,0.578,0.618,0.706,1.048c0.097,0.326,0.223,0.651,0.383,0.951c0.245,0.459,0.135,0.897-0.03,1.328
	c-0.221,0.578-0.428,1.17-0.721,1.712c-1.249,2.306-1.968,4.78-2.389,7.351c-0.329,2.015-0.202,4.023,0.126,6.026l-0.018-0.025
	c0.072,0.54,0.144,1.081,0.215,1.622l-0.013-0.039c-0.077,2.095,0.741,3.888,1.879,5.574c0.256,0.379,0.548,0.741,0.756,1.145
	c0.254,0.495,0.102,0.785-0.406,1.027c-0.23,0.109-0.47,0.235-0.645,0.413c-0.477,0.486-1.377,0.666-1.911,0.245
	c-0.567-0.447-1.153-0.927-1.558-1.512c-0.876-1.268-1.6-2.628-1.863-4.184c-0.057-0.338-0.183-0.664-0.31-1.111
	c-0.108,0.501,0.004,1.082,0.25,1.841c0.132,0.408,0.222,0.832,0.298,1.254c0.032,0.178,0.014,0.383-0.044,0.555
	c-0.117,0.35-0.442,0.424-0.689,0.143c-0.173-0.198-0.301-0.448-0.4-0.695c-0.579-1.442-0.861-2.966-0.97-4.496
	c-0.122-1.718-0.084-3.45-0.066-5.175c0.008-0.717,0.144-1.433,0.233-2.255c-0.191,0.096-0.322,0.124-0.396,0.205
	c-1.741,1.891-3.648,3.607-5.62,5.244c-2.058,1.707-4.231,3.259-6.598,4.527c-0.72,0.386-1.432,0.754-2.263,0.805
	c-1.182,0.072-2.299-0.114-3.044-1.134c-0.988-1.355-1.582-2.874-1.663-4.573c-0.106-2.243,0.322-4.42,0.94-6.545
	c0.359-1.233,0.985-2.394,1.556-3.556c0.414-0.843,0.905-1.653,1.416-2.443c0.353-0.547,0.68-0.667,0.972-0.512
	c0.343,0.183,0.356,0.597,0.039,1.214c-0.119,0.246-0.24,0.487-0.361,0.728c0.041,0.015,0.081,0.03,0.122,0.045
	C54.864,120.154,54.942,119.891,55.019,119.628z M61.35,121.562c-0.43-0.988-0.96-1.089-1.621-0.346
	c-0.054,0.06-0.094,0.133-0.151,0.19c-0.644,0.637-1.109,1.413-1.422,2.235c-0.467,1.228-0.847,2.497-1.153,3.775
	c-0.102,0.426,0.079,0.956,0.247,1.393c0.085,0.221,0.419,0.448,0.66,0.472c0.172,0.017,0.452-0.263,0.552-0.474
	c0.196-0.411,0.432-0.738,0.871-0.899c0.096-0.035,0.197-0.108,0.253-0.192c0.443-0.669,0.944-1.312,1.293-2.028
	c0.351-0.72,0.602-1.502,0.795-2.283c0.164-0.664,0.322-1.36,0.079-2.126C61.611,121.378,61.51,121.45,61.35,121.562z
	 M73.778,124.964c-0.586,1.146-0.737,4.957-0.302,6.088C73.572,129.114,73.674,127.042,73.778,124.964z M57.25,123.131
	c-0.561,0.988-1.13,1.999-1.15,3.22C56.489,125.261,56.869,124.196,57.25,123.131z M67.383,121.498
	c1.05-0.708,1.063-0.722,1.242-1.265c-0.402,0.334-0.753,0.62-1.094,0.916C67.48,121.192,67.47,121.284,67.383,121.498z
	 M52.329,133.835c-0.087,0.512-0.087,0.512,0.315,0.879C52.514,134.35,52.422,134.093,52.329,133.835z"/>
<path style="fill:#FFFFFF;" d="M157.883,113.222c0.289-0.028,0.588-0.118,0.865-0.073c1.526,0.249,2.996,0.692,4.388,1.373
	c0.135,0.066,0.337,0.195,0.339,0.299c0.014,0.548,0.457,0.727,0.808,0.921c1.205,0.669,2.086,1.71,3.045,2.644
	c0.775,0.755,1.23,1.768,1.564,2.808c0.264,0.82,0.538,1.638,0.761,2.469c0.449,1.678,0.448,3.379-0.02,5.039
	c-0.342,1.215-0.767,2.427-1.535,3.459c-0.301,0.404-0.704,0.737-1.087,1.073c-0.219,0.192-0.498,0.4-0.795,0.152
	c-0.317-0.265-0.171-0.59-0.024-0.885c0.253-0.507,0.529-1.002,0.77-1.513c0.129-0.273,0.205-0.57,0.337-0.948
	c-0.526,0.069-0.554,0.407-0.685,0.645c-0.496,0.893-0.939,1.82-1.499,2.67c-0.35,0.532-0.872,0.951-1.322,1.416
	c-0.277,0.286-0.561,0.565-0.8,0.91c0.431,0.032,0.722-0.231,1.021-0.453c0.281-0.209,0.523-0.473,0.812-0.666
	c0.175-0.117,0.409-0.146,0.613-0.213c0.188,0.458-0.067,0.649-0.246,0.881c-0.816,1.051-1.98,1.652-3.052,2.371
	c-1.043,0.699-2.204,1.192-3.4,1.484c-1.005,0.245-2.088,0.272-3.131,0.234c-3.298-0.119-6.18-1.408-8.758-3.39
	c-0.903-0.694-1.52-1.674-2.038-2.692c-0.635-1.249-1.354-2.468-1.487-3.908c-0.027-0.295-0.067-0.592-0.057-0.886
	c0.028-0.847,0.155-0.962,0.962-0.974c0.397-1.344,0.676-2.727,1.219-3.997c0.527-1.232,1.326-2.347,1.956-3.549
	c-0.428,0.174-0.673,0.523-0.892,0.885c-0.308,0.508-0.586,1.033-0.889,1.544c-0.34,0.575-0.702,0.792-0.99,0.612
	c-0.28-0.175-0.306-0.625,0.021-1.184c0.449-0.768,0.954-1.503,1.432-2.255c0.915-1.44,2.206-2.535,3.552-3.503
	c1.667-1.199,3.528-2.012,5.625-2.334c1.553-0.238,3.045-0.037,4.564,0.108c0.01-0.051,0.02-0.103,0.029-0.154
	c-0.659-0.141-1.319-0.282-1.981-0.426C157.876,113.213,157.883,113.222,157.883,113.222z M152.968,119.074
	c0.731-0.096,1.283-0.553,1.879-0.92c-0.715,0.132-1.39,0.344-1.867,0.943c-0.142,0.077-0.285,0.153-0.427,0.23
	c0.032,0.044,0.064,0.088,0.096,0.132C152.756,119.33,152.862,119.202,152.968,119.074z M163.904,127.588
	c0.502-1.672,0.556-3.29-0.247-4.939c-0.728-1.496-1.909-2.468-3.287-3.227c-0.924-0.51-1.984-0.764-3.049-0.663
	c-1.401,0.133-2.727,0.494-3.957,1.28c-1.701,1.086-2.889,2.56-3.767,4.332c-0.047,0.096-0.074,0.203-0.102,0.307
	c-0.452,1.689-0.444,3.359,0.239,4.991c0.123,0.293,0.302,0.57,0.498,0.822c0.724,0.93,1.662,1.581,2.686,2.162
	c1.063,0.603,2.141,0.996,3.373,0.928c1.43-0.08,2.724-0.498,3.919-1.322C161.928,131.073,163.257,129.615,163.904,127.588z
	 M168.315,123.717c-0.031-1.389-1.382-4.341-2.386-4.793c0.507,0.857,0.999,1.588,1.387,2.37
	C167.703,122.075,167.986,122.907,168.315,123.717z"/>
<path style="fill:#FFFFFF;" d="M251.429,113.222c0.289-0.028,0.588-0.118,0.865-0.073c1.526,0.249,2.996,0.692,4.388,1.373
	c0.135,0.066,0.337,0.195,0.339,0.299c0.014,0.548,0.457,0.727,0.808,0.921c1.205,0.669,2.086,1.71,3.045,2.644
	c0.775,0.755,1.23,1.768,1.564,2.808c0.264,0.82,0.538,1.638,0.761,2.469c0.449,1.678,0.448,3.379-0.02,5.039
	c-0.342,1.215-0.767,2.427-1.535,3.459c-0.301,0.404-0.704,0.737-1.087,1.073c-0.219,0.192-0.498,0.4-0.795,0.152
	c-0.317-0.265-0.171-0.59-0.024-0.885c0.253-0.507,0.529-1.002,0.77-1.513c0.129-0.273,0.205-0.57,0.337-0.948
	c-0.526,0.069-0.554,0.407-0.685,0.645c-0.496,0.893-0.939,1.82-1.499,2.67c-0.35,0.532-0.872,0.951-1.322,1.416
	c-0.277,0.286-0.561,0.565-0.8,0.91c0.431,0.032,0.722-0.231,1.021-0.453c0.281-0.209,0.523-0.473,0.812-0.666
	c0.175-0.117,0.409-0.146,0.613-0.213c0.188,0.458-0.067,0.649-0.246,0.881c-0.816,1.051-1.98,1.652-3.052,2.371
	c-1.043,0.699-2.204,1.192-3.4,1.484c-1.005,0.245-2.088,0.272-3.131,0.234c-3.298-0.119-6.18-1.408-8.758-3.39
	c-0.903-0.694-1.52-1.674-2.038-2.692c-0.635-1.249-1.354-2.468-1.487-3.908c-0.027-0.295-0.067-0.592-0.057-0.886
	c0.028-0.847,0.155-0.962,0.962-0.974c0.397-1.344,0.676-2.727,1.219-3.997c0.527-1.232,1.326-2.347,1.956-3.549
	c-0.428,0.174-0.673,0.523-0.892,0.885c-0.308,0.508-0.586,1.033-0.889,1.544c-0.34,0.575-0.702,0.792-0.99,0.612
	c-0.28-0.175-0.306-0.625,0.021-1.184c0.449-0.768,0.954-1.503,1.432-2.255c0.915-1.44,2.206-2.535,3.552-3.503
	c1.667-1.199,3.528-2.012,5.625-2.334c1.553-0.238,3.045-0.037,4.564,0.108c0.01-0.051,0.02-0.103,0.029-0.154
	c-0.659-0.141-1.319-0.282-1.981-0.426C251.422,113.213,251.429,113.222,251.429,113.222z M246.514,119.074
	c0.731-0.096,1.283-0.553,1.879-0.92c-0.715,0.132-1.39,0.344-1.867,0.943c-0.142,0.077-0.285,0.153-0.427,0.23
	c0.032,0.044,0.064,0.088,0.096,0.132C246.301,119.33,246.408,119.202,246.514,119.074z M257.45,127.588
	c0.502-1.672,0.556-3.29-0.247-4.939c-0.728-1.496-1.909-2.468-3.287-3.227c-0.924-0.51-1.984-0.764-3.049-0.663
	c-1.401,0.133-2.727,0.494-3.957,1.28c-1.701,1.086-2.889,2.56-3.767,4.332c-0.047,0.096-0.074,0.203-0.102,0.307
	c-0.452,1.689-0.444,3.359,0.239,4.991c0.123,0.293,0.302,0.57,0.498,0.822c0.724,0.93,1.662,1.581,2.686,2.162
	c1.063,0.603,2.141,0.996,3.373,0.928c1.43-0.08,2.724-0.498,3.919-1.322C255.473,131.073,256.803,129.615,257.45,127.588z
	 M261.86,123.717c-0.031-1.389-1.382-4.341-2.386-4.793c0.507,0.857,0.999,1.588,1.387,2.37
	C261.248,122.075,261.532,122.907,261.86,123.717z"/>
<path style="fill:#FFFFFF;" d="M74.948,132.086c0.126-2.449,0.234-4.889,0.734-7.315c0.301-1.459,0.716-2.87,1.145-4.284
	c0.12-0.396,0.335-0.764,0.506-1.145c0.049,0.02,0.098,0.04,0.146,0.061c-0.295,0.999-0.644,1.986-0.875,3
	c-0.394,1.733-0.845,3.469-1.03,5.229c-0.179,1.705-0.066,3.442-0.05,5.165c0.003,0.341,0.146,0.681,0.231,1.021
	c0.245,0.986,0.494,1.97,0.774,3.087c-0.465-0.341-0.638-0.706-0.737-1.126c-0.134-0.575-0.269-1.151-0.424-1.721
	c-0.04-0.148-0.155-0.277-0.236-0.414l0.013,0.039c-0.072-0.54-0.144-1.081-0.215-1.621L74.948,132.086z"/>
<path style="fill:#FFFFFF;" d="M86.491,129.255c0.515-2.193,2.212-3.509,3.715-4.951c1.023-0.982,4.444-2.304,5.505-2.211
	c-1.283,0.549-2.497,1.04-3.686,1.586c-1.217,0.559-2.159,1.488-3.126,2.393C87.906,127,87.218,128.132,86.491,129.255z"/>
<path style="fill:#FFFFFF;" d="M117.475,119.211c0.023,0.774-3.368,12.997-3.708,13.539
	C113.75,132.074,116.956,120.273,117.475,119.211z"/>
<path style="fill:#FFFFFF;" d="M58.804,136.195c0.448-0.668,1.195-0.714,1.685-1.125c0.511-0.429,1.125-0.734,1.662-1.136
	c0.558-0.418,1.07-0.898,1.616-1.332c0.526-0.417,1.074-0.806,1.605-1.217c0.531-0.411,1.066-0.818,1.574-1.256
	c0.497-0.429,0.963-0.895,1.461-1.323c-0.708,1.279-4.811,4.677-8.197,6.829C59.419,136.138,59.419,136.138,58.804,136.195z"/>
<path style="fill:#FFFFFF;" d="M117.019,134.105c-0.005-0.358-0.053-0.587-0.001-0.79c0.085-0.33,0.218-0.652,0.373-0.956
	c0.039-0.078,0.25-0.126,0.355-0.095c0.095,0.027,0.202,0.172,0.221,0.279C118.042,132.984,117.646,133.706,117.019,134.105z"/>
<g>
	<path style="fill:#FFFFFF;" d="M134.995,220.235c0.07,0.298-6.477-0.469-9.719-0.275c-1.76,0.105-3.525,0.078-5.288,0.037
		c-1.932-0.045-3.872,0.071-5.801-0.032c-1.511-0.081-3.017-0.307-4.516-0.531c-0.086-0.013-0.175-0.039-0.262-0.074
		c-2.693,2.009-5.492,4.716-8.795,5.307c0.054,0.136,0.101,0.275,0.157,0.409c0.291,0.689,0.895,1.401,1.62,1.205
		c0.868-0.235,1.341,0.231,1.972,0.506c0.328,0.143,0.761,0.268,1.069,0.167c0.284-0.093,0.464-0.5,0.727-0.813
		c0.235,0.098,0.503,0.209,0.842,0.35c-0.233,0.275-0.413,0.488-0.579,0.685c0.197,0.494,0.467,0.77,0.973,0.685
		c0.65-0.109,0.286-0.723,0.484-1.182c0.474,0.244,1.101,0.359,1.219,0.668c0.361,0.949,1.119,0.966,1.86,0.976
		c2.628,0.033,5.256,0.007,7.884,0.01c5.666-2.655,11.21-5.152,16.224-8.802C135.065,220.253,134.925,219.937,134.995,220.235z"/>
	<path style="fill:#FFFFFF;" d="M107.779,202.236c-0.688-1.336-1.705-2.503-2.574-3.746c-0.369-0.528-0.798-1.028-1.087-1.597
		c-1.933-3.807-4.404-7.274-6.756-10.818c-0.525-0.792-1.05-1.588-1.508-2.418c-0.202-0.366-0.326-0.805-0.364-1.225
		c-3.559-5.046-8.911-15.919-9.212-15.776c-0.271-0.382-0.58-0.755-0.822-1.168c-1.195-2.041-2.604-3.908-4.305-5.562
		c-1.202-1.169-2.337-2.48-3.871-3.153c-2.767-1.213-5.668-1.97-8.749-1.578c-0.976,0.124-1.164,0.329-1.137,1.403
		c0.013,0.516-0.184,0.771-0.717,0.822c-0.093-0.142-0.173-0.265-0.253-0.389c-0.449-0.698-0.776-0.789-1.495-0.396
		c-0.199,0.109-0.389,0.242-0.563,0.388c-1.705,1.432-3.07,3.186-4.278,5.013c-2.723,4.12-5.326,8.32-7.913,12.528
		c-1.332,2.166-2.506,4.429-3.792,6.624c-0.351,0.599-0.385,1.212-0.082,1.728c0.376,0.638,0.214,1.167-0.043,1.721
		c-0.864,1.86-1.741,3.715-2.63,5.563c-0.11,0.228-0.323,0.407-0.489,0.608c-0.072-0.043-0.143-0.085-0.215-0.128
		c0.052-0.203,0.076-0.42,0.162-0.608c0.426-0.932,0.882-1.851,1.3-2.786c0.325-0.727,0.641-1.461,0.893-2.215
		c0.064-0.191-0.065-0.581-0.224-0.672c-0.156-0.09-0.532,0.009-0.691,0.155c-0.302,0.277-0.579,0.619-0.76,0.985
		c-0.673,1.36-1.281,2.751-1.953,4.112c-1.48,2.996-3.013,5.966-4.467,8.975c-1.154,2.389-2.166,4.847-3.347,7.222
		c-1.045,2.102-1.698,4.301-2.129,6.593c-0.208,1.105-0.241,2.196-0.02,3.286c0.48,2.364,1.645,4.396,3.143,6.249
		c0.232,0.287,0.545,0.545,0.874,0.711c0.583,0.294,0.95,0.061,0.998-0.593c0.031-0.425,0.006-0.854,0.006-1.28
		c0.656,0.566,1.16,1.139,1.511,1.794c0.419,0.78,1.027,1.332,1.773,1.718c2.43,1.26,5.058,1.916,7.759,2.108
		c2,0.142,4.018,0.072,6.031,0.146c3.567,0.131,7.144,0.006,10.716-0.067c1.707-0.035,3.413-0.187,5.117-0.305
		c0.392-0.027,0.848,0.042,1.174-0.529c-0.342-0.258-0.668-0.503-1.134-0.855c4.701-0.169,9.233-0.57,13.79-0.14
		c-0.262,0.186-0.536,0.252-0.813,0.307c-0.447,0.089-0.917,0.115-1.334,0.279c-0.23,0.091-0.37,0.41-0.55,0.626
		c0.198,0.151,0.387,0.315,0.597,0.445c0.089,0.055,0.222,0.048,0.335,0.051c0.95,0.019,1.904,0.093,2.85,0.037
		c3.643-0.213,7.284-0.46,10.925-0.711c2.092-0.144,4.111-0.672,6.148-1.14c1.692-0.389,3.198-1.189,4.743-1.894
		c1.964-0.897,3.403-2.393,4.32-4.368c0.267-0.575,0.251-1.074-0.362-1.553c-0.634,0.713-1.235,1.388-1.836,2.064
		c0.339-0.912,0.897-1.666,1.238-2.508c0.35-0.864,0.488-1.814,0.74-2.814c0.049-0.001,0.097-0.002,0.146-0.003
		c-1.177-3.095-0.365-5.248-3.172-9.465C106.614,199.82,108.211,203.075,107.779,202.236z M36.287,214.423
		c0.494,1.543,1.499,2.916,1.562,4.605C37.084,217.58,36.171,216.184,36.287,214.423z M64.163,165.86
		c0.055,0.713-0.08,1.201-0.377,1.679c-1.278,2.052-2.538,4.114-3.8,6.176c-0.094,0.154-0.153,0.329-0.228,0.495
		c-0.1-0.084-0.201-0.169-0.302-0.253C60.998,171.305,62.539,168.654,64.163,165.86z M46.849,219.78
		c-0.461-0.141-0.922-0.282-1.383-0.423l0.076-0.247c0.515-0.035,0.993,0.049,1.385,0.416
		C46.9,219.611,46.875,219.695,46.849,219.78z M63.381,224.908c-0.682,0.032-1.367,0.061-2.047,0.023
		c-0.614-0.034-1.279,0.23-1.829-0.353c1.901-0.173,3.788-0.148,5.668,0.233C64.598,225.193,63.977,224.88,63.381,224.908z
		 M66.798,224.956c0.012-0.032,0.025-0.065,0.037-0.097h1.687c0,0.032,0,0.065,0.001,0.097H66.798z M100.517,216.792
		c-1.524,0.572-3.1,0.708-4.68,0.9c-4.232,0.515-8.475,0.758-12.742,0.79c-5.734,0.042-11.467,0.268-17.201,0.386
		c-2.126,0.044-4.254-0.015-6.38,0.014c-2.219,0.03-4.391-0.322-6.569-0.671c-0.75-0.12-1.519-0.117-2.269-0.235
		c-1.423-0.223-2.861-0.407-4.251-0.769c-1.378-0.359-2.613-1.077-3.471-2.263c-1.097-1.516-0.742-3.154-0.097-4.672
		c1.291-3.04,2.691-6.035,4.093-9.027c1.288-2.748,2.652-5.46,3.943-8.206c0.158-0.335,0.224-0.861,0.068-1.161
		c-0.233-0.449-0.174-0.775,0.021-1.167c0.487-0.982,0.961-1.971,1.467-3.011c1.068,0.2,1.087,0.211,1.563-0.573
		c1.123-1.851,2.224-3.714,3.338-5.57c1.857-3.096,3.73-6.182,5.567-9.289c0.559-0.945,0.96-1.987,1.547-2.913
		c0.973-1.537,1.995-3.047,3.076-4.51c0.928-1.254,2.942-1.844,4.411-1.382c0.349,0.11,0.728,0.283,0.971,0.541
		c1.037,1.105,2.129,2.179,3.01,3.402c1.197,1.66,2.197,3.462,3.328,5.172c0.711,1.074,1.51,2.089,2.262,3.136
		c0.288,0.4,0.604,0.79,0.825,1.227c1.036,2.051,2.65,3.694,3.905,5.587c2.099,3.166,4.192,6.336,6.225,9.545
		c2.236,3.531,4.389,7.114,6.599,10.662c1.324,2.125,2.701,4.217,4.028,6.341C104.558,211.405,103.868,215.535,100.517,216.792z"/>
	<g>
		<path style="fill:#FFFFFF;" d="M162.784,216.074c0.154-0.223,0.258-0.542,0.406-0.564c0.87-0.129,0.624-0.65,0.522-1.182
			c-0.264,0.017-0.466,0.03-0.738,0.048c0.078-1.236,0.193-2.407,0.214-3.581c0.018-1.025-0.14-2.056,0.013-3.18
			c-0.66-0.449-1.309-0.942-1.913-1.547c-1.967-1.749-3.936-3.497-6.057-5.246c0.021,0.175,0.035,0.354,0.038,0.54
			c0.075,4.635,0.146,9.269,0.268,13.903c0.028,1.069,0.063,2.075-0.974,2.716c-0.346,0.214-0.729,0.466-1.114,0.502
			c-2.873,0.272-5.749,0.523-8.628,0.715c-0.939,0.062-1.89-0.106-2.836-0.105c-0.64,0.001-1.278,0.128-1.919,0.175
			c-1.248,0.092-2.495,0.21-3.745,0.241c-1.744,0.043-3.49,0.027-5.236,0.017c-1.324-0.007-2.396,0.682-3.72,0.664
			c-2.356-0.032-4.919-0.113-7.275-0.148c-0.418-0.006-2.075-0.025-2.492-0.042c-0.715-0.029-3.613,0.299-4.141,0.004
			c1.096,3.135,5.481,5.178,6.658,8.273c1.412-0.029,2.797-0.057,4.18-0.09c0.189-0.005,0.377-0.043,0.565-0.063
			c0.791-0.083,1.582-0.229,2.374-0.236c1.901-0.016,3.802,0.041,5.703,0.055c2.125,0.016,4.252,0.049,6.376,0.012
			c0.759-0.013,1.566-0.098,2.167-1.032c-0.554-0.123-0.975-0.301-1.394-0.296c-1.404,0.017-2.809,0.165-4.211,0.143
			c-2.656-0.042-5.31-0.164-7.964-0.266c-0.228-0.009-0.452-0.116-0.678-0.178c0.159-0.186,0.299-0.254,0.44-0.254
			c2.239-0.009,4.478-0.01,6.717-0.013c1.898-0.003,3.796-0.007,5.694-0.009c0.937-0.001,1.873,0,2.81,0
			c0.058,1.253,0.281,1.462,1.5,1.366c2.385-0.188,4.768-0.405,7.154-0.572c2.009-0.14,4.015-0.294,5.958-0.861
			c1.016-0.297,2.146-0.466,2.992-1.036c2.618-1.765,3.544-4.45,3.552-7.493C164.052,216.389,163.977,216.388,162.784,216.074z"/>
		<path style="fill:#FFFFFF;" d="M103.24,197.137c-0.231-3.524-0.473-7.048-0.616-10.576c-0.07-1.74,0.067-3.487,0.101-5.231
			c0.032-1.67-0.017-3.345,0.097-5.009c0.103-1.51,0.352-3.012,0.598-4.508c0.056-0.34,0.307-0.711,0.577-0.937
			c0.43-0.36,0.928-0.662,1.44-0.896c1.29-0.592,1.299-0.571,0.544-1.836c0.949-0.08,1.842-0.199,2.738-0.223
			c3.112-0.084,6.224-0.14,9.337-0.191c0.337-0.006,0.675,0.093,1.013,0.132c0.738,0.085,1.415,0.025,2-0.551
			c0.243-0.24,0.652-0.426,0.991-0.434c1.624-0.042,3.25-0.015,4.903-0.013c0.051,0.371,0.047,0.597,0.118,0.797
			c0.128,0.361,0.394,0.617,0.784,0.41c0.404-0.215,0.177-0.498-0.023-0.747c-0.043-0.053-0.049-0.135-0.126-0.367
			c0.517,0.025,0.976,0.047,1.494,0.073v1.068c0.463,0.039,0.9,0.119,1.333,0.104c2.279-0.079,4.556-0.221,6.836-0.267
			c3.487-0.07,6.975-0.081,10.463-0.115c0.402-0.004,2.181,0.05,2.65,0.051c1.002-2.462,2.293-5.044,3.303-7.538
			c-0.68,0.043-3.173-0.02-3.855,0.006c-2.695,0.105-5.39,0.231-8.085,0.344c-1.859,0.078-3.719,0.208-5.578,0.193
			c-0.922-0.007-1.644,0.111-2.042,1.029c-0.02,0.047-0.133,0.054-0.273,0.105c-0.277-0.456-0.688-0.658-1.279-0.654
			c-1.517,0.011-3.035-0.076-4.553-0.096c-0.429-0.006-0.761-0.062-1.12-0.376c-0.307-0.269-0.818-0.417-1.242-0.423
			c-1.625-0.025-3.251,0.03-4.877,0.051c-2.537,0.033-5.074,0.076-7.611,0.092c-4.267,0.027-8.491,0.458-12.661,1.362
			c-0.922,0.2-1.83,0.51-2.706,0.864c-0.693,0.28-1.414,0.874-1.229,1.602c0.222,0.871-0.252,1.337-0.535,1.964
			c-0.148,0.326-0.28,0.757-0.183,1.067c0.089,0.285,0.493,0.472,0.802,0.739c-0.102,0.234-0.217,0.5-0.363,0.836
			c-0.272-0.237-0.482-0.42-0.676-0.589c-0.497,0.19-0.777,0.456-0.7,0.963c0.1,0.652,0.718,0.297,1.174,0.501
			c-0.252,0.47-0.376,1.096-0.686,1.209c-0.954,0.346-0.983,1.104-1.004,1.846c-0.069,2.505-0.085,5.012-0.123,7.519
			c-0.002,0.14,0.033,0.291,0.028,0.438c2.56,5.679,5.276,11.238,8.835,16.285C103.25,197.184,103.242,197.16,103.24,197.137z
			 M135.877,166.68c0.005,0.065,0.011,0.13,0.016,0.195c-0.264,0.019-0.529,0.039-0.793,0.058l-0.016-0.208
			C135.348,166.71,135.612,166.695,135.877,166.68z M104.457,168.85c-0.292,0.183-0.584,0.366-1.021,0.64
			C103.58,168.817,104.052,168.865,104.457,168.85z"/>
	</g>
	<path style="fill:#FFFFFF;" d="M151.484,161.039c-0.223-0.154-0.542-0.258-0.564-0.406c-0.129-0.87-0.65-0.624-1.182-0.522
		c0.017,0.264,0.03,0.466,0.048,0.738c-1.236-0.078-2.407-0.193-3.581-0.214c-1.025-0.018-2.056,0.14-3.18-0.013
		c-0.449,0.66-0.942,1.309-1.547,1.913c-1.749,1.967,4.563,5.874,9.197,5.752c1.069-0.028,2.075-0.063,2.716,0.974
		c0.214,0.346,0.466,0.729,0.502,1.114c0.272,2.873,0.523,5.749,0.715,8.628c0.062,0.939-0.106,1.89-0.105,2.836
		c0.001,0.64,0.128,1.278,0.175,1.919c0.092,1.248,0.21,2.495,0.241,3.745c0.043,1.744,0.027,3.49,0.017,5.236
		c-0.007,1.324-0.046,2.648-0.064,3.972c-0.032,2.356-0.057,4.712-0.092,7.067c-0.006,0.418-0.054,0.835-0.071,1.252
		c-0.029,0.715-0.194,1.323-0.489,1.851c3.135-1.096,6.37-1.995,9.465-3.172c-0.029-1.412-0.057-2.797-0.09-4.18
		c-0.005-0.189-0.043-0.377-0.063-0.565c-0.083-0.791-0.229-1.582-0.236-2.374c-0.016-1.901,0.041-3.802,0.055-5.703
		c0.016-2.125,0.049-4.252,0.012-6.376c-0.013-0.759-0.098-1.566-1.032-2.167c-0.123,0.554-0.301,0.975-0.296,1.394
		c0.017,1.404,0.165,2.809,0.143,4.211c-0.042,2.656-0.164,5.31-0.266,7.964c-0.009,0.228-0.116,0.452-0.178,0.678
		c-0.186-0.159-0.254-0.299-0.254-0.44c-0.009-2.239-0.01-4.478-0.013-6.717c-0.003-1.898-0.007-3.796-0.009-5.694
		c-0.001-0.937,0-1.873,0-2.81c1.253-0.058,1.462-0.281,1.366-1.5c-0.188-2.385-0.405-4.768-0.572-7.154
		c-0.14-2.009-0.294-4.015-0.861-5.958c-0.297-1.016-0.466-2.146-1.036-2.992c-1.765-2.618-4.45-3.544-7.493-3.552
		C151.799,159.77,151.797,159.846,151.484,161.039z"/>
	<g>
		<path style="fill:#FFFFFF;" d="M221.597,189.476c-0.071-0.093-0.141-0.187-0.212-0.279c-0.402-0.524-0.449-0.977-0.289-1.572
			c0.634-2.358,1.512-4.615,2.703-6.747c0.554-0.991,1.134-1.967,1.697-2.953c0.072-0.127,0.112-0.272,0.205-0.503
			c-0.315-0.199-0.612-0.386-1.044-0.659c0.985-1.073,1.951-2.125,2.944-3.207c0.5,0.431,0.96,0.707,1.476,0.311
			c0.598-0.459,1.447-0.737,1.411-1.804c-0.317-0.041-0.599-0.077-1.011-0.131c0.596-0.545,1.115-1.019,1.631-1.491
			c0.893,0.886,0.938,0.906,1.976,0.303c1.706-0.99,3.329-2.153,5.114-2.965c2.23-1.015,4.57-1.725,7.06-2.018
			c2.182-0.257,4.31-0.011,6.462,0.072c0.484,0.019,2.98,0.306,3.268,1.205c4.064-0.926,2.995-4.189,3.608-6.115
			c0.117-0.367-1.878-0.868-1.777-1.283c-2.119-0.868-8.841-1.282-10.624-1.228c-1.851,0.056-3.709,0.255-5.537,0.552
			c-1.228,0.2-2.429,0.629-3.611,1.044c-2.111,0.742-4.286,1.352-6.092,2.776c-0.832,0.656-1.676,1.299-2.547,1.901
			c-2.979,2.059-5.789,4.311-8.213,7.017c-0.177,0.197-0.393,0.388-0.485,0.623c-0.069,0.174-0.025,0.452,0.077,0.615
			c0.067,0.107,0.333,0.141,0.501,0.122c0.222-0.025,0.443-0.113,0.647-0.21c0.184-0.088,0.346-0.224,0.517-0.339
			c0.035,0.043,0.069,0.085,0.104,0.128c-0.729,0.82-1.458,1.641-2.187,2.461l0.042-0.039c-0.691,0.952-1.482,1.849-2.049,2.87
			c-0.844,1.521-1.835,2.979-2.335,4.675C217.048,185.04,219.391,187.21,221.597,189.476z M236.168,162.007
			c2.573-1.011,5.208-1.818,7.966-2.111c1.309-0.139,2.634-0.136,3.952-0.194c0.246-0.011,0.492-0.002,0.738-0.002
			c-0.513,0.466-1.114,0.41-1.701,0.417c-2.547,0.033-5.053,0.396-7.491,1.116c-1.044,0.308-2.019,0.84-3.038,1.241
			c-0.374,0.147-0.783,0.207-1.176,0.306l-0.115-0.23C235.591,162.367,235.857,162.13,236.168,162.007z"/>
		<path style="fill:#FFFFFF;" d="M273.798,198.679c-0.013,0.046-0.281,1.614-0.297,1.661c-0.429,1.209-0.738,2.442-1.462,3.557
			c-0.865,1.331-1.448,2.843-2.291,4.191c-1.774,2.839-4.03,5.212-6.966,6.909c-1.674,0.967-3.29,2.035-4.917,3.082
			c-0.409,0.263-0.781,0.599-1.118,0.951c-0.125,0.131-0.195,0.451-0.119,0.596c0.063,0.12,0.377,0.149,0.578,0.146
			c0.21-0.003,0.418-0.092,0.814-0.189c-2.198,1.646-8.536,2.939-10.801,2.245c0.912-0.402,2.041-0.016,2.799-1.064
			c-0.489-0.14-0.867-0.283-1.259-0.349c-0.334-0.056-0.691-0.074-1.024-0.022c-2.165,0.338-4.324-0.016-6.482-0.074
			c-0.924-0.025-1.885-0.309-2.745-0.675c-1.212-0.516-5.658-2.398-6.371-2.885c-1.592-1.087-4.184-2.974-5.317-4.513
			c-0.45,3.222-1.218,4.646-1.376,7.921c1.376,2.065,5.24,3.571,6.554,4.2c1.331,0.636,2.676,1.276,4.076,1.727
			c1.62,0.523,3.292,0.913,4.967,1.226c1.296,0.242,2.632,0.276,3.949,0.403c0.227,0.022,0.453,0.055,0.681,0.065
			c1.593,0.07,3.204,0.315,4.775,0.159c2.363-0.234,4.751-0.268,7.053-1.161c1.545-0.599,3.146-1.038,4.669-1.758
			c3.771-1.783,7.02-4.253,9.813-7.3c1.3-1.418,2.378-3.051,3.467-4.648c0.789-1.157,1.427-2.417,2.142-3.625
			c0.056-0.095,0.122-0.184,0.203-0.287c-0.011-0.232,0.113-0.463,0.331-0.559c0.004-0.222,0.134-0.401,0.317-0.493
			c-0.017-0.17,0.553-1.78,0.689-1.942C277.557,203.667,275.411,201.229,273.798,198.679z M242.113,221.874
			c-0.004-0.089-0.008-0.177-0.011-0.266h0.685c0.006,0.061,0.013,0.123,0.019,0.184
			C242.575,221.819,242.344,221.847,242.113,221.874z M246.216,222.247c-0.714-0.057-1.428-0.114-2.142-0.172
			c0.006-0.091,0.012-0.182,0.018-0.273c0.72-0.034,1.43,0.095,2.144,0.153L246.216,222.247z M258.729,219.149
			c1.014-0.559,2.028-1.118,3.042-1.677C261.031,218.544,259.903,218.89,258.729,219.149z M272.831,213.646
			c-0.971,1.256-2.078,2.408-3.133,3.6c-0.603,0.682-1.212,1.359-1.833,2.024c-0.166,0.177-0.387,0.303-0.637,0.495
			c0-0.178-0.028-0.267,0.005-0.316c0.19-0.282,0.358-0.592,0.598-0.826c2.721-2.643,4.901-5.717,7.019-8.85
			C274.453,211.22,273.721,212.494,272.831,213.646z"/>
	</g>
	<g>
		<path style="fill:#FFFFFF;" d="M248.374,219.002c-0.417,0.511-0.848,0.662-1.464,0.643c-2.44-0.074-4.839-0.409-7.188-1.077
			c-1.092-0.31-2.176-0.651-3.265-0.972c-0.14-0.041-0.29-0.047-0.536-0.084c-0.121,0.352-0.235,0.684-0.401,1.168
			c-1.271-0.712-2.517-1.409-3.799-2.126c0.304-0.585,0.467-1.097-0.037-1.508c-0.584-0.477-1.051-1.239-2.08-0.958
			c0.033,0.318,0.062,0.6,0.106,1.014c-0.668-0.455-1.249-0.851-1.826-1.244c0.656-1.073,0.665-1.121-0.16-1.993
			c-1.356-1.432-2.862-2.744-4.063-4.294c-0.859-1.108-1.617-2.283-2.279-3.519c-0.513,2.222-1.419,4.285-2.752,5.976
			c0.079,0.108,0.161,0.215,0.238,0.325c0.229,0.331,0.381,0.715,0.569,1.074l-0.197,0.165c-0.245-0.237-0.537-0.441-0.728-0.716
			c-0.088-0.127-0.169-0.259-0.256-0.387c-0.357,0.41-0.745,0.792-1.159,1.148c0.952,1.508,1.938,2.994,3.372,4.132
			c0.83,0.658,1.65,1.332,2.436,2.041c2.69,2.424,5.528,4.641,8.72,6.377c0.233,0.127,0.468,0.293,0.718,0.329
			c0.186,0.027,0.445-0.079,0.581-0.217c0.089-0.09,0.06-0.357,0.004-0.516c-0.075-0.21-0.212-0.405-0.354-0.582
			c-0.128-0.159-0.297-0.285-0.449-0.425c0.033-0.044,0.067-0.087,0.1-0.131c0.966,0.52,1.932,1.041,2.898,1.561l-0.047-0.032
			c1.086,0.453,2.14,1.017,3.265,1.333c1.674,0.471,3.321,1.1,5.087,1.196c1.9-2.525,3.472-5.305,5.169-7.974
			C248.523,218.822,248.448,218.911,248.374,219.002z"/>
		<path style="fill:#FFFFFF;" d="M267.912,174.65c-0.441-0.487-0.882-0.973-1.323-1.46c0.606,0.236,1.057,0.608,1.423,1.056
			c0.523-1.9,1.761-3.723,3.836-5.45c-2.167-2.223-4.633-4.078-7.361-5.603c-1.679-0.939-3.517-1.612-5.321-2.304
			c-1.308-0.501-2.68-0.832-4.021-1.249c-0.105-0.033-0.207-0.077-0.326-0.132c-0.223,0.064-0.476-0.004-0.62-0.193
			c-0.217,0.047-0.421-0.038-0.553-0.195c-0.162,0.056-1.859-0.128-2.048-0.223c-2.077,2.111-3.955,4.761-6.066,6.917
			c0.048,0.002,1.635-0.099,1.685-0.093c1.275,0.139,2.547,0.155,3.798,0.603c1.495,0.535,3.1,0.755,4.606,1.264
			c3.171,1.073,6,2.721,8.327,5.188c1.214,1.286,2.498,2.506,3.776,3.732C267.716,175.881,267.778,175.262,267.912,174.65z
			 M256.086,162.237c1.5,0.053,2.908,0.471,4.234,1.073c1.446,0.656,2.822,1.468,4.225,2.22c0.802,0.43,1.601,0.866,2.391,1.318
			c0.211,0.12,0.384,0.307,0.628,0.506c-0.173,0.041-0.254,0.089-0.309,0.068c-0.319-0.12-0.659-0.212-0.941-0.392
			C263.115,164.99,259.623,163.576,256.086,162.237z"/>
		<path style="fill:#FFFFFF;" d="M279.912,201.561c-3.205-3.604-4.573-7.958-6.375-12.154c0.188,1.03,0.334,2.069,0.547,3.092
			c0.189,0.905,0.134,1.906-0.024,2.826c-0.223,1.298-1.031,6.058-1.34,6.865c-0.692,1.8-1.931,4.756-3.167,6.214
			c3.238-0.304,4.801,0.115,8.025-0.485c1.382-1.481,2.019-4.488,2.375-6.317C279.939,201.587,279.925,201.576,279.912,201.561z"/>
	</g>
	<path style="fill:#FFFFFF;" d="M335.588,170.15c-0.049-0.414-0.119-0.827-0.19-1.238c-0.318-1.841-0.753-3.623-2.424-4.782
		c-0.185-0.129-0.316-0.339-0.505-0.459c-0.474-0.302-0.949-0.61-1.455-0.852c-2.069-0.987-4.336-1.186-6.55-1.312
		c-2.686-0.152-5.395,0.018-8.09,0.133c-2.123,0.09-4.238,0.378-6.361,0.446c-2.35,0.075-4.705-0.02-7.057-0.004
		c-2.354,0.016-4.708,0.084-7.062,0.114c-1.06,0.014-2.12-0.021-3.18-0.014c-1.709,0.01-3.417,0.019-5.125,0.059
		c-2.196,0.051-4.392,0.104-6.585,0.206c-1.973,0.092-3.947,0.205-5.913,0.39c-3.055,0.286-6.039,0.863-8.484,2.911
		c-0.686,0.575-1.251,1.304-1.818,2.005c-0.108,0.133-0.046,0.554,0.09,0.692c0.144,0.146,0.481,0.177,0.713,0.136
		c0.203-0.035,0.389-0.225,0.562-0.371c0.552-0.465,1.076-0.963,1.644-1.406c0.752-0.587,1.608-0.957,2.563-1.092
		c-0.549,0.495-1.156,0.873-1.762,1.251c-2.101,1.308-3.81,2.837-3.248,5.674c0.027,0.136-0.06,0.295-0.095,0.444
		c-0.242-0.201-0.336-0.396-0.35-0.596c-0.043-0.645-0.049-1.291-0.083-1.937c-0.019-0.364,0.084-0.81-0.434-0.93
		c-0.492-0.115-0.801,0.197-1.028,0.558c-0.193,0.306-0.308,0.661-0.374,0.807c-0.031-0.001-0.061-0.003-0.092-0.004
		c-0.635,2.595,0.16,5.107,1.289,7.497c0.608,0.275,1.082,0.764,1.489,1.512c1.65,3.03,3.503,5.948,5.245,8.929
		c0.92,1.574,1.78,3.183,2.663,4.779c0.219,0.396,0.386,0.838,0.929,0.885c0.462-0.257,0.368-0.646,0.226-0.999
		c-0.326-0.809-0.631-1.634-1.049-2.395c-0.732-1.33-1.556-2.609-2.315-3.924c-0.293-0.507-0.516-1.055-0.77-1.584
		c0.065-0.038,0.13-0.075,0.195-0.113c0.149,0.141,0.332,0.259,0.441,0.426c3.173,4.847,5.689,10.064,8.487,15.141
		c-0.271-0.177-0.543-0.353-0.833-0.542c-0.484,0.397-0.252,0.763-0.049,1.123c0.783,1.39,1.537,2.797,2.362,4.162
		c1.062,1.755,2.177,3.478,3.28,5.207c0.303,0.476,0.398,0.954,0.248,1.486c1.612,2.55,3.497,4.908,5.073,7.415
		c0.049-0.059,0.108-0.117,0.18-0.174c1.756,1.886,3.514,3.774,5.272,5.661c-0.045,0.072-0.091,0.144-0.136,0.216
		c-0.074-0.034-0.152-0.063-0.229-0.093c0.204,0.248,0.408,0.494,0.623,0.724c0.005,0.003,0.01,0.006,0.014,0.008
		c1.841,0.92,3.56,2.054,5.805,1.948c2.967-0.141,5.589-0.786,7.886-2.896c2.199-2.019,3.761-4.397,4.852-7.078
		c0.779-1.917,2.404-3.389,2.74-5.506c0.006-0.035,0.036-0.066,0.056-0.099c0.582-0.937,1.171-1.869,1.744-2.81
		c1.108-1.82,1.933-3.761,2.507-5.816c0.214-0.765,0.472-1.527,0.801-2.249c1.055-2.315,2.145-4.615,3.238-6.913
		c0.571-1.2,1.143-2.402,1.772-3.571c1.025-1.905,2.103-3.782,3.144-5.679c0.123-0.224,0.152-0.501,0.217-0.756
		c0.083-0.325,0.134-0.66,0.239-0.978c0.883-2.679,2.118-5.198,3.457-7.674c0.299-0.552,0.399-1.211,0.596-1.819
		c0.056-0.173,0.092-0.371,0.202-0.504C335.715,172.803,335.748,171.497,335.588,170.15z M306.46,167.34
		c0.007,0.073,0.013,0.145,0.02,0.218h-1.106c-0.014-0.044-0.028-0.088-0.043-0.131C305.707,167.398,306.083,167.369,306.46,167.34z
		 M277.459,163.984c3.721-0.109,7.444-0.156,11.166-0.219c0.07-0.001,0.141,0.049,0.211,0.075c-2.185,0.431-4.401,0.384-6.611,0.482
		c-2.187,0.097-4.356,0.6-6.792,0.191C276.241,164.295,276.846,164.002,277.459,163.984z M296.059,218.742
		c-0.75-0.526-4.091-5.646-5.266-8.129c0.347,0.236,0.6,0.323,0.714,0.499c1.032,1.592,2.041,3.198,3.052,4.803
		c0.561,0.89,1.114,1.784,1.671,2.676L296.059,218.742z M326.443,174.547c-0.208,0.401-0.297,0.862-0.488,1.274
		c-0.38,0.82-0.786,1.628-1.195,2.434c-0.172,0.338-0.397,0.649-0.564,0.99c-1.171,2.388-2.368,4.764-3.49,7.174
		c-1.281,2.754-2.469,5.551-3.743,8.309c-0.86,1.862-1.834,3.671-2.697,5.532c-1.757,3.792-3.46,7.609-5.213,11.403
		c-0.733,1.586-1.503,3.158-2.316,4.705c-1.041,1.981-2.669,3.204-4.931,3.399c-0.568,0.049-1.213-0.126-1.738-0.376
		c-1.043-0.497-1.871-1.274-2.487-2.279c-1.508-2.46-3.023-4.915-4.573-7.348c-0.732-1.149-1.573-2.228-2.319-3.369
		c-0.957-1.462-1.904-2.932-2.788-4.439c-0.922-1.57-1.697-3.227-2.657-4.772c-1.139-1.833-2.423-3.576-3.615-5.378
		c-1.069-1.615-2.103-3.252-3.143-4.886c-1.957-3.075-3.805-6.21-5.422-9.482c-0.52-1.052-1.167-2.042-1.793-3.038
		c-0.174-0.277-0.493-0.46-0.72-0.708c-0.166-0.181-0.292-0.399-0.574-0.794c1.239-0.059,1.913-0.731,2.523-1.366
		c0.57-0.595,1.242-0.938,1.963-1.069c1.809-0.33,3.584-0.821,5.459-0.849c3.909-0.059,7.815-0.271,11.723-0.389
		c3.109-0.094,6.219-0.143,9.329-0.211c1.009-0.022,1.271-0.27,1.366-1.346h1.458c0.096,0.312,0.1,0.751,0.308,0.895
		c0.272,0.189,0.708,0.204,1.07,0.193c3.032-0.093,6.062-0.239,9.095-0.308c1.594-0.036,3.191,0.042,4.786,0.088
		c0.532,0.015,0.969-0.067,1.194-0.823c-4.162-0.186-8.263,0.075-12.339-0.269c2.468-0.441,12.006-0.541,15.256-0.231
		c0.204,0.919,0.852,1.274,1.787,1.374c0.996,0.107,2.246,1.816,2.188,2.874C327.084,172.526,326.947,173.574,326.443,174.547z"/>
	<g>
		<path style="fill:#FFFFFF;" d="M127.242,177.059c0.647-0.197,1.14-0.317,1.607-0.501c0.221-0.087,0.456-0.261,0.575-0.46
			c0.314-0.526,0.78-0.744,1.34-0.685c0.618,0.065,0.858,0.578,1.016,1.101c0.12,0.399,0.168,0.819,0.289,1.217
			c0.084,0.276,0.168,0.64,0.375,0.773c0.663,0.425,0.671,1.045,0.675,1.704c0.013,2.314,0.029,4.628,0.062,6.942
			c0.008,0.602,0.08,1.204,0.129,1.898c1.688,0.268,3.282-0.087,5.044-0.149c0.013-0.715,0.047-1.346,0.033-1.976
			c-0.052-2.393-0.064-4.781,0.488-7.135c0.139-0.593,0.189-1.206,0.307-1.804c0.031-0.157,0.074-0.312,0.127-0.463
			c0.615-1.753,1.354-2.095,2.533-1.075c0.468-0.185,0.946-0.395,1.437-0.564c0.888-0.305,0.95-0.196,1.694,0.755
			c0.678,0.866,1.115,1.897,1.261,2.987c0.266,1.988,0.52,3.983,0.641,5.983c0.184,3.036,0.245,6.08,0.365,9.12
			c0.115,2.923,0.25,5.846,0.349,8.77c0.033,0.99,0.011,1.965-0.843,2.73c-0.22,0.197-0.164,0.707-0.227,1.074
			c-0.108,0.632-0.118,1.299-0.334,1.891c-0.409,1.118-1.259,1.42-2.383,0.997c-0.384-0.145-0.798-0.326-1.19-0.309
			c-0.772,0.035-1.288-0.357-1.542-0.958c-0.396-0.935-0.784-1.917-0.911-2.913c-0.29-2.26-0.418-4.54-0.614-6.812
			c-0.051-0.597-0.108-1.194-0.166-1.835c-1.74-0.309-3.385-0.354-5.186-0.037c-0.099,1.414-0.201,2.803-0.292,4.193
			c-0.035,0.531-0.022,1.066-0.072,1.596c-0.09,0.952-0.325,1.068-1.236,0.668c-0.059-0.026-0.14-0.003-0.286-0.003
			c-0.239,1.101-0.319,2.219-0.258,3.353c0.033,0.606,0.039,1.215,0.033,1.823c-0.008,0.765-0.373,1.328-1.094,1.576
			c-0.729,0.251-1.324-0.132-1.855-0.577c-0.165-0.138-0.248-0.373-0.418-0.642c-0.592,0.336-1.211,0.625-1.876,0.179
			c-0.923-0.619-1.121-1.595-1.304-2.738c-0.229-1.433-0.282-2.887-0.211-4.337c0.072-1.477,0.012-2.961,0.012-4.461
			c-1.357-0.45-2.597-0.318-3.833-0.17c-0.426,0.051-0.512,0.413-0.539,0.767c-0.093,1.212-0.206,2.424-0.253,3.639
			c-0.086,2.239-0.125,4.48-0.201,6.719c-0.011,0.312-0.098,0.636-0.217,0.925c-0.257,0.622-0.873,0.728-1.315,0.22
			c-0.213-0.245-0.345-0.552-0.512-0.838c-0.609-0.042-0.742,0.344-0.791,0.78c-0.074,0.649-0.39,1.162-0.898,1.565
			c-0.451,0.358-1.108,0.258-1.425-0.223c-0.272-0.413-0.469-0.907-0.574-1.394c-0.114-0.529-0.32-0.939-0.832-1.131
			c-0.823-0.309-1.067-0.981-1.247-1.764c-0.594-2.592-0.39-5.223-0.455-7.841c-0.115-4.597,0.005-9.198-0.389-13.791
			c-0.142-1.654,0.062-3.342,0.171-5.011c0.042-0.633,0.301-1.236,0.777-1.783c0.396,0.264,0.729,0.486,1.089,0.727
			c0.519-0.387,0.444-0.968,0.535-1.463c0.137-0.741,0.435-1.362,1.015-1.859c0.414-0.356,0.794-0.321,1.055,0.111
			c0.427,0.706,1.002,1.212,1.697,1.644c0.248,0.154,0.406,0.55,0.48,0.865c0.192,0.811,0.372,1.634,0.453,2.462
			c0.217,2.23,0.37,4.467,0.568,6.699c0.144,1.614-0.11,1.982,2.012,1.772c0.712-0.07,1.442,0.066,2.164,0.078
			c0.94,0.015,1.172-0.183,1.164-1.118c-0.011-1.366-0.192-2.738-0.11-4.096c0.133-2.196,0.392-4.386,0.658-6.571
			C125.706,176.862,126.256,176.679,127.242,177.059z M145.074,198c0.01,0.012,0.02,0.024,0.031,0.035
			c0-0.783-0.02-1.568,0.005-2.35c0.034-1.052,0.013-2.118,0.182-3.151c0.163-0.997,0.228-3.052-0.218-4.138
			C145.074,191.598,145.074,194.799,145.074,198z M117.958,190.031c0.21-1.042,0.247-2.081,0.065-3.119
			c-0.144-0.819-0.29-1.626-0.104-2.469c0.091-0.411,0.016-0.859,0.016-1.291c-0.087,0.002-0.173,0.004-0.26,0.006
			C117.398,185.454,117.691,187.744,117.958,190.031z"/>
		<path style="fill:#FFFFFF;" d="M133.173,204.345c0.33,0.601,0.703,0.973,0.712,1.353c0.028,1.217,0.11,2.464-0.338,3.627
			c-0.618-0.035-0.821-0.398-0.826-0.771c-0.017-1.173,0.032-2.348,0.074-3.521C132.799,204.905,132.928,204.78,133.173,204.345z"/>
		<path style="fill:#FFFFFF;" d="M134.974,198.464c0.219,3.214,0.289,6.428,0.044,9.641c-0.097,0-0.195,0-0.292,0.001
			c0-3.218,0-6.436,0-9.654C134.809,198.456,134.892,198.46,134.974,198.464z"/>
		<path style="fill:#FFFFFF;" d="M120.267,182.326c0.185,2.069,0.347,3.86,0.494,5.653c0.004,0.047-0.166,0.109-0.342,0.218
			c-0.459-1.774-0.383-3.541-0.516-5.282C119.895,182.808,120.036,182.691,120.267,182.326z"/>
		<path style="fill:#FFFFFF;" d="M127.817,174.996c0.009,0.508-0.336,0.899-0.871,0.875c-0.449-0.02-0.699-0.275-0.704-0.723
			c-0.005-0.482,0.491-1.013,0.913-0.989C127.617,174.185,127.817,174.464,127.817,174.996z"/>
		<path style="fill:#FFFFFF;" d="M118.622,175.328c0.005,0.445-0.33,0.847-0.722,0.867c-0.42,0.021-0.861-0.425-0.843-0.879
			c0.018-0.451,0.286-0.673,0.724-0.696C118.257,174.594,118.617,174.902,118.622,175.328z"/>
		<path style="fill:#FFFFFF;" d="M133.142,212.263c-0.067-0.18-0.117-0.251-0.114-0.319c0.013-0.331-0.065-0.741,0.382-0.829
			c0.118-0.023,0.403,0.228,0.419,0.375C133.878,211.928,133.781,212.332,133.142,212.263z"/>
	</g>
	<g>
		<path style="fill:#FFFFFF;" d="M230.54,191.477c0.157-0.764,0.333-1.524,0.466-2.292c0.387-2.232,1.146-4.309,2.459-6.172
			c0.396-0.562,0.777-1.117,0.241-1.855c-0.314-0.432-0.018-0.849,0.305-1.218c0.995-1.139,2.222-1.934,3.569-2.597
			c2.483-1.224,5.14-1.897,7.845-2.248c3.174-0.412,6.374-0.405,9.444,0.76c1.581,0.6,2.976,1.509,4.129,2.755
			c0.575,0.622,0.839,1.39,0.595,2.211c-0.141,0.475-0.045,0.761,0.251,1.121c0.84,1.02,0.468,2.593-0.73,3.114
			c-0.4,0.174-0.695,0.328-0.867,0.793c-0.103,0.279-0.55,0.587-0.856,0.602c-0.745,0.036-1.549,0.054-2.238-0.183
			c-1.352-0.466-2.7-1.008-3.94-1.712c-1.047-0.594-2.17-0.856-3.284-1.19c-0.311-0.093-0.671-0.035-1.007-0.021
			c-0.225,0.009-0.456,0.12-0.67,0.088c-2.837-0.433-4.898,0.924-6.662,2.908c-1.688,1.899-2.488,4.162-2.362,6.688
			c0.062,1.251,0.595,2.404,1.182,3.523c0.554,1.056,1.303,1.924,2.096,2.801c0.75,0.829,1.584,1.405,2.641,1.684
			c1.987,0.524,3.971,0.943,6.067,0.783c1.775-0.135,3.311-0.781,4.766-1.714c1.019-0.653,2.008-1.352,3.023-2.012
			c0.316-0.205,0.657-0.434,1.013-0.495c0.332-0.056,0.836-0.023,1.02,0.186c0.321,0.365,0.07,0.782-0.299,1.064
			c-0.211,0.162-0.443,0.296-0.647,0.466c-0.135,0.113-0.236,0.268-0.425,0.489c0.623,0.196,1.023-0.094,1.457-0.261
			c0.632-0.243,1.267-0.519,1.926-0.638c0.96-0.174,1.52,0.52,1.22,1.454c-0.125,0.389-0.364,0.742-0.576,1.161
			c0.281,0.432,0.814,0.692,0.728,1.409c-0.088,0.733-0.235,1.284-0.879,1.719c-0.588,0.398-1.07,0.892-1.285,1.664
			c-0.129,0.465-0.566,0.937-0.99,1.213c-2.836,1.847-5.855,3.234-9.314,3.366c-0.566,0.021-1.138-0.019-1.703-0.077
			c-0.405-0.042-0.845-0.063-1.033-0.562c-0.044-0.118-0.214-0.229-0.348-0.266c-0.898-0.249-1.802-0.477-2.868-0.755
			c0.534,1.036,2.125,0.515,2.097,1.96c-0.334,0.449-0.843,0.445-1.381,0.325c-2.049-0.455-4.011-1.138-5.815-2.236
			c-0.519-0.316-1.084-0.566-1.571-0.924c-0.736-0.54-1.458-1.13-1.127-2.358c2.121,1.421,4.233,2.723,6.969,3.202
			c-0.336-0.205-0.481-0.334-0.65-0.391c-1.925-0.643-3.682-1.627-5.253-2.877c-1.514-1.205-2.834-2.629-3.894-4.274
			c-0.41-0.637-0.865-1.25-1.337-1.842c-0.274-0.344-0.626-0.626-1.137-1.127c0.06,1.056,0.35,1.745,0.807,2.321
			c0.801,1.01,1.694,1.946,2.518,2.937c0.45,0.541,0.837,1.134,1.205,1.637c-0.322,0.649-0.7,0.553-1.046,0.363
			c-0.364-0.199-0.753-0.407-1.027-0.706c-1.254-1.37-2.607-2.668-3.371-4.417c-0.364-0.833-0.815-1.631-1.135-2.479
			c-0.89-2.355-1.244-4.781-0.632-7.262c0.16-0.649,0.513-1.255,0.816-1.861c0.166-0.333,0.46-0.498,0.857-0.344
			c0.357,0.139,0.571,0.38,0.546,0.774c-0.037,0.598-0.092,1.194-0.139,1.792C230.379,191.453,230.46,191.465,230.54,191.477z
			 M256.029,204.45c1.535,0.134,2.938-0.581,3.406-1.584C258.228,203.427,257.129,203.939,256.029,204.45z M257.672,180.515
			c-0.124-0.023-0.248-0.046-0.372-0.07c-0.032,0.21-0.063,0.42-0.095,0.63c0.133,0.019,0.266,0.037,0.4,0.056
			C257.628,180.926,257.65,180.721,257.672,180.515z"/>
		<path style="fill:#9C1C1F;" d="M241.309,185.929c-1.377,1.069-2.107,2.581-2.551,4.17c-0.44,1.575-0.818,3.223-0.026,5.07
			c-0.832-0.655-1.007-1.711-0.769-3.362c0.168-1.165,0.482-2.262,0.996-3.348C239.487,187.341,240.253,186.544,241.309,185.929z"/>
		<path style="fill:#FFFFFF;" d="M230.446,185.696c0.305-1.637,0.746-2.874,2.005-3.708c0.592,0.435,0.506,0.938,0.237,1.353
			c-0.468,0.723-1.019,1.394-1.553,2.073C231.06,185.51,230.881,185.524,230.446,185.696z"/>
		<path style="fill:#FFFFFF;" d="M264.639,199.659c0.488,0.026,0.823,0.394,0.812,0.89c-0.011,0.495-0.659,1.023-1.182,0.964
			c-0.367-0.042-0.768-0.56-0.765-0.988C263.508,200.081,264.099,199.63,264.639,199.659z"/>
		<path style="fill:#FFFFFF;" d="M259.719,196.953c-0.139-0.162-0.287-0.26-0.279-0.343c0.01-0.11,0.129-0.27,0.227-0.292
			c0.08-0.018,0.268,0.123,0.282,0.213C259.965,196.63,259.837,196.752,259.719,196.953z"/>
	</g>
	<path style="fill:#FFFFFF;" d="M298.63,202.72c0.064,1.034,0.149,2.067,0.186,3.101c0.021,0.602-0.01,1.209-0.069,1.809
		c-0.019,0.197-0.199,0.379-0.304,0.566c-0.666-0.064-0.889-0.525-1.009-1c-0.176-0.697-0.33-1.411-0.38-2.126
		c-0.087-1.249-0.069-2.506-0.132-3.758c-0.044-0.871-0.18-1.738-0.222-2.609c-0.092-1.896-0.165-3.793-0.219-5.69
		c-0.064-2.277-0.095-4.555-0.152-6.833c-0.03-1.195-0.152-1.32-1.306-1.335c-0.911-0.011-1.823,0.022-2.735,0.022
		c-0.766,0.001-1.485-0.116-2.188-0.507c-0.476-0.265-1.084-0.344-1.642-0.395c-0.626-0.057-1.067-0.335-1.432-0.812
		c-0.72-0.939-0.543-1.653,0.537-2.129c0.099-0.044,0.188-0.112,0.357-0.216c-0.341-0.128-0.622-0.21-0.883-0.336
		c-0.791-0.382-0.922-1.288-0.244-1.855c1.514-1.264,3.171-2.055,5.232-2.166c3.877-0.209,7.744-0.139,11.616,0
		c2.656,0.095,5.312,0.194,7.967,0.318c0.407,0.019,0.82,0.148,1.206,0.292c0.344,0.129,0.608,0.44,0.433,0.803
		c-0.1,0.207-0.435,0.352-0.691,0.419c-0.318,0.083-0.666,0.055-1.036,0.263c0.292,0.071,0.587,0.132,0.874,0.218
		c0.324,0.097,0.706,0.142,0.945,0.347c0.293,0.252,0.623,0.635,0.648,0.981c0.031,0.438-0.281,0.841-0.785,1.005
		c-0.272,0.089-0.519,0.252-0.869,0.428c0.31,0.363,0.547,0.641,0.766,0.898c-0.419,1.798-0.802,2.133-2.605,2.217
		c-1.252,0.058-2.507,0.069-3.76,0.112c-0.411,0.014-0.822,0.06-1.324,0.099c-0.076,0.827-0.206,1.608-0.208,2.389
		c-0.005,2.16,0.01,4.322,0.08,6.481c0.111,3.418,0.288,6.833,0.403,10.251c0.034,1.017,0.051,2.052-0.092,3.055
		c-0.275,1.926-1.336,2.498-3.146,1.753c-0.166,0.274-0.31,0.58-0.515,0.836c-0.508,0.632-0.955,0.654-1.515,0.087
		c-0.581-0.586-0.931-1.305-1.007-2.119c-0.11-1.172-0.139-2.351-0.241-3.524c-0.04-0.464-0.184-0.919-0.281-1.378
		C298.802,202.694,298.716,202.707,298.63,202.72z M296.698,182.853c-1.311-0.456-2.973-0.405-4.164,0.153
		C293.995,183.226,295.307,183.261,296.698,182.853z M310.052,178.599c0.015-0.113,0.029-0.226,0.044-0.339
		c-0.58-0.044-1.16-0.09-1.74-0.133c-0.602-0.044-1.205-0.127-1.806-0.114c-0.541,0.012-1.135-0.292-1.639,0.055
		c0.004,0.102,0.008,0.203,0.012,0.305C306.633,178.449,308.343,178.524,310.052,178.599z M303.568,188.477
		c-0.082,0.01-0.165,0.019-0.247,0.029c0,0.679,0.011,1.359-0.003,2.038c-0.014,0.682-0.019,1.366-0.086,2.043
		c-0.133,1.328-0.15,1.326,0.337,1.944C303.568,192.429,303.568,190.453,303.568,188.477z M303.713,198.936
		c-0.076,0.003-0.152,0.006-0.228,0.009c0.026,0.4,0.053,0.8,0.079,1.2c0.05-0.003,0.099-0.005,0.149-0.008
		C303.713,199.737,303.713,199.337,303.713,198.936z"/>
	<g>
		<path style="fill:#FFFFFF;" d="M56.42,201.9c0.186-0.33,0.428-0.642,0.54-0.995c0.096-0.301,0.184-0.822,0.032-0.946
			c-0.671-0.546-0.397-1.133-0.109-1.636c1.018-1.778,2.117-3.51,3.152-5.28c1.092-1.867,2.198-3.728,3.201-5.643
			c1.462-2.791,2.908-5.587,4.812-8.111c0.286-0.379,0.723-0.644,1.168-1.029c-0.423-0.55-0.247-1.133,0.344-1.516
			c0.703-0.456,1.339-1.084,2.377-0.641c0.991,0.423,1.513,1.198,2.051,2.022c0.56,0.858,1.169,1.684,1.709,2.554
			c1.041,1.678,2.065,3.366,3.054,5.075c0.198,0.342,0.165,0.811,0.313,1.192c0.173,0.445,0.318,1.045,0.667,1.25
			c1.385,0.816,2.147,2.145,2.939,3.416c1.407,2.256,2.655,4.61,4.03,6.886c0.547,0.906,1.237,1.729,1.903,2.556
			c0.136,0.169,0.451,0.246,0.692,0.269c0.716,0.066,1.438,0.073,2.156,0.123c0.954,0.066,1.846,0.515,2.017,1.405
			c0.187,0.979,0.5,1.862,0.83,2.788c0.402,1.129-0.552,2.368-1.705,2.852c-1.582,0.664-3.266,0.723-4.917,0.853
			c-3.364,0.266-6.741,0.368-10.112,0.553c-2.198,0.121-4.393,0.348-6.592,0.383c-2.694,0.043-5.389-0.083-8.085-0.1
			c-1.401-0.009-2.802,0.066-4.204,0.088c-0.759,0.012-1.52-0.043-2.277-0.006c-0.866,0.042-1.727,0.182-2.593,0.214
			c-0.26,0.009-0.634-0.13-0.77-0.328c-0.316-0.463-0.753-0.606-1.243-0.715c-1.097-0.242-1.619-0.71-1.728-1.667
			c-0.128-1.124,0.018-1.845,1.098-2.223c0.063-0.022,0.105-0.103,0.157-0.158c-0.844-1.316-0.497-2.137,1.097-2.449
			c0.966-0.189,1.949-0.301,2.928-0.417c0.479-0.057,0.897-0.165,1.103-0.657L56.42,201.9z M71.497,188.969
			c-1.663,1.999-2.732,4.177-3.841,6.301c-1.117,2.138-2.599,4.117-3.273,6.534c0.271,0.05,0.382,0.094,0.49,0.087
			c4.204-0.241,8.406-0.51,12.622-0.424c0.354,0.007,0.711-0.119,1.225-0.211c-0.236-0.513-0.377-0.894-0.578-1.241
			c-0.475-0.82-1.001-1.61-1.465-2.435c-0.793-1.411-1.542-2.846-2.331-4.259c-0.645-1.156-1.306-2.304-1.99-3.437
			C72.185,189.602,71.899,189.391,71.497,188.969z M76.78,208.144l-0.056,0.384c1.084-0.087,2.169-0.173,3.253-0.26v0
			C78.052,208.193,78.705,208.219,76.78,208.144z M81.466,207.838c1.425,0.317,2.303,0.231,3.074-0.245
			C83.375,207.686,82.42,207.762,81.466,207.838z M54.109,207.708c0.765,0.394,1.369,0.374,2.1,0.195
			C55.255,207.393,55.041,207.367,54.109,207.708z M67.225,190.768c0.069,0.039,0.137,0.078,0.206,0.117
			c0.535-0.518,0.866-1.146,0.871-1.956C67.942,189.542,67.583,190.155,67.225,190.768z M82.312,194.229
			c-0.052-0.463-0.123-0.945-0.665-1.099C81.868,193.496,82.09,193.862,82.312,194.229z M85.399,207.615l-0.023,0.185l1.081-0.087
			l0-0.035C85.795,207.638,86.062,207.654,85.399,207.615z M84.033,197.037c0.062-0.034,0.125-0.068,0.187-0.102
			c-0.108-0.17-0.216-0.339-0.324-0.509c-0.048,0.028-0.095,0.057-0.143,0.085C83.846,196.687,83.939,196.862,84.033,197.037z"/>
		<path style="fill:#FFFFFF;" d="M76.768,199.82c-0.216-0.192-0.443-0.322-0.567-0.517c-1.216-1.915-2.412-3.842-3.619-5.763
			c-0.242-0.385-0.523-0.746-0.75-1.139c-0.211-0.367-0.232-0.714,0.341-0.917c0.391,0.745,0.724,1.5,1.16,2.189
			c1.055,1.666,2.164,3.298,3.239,4.952C76.783,198.945,77.145,199.261,76.768,199.82z"/>
	</g>
	<g>
		<path style="fill:#FFFFFF;" d="M221.837,193.537c-0.047-1.311-0.032-2.625-0.041-3.985c0.146,0.018,0.417,0.052,0.863,0.108
			c-0.031-0.6,0.024-1.127-0.098-1.611c-0.493-1.951-1.007-3.898-1.574-5.828c-1.11-3.778-3.177-7.042-5.527-10.139
			c-2.207-2.266-4.55-4.436-6.57-6.866c-0.011,0.037-0.025,0.072-0.035,0.109c-0.026,0.093-0.143,0.16-0.241,0.264
			c-0.138-0.087-0.285-0.145-0.385-0.248c-1.213-1.255-2.704-2.037-4.311-2.675c-3.48-1.383-7.065-2.317-10.782-2.771
			c-3.517-0.43-7.03-0.634-10.533,0.084c-0.817,0.167-1.62,0.409-2.424,0.636c-2.371,0.668-4.761,1.28-7.099,2.05
			c-1.102,0.363-2.163,0.946-3.132,1.594c-1.067,0.714-0.986,1.097,0.125,1.7c0.026,0.014,0.032,0.066,0.129,0.28
			c-0.072,0.034-0.216,0.09-0.35,0.165c-1.792,1.01-3.412,2.257-4.932,3.633c-1.797,1.626-3.722,3.136-4.878,5.357
			c-0.101,0.194-0.47,0.326-0.733,0.348c-1.01,2.494-1.889,5.023-2.891,7.485c0.141,0,0.287,0.001,0.443,0.001
			c-0.049,0.413-0.038,0.745-0.133,1.043c-0.884,2.796-1.543,5.641-1.84,8.558c-0.1,0.978-0.062,1.974-0.032,2.961
			c0.008,0.276,0.212,0.547,0.27,0.687c-0.078,0.688-0.23,1.272-0.194,1.844c0.168,2.682,0.913,5.244,1.961,7.69
			c0.939,2.193,2.051,4.318,3.193,6.415c0.386,0.709,1.043,1.305,1.672,1.84c0.651,0.553,0.927,1.211,1.017,1.967
			c2.121,1.749,4.09,3.497,6.057,5.246c0.604,0.604,1.253,1.098,1.913,1.547c0.02-0.146,0.043-0.293,0.075-0.442
			c0.564,0.245,1.046,0.433,1.509,0.661c0.579,0.285,1.115,0.677,1.717,0.894c2.143,0.773,4.285,1.566,6.47,2.206
			c1.634,0.479,3.331,0.746,5.007,1.071c0.197,0.038,0.625-0.161,0.625-0.249c-0.001-0.256-0.098-0.588-0.282-0.748
			c-0.245-0.214-0.596-0.341-0.922-0.425c-0.845-0.218-1.696-0.424-2.554-0.577c-1.339-0.239-2.61-0.654-3.814-1.291
			c1.15,0.207,2.285,0.466,3.413,0.751c1.886,0.476,3.787,0.849,5.744,0.777c2.124-0.078,4.255-0.105,6.369-0.296
			c1.159-0.105,2.295-0.492,3.435-0.774c0.817-0.203,1.02-0.116,1.386,0.683c0.061,0.133,0.15,0.254,0.23,0.386
			c0.874,0.097,1.576-0.292,2.267-0.684c1.058-0.599,2.1-1.227,3.153-1.835c0.724-0.418,1.513-0.746,2.173-1.246
			c1.539-1.168,3.023-2.409,4.52-3.631c2.444-1.994,4.73-4.145,6.579-6.72c0.305-0.425,0.468-0.957,0.797-1.358
			c1.153-1.406,1.839-3.051,2.515-4.706c0.108-0.264,0.258-0.51,0.38-0.747c0.126,0.066,0.247,0.131,0.372,0.197
			c0.158-3.276,0.209-6.584,0.659-9.806c-0.131-0.178-0.262-0.358-0.389-0.54C221.978,194.287,221.85,193.89,221.837,193.537z
			 M155.869,196.544c0.217-1.023,0.402-1.897,0.625-2.948C157.013,194.778,156.744,195.908,155.869,196.544z M161.869,192.85
			c-0.029,1.845,0.046,3.691,0.008,5.59c-0.108-0.395-0.25-0.785-0.319-1.187c-0.434-2.528-0.284-5.058,0.023-7.585
			c0.099-0.812,0.236-1.619,0.356-2.428c0.06,0.019,0.119,0.037,0.179,0.056C162.03,189.147,161.898,190.998,161.869,192.85z
			 M202.793,168.98c0.894,0.499,1.774,1.025,2.634,1.58c0.214,0.138,0.356,0.389,0.52,0.604c-1.219-0.7-2.438-1.398-3.655-2.101
			c-0.325-0.188-0.641-0.39-0.911-0.707C201.853,168.561,202.345,168.73,202.793,168.98z M200.809,163.032
			c0.176,0.05,0.352,0.099,0.527,0.149c-0.013,0.057-0.027,0.114-0.04,0.171c-0.171-0.038-0.342-0.076-0.512-0.115
			C200.792,163.169,200.801,163.1,200.809,163.032z M199.913,162.844c-1.525-0.285-3.108-0.321-4.517-1.127
			C196.926,161.976,198.534,161.959,199.913,162.844z M164.158,180.647c-0.186,1.215-0.675,2.328-1.181,3.436
			C162.998,182.814,163.349,181.654,164.158,180.647z M213.827,202.27c-0.822,2.269-1.882,4.401-3.317,6.341
			c-1.87,2.529-4.298,4.397-7.092,5.773c-1.054,0.519-1.787,1.125-1.706,2.381c0.037,0.57-0.511,0.591-0.78,0.874l0.031-0.012
			c-1.173,0.981-2.499,1.704-3.961,2.377c-0.439-0.866-1.045-0.894-1.949-0.635c-1.14,0.326-2.332,0.623-3.584,0.37
			c-0.569-0.115-1.201,0.13-1.805,0.133c-3.679,0.018-7.096-1.066-10.442-2.479c-5.389-2.275-9.474-6.042-12.779-10.804
			c-1.455-2.096-2.233-4.418-2.693-6.832c-0.765-4.018-0.808-8.085-0.032-12.12c0.292-1.517,0.636-3.051,1.196-4.483
			c1.402-3.585,3.59-6.685,6.345-9.364c1.418-1.379,3.041-2.507,4.847-3.34c1.546-0.713,3.096-1.415,4.659-2.089
			c0.519-0.224,1.108-0.29,1.618-0.53c0.354-0.167,0.729-0.45,0.914-0.782c0.507-0.91,0.469-0.931,1.635-1.163
			c-0.108,0.435-0.115,0.86,0.415,0.973c0.441,0.094,0.9,0.255,1.334,0.212c2.403-0.238,4.808,0.001,7.144,0.373
			c2.874,0.458,5.722,1.245,8.198,2.935c0.937,0.64,1.858,1.302,2.799,1.936c0.247,0.167,0.532,0.336,0.816,0.372
			c0.262,0.034,0.606-0.038,0.798-0.201c0.103-0.088-0.004-0.474-0.079-0.705c-0.059-0.183-0.185-0.345-0.292-0.513
			c0.704,0.46,1.496,0.833,2.07,1.42c1.271,1.3,2.423,2.715,3.62,4.086c0.225,0.257,0.462,0.509,0.647,0.794
			c0.193,0.297,0.331,0.629,0.494,0.946c-0.081,0.06-0.163,0.119-0.244,0.179c-0.385-0.422-0.766-0.849-1.157-1.266
			c-0.309-0.33-0.598-0.692-0.958-0.953c-0.163-0.118-0.557-0.123-0.702-0.004c-0.156,0.129-0.261,0.511-0.184,0.699
			c0.243,0.592,0.54,1.172,0.892,1.706c0.584,0.887,1.274,1.705,1.838,2.603c1.785,2.843,2.854,5.944,3.207,9.286
			C216.008,194.757,215.176,198.548,213.827,202.27z"/>
		<path style="fill:#FFFFFF;" d="M187.092,227.077c0.82-0.862,1.842-0.632,2.72-0.717c1.199-0.116,2.439-0.139,3.591,0.307
			c0.018,0.099,0.036,0.198,0.055,0.297c-0.309,0.151-0.604,0.387-0.929,0.44C190.033,227.815,188.173,227.714,187.092,227.077z"/>
		<path style="fill:#FFFFFF;" d="M194.768,226.464c0.759-0.458,1.396-0.601,2.121-0.341
			C196.432,226.879,195.736,227.01,194.768,226.464z"/>
	</g>
	<g>
		<path style="fill:#FFFFFF;" d="M196.619,178.123c0.425-0.891-0.035-2.217,1.495-2.561c0.211,0.573,0.422,1.146,0.633,1.719
			c0.068,0.007,0.135,0.014,0.202,0.022c0.078-0.415,0.182-0.827,0.228-1.245c0.047-0.43,0.082-0.871,0.548-1.039
			c0.515-0.186,0.952,0.014,1.346,0.378c0.604,0.558,0.659,1.347,0.903,2.054c0.097,0.28,0.126,0.584,0.193,0.916
			c0.217,0.023,0.398,0.045,0.58,0.061c0.763,0.068,1.094,0.335,1.235,1.073c0.093,0.484,0.164,0.978,0.182,1.47
			c0.132,3.526,0.184,7.056,0.39,10.578c0.173,2.955,0.574,5.897,0.772,8.851c0.147,2.196,0.201,4.405,0.148,6.605
			c-0.02,0.839-0.411,1.685-0.722,2.493c-0.101,0.262-0.478,0.569-0.744,0.583c-0.594,0.032-0.982,0.33-1.385,0.689
			c-1.222,1.087-1.892,0.94-2.591-0.548c-0.064-0.136-0.121-0.275-0.181-0.41c-0.077,0.014-0.184,0.005-0.203,0.042
			c-0.222,0.423-0.47,0.815-1.04,0.667c-0.489-0.127-0.572-0.542-0.643-0.974c-0.117-0.709-0.265-1.413-0.418-2.212
			c-0.244,0.114-0.456,0.173-0.621,0.295c-2.823,2.107-6.096,2.949-9.501,3.517c-2.255,0.376-4.363-0.22-6.506-0.653
			c-0.469-0.095-0.905-0.375-1.342-0.598c-3.126-1.593-5.538-3.934-7.362-6.926c-1.191-1.955-1.771-4.056-2.058-6.318
			c-0.241-1.899-0.3-3.77-0.161-5.667c0.092-1.259,0.28-1.427,1.647-1.127c0.923-4.725,3.529-8.285,7.797-10.721
			c-0.568-0.376-1-0.32-1.4,0.039c-1.779,1.594-3.7,3.057-4.838,5.247c-0.143,0.275-0.408,0.487-0.642,0.758
			c-0.525-0.472-0.456-0.913-0.25-1.331c1.26-2.552,2.91-4.712,5.768-5.63c0.142-0.046,0.299-0.1,0.403-0.198
			c1.421-1.348,3.323-1.714,5.076-2.137c2.586-0.624,5.298-0.65,7.891,0.167c1.583,0.499,3.091,1.233,4.633,1.861
			C196.252,177.981,196.424,178.047,196.619,178.123z M181.534,184.126c-0.095-0.064-0.19-0.127-0.285-0.191
			c-0.741,0.947-1.478,1.897-2.225,2.84c-2.008,2.535-2.851,5.385-2.442,8.618c0.132,1.048,0.46,2,0.99,2.884
			c0.408,0.68,1.027,1.253,1.334,1.968c0.464,1.08,1.339,1.608,2.276,2.122c0.2,0.11,0.4,0.219,0.593,0.34
			c1.456,0.91,3.059,1.049,4.707,0.84c0.216-0.027,0.524-0.338,0.559-0.554c0.062-0.381,0.021-0.785,0.417-0.987
			c0.366-0.186,0.778-0.454,1.151-0.427c1.628,0.116,2.811-0.676,3.971-1.669c2.796-2.391,3.811-5.413,3.174-8.974
			c-0.673-3.76-3.134-5.935-6.638-7.065c-0.491-0.158-1.056-0.183-1.576-0.14c-3.428,0.285-5.832,2.182-7.585,4.997
			c-0.411,0.66-0.631,1.451-0.867,2.204c-0.25,0.796-0.41,1.62-0.618,2.429c-0.047,0.183-0.077,0.415-0.202,0.523
			c-0.266,0.23-0.592,0.55-0.888,0.545c-0.416-0.007-0.589-0.44-0.548-0.858c0.058-0.603,0.058-1.235,0.251-1.797
			c0.33-0.962,0.791-1.879,1.194-2.817c0.698-1.627,1.725-3.029,2.927-4.316C181.342,184.494,181.426,184.299,181.534,184.126z
			 M202.657,195.803c0.373-2.126-0.294-12.058-0.827-13.281C201.575,183.335,202.209,194.151,202.657,195.803z M180.801,178.359
			c0.036,0.111,0.073,0.222,0.109,0.333c0.906-0.282,1.812-0.564,2.718-0.847c-0.015-0.058-0.031-0.116-0.046-0.175
			C182.655,177.9,181.728,178.13,180.801,178.359z"/>
		<path style="fill:#FFFFFF;" d="M204.842,182.26c0.061,0.079,0.166,0.152,0.176,0.237c0.145,1.164,0.332,2.327,0.4,3.497
			c0.096,1.666,0.055,3.34,0.159,5.006c0.12,1.928,0.339,3.85,0.507,5.776c0.132,1.513,0.26,3.026,0.372,4.54
			c0.02,0.27-0.042,0.547-0.144,0.816c-1.12-6.576-0.982-13.234-1.733-19.827C204.666,182.289,204.754,182.274,204.842,182.26z"/>
		<path style="fill:#FFFFFF;" d="M203.585,176.237c-0.033,0.326-0.035,0.441-0.058,0.551c-0.121,0.586-0.512,0.996-0.847,0.896
			c-0.316-0.095-0.554-0.698-0.458-1.188c0.021-0.109,0.054-0.237,0.127-0.312c0.222-0.227,0.466-0.432,0.702-0.646
			C203.259,175.811,203.468,176.084,203.585,176.237z"/>
		<path style="fill:#FFFFFF;" d="M171.197,187.387c-0.34-0.466-0.35-0.836,0.064-1.104c0.113-0.073,0.494,0.025,0.543,0.137
			C172.018,186.909,171.678,187.147,171.197,187.387z"/>
		<path style="fill:#FFFFFF;" d="M181.228,200.228c-0.222,0.121-0.495,0.394-0.673,0.342c-0.415-0.122-0.865-0.323-1.158-0.629
			c-0.926-0.967-1.618-2.097-2.032-3.383c-0.131-0.406-0.199-0.787,0.085-1.186c0.47-0.661,1.014-0.677,1.394,0.04
			c0.745,1.403,1.46,2.821,2.183,4.236C181.095,199.78,181.127,199.931,181.228,200.228z"/>
		<path style="fill:#FFFFFF;" d="M182.608,200.873c0.55-0.025,0.931,0.279,0.924,0.753c-0.007,0.452-0.304,0.68-0.698,0.759
			c-0.354,0.071-0.903-0.435-0.928-0.832C181.875,201.067,182.175,200.893,182.608,200.873z"/>
	</g>
</g>
<path style="fill:#FFFFFF;" d="M207.35,127.563c0.069-0.431,0.048-0.94-0.125-1.328c-0.179-0.402-0.251-0.752-0.145-1.158
	c0.341-1.306,0.677-2.613,1.026-3.917c0.293-1.095,0.654-2.176,0.887-3.283c0.176-0.838,0.214-1.708,0.278-2.566
	c0.015-0.198-0.054-0.467-0.189-0.595c-0.15-0.142-0.418-0.161-0.658-0.24c-0.001-0.097,0.007-0.203-0.005-0.308
	c-0.089-0.775-0.528-0.975-1.156-0.501c-0.474,0.357-0.925,0.748-1.173,1.313c-0.4,0.91-0.802,1.819-1.193,2.707
	c-0.068-0.154-0.15-0.338-0.247-0.559c-0.506,0.203-0.554,0.58-0.631,0.908c-0.544,2.312-1.371,4.54-1.896,6.864
	c-0.57,2.523-1.453,4.975-2.161,7.469c-0.217,0.764-0.521,1.295-1.43,1.137c-0.102-0.018-0.214,0.031-0.321,0.034
	c-1.24,0.039-2.48,0.074-3.72,0.111c-0.373,0.011-0.547-0.189-0.562-0.54c-0.008-0.187-0.014-0.384,0.031-0.563
	c0.62-2.46,1.136-4.955,1.906-7.368c0.92-2.884,1.731-5.792,2.439-8.731c0.11-0.457,0.108-0.97,0.032-1.437
	c-0.168-1.044-0.537-1.244-1.58-0.952c-0.044-0.09-0.089-0.185-0.136-0.279c-0.334-0.663-0.562-0.735-1.204-0.384
	c-0.707,0.386-1.105,1.021-1.355,1.751c-0.245,0.715-0.437,1.447-0.662,2.169c-0.056,0.18-0.149,0.349-0.225,0.523
	c-0.002-0.467,0.122-0.879,0.214-1.299c0.087-0.394,0.181-0.794,0.195-1.194c0.013-0.388-0.277-0.517-0.601-0.308
	c-0.384,0.248-0.574,0.628-0.706,1.052c-0.473,1.519-0.968,3.03-1.426,4.553c-0.522,1.732-1.023,3.471-1.507,5.214
	c-0.074,0.266-0.131,0.683,0.012,0.836c0.595,0.635,0.398,1.29,0.193,1.971c-0.358,1.189-0.712,2.38-1.075,3.567
	c-0.034,0.113-0.118,0.21-0.179,0.315c-0.056-0.014-0.112-0.029-0.168-0.043c0.047-0.301,0.063-0.609,0.145-0.9
	c0.248-0.883,0.517-1.761,0.787-2.637c0.111-0.36,0.168-0.679-0.422-0.845c-0.213,0.506-0.438,0.987-0.62,1.484
	c-0.4,1.089-0.761,2.193-1.172,3.278c-0.237,0.628-0.345,0.659-1.046,0.623c-0.296-0.015-0.594-0.018-0.89-0.007
	c-0.916,0.034-1.831,0.096-2.748,0.11c-0.636,0.01-0.789-0.194-0.636-0.787c0.325-1.254,0.681-2.501,0.995-3.758
	c0.464-1.86,0.858-3.739,1.363-5.588c0.57-2.088,1.059-4.191,1.302-6.341c0.199-1.76,0.095-3.529-0.499-5.196
	c-0.057-0.159-0.119-0.315-0.183-0.469c-0.488,0.518-0.035,1.209-0.101,1.763c-0.329-0.339-0.34-0.929-0.471-1.383
	c-0.209-0.475-0.398-1.028-1.045-1.116c-0.924,0.006-1.09,0.633-1.513,1.275c-0.444-0.537-1.108-0.881-1.817-0.734
	c-0.078-0.021-0.141,0.214-0.104,0.392c0.152,0.376,0.46,0.793,0.22,1.065c-0.021,0.078-0.193-0.219-0.251-0.318
	c-0.34-0.929-0.707-2.704-1.6-2.186c-0.892,0.457-0.218,1.683,0.238,2.555c0.162,0.145,0.334,0.28,0.524,0.367
	c0.346,0.158,0.692,0.239,0.818,0.686c0.133,0.471,0.184,0.543,0.15,1.016c-0.456-1.004-0.494-1.051-1.078-1.316
	c-0.416,0.517-0.195,1.069-0.086,1.612c0.085,0.422,0.269,0.844,0.256,1.262c-0.045,1.482-0.007,2.989-0.276,4.436
	c-0.384,2.063-0.765,4.143-1.523,6.119c-0.135,0.351-0.348,0.675-0.46,1.031c-0.503,1.595-0.994,3.195-1.466,4.8
	c-0.233,0.795-0.417,0.939-1.248,0.96c-1.073,0.027-2.148,0.068-3.218,0.147c-1.09,0.081-1.349,0.366-1.422,1.448
	c-0.113,0.039-0.238,0.083-0.363,0.127c-0.734,0.259-1.484,0.48-2.197,0.787c-0.67,0.288-0.757,0.897-0.258,1.427
	c0.426,0.453,0.953,0.703,1.58,0.717c0.485,0.011,0.972-0.007,1.456,0.022c0.231,0.014,0.616,0.054,0.657,0.176
	c0.204,0.6,0.66,0.461,1.073,0.446c2.723-0.1,5.446-0.233,8.17-0.308c3.046-0.083,6.093-0.118,9.139-0.169
	c2.374-0.04,4.747-0.1,7.121-0.102c1.943-0.002,3.886,0.069,5.829,0.106c0.842,0.016,1.665-0.074,2.465-0.373
	c0.58-0.217,0.92-0.58,1.085-1.191c0.652-2.423,1.343-4.835,2.012-7.254C207.002,129.033,207.232,128.306,207.35,127.563z
	 M179.909,116.443c-0.033-0.03-0.083-0.054-0.092-0.09c-0.009-0.033,0.025-0.078,0.041-0.118c0.024,0.044,0.049,0.089,0.073,0.133
	C179.922,116.394,179.916,116.418,179.909,116.443z M174.533,137.749c-0.004-0.036-0.009-0.072-0.013-0.108
	c0.126-0.021,0.252-0.042,0.377-0.063c-0.003,0.055-0.005,0.11-0.008,0.165C174.771,137.745,174.652,137.747,174.533,137.749z
	 M177.257,137.625c-0.002-0.041-0.004-0.083-0.006-0.124c0.261-0.014,0.521-0.029,0.782-0.043c-0.004,0.054-0.008,0.108-0.011,0.161
	C177.767,137.622,177.512,137.623,177.257,137.625z M183.678,117.591c0.034-0.284,0.068-0.567,0.103-0.851
	c0.066,0.006,0.132,0.013,0.198,0.019c-0.032,0.284-0.063,0.568-0.095,0.852C183.815,117.605,183.746,117.598,183.678,117.591z
	 M181.8,127.086c0.121-1.632,0.431-3.226,0.958-4.775C182.684,123.953,182.412,125.554,181.8,127.086z M204.416,120.28
	c-0.015-0.004-0.03-0.007-0.045-0.011c0.071-0.268,0.142-0.536,0.213-0.803c0.016,0,0.032,0.001,0.047,0.001
	C204.56,119.738,204.488,120.009,204.416,120.28z"/>
<path style="fill:#FFFFFF;" d="M216.782,116.82c0.081-0.213,0.184-0.421,0.238-0.641c0.245-1,0.585-1.959,1.059-2.879
	c0.441-0.857,0.739-1.1,1.372-0.953c0.58,0.135,1.208,0.87,1.17,1.495c-0.032,0.521-0.051,0.985,0.268,1.452
	c0.119,0.174,0.03,0.531-0.04,0.784c-0.288,1.04-0.599,2.074-0.914,3.106c-0.313,1.029-0.641,2.053-0.984,3.149
	c0.435-0.032,0.591-0.33,0.78-0.557c1.441-1.725,3.079-3.226,4.876-4.582c1.599-1.207,3.235-2.345,4.999-3.286
	c1.138-0.607,2.322-1.132,3.5-1.662c0.294-0.132,0.755-0.339,0.891,0.132c0.115,0.397-0.365,0.459-0.647,0.576
	c-0.64,0.265-1.288,0.508-1.933,0.761c0.02,0.063,0.041,0.126,0.061,0.19c0.281-0.092,0.56-0.191,0.843-0.276
	c0.542-0.162,1.098-0.285,1.623-0.487c0.285-0.109,0.58-0.301,0.766-0.537c0.518-0.657,1.54-1.039,2.363-0.812
	c0.078,0.021,0.152,0.056,0.228,0.083c1.339,0.466,1.509,1.178,0.509,2.173c-0.198,0.197-0.392,0.372-0.284,0.693
	c0.24,0.714-0.168,1.156-0.711,1.457c-0.706,0.391-1.449,0.72-2.191,1.043c-1.939,0.846-3.714,1.969-5.464,3.142
	c-0.342,0.229-0.381,0.542-0.403,0.908c-0.113,1.803,0.235,3.543,0.686,5.27c0.656,2.512,1.718,4.835,3.377,6.843
	c1.61,1.949,3.418,3.674,5.836,4.617c0.273,0.107,0.547,0.243,0.777,0.421c0.37,0.286,0.694,0.627,0.534,1.164
	c-0.158,0.53-0.547,0.779-1.077,0.836c-0.157,0.017-0.317,0.016-0.542,0.026c0.042,0.261,0.077,0.486,0.113,0.707
	c-0.065,0.075-0.105,0.155-0.169,0.192c-1.083,0.617-2.087,0.241-3.073-0.262c-0.263-0.134-0.502-0.316-0.749-0.482
	c-0.386-0.26-0.732-0.489-1.255-0.202c-0.218,0.119-0.651,0.002-0.911-0.143c-0.585-0.327-1.181-0.675-1.669-1.126
	c-2.476-2.285-4.358-4.99-5.553-8.151c-0.467-1.234-0.929-2.472-1.321-3.731c-0.196-0.63-0.231-1.311-0.361-2.105
	c-0.403,0.305-0.737,0.557-1.08,0.817c0.035,0.196,0.119,0.383,0.08,0.538c-0.033,0.132-0.198,0.242-0.323,0.339
	c-2.811,2.199-4.965,4.925-6.526,8.127c-0.059,0.12-0.129,0.236-0.205,0.346c-0.027,0.04-0.087,0.058-0.198,0.126
	c-0.131-0.917,0.624-1.472,0.741-2.253c-0.471,0.624-0.863,1.298-1.207,2.002c-0.13,0.267-0.233,0.547-0.364,0.813
	c-0.371,0.752-0.499,0.801-1.361,0.535c-0.12,0.111-0.257,0.234-0.389,0.362c-0.585,0.569-1.035,0.637-1.75,0.26
	c-1.258-0.662-1.655-1.596-1.304-3.13c0.114-0.499,0.268-0.99,0.414-1.482c0.978-3.282,1.959-6.563,2.939-9.844
	c0.031-0.103,0.027-0.255,0.095-0.302c0.532-0.367,0.373-0.961,0.515-1.458c0.428-1.504,0.862-3.006,1.333-4.497
	c0.235-0.745,0.514-1.483,0.853-2.185c0.179-0.371,0.509-0.679,0.809-0.977c0.199-0.199,0.518-0.298,0.73-0.075
	c0.134,0.141,0.191,0.449,0.144,0.65c-0.16,0.682-0.385,1.348-0.58,2.022c-0.081,0.278-0.15,0.559-0.224,0.839
	C216.623,116.766,216.702,116.793,216.782,116.82z M227.369,123.752c-0.273,2.209,1.493,7.444,3.082,8.658
	c-0.611-1.378-1.315-2.747-1.827-4.185C228.107,126.77,227.78,125.246,227.369,123.752z M213.871,122.498
	c-0.076-0.02-0.125-0.034-0.125-0.034c-0.704,2.397-1.404,4.794-2.102,7.192c-0.029,0.099-0.026,0.208-0.032,0.313
	c-0.001,0.02,0.024,0.045,0.043,0.06c0.021,0.016,0.048,0.023,0.109,0.05c0.08-0.084,0.22-0.164,0.251-0.274
	c0.634-2.287,1.257-4.577,1.873-6.869C213.925,122.797,213.878,122.634,213.871,122.498z M226.757,116.678
	c-0.892,0.353-1.677,0.97-1.945,1.532C225.654,117.77,226.145,117.139,226.757,116.678z M236.444,139.709
	c0.027-0.067,0.055-0.133,0.082-0.2c-0.375-0.187-0.75-0.374-1.124-0.56c-0.031,0.065-0.063,0.13-0.094,0.195
	C235.687,139.332,236.065,139.52,236.444,139.709z M229.657,114.835c-0.029-0.047-0.057-0.094-0.086-0.141
	c-0.16,0.101-0.32,0.203-0.479,0.304c0.021,0.035,0.041,0.071,0.062,0.106C229.322,115.015,229.489,114.925,229.657,114.835z
	 M232.285,134.917c-0.006-0.045,0.001-0.118-0.022-0.13c-0.044-0.022-0.106-0.01-0.161-0.012c0.018,0.044,0.026,0.101,0.058,0.129
	C232.186,134.927,232.242,134.914,232.285,134.917z"/>
<path style="fill:#FFFFFF;" d="M206.649,130.486c-0.373-0.182-0.318-0.497-0.242-0.778c0.519-1.928,1.046-3.853,1.595-5.772
	c0.045-0.158,0.276-0.264,0.421-0.393c0.079,0.181,0.237,0.37,0.22,0.541c-0.045,0.454-0.135,0.909-0.261,1.348
	c-0.403,1.4-0.826,2.794-1.254,4.186C207.031,129.934,207.051,130.332,206.649,130.486z"/>
<path style="fill:#FFFFFF;" d="M209.159,120.608c0.395,0.228,0.297,0.536,0.22,0.804c-0.071,0.248-0.198,0.483-0.332,0.706
	c-0.027,0.045-0.23,0.047-0.286-0.004c-0.085-0.079-0.148-0.217-0.158-0.335C208.582,121.503,208.822,121.019,209.159,120.608z"/>
<g>
	<g>
		<path style="fill:#FFFFFF;" d="M308.833,120.061c0.27-0.235,0.41-0.342,0.533-0.466c2.073-2.086,4.127-4.191,6.228-6.249
			c0.47-0.46,1.08-0.791,1.659-1.123c0.68-0.39,0.732-0.348,0.993,0.382c0.427-0.155,0.844-0.361,1.285-0.454
			c0.732-0.155,1.128,0.238,1.098,0.981c-0.015,0.369,0.045,0.741,0.029,1.109c-0.01,0.234-0.057,0.485-0.157,0.695
			c-1.032,2.154-1.751,4.417-2.314,6.728c-0.44,1.806-0.927,3.614-0.955,5.49c-0.036,2.363,0.198,4.69,1.137,6.895
			c0.116,0.272,0.279,0.525,0.391,0.799c0.116,0.284,0.198,0.583,0.311,0.926c-0.531,0.086-0.707-0.233-0.814-0.503
			c-0.385-0.974-0.8-1.947-1.064-2.957c-0.57-2.178-0.692-4.41-0.559-6.657c-0.296,0.984-0.456,2.94-0.303,4.079
			c0.276,2.061,0.7,4.089,1.613,5.978c0.21,0.434,0.512,0.824,0.732,1.254c0.083,0.163,0.051,0.384,0.072,0.579
			c-0.222-0.015-0.472,0.029-0.658-0.06c-0.198-0.095-0.336-0.315-0.603-0.417c0.055,0.125,0.085,0.27,0.168,0.371
			c0.46,0.565,0.944,1.111,1.398,1.679c0.309,0.387,0.596,0.826,0.33,1.33c-0.248,0.468-0.641,0.715-1.229,0.778
			c-1.418,0.153-2.604-0.21-3.592-1.251c-1.419-1.495-2.441-3.151-2.869-5.235c-0.384-1.866-0.397-3.698-0.156-5.544
			c0.164-1.253,0.472-2.492,0.787-3.719c0.261-1.017,0.629-2.006,0.943-3.009c0.045-0.144,0.055-0.299,0.116-0.646
			c-0.275,0.288-0.42,0.428-0.552,0.579c-0.604,0.689-1.205,1.381-1.805,2.073c-0.618,0.713-1.233,1.429-1.851,2.142
			c-1.608,1.857-3.286,3.643-5.176,5.222c-0.703,0.588-1.342,1.257-2.065,1.817c-1.125,0.873-2.404,1.458-3.82,1.667
			c-1.596,0.236-2.922-0.258-3.884-1.598c-0.047-0.066-0.099-0.128-0.142-0.197c-0.418-0.672-0.357-0.984,0.36-1.531
			c-0.13-0.255-0.267-0.525-0.441-0.867c-0.273,0.264-0.473,0.458-0.696,0.675c-0.594-0.408-0.806-0.983-0.812-1.607
			c-0.014-1.435,0.094-2.864,0.565-4.235c0.271-0.788,0.552-1.579,0.906-2.331c0.27-0.573,0.325-0.547,0.91-0.185
			c0.049-0.185,0.096-0.36,0.151-0.567c-0.086-0.066-0.158-0.158-0.249-0.184c-0.427-0.124-0.486-0.416-0.315-0.754
			c0.632-1.251,1.231-2.523,1.945-3.726c0.621-1.045,1.439-1.969,2.388-2.733c1.174-0.945,2.355-1.933,3.854-2.314
			c0.771-0.196,1.595-0.234,2.396-0.24c0.38-0.003,0.787,0.19,1.136,0.378c0.549,0.296,0.592,0.428,0.654,1.131
			c0.751,0.237,1.181,0.818,1.334,1.56c0.213,1.027,0.34,2.072,0.504,3.109C308.722,119.377,308.766,119.645,308.833,120.061z
			 M298.581,125.038c-0.102,0.717-0.278,1.433-0.284,2.15c-0.005,0.65,0.373,1.206,0.989,1.452c0.597,0.238,1.097-0.074,1.504-0.519
			c0.145-0.159,0.285-0.323,0.417-0.493c1.206-1.553,2.077-3.283,2.58-5.178c0.225-0.848,0.453-1.732,0.169-2.627
			c-0.317-0.998-1.33-1.253-2.1-0.562c-0.731,0.657-1.274,1.426-1.727,2.301C299.546,122.691,298.953,123.805,298.581,125.038z
			 M304.124,130.235c0.805-0.391,4.931-4.819,5.152-5.53C308.769,124.997,304.487,129.592,304.124,130.235z M294.303,125.224
			c0.019,0.007,0.038,0.013,0.057,0.02c0.029-0.088,0.058-0.176,0.087-0.264c-0.017-0.006-0.034-0.012-0.051-0.018
			C294.365,125.049,294.334,125.136,294.303,125.224z"/>
		<path style="fill:#FFFFFF;" d="M321.917,114.343c-1.85,3.907-2.744,8.093-3.633,12.462c-0.212-1.145,0.011-2.087,0.254-3.011
			c0.485-1.847,0.981-3.693,1.55-5.515C320.52,116.9,321.064,115.553,321.917,114.343z"/>
		<path style="fill:#FFFFFF;" d="M301.621,113.044c-1.496,0.835-2.783,1.924-4.024,3.072c-1.259,1.165-2.043,2.672-2.92,4.199
			c-0.252-0.333-0.081-0.54,0.026-0.731c0.798-1.419,1.725-2.75,2.927-3.853c0.851-0.781,1.772-1.488,2.69-2.193
			C300.685,113.258,301.101,113.006,301.621,113.044z"/>
	</g>
	<path style="fill:#FFFFFF;" d="M320.474,138.284c-0.048,0.02-0.103,0.066-0.145,0.056c-0.452-0.103-0.746-0.362-0.681-0.644
		c0.023-0.101,0.222-0.236,0.333-0.229C320.345,137.49,320.483,137.746,320.474,138.284z"/>
</g>
<path style="fill:#FFFFFF;" d="M295.225,138.658c-0.241-0.186-0.526-0.328-0.81-0.439c-2.522-0.983-4.407-2.782-6.085-4.814
	c-1.729-2.093-2.836-4.515-3.52-7.134c-0.47-1.801-0.832-3.615-0.715-5.494c0.024-0.381,0.064-0.707,0.421-0.946
	c1.824-1.223,3.676-2.395,5.697-3.276c0.773-0.337,1.548-0.68,2.284-1.088c0.566-0.313,0.991-0.774,0.741-1.519
	c-0.112-0.334,0.09-0.517,0.297-0.722c1.042-1.037,0.866-1.779-0.531-2.265c-0.08-0.028-0.157-0.064-0.238-0.086
	c-0.858-0.237-1.924,0.162-2.464,0.847c-0.194,0.247-0.502,0.446-0.799,0.56c-0.548,0.21-1.128,0.338-1.693,0.507
	c-0.295,0.088-0.586,0.191-0.879,0.287c-0.021-0.066-0.043-0.132-0.064-0.198c0.672-0.263,1.348-0.517,2.016-0.793
	c0.295-0.122,0.794-0.187,0.675-0.601c-0.142-0.49-0.623-0.275-0.929-0.137c-1.228,0.553-2.462,1.099-3.649,1.733
	c-1.839,0.981-3.545,2.168-5.212,3.426c-7.697,5.139-13.419,12.664-13.371,12.5c-0.3,0.428-0.601,0.859-0.909,1.293
	c-0.249,0.343-0.472,0.699-0.674,1.065c-0.116,0.389-0.232,0.778-0.348,1.167c-0.153,0.513-0.313,1.024-0.432,1.545
	c-0.365,1.599,0.048,2.573,1.36,3.263c0.746,0.392,1.215,0.322,1.825-0.272c0.138-0.134,0.281-0.262,0.406-0.378
	c0.899,0.278,1.032,0.226,1.419-0.557c0.137-0.277,0.244-0.569,0.38-0.848c0.358-0.734,0.767-1.437,1.258-2.088
	c-0.122,0.815-0.909,1.394-0.773,2.349c0.116-0.072,0.178-0.09,0.207-0.132c0.079-0.115,0.152-0.236,0.214-0.361
	c1.627-3.339,3.873-6.181,6.804-8.473c0.13-0.101,0.302-0.215,0.337-0.353c0.041-0.162-0.047-0.356-0.084-0.561
	c0.358-0.271,0.706-0.534,1.126-0.852c0.135,0.828,0.171,1.538,0.376,2.195c0.409,1.312,0.89,2.604,1.377,3.89
	c1.246,3.296,3.209,6.115,5.79,8.498c0.509,0.47,1.131,0.833,1.74,1.174c0.271,0.151,0.723,0.274,0.95,0.149
	c0.544-0.298,0.906-0.06,1.308,0.211c0.257,0.173,0.506,0.362,0.781,0.502c1.028,0.524,2.076,0.916,3.204,0.273
	c0.067-0.038,0.109-0.122,0.177-0.2c-0.037-0.231-0.074-0.465-0.117-0.738c0.234-0.011,0.4-0.01,0.565-0.027
	c0.552-0.059,0.958-0.318,1.123-0.871C295.949,139.312,295.611,138.956,295.225,138.658z M279.981,117.562
	c0.279-0.585,1.098-1.229,2.028-1.597C281.37,116.446,280.859,117.104,279.981,117.562z M284.507,114.325
	c-0.021-0.037-0.043-0.074-0.064-0.111c0.167-0.106,0.333-0.211,0.5-0.317c0.03,0.049,0.06,0.098,0.089,0.147
	C284.857,114.138,284.682,114.232,284.507,114.325z M282.647,123.341c0.428,1.557,0.769,3.146,1.309,4.663
	c0.533,1.499,1.268,2.926,1.905,4.363C284.203,131.102,282.362,125.644,282.647,123.341z M287.642,134.968
	c-0.034-0.029-0.041-0.088-0.06-0.134c0.057,0.002,0.121-0.011,0.167,0.013c0.024,0.012,0.016,0.088,0.023,0.135
	C287.727,134.978,287.669,134.991,287.642,134.968z M292.108,139.977c-0.395-0.197-0.79-0.393-1.184-0.59
	c0.033-0.068,0.065-0.135,0.098-0.203c0.391,0.195,0.781,0.39,1.172,0.584C292.165,139.839,292.137,139.908,292.108,139.977z"/>
</svg>
