<?xml version="1.0" encoding="utf-8"?>
<!-- Generator: Adobe Illustrator 22.0.1, SVG Export Plug-In . SVG Version: 6.00 Build 0)  -->
<svg version="1.1" id="Слой_1" xmlns="http://www.w3.org/2000/svg" xmlns:xlink="http://www.w3.org/1999/xlink" x="0px" y="0px"
	 viewBox="0 0 180 180" style="enable-background:new 0 0 180 180;" xml:space="preserve">
<g>
	<circle style="fill:#9C1C1F;" cx="90" cy="90" r="90"/>
</g>
<path style="fill:none;stroke:#FFFFFF;stroke-width:2;stroke-miterlimit:10;" d="M64.85,58v64c0,0.4,0.3,0.7,0.7,0.8h48.8
	c0.4,0,0.8-0.4,0.8-0.8V70.2c0-0.4-0.1-0.4-0.4-0.8l-12-12c-0.1-0.1-0.3-0.2-0.5-0.2h-36.7C65.25,57.3,64.85,57.6,64.85,58z
	 M115.15,69.9h-12.7V57.2 M71.15,76.8l4.6,4.6c0.3,0.3,0.8,0.3,1.1,0l9.1-9.1 M89.95,79.3h18.3 M71.15,92l4.6,4.6
	c0.3,0.3,0.8,0.3,1.1,0l9.1-9.1 M89.95,94.6h18.3 M71.15,107.3l4.6,4.6c0.3,0.3,0.8,0.3,1.1,0l0,0l9.1-9.2 M89.95,109.8h18.3"/>
</svg>
