<?xml version="1.0" encoding="utf-8"?>
<!-- Generator: Adobe Illustrator 22.0.1, SVG Export Plug-In . SVG Version: 6.00 Build 0)  -->
<svg version="1.1" id="Слой_1" xmlns="http://www.w3.org/2000/svg" xmlns:xlink="http://www.w3.org/1999/xlink" x="0px" y="0px"
	 viewBox="0 0 47.28 47.44" style="enable-background:new 0 0 47.28 47.44;" xml:space="preserve">
<title>map marker</title>
<path style="fill:none;stroke:#C8D4E3;stroke-width:2;stroke-linecap:round;stroke-linejoin:round;" d="M19.63,12.64
	c0.028-2.209,1.841-3.977,4.05-3.95c2.209,0.028,3.977,1.841,3.95,4.05c-0.027,2.189-1.81,3.95-3.999,3.95c-2.209,0-4-1.791-4-4
	C19.63,12.674,19.63,12.657,19.63,12.64z"/>
<path style="fill:none;stroke:#C8D4E3;stroke-width:2;stroke-linecap:round;stroke-linejoin:round;" d="M10.68,13.35
	C11.09,7.29,16,1,23.5,1s12.41,6.25,12.82,12.34c0.165,3.188-0.814,6.33-2.76,8.86L23.5,35.69L13.42,22.22
	c-1.939-2.533-2.91-5.675-2.74-8.86V13.35z M27.89,29.81h15.39l3,16.63H1l3-16.61h15.11"/>
</svg>
