<svg xmlns="http://www.w3.org/2000/svg" width="23" height="23" viewBox="0 0 22.99 22.99">
  <path d="M11.5,1A18.38,18.38,0,0,0,4.24,2.34,7,7,0,0,0,1.93,3.86,3.05,3.05,0,0,0,1,5.95V17a3.07,3.07,0,0,0,.93,2.08,7,7,0,0,0,2.31,1.53A18.35,18.35,0,0,0,11.5,22a18.35,18.35,0,0,0,7.26-1.34,7,7,0,0,0,2.31-1.53A3.06,3.06,0,0,0,22,17V5.95a3.07,3.07,0,0,0-.93-2.08,7,7,0,0,0-2.31-1.53A18.38,18.38,0,0,0,11.5,1Z" fill="none" stroke="#c8d4e3" stroke-miterlimit="10" stroke-width="2"/>
  <path d="M1,6V6c.15,1.48,1.49,2.61,3.37,3.42a18.52,18.52,0,0,0,7.1,1.27,18.52,18.52,0,0,0,7.1-1.27C20.47,8.65,21.8,7.52,22,6" fill="none" stroke="#c8d4e3" stroke-miterlimit="10" stroke-width="2"/>
  <path d="M1,13.41v0c.15,1.48,1.49,2.61,3.37,3.42a18.52,18.52,0,0,0,7.1,1.27,18.52,18.52,0,0,0,7.1-1.27c1.87-.8,3.21-1.94,3.37-3.42" fill="none" stroke="#c8d4e3" stroke-miterlimit="10" stroke-width="2"/>
  <path d="M1,9.83v0c.15,1.48,1.49,2.61,3.37,3.42a18.52,18.52,0,0,0,7.1,1.27,18.52,18.52,0,0,0,7.1-1.27c1.87-.8,3.21-1.94,3.37-3.42" fill="none" stroke="#c8d4e3" stroke-miterlimit="10" stroke-width="2"/>
</svg>