<?xml version="1.0" encoding="utf-8"?>
<!-- Generator: Adobe Illustrator 22.0.1, SVG Export Plug-In . SVG Version: 6.00 Build 0)  -->
<svg version="1.1" id="Слой_1" xmlns="http://www.w3.org/2000/svg" xmlns:xlink="http://www.w3.org/1999/xlink" x="0px" y="0px"
	 viewBox="0 0 46.917 46.917" style="enable-background:new 0 0 46.917 46.917;" xml:space="preserve">
<g>
	<path style="fill:none;stroke:#C8D4E3;stroke-width:2;stroke-linecap:round;stroke-linejoin:round;stroke-miterlimit:10;" d="
		M23.385,28.999c-3.25,0-5.894-2.644-5.894-5.894s2.644-5.894,5.894-5.894s5.894,2.644,5.894,5.894S26.635,28.999,23.385,28.999z
		 M27.396,27.364L25.15,40.977 M21.565,40.977l-2.247-13.613"/>
	<path style="fill:none;stroke:#C8D4E3;stroke-width:2;stroke-linecap:round;stroke-linejoin:round;stroke-miterlimit:10;" d="
		M23.385,20.332c-1.532,0-2.773,1.242-2.773,2.773c0,1.532,1.242,2.773,2.773,2.773s2.773-1.242,2.773-2.773
		C26.158,21.573,24.917,20.332,23.385,20.332z"/>
</g>
<line style="fill:none;stroke:#C8D4E3;stroke-width:2;stroke-linecap:round;stroke-linejoin:round;stroke-miterlimit:10;" x1="17.577" y1="24.492" x2="7.066" y2="15.554"/>
<line style="fill:none;stroke:#C8D4E3;stroke-width:2;stroke-linecap:round;stroke-linejoin:round;stroke-miterlimit:10;" x1="8.913" y1="12.482" x2="21.426" y2="17.567"/>
<line style="fill:none;stroke:#C8D4E3;stroke-width:2;stroke-linecap:round;stroke-linejoin:round;stroke-miterlimit:10;" x1="39.682" y1="15.384" x2="29.171" y2="24.322"/>
<line style="fill:none;stroke:#C8D4E3;stroke-width:2;stroke-linecap:round;stroke-linejoin:round;stroke-miterlimit:10;" x1="25.01" y1="17.398" x2="37.836" y2="12.312"/>
<circle style="fill:none;stroke:#C8D4E3;stroke-width:2;stroke-linecap:round;stroke-linejoin:round;stroke-miterlimit:10;" cx="23.458" cy="23.458" r="18.437"/>
<circle style="fill:none;stroke:#C8D4E3;stroke-width:2;stroke-linecap:round;stroke-linejoin:round;stroke-miterlimit:10;" cx="23.458" cy="23.458" r="22.458"/>
</svg>
