<?xml version="1.0" encoding="utf-8"?>
<!-- Generator: Adobe Illustrator 22.0.1, SVG Export Plug-In . SVG Version: 6.00 Build 0)  -->
<svg version="1.1" id="Ğ¡Ğ»Ğ¾Ğ¹_1" xmlns="http://www.w3.org/2000/svg" xmlns:xlink="http://www.w3.org/1999/xlink" x="0px" y="0px"
	 viewBox="0 0 53.31 28.2" style="enable-background:new 0 0 53.31 28.2;" xml:space="preserve">
<title>users</title>
<path style="fill:none;stroke:#C8D4E3;stroke-width:2;stroke-linecap:round;stroke-linejoin:round;stroke-miterlimit:10;" d="
	M41.686,1c-2.87,0.018-5.192,2.341-5.211,5.211c0.046,2.875,2.337,5.211,5.211,5.312c2.875-0.046,5.211-2.337,5.312-5.211l0,0
	C47.011,3.391,44.653,1.012,41.731,1C41.716,1,41.701,1,41.686,1z"/>
<path style="fill:none;stroke:#C8D4E3;stroke-width:2;stroke-linecap:round;stroke-linejoin:round;stroke-miterlimit:10;" d="
	M36.655,23.224H52.31c-0.202-3.369-1.19-7.277-4.919-9.343c-0.696-0.393-1.482-0.101-2.662,0.292
	c-0.933,0.386-1.932,0.588-2.942,0.595c-1.014,0.002-2.019-0.2-2.953-0.595c-1.123-0.393-1.965-0.685-2.65-0.292
	c-1.562,0.901-2.839,2.224-3.683,3.818"/>
<path style="fill:none;stroke:#C8D4E3;stroke-width:2;stroke-linecap:round;stroke-linejoin:round;stroke-miterlimit:10;" d="
	M26.582,4.987c-2.868,0.024-5.186,2.343-5.211,5.211c0.046,2.873,2.339,5.205,5.211,5.301c2.878-0.04,5.216-2.334,5.312-5.211l0,0
	c0.006-2.921-2.357-5.294-5.278-5.301C26.605,4.987,26.593,4.987,26.582,4.987z"/>
<path style="fill:none;stroke:#C8D4E3;stroke-width:2;stroke-linecap:round;stroke-linejoin:round;stroke-miterlimit:10;" d="
	M16.026,27.2h21.18c-0.191-3.369-1.179-7.277-4.919-9.332c-0.685-0.393-1.471-0.101-2.65,0.292
	c-0.938,0.383-1.941,0.581-2.953,0.584c-1.01,0.006-2.011-0.193-2.942-0.584c-1.123-0.393-1.976-0.685-2.662-0.292
	C18.923,19.137,16.262,21.697,16.026,27.2z"/>
<path style="fill:none;stroke:#C8D4E3;stroke-width:2;stroke-linecap:round;stroke-linejoin:round;stroke-miterlimit:10;" d="
	M11.579,1C8.657,1.012,6.299,3.391,6.312,6.312l0,0c0.101,2.874,2.436,5.165,5.312,5.211c2.874-0.101,5.165-2.436,5.211-5.312
	C16.816,3.341,14.494,1.018,11.624,1C11.609,1,11.594,1,11.579,1z"/>
<path style="fill:none;stroke:#C8D4E3;stroke-width:2;stroke-linecap:round;stroke-linejoin:round;stroke-miterlimit:10;" d="
	M20.81,17.699c-0.844-1.594-2.121-2.917-3.683-3.818c-0.685-0.393-1.527-0.101-2.65,0.292c-0.934,0.395-1.939,0.597-2.953,0.595
	c-1.01-0.008-2.009-0.21-2.942-0.595c-1.179-0.393-1.965-0.685-2.662-0.292C2.19,15.947,1.202,19.855,1,23.224h15.655"/>
</svg>
