<?xml version="1.0" encoding="utf-8"?>
<!-- Generator: Adobe Illustrator 22.0.1, SVG Export Plug-In . SVG Version: 6.00 Build 0)  -->
<svg version="1.1" id="Слой_1" xmlns="http://www.w3.org/2000/svg" xmlns:xlink="http://www.w3.org/1999/xlink" x="0px" y="0px"
	 viewBox="0 0 48.133 46.606" style="enable-background:new 0 0 48.133 46.606;" xml:space="preserve">
<title>icons_books_1</title>
<path style="fill:none;stroke:#C8D4E3;stroke-width:2;stroke-linecap:round;stroke-linejoin:round;stroke-miterlimit:10;" d="
	M25.995,1l21.139,19.374l-19.959,6.403l-2.456,0.835L5.064,7.428L25.995,1z M21.516,32.038L1.468,11.954
	C1.162,11.536,0.998,11.032,1,10.515c0.009-1.056,0.694-1.988,1.699-2.312l2.364-0.774 M21.517,38.269L1.468,18.21
	C1.161,17.791,0.997,17.285,1,16.766V16.75c0-1.007,0.619-1.909,1.559-2.271l1.023-0.41 M21.562,44.608L1.468,24.524
	C1.162,24.106,0.998,23.602,1,23.085v-0.016c-0.005-1.012,0.615-1.922,1.559-2.286l1.096-0.386 M47.103,35.506v2.636l-22.808,7.344
	c-1.005,0.325-2.106-0.028-2.733-0.878c-0.314-0.422-0.482-0.934-0.478-1.46c0-0.519,0.164-1.024,0.468-1.445
	c0.305-0.42,0.737-0.731,1.232-0.889l24.32-7.833v2.592 M25.848,42.348 M22.788,34.501l18.723-6.069l5.587-1.769l0.005,2.743
	 M47.103,29.262v3.826 M24.415,33.949c-0.694,0.004-1.399-0.205-1.944-0.642c-1.6-1.282-1.731-4.131,0.291-5.063l24.341-7.848v2.899
	 M47.103,23.025v3.424"/>
<path style="fill:none;stroke:#C8D4E3;stroke-width:2;stroke-linecap:round;stroke-linejoin:round;stroke-miterlimit:10;" d="
	M24.48,40.241c-0.694,0.004-1.449-0.23-1.995-0.667c-1.6-1.282-1.731-4.131,0.291-5.063"/>
</svg>
