<svg xmlns="http://www.w3.org/2000/svg" viewBox="0 0 23.18 24.213" width="23" height="24">
<path style="fill:none;stroke:#c8d4e3;stroke-width:2;stroke-linecap:round;stroke-linejoin:round;stroke-miterlimit:10;" d="
	M11.556,1C8.688,1.024,6.37,3.343,6.345,6.211c0.046,2.873,2.339,5.205,5.211,5.301c2.878-0.04,5.216-2.334,5.312-5.211l0,0
	C16.874,3.38,14.511,1.007,11.59,1C11.579,1,11.567,1,11.556,1z"/>
<path style="fill:none;stroke:#c8d4e3;stroke-width:2;stroke-linecap:round;stroke-linejoin:round;stroke-miterlimit:10;" d="
	M1,23.213h21.18c-0.191-3.369-1.179-7.277-4.919-9.332c-0.685-0.393-1.471-0.101-2.65,0.292c-0.938,0.383-1.941,0.581-2.953,0.584
	c-1.01,0.006-2.011-0.193-2.942-0.584c-1.123-0.393-1.976-0.685-2.662-0.292C3.897,15.15,1.236,17.71,1,23.213z"/>
</svg>