<svg xmlns="http://www.w3.org/2000/svg" viewBox="0 0 1348.725 358.368" width="278" height="74">
<path style="fill:#9C1C1F;" d="M359.883,195.569c0.388-0.585,0.688-1.16,1.1-1.637c1.057-1.222,2.014-2.601,3.285-3.55
	c1.995-1.49,3.75-0.788,4.294,1.669c0.882,3.981,1.135,8.013,0.305,12.053c-0.969,4.715-1.851,9.451-2.955,14.135
	c-0.64,2.712-1.545,5.374-2.503,7.996c-2.082,5.698-4.238,11.369-6.433,17.024c-2.017,5.197-4.091,10.373-6.218,15.527
	c-0.545,1.322-1.47,2.484-2.07,3.789c-3.732,8.126-9.094,15.195-14.435,22.273c-1.268,1.681-2.488,3.375-3.661,5.121
	c-1.345,2.001-3.664,3.331-5.486,5.032c-1.539,1.437-3.079,2.899-4.428,4.51c-1.862,2.224-3.667,4.453-6.168,6.033
	c-1.131,0.714-2.159,1.626-3.123,2.562c-5.489,5.329-11.495,9.962-18.099,13.839c-2.974,1.746-5.833,3.686-8.771,5.494
	c-0.644,0.396-1.398,0.618-2.11,0.898c-0.536,0.211-1.217,0.243-1.609,0.602c-2.181,1.995-4.907,3.002-7.488,4.271
	c-3.873,1.904-7.684,3.896-11.855,5.185c-3.295,1.019-6.405,2.636-9.592,3.998c-0.531,0.227-1.014,0.628-1.563,0.744
	c-4.797,1.012-9.299,2.994-14.006,4.257c-3.983,1.068-8.165,1.381-12.169,2.385c-8.944,2.242-18.025,2.886-27.196,2.963
	c-6.058,0.051-12.115,0.427-18.172,0.429c-3.455,0.002-6.965-0.154-10.354-0.77c-6.158-1.118-12.245-2.626-18.359-3.984
	c-3.471-0.771-6.984-1.399-10.393-2.387c-5.544-1.607-11.021-3.448-16.519-5.213c-1.099-0.353-2.165-0.811-3.25-1.209
	c-10.413-3.817-20.463-8.465-30.115-13.887c-5.016-2.818-9.588-6.418-14.398-9.608c-7.146-4.74-12.915-10.944-18.559-17.291
	c-1.474-1.658-3.046-3.232-4.462-4.937c-3.069-3.698-6.04-7.477-9.104-11.179c-1.35-1.631-2.735-3.255-4.275-4.7
	c-1.273-1.195-2.305-0.728-2.538,1.03c-0.126,0.948-0.061,1.925-0.038,2.889c0.036,1.541-0.29,2.914-1.796,3.658
	c-1.449,0.715-2.881,0.406-4.094-0.511c-2.238-1.691-4.221-3.598-5.493-6.211c-2.986-6.138-6.109-12.21-9.145-18.324
	c-0.425-0.855-0.63-1.816-1.014-2.694c-0.687-1.571-1.436-3.115-2.153-4.673c-0.319-0.693-0.791-1.364-0.912-2.092
	c-0.561-3.388-2.02-6.413-3.561-9.425c-0.433-0.846-0.721-1.783-0.957-2.708c-0.428-1.673-0.656-3.404-1.162-5.05
	c-2.248-7.312-3.252-14.861-4.364-22.39c-1.114-7.546-1.699-15.134-1.74-22.762c-0.052-9.571,0.717-19.103,2.824-28.419
	c1.118-4.943,1.793-9.973,3.198-14.895c1.123-3.933,1.659-8.109,3.125-11.977c1.805-4.761,3.902-9.41,5.878-14.106
	c0.223-0.531,0.539-1.029,0.712-1.575c1.797-5.665,4.919-10.647,8.042-15.625c2.092-3.335,4.227-6.644,6.362-9.952
	c1.932-2.993,3.877-5.977,5.84-8.949c1.802-2.729,3.688-5.405,5.44-8.166c1.4-2.208,3.091-4.107,4.911-5.994
	c3.263-3.385,6.13-7.151,9.186-10.737c1.058-1.241,2.107-2.506,3.294-3.616c5.211-4.874,10.806-9.279,16.63-13.396
	c0.236-0.167,0.54-0.296,0.687-0.524c3.449-5.335,9.796-6.815,14.299-10.759c4.523-3.963,9.829-6.739,15.099-9.548
	c0.506-0.27,0.994-0.608,1.419-0.992c3.608-3.264,8.106-4.639,12.577-6.188c2.986-1.034,5.766-2.655,8.668-3.948
	c1.223-0.544,2.493-1.038,3.79-1.35c8.148-1.96,16.358-3.682,24.446-5.858c4.355-1.172,8.728-1.381,13.147-1.628
	c2.115-0.118,4.222-0.463,6.336-0.497c7.908-0.127,15.808-0.062,23.615,1.515c1.599,0.323,3.272,0.272,4.882,0.557
	c5.404,0.954,10.781,2.07,16.195,2.962c8.494,1.399,16.616,4.225,24.92,6.351c1.651,0.423,3.101,1.625,4.751,2.054
	c6.804,1.77,12.709,5.466,18.887,8.58c0.601,0.303,1.217,0.625,1.723,1.058c3.55,3.038,7.619,5.222,11.777,7.273
	c0.591,0.291,1.282,0.655,1.6,1.183c3.19,5.291,8.562,8.245,12.997,12.192c2.293,2.041,5.095,3.581,7.121,5.837
	c5.08,5.657,9.899,11.553,14.724,17.434c2.811,3.426,5.55,6.925,8.106,10.543c2.554,3.614,4.881,7.392,7.231,11.145
	c2.145,3.425,4.343,6.832,6.232,10.399c1.835,3.465,3.34,7.109,4.93,10.7c1.558,3.518,3.052,7.065,4.553,10.608
	c3.203,7.565,5.804,15.32,7.149,23.446c0.612,3.702,1.029,7.436,1.531,11.155c0.026,0.19,0.059,0.393,0.023,0.577
	c-1.116,5.687,0.559,11.315,0.342,16.991c-0.214,5.583-0.166,11.175-0.278,16.762c-0.021,1.054-0.318,2.1-0.374,3.155
	C358.49,193.639,358.368,194.848,359.883,195.569z M173.661,13.78c-4.843,0.553-9.923,1.04-14.972,1.746
	c-2.757,0.386-5.478,1.08-8.187,1.749c-4.291,1.059-8.679,1.885-12.808,3.401c-6.946,2.552-13.736,5.534-20.554,8.423
	c-1.125,0.477-2.115,1.339-3.051,2.156c-0.35,0.305-0.632,1.103-0.471,1.468c0.17,0.387,0.928,0.777,1.385,0.73
	c1.712-0.176,3.503-0.273,5.09-0.866c5.047-1.884,9.895-4.401,15.05-5.868c4.88-1.389,9.815-2.615,14.693-4.061
	c3.78-1.12,7.664-1.956,11.553-2.619c3.974-0.678,7.811-2.089,11.933-2.051c1.903,0.017,3.827-0.444,5.707-0.849
	c0.54-0.116,1.416-0.917,1.342-1.183c-0.172-0.62-0.753-1.464-1.302-1.579C177.389,14.025,175.646,13.974,173.661,13.78z
	 M349.019,177.528c0.288,0.007,0.576,0.014,0.864,0.021c0.353-0.641,0.99-1.273,1.011-1.924c0.143-4.382,0.228-8.769,0.156-13.152
	c-0.016-0.981-0.664-2.231-1.949-2.094c-1.439,0.153-1.246,1.526-1.214,2.529c0.133,4.107,0.315,8.213,0.545,12.315
	C348.476,176,348.816,176.76,349.019,177.528z"/>
<path style="fill:#9C1C1F;" d="M282.4,13.023c1.796,0.626,3.724,1.015,5.361,1.925c3.784,2.103,7.576,4.25,11.093,6.761
	c5.641,4.027,11.039,8.361,15.555,13.722c2.538,3.012,5.543,5.626,8.176,8.564c3.464,3.866,6.97,7.724,10.092,11.861
	c4.108,5.445,8.04,11.043,11.714,16.789c3.513,5.495,7.063,10.985,8.919,17.41c1.033,3.576,3.278,6.802,4.315,10.377
	c1.224,4.22,1.776,8.639,2.512,12.991c0.136,0.803-0.089,1.755-0.41,2.529c-0.912,2.198-3.62,2.69-5.194,0.908
	c-0.673-0.762-1.114-1.79-1.46-2.767c-0.641-1.813-1.115-3.684-1.694-5.52c-1.127-3.576-2.191-7.144-4.077-10.467
	c-1.554-2.737-2.266-5.951-3.813-8.693c-2.738-4.851-5.82-9.507-8.775-14.234c-0.51-0.816-1.146-1.552-1.652-2.37
	c-3.061-4.947-7.278-8.933-11.062-13.274c-3.038-3.485-6.157-6.91-9.399-10.205c-2.077-2.111-4.447-3.935-6.679-5.894
	c-1.878-1.648-3.713-3.347-5.626-4.951c-3.236-2.714-6.569-5.313-9.77-8.067c-3.429-2.95-6.775-5.999-10.104-9.062
	c-0.696-0.64-1.172-1.523-1.727-2.31c-0.863-1.224-1.528-2.523-0.729-4.019c0.797-1.491,2.242-1.675,3.743-1.664
	c0.193,0.001,0.386,0,0.578,0C282.324,13.249,282.362,13.136,282.4,13.023z"/>
<path style="fill:#9C1C1F;" d="M362.813,143.26c-0.185-1.822-0.463-4.206-0.654-6.598c-0.083-1.046-0.097-2.122,0.052-3.156
	c0.343-2.374,1.439-3.592,3.264-3.845c1.878-0.261,3.841,0.76,4.814,2.515c0.139,0.251,0.306,0.518,0.338,0.791
	c0.618,5.308,2.219,10.592,0.485,15.965c-0.232,0.72-0.508,1.482-0.97,2.06c-1.564,1.954-3.475,1.945-5.125,0.071
	C363.399,149.226,362.745,147.089,362.813,143.26z"/>
<path style="fill:#9C1C1F;" d="M57.701,309.638c-0.078,1.915-1.527,2.927-3.06,2.332c-0.795-0.309-1.571-0.776-2.22-1.331
	c-2.485-2.125-5.066-4.171-7.305-6.537c-1.274-1.346-2.118-3.185-2.853-4.93c-0.638-1.514,0.002-3.104,1.117-3.875
	c1.299-0.899,2.536-0.309,3.443,0.498c3.816,3.391,7.473,6.958,10.106,11.396C57.403,307.99,57.51,309.007,57.701,309.638z"/>
<path style="fill:#9C1C1F;" d="M70.107,320.269c0.311,0.07,0.952,0.057,1.403,0.343c1.607,1.02,3.268,2.008,4.686,3.261
	c1.627,1.437,1.152,3.224-0.867,3.992c-3.423,1.302-7.779-1.508-8.03-5.181C67.2,321.234,68.156,320.331,70.107,320.269z"/>
<path style="fill:#9C1C1F;" d="M130.126,351.092c2.034-0.001,3.983,1.822,4.047,3.785c0.056,1.711-1.546,3.458-3.201,3.49
	c-1.87,0.036-4.343-2.496-4.319-4.422C126.672,352.514,128.401,351.093,130.126,351.092z"/>
<path style="fill:#9C1C1F;" d="M97.867,343.769c-2.104-0.05-3.778-1.613-3.82-3.567c-0.033-1.547,1.113-2.527,2.888-2.47
	c2.081,0.066,4.184,1.869,4.248,3.641C101.235,342.836,99.879,343.817,97.867,343.769z"/>
<g>
	<path style="fill:#EFEFEF;" d="M222.695,120.771c-0.912,0.058-1.793-0.014-2.651-0.573c0.348-0.763,0.974-0.642,1.53-0.646
		c2.316-0.017,4.633-0.004,6.949-0.037c2.8-0.04,5.599-0.17,8.398-0.163c3.554,0.009,7.113,0.035,10.661,0.215
		c1.645,0.083,3.293,0.456,4.896,0.871c1.038,0.269,1.797,1.059,1.829,2.223c0.075,2.698-0.122,5.353-0.921,7.975
		c-1.315,4.319-2.983,8.529-3.839,12.993c-0.618,3.223-1.452,6.405-2.236,9.594c-0.758,3.083-0.756,6.175-0.384,9.309
		c0.257,2.165,0.62,4.278,1.784,6.152c0.502,0.808,1.114,1.566,1.777,2.249c0.837,0.862,1.01,1.327,0.62,2.426
		c-0.124,0.351-0.23,0.711-0.312,1.074c-0.265,1.179-0.756,1.639-1.983,1.699c-0.697,0.034-1.398-0.063-2.098-0.066
		c-0.533-0.002-1.089-0.038-1.594,0.095c-2.378,0.627-4.402,0.04-6.29-1.501c-3.041-2.482-4.478-5.69-4.729-9.542
		c-0.26-3.996-0.081-7.964,0.594-11.907c0.645-3.765,1.476-7.485,2.349-11.208c0.886-3.78,1.88-7.515,2.993-11.227
		c0.059-0.195,0.019-0.42,0.031-0.854c-0.651-0.139-1.3-0.384-1.955-0.399c-2.046-0.046-4.095,0.012-6.142-0.005
		c-0.918-0.008-1.322,0.453-1.572,1.29c-1.201,4.026-2.457,8.035-3.673,12.056c-0.92,3.043-1.827,6.09-2.705,9.146
		c-0.655,2.277-1.213,4.583-1.897,6.851c-0.34,1.128-0.784,2.243-1.341,3.279c-0.309,0.575-0.87,1.135-1.455,1.412
		c-0.885,0.419-1.309,1.05-1.544,1.928c-0.153,0.571-0.346,1.136-0.572,1.683c-0.35,0.846-1.006,1.385-1.861,1.684
		c-0.886,0.309-1.529-0.006-1.666-0.918c-0.077-0.514,0.005-1.076,0.126-1.59c0.418-1.783,0.891-3.554,1.325-5.333
		c0.106-0.435,0.146-0.886,0.216-1.33c-0.109-0.027-0.218-0.055-0.327-0.083c-0.178,0.476-0.392,0.942-0.528,1.43
		c-0.378,1.349-0.712,2.711-1.089,4.061c-0.159,0.569-0.334,1.142-0.582,1.677c-0.46,0.991-1.089,1.466-1.658,1.254
		c-0.772-0.287-0.975-0.987-0.968-1.711c0.009-1.021-0.043-2.077,0.195-3.054c0.625-2.562,1.389-5.091,2.106-7.631
		c0.161-0.57,0.353-1.131,0.534-1.695c0.267-0.832,0.186-1.625-0.407-2.276c-0.708-0.777-0.727-1.615-0.446-2.557
		c1.249-4.181,2.464-8.372,3.726-12.549c0.498-1.65,1.096-3.269,1.625-4.91c0.142-0.439,0.197-0.906,0.324-1.512
		c-0.743-0.095-1.318-0.232-1.892-0.23c-2.638,0.011-5.276,0.078-7.914,0.089c-1.245,0.005-1.967,0.428-2.565,1.678
		c-1.252,2.616-1.738,5.433-2.575,8.154c-1.013,3.295-1.966,6.609-2.915,9.924c-0.86,3.005-1.64,6.033-2.531,9.028
		c-0.506,1.702-1.162,3.36-1.751,5.038c-0.227,0.646-0.588,1.186-1.325,1.261c-0.719,0.074-0.986,0.559-1.217,1.13
		c-0.243,0.598-0.44,1.229-0.775,1.772c-1.051,1.707-3.135,1.877-4.506,0.471c-0.387-0.397-0.929-0.754-1.459-0.877
		c-0.929-0.215-1.453-0.778-1.591-1.616c-0.181-1.103-0.376-2.255-0.251-3.35c0.542-4.743,1.859-9.289,3.788-13.655
		c0.454-1.029,1.054-2.017,0.33-3.201c-0.155-0.253-0.019-0.746,0.094-1.092c0.941-2.862,1.897-5.719,2.872-8.57
		c0.593-1.734,1.247-3.447,1.831-5.183c0.356-1.057,0.066-1.53-1.12-1.558c-2.044-0.05-4.092,0.048-6.138,0.063
		c-0.643,0.005-1.301,0.019-1.927-0.103c-1.879-0.366-2.12-0.928-1.134-2.739c-0.518-0.153-1.037-0.24-1.49-0.462
		c-0.354-0.173-0.853-0.494-0.879-0.785c-0.035-0.398,0.205-1.017,0.526-1.211c0.725-0.438,1.563-0.703,2.374-0.983
		c0.706-0.243,1.438-0.41,2.185-0.618c-1.033-1.704-0.654-2.398,1.339-2.488c3.657-0.165,7.316-0.348,10.976-0.396
		c6.403-0.084,12.808-0.072,19.212-0.091c0.199-0.001,0.399,0.111,0.698,0.199c-0.094,0.407-0.181,0.786-0.284,1.232
		c1.691,0.353,3.272,0.415,4.838-0.182c0.517,0.15,1.025,0.407,1.54,0.419c1.872,0.044,3.746,0.033,5.619-0.013
		c1.045-0.026,2.088-0.161,3.132-0.247c-0.01-0.114-0.021-0.229-0.031-0.343C229.528,120.644,226.112,120.707,222.695,120.771z
		 M244.519,153.654c0.6-2.636,1.188-5.275,1.802-7.907c0.61-2.613,1.245-5.221,1.869-7.831c-0.102-0.032-0.205-0.063-0.307-0.095
		c-0.176,0.594-0.368,1.183-0.524,1.782c-1.006,3.846-2.001,7.696-3.009,11.542C244.132,151.981,244.111,152.803,244.519,153.654z
		 M195.834,154.072c0.157,0.068,0.314,0.136,0.471,0.205c0.449-1.284,0.893-2.57,1.347-3.853c0.971-2.742,0.998-2.877,0.651-4.186
		C196.946,148.852,196.368,151.455,195.834,154.072z M225.346,139.078c-0.969,2.069-2.399,8.099-2.308,9.6
		C224.231,145.342,224.739,142.191,225.346,139.078z M199.853,141.023c1.429-1.365,2.096-3.96,1.565-5.29
		C200.922,137.408,200.439,139.043,199.853,141.023z M252.66,127.382c1.258-0.869,1.41-1.802,0.746-3.094
		C253.138,125.399,252.899,126.39,252.66,127.382z"/>
	<path style="fill:#EFEFEF;" d="M145.816,114.941c-0.655-0.112-0.968-0.218-1.279-0.21c-2.368,0.057-4.738,0.087-7.102,0.219
		c-3.71,0.208-7.416,0.482-11.122,0.741c-2.309,0.161-4.614,0.424-6.925,0.487c-1.382,0.038-2.824-0.031-4.146-0.392
		c-2.348-0.642-3.131-2.429-2.201-4.649c0.187-0.445,0.613-0.875,1.039-1.12c1.483-0.849,3.142-1.077,4.822-1.173
		c1.291-0.074,2.581-0.173,3.873-0.199c0.729-0.014,1.255-0.192,1.458-0.966c0.193-0.735,0.805-0.978,1.459-1.105
		c0.844-0.164,1.694-0.367,2.548-0.408c8.337-0.405,16.672-0.843,25.013-1.129c2.954-0.101,5.923,0.178,8.884,0.307
		c1.624,0.071,1.623,0.093,1.83,1.867c0.402-0.038,0.874,0.046,1.201-0.134c2.635-1.452,5.145-0.703,7.577,0.461
		c3.015,1.443,5.074,3.86,6.11,6.997c0.669,2.025,0.491,4.207-0.244,6.2c-0.818,2.214-1.862,4.352-2.912,6.471
		c-0.726,1.466-0.774,1.737,0.626,2.604c4.151,2.574,6.424,6.443,7.494,11.056c0.642,2.77,0.455,5.577-0.54,8.281
		c-0.873,2.372-1.579,4.831-2.707,7.077c-2.605,5.187-6.62,9.132-11.626,12.012c-2.841,1.635-5.753,3.188-8.762,4.476
		c-1.85,0.792-3.923,1.155-5.934,1.454c-2.113,0.314-2.269,0.067-2.481-2.134c-1.199-0.599-2.505-1.13-3.673-1.877
		c-0.835-0.534-1.615-1.264-2.187-2.071c-0.921-1.3-0.034-3.009,1.567-3.235c0.467-0.066,0.94-0.092,1.62-0.157
		c-0.267-0.439-0.409-0.759-0.63-1.012c-0.317-0.363-0.713-0.657-1.037-1.016c-1.051-1.166-1.052-1.329-0.128-2.84
		c1.163-0.149,2.201,0.305,3.162,0.898c3.433,2.118,7.047,1.885,10.533,0.465c3.798-1.546,7.032-3.977,9.161-7.619
		c0.487-0.833,0.873-1.727,1.288-2.601c0.161-0.34,0.282-0.7,0.408-1.055c0.225-0.634,0.52-1.33,1.291-1.187
		c0.403,0.075,0.711,0.655,1.145,1.089c0.477-0.804,0.475-1.78,0.477-2.654c-0.661-0.356-1.416-0.536-1.754-1.012
		c-0.319-0.449-0.273-1.212-0.262-1.834c0.069-3.802-1.484-5.881-4.991-7.238c-2.402-0.929-4.807-0.707-7.286-0.03
		c-4.696,1.284-8.687,3.692-12.18,7.013c-1.828,1.738-2.877,4.012-4.203,6.1c-1.54,2.426-2.168,5.138-2.742,7.888
		c-0.297,1.421-0.63,2.799-1.87,3.828c-0.467,0.388-0.58,1.239-0.783,1.901c-0.462,1.513-1.013,2.944-2.357,3.941
		c-0.695,0.516-1.359,0.875-2.216,0.431c-0.882-0.456-0.957-1.254-0.833-2.086c0.381-2.557,0.734-5.121,1.215-7.659
		c0.422-2.221,1.019-4.409,1.504-6.619c0.155-0.707,0.196-1.438,0.328-2.459c-0.837,0.492-0.846,1.065-0.957,1.533
		c-0.682,2.883-1.358,5.768-1.988,8.663c-0.469,2.156-0.861,4.329-1.298,6.492c-0.117,0.581-0.206,1.246-0.978,1.29
		c-0.77,0.044-1.473-0.313-1.628-1.062c-0.204-0.982-0.291-2.024-0.214-3.024c0.457-5.895,2.378-11.471,3.772-17.167
		c1.374-5.613,3.138-11.098,5.1-16.516c1.262-3.486,2.615-6.97,4.613-10.134C143.674,117.956,144.691,116.576,145.816,114.941z
		 M176.53,117.253c-0.556,1.075-0.538,2.214-0.394,3.366c0.5-1.076,0.732-2.181,0.369-3.347c0.037-1.075,0.173-2.175-0.596-3.046
		c-0.117,0.032-0.233,0.064-0.35,0.096C175.886,115.297,176.212,116.272,176.53,117.253z M155.815,170.482
		c1.383-0.098,2.806,0.019,4.071-0.759c-1.302,0.072-2.581,0.295-3.856,0.534c-0.077,0.015-0.13,0.16-0.205,0.232
		c-0.519-0.154-1.038-0.307-1.558-0.461c-0.019,0.088-0.038,0.176-0.057,0.264C154.746,170.356,155.28,170.419,155.815,170.482z
		 M167.719,118.551c-0.174,0.023-0.349,0.045-0.523,0.068c-0.408-1.283-0.817-2.566-1.27-3.989
		c-0.282-0.018-0.708-0.108-1.117-0.059c-2.844,0.334-5.383,1.468-7.655,3.156c-2.915,2.166-4.806,5.174-6.503,8.309
		c-0.65,1.201-1.166,3.12-1.123,3.995c0.464-0.218,0.918-0.372,1.309-0.623c2.353-1.516,5.083-2.013,7.681-2.864
		c0.398-0.13,0.85-0.094,1.277-0.143c4.866-0.556,4.426,0.364,6.307-4.601c0.239-0.63,0.349-1.372,1.115-1.651
		c0.66,0.744,0.66,0.744,0.778,2.136c1.387-2.418,1.358-4.621-0.088-6.338C167.843,116.813,167.781,117.682,167.719,118.551z
		 M144.557,121.869c-2.13,2.136-6.554,13.365-6.008,15.42C140.329,132.061,141.912,126.756,144.557,121.869z M170.503,164.866
		c3.402-2.105,5.627-5.201,7.181-8.363C175.455,159.098,172.979,161.982,170.503,164.866z"/>
	<path style="fill:#EFEFEF;" d="M81.895,132.669c0.818-0.375,2.127-2.174,2.642-3.275c-1.534-0.971-1.52-1.365-0.526-2.911
		c2.005-3.12,4.961-5.039,8.347-6.007c4.622-1.321,9.371-0.286,12.242,4.087c0.403,0.614,0.667,1.35,0.849,2.067
		c0.09,0.355-0.021,0.931-0.269,1.168c-0.661,0.631-0.756,1.374-0.786,2.203c-0.033,0.912-0.172,1.819-0.208,2.731
		c-0.015,0.392,0.112,0.789,0.452,1.163c0.045-1.001,0.062-2.004,0.146-3.001c0.06-0.715-0.144-1.805,0.819-1.854
		c1.001-0.052,0.859,1.033,0.927,1.748c0.071,0.748,0.065,1.502,0.114,2.252c0.026,0.402,0.099,0.8,0.164,1.305
		c0.353-0.112,0.591-0.122,0.732-0.243c1.342-1.163,2.697-2.314,3.99-3.53c1.994-1.875,3.941-3.798,5.91-5.699
		c0.581-0.561,1.208-1.08,1.743-1.681c1.356-1.521,3.163-2.209,5.037-2.737c0.38-0.107,0.93,0.098,1.304,0.322
		c0.771,0.463,1.154,1.233,1.409,2.092c0.193,0.652,0.445,1.299,0.764,1.898c0.488,0.916,0.269,1.79-0.061,2.652
		c-0.442,1.155-0.854,2.335-1.44,3.418c-2.493,4.604-3.929,9.542-4.769,14.675c-0.658,4.022-0.403,8.032,0.251,12.03l-0.035-0.051
		c0.143,1.079,0.287,2.158,0.43,3.237l-0.027-0.078c-0.154,4.183,1.48,7.762,3.752,11.127c0.511,0.757,1.094,1.478,1.509,2.286
		c0.507,0.987,0.203,1.568-0.811,2.05c-0.459,0.218-0.939,0.469-1.288,0.825c-0.953,0.97-2.75,1.329-3.815,0.489
		c-1.132-0.893-2.303-1.85-3.11-3.018c-1.749-2.531-3.195-5.247-3.719-8.353c-0.114-0.675-0.366-1.326-0.619-2.218
		c-0.216,1,0.007,2.161,0.498,3.675c0.264,0.814,0.444,1.66,0.596,2.503c0.064,0.355,0.027,0.764-0.087,1.107
		c-0.233,0.699-0.883,0.847-1.375,0.286c-0.346-0.394-0.602-0.895-0.799-1.387c-1.156-2.879-1.718-5.92-1.936-8.975
		c-0.244-3.43-0.168-6.887-0.132-10.331c0.015-1.432,0.287-2.861,0.465-4.501c-0.382,0.192-0.643,0.248-0.79,0.408
		c-3.475,3.774-7.282,7.201-11.22,10.469c-4.108,3.408-8.447,6.506-13.172,9.037c-1.438,0.771-2.858,1.506-4.517,1.607
		c-2.359,0.144-4.59-0.227-6.076-2.263c-1.973-2.704-3.159-5.737-3.319-9.13c-0.212-4.477,0.642-8.825,1.876-13.065
		c0.716-2.461,1.967-4.779,3.106-7.099c0.826-1.683,1.807-3.3,2.826-4.877c0.705-1.092,1.357-1.332,1.94-1.021
		c0.685,0.365,0.711,1.193,0.077,2.423c-0.239,0.491-0.48,0.973-0.721,1.454c0.081,0.03,0.162,0.06,0.244,0.089
		C81.584,133.719,81.739,133.194,81.895,132.669z M94.532,136.529c-0.859-1.972-1.917-2.173-3.237-0.69
		c-0.107,0.12-0.188,0.266-0.302,0.378c-1.285,1.272-2.214,2.821-2.839,4.462c-0.933,2.452-1.691,4.984-2.302,7.535
		c-0.203,0.85,0.157,1.908,0.492,2.782c0.169,0.441,0.836,0.895,1.318,0.943c0.344,0.035,0.903-0.526,1.103-0.946
		c0.391-0.821,0.862-1.472,1.738-1.794c0.191-0.07,0.393-0.215,0.504-0.383c0.885-1.336,1.884-2.619,2.581-4.049
		c0.701-1.438,1.202-2.999,1.588-4.557c0.328-1.326,0.642-2.716,0.158-4.244C95.054,136.164,94.852,136.305,94.532,136.529z
		 M119.342,143.321c-1.17,2.289-1.47,9.896-0.603,12.154C118.931,151.606,119.136,147.47,119.342,143.321z M86.347,139.661
		c-1.119,1.973-2.256,3.99-2.296,6.429C84.828,143.915,85.587,141.788,86.347,139.661z M106.576,136.402
		c2.095-1.413,2.123-1.441,2.479-2.525c-0.802,0.667-1.502,1.237-2.185,1.828C106.769,135.792,106.751,135.975,106.576,136.402z
		 M76.525,161.031c-0.173,1.023-0.173,1.023,0.63,1.756C76.894,162.06,76.709,161.545,76.525,161.031z"/>
	<path style="fill:#EFEFEF;" d="M287.242,119.881c0.577-0.056,1.174-0.236,1.727-0.146c3.046,0.497,5.981,1.382,8.76,2.742
		c0.27,0.132,0.672,0.39,0.677,0.598c0.027,1.094,0.913,1.451,1.613,1.84c2.405,1.336,4.164,3.413,6.079,5.278
		c1.548,1.507,2.455,3.529,3.123,5.605c0.526,1.637,1.075,3.27,1.52,4.929c0.897,3.349,0.893,6.745-0.04,10.06
		c-0.683,2.425-1.531,4.846-3.065,6.904c-0.601,0.807-1.405,1.472-2.169,2.143c-0.437,0.383-0.994,0.799-1.587,0.304
		c-0.634-0.529-0.342-1.177-0.048-1.768c0.504-1.011,1.056-2,1.538-3.021c0.257-0.544,0.409-1.138,0.672-1.892
		c-1.05,0.137-1.105,0.813-1.368,1.287c-0.99,1.783-1.874,3.634-2.993,5.331c-0.699,1.061-1.742,1.898-2.639,2.827
		c-0.552,0.572-1.121,1.127-1.597,1.817c0.86,0.064,1.441-0.46,2.038-0.905c0.56-0.417,1.043-0.944,1.622-1.33
		c0.349-0.233,0.816-0.29,1.224-0.425c0.375,0.915-0.133,1.296-0.492,1.758c-1.629,2.099-3.953,3.298-6.093,4.733
		c-2.082,1.396-4.4,2.38-6.787,2.962c-2.006,0.489-4.169,0.542-6.251,0.467c-6.584-0.239-12.337-2.811-17.484-6.768
		c-1.803-1.386-3.035-3.342-4.068-5.374c-1.268-2.493-2.703-4.927-2.969-7.802c-0.054-0.589-0.134-1.181-0.114-1.769
		c0.057-1.692,0.309-1.92,1.92-1.944c0.793-2.682,1.35-5.444,2.434-7.979c1.052-2.458,2.646-4.685,3.904-7.085
		c-0.855,0.348-1.344,1.045-1.782,1.767c-0.614,1.013-1.171,2.062-1.774,3.082c-0.679,1.149-1.402,1.582-1.976,1.222
		c-0.558-0.349-0.611-1.247,0.043-2.364c0.897-1.533,1.905-3.001,2.858-4.501c1.826-2.875,4.404-5.061,7.091-6.993
		c3.328-2.393,7.044-4.017,11.229-4.66c3.1-0.476,6.08-0.075,9.111,0.215c0.019-0.102,0.039-0.205,0.058-0.307
		c-1.316-0.281-2.632-0.563-3.954-0.85C287.228,119.864,287.242,119.881,287.242,119.881z M277.43,131.562
		c1.458-0.192,2.561-1.105,3.752-1.836c-1.427,0.264-2.774,0.686-3.728,1.882c-0.284,0.153-0.568,0.306-0.852,0.459
		c0.064,0.088,0.128,0.175,0.192,0.263C277.006,132.074,277.218,131.818,277.43,131.562z M299.262,148.561
		c1.003-3.337,1.111-6.568-0.492-9.86c-1.454-2.986-3.812-4.926-6.562-6.443c-1.844-1.017-3.961-1.525-6.087-1.323
		c-2.797,0.265-5.444,0.987-7.899,2.555c-3.396,2.168-5.767,5.111-7.52,8.648c-0.095,0.191-0.147,0.405-0.203,0.613
		c-0.903,3.372-0.887,6.706,0.477,9.963c0.245,0.584,0.603,1.139,0.994,1.641c1.445,1.858,3.317,3.156,5.362,4.315
		c2.123,1.203,4.275,1.989,6.734,1.852c2.855-0.159,5.438-0.993,7.823-2.638C295.316,155.517,297.97,152.607,299.262,148.561z
		 M308.066,140.832c-0.062-2.772-2.758-8.667-4.762-9.569c1.013,1.711,1.994,3.17,2.768,4.732
		C306.845,137.553,307.41,139.215,308.066,140.832z"/>
	<path style="fill:#EFEFEF;" d="M121.679,157.539c0.252-4.89,0.467-9.76,1.465-14.602c0.6-2.914,1.43-5.728,2.285-8.553
		c0.239-0.791,0.668-1.525,1.01-2.285c0.097,0.04,0.195,0.081,0.292,0.121c-0.59,1.994-1.285,3.965-1.746,5.988
		c-0.787,3.459-1.687,6.925-2.056,10.439c-0.357,3.404-0.132,6.872-0.099,10.311c0.006,0.681,0.292,1.36,0.46,2.038
		c0.49,1.967,0.986,3.933,1.545,6.162c-0.929-0.68-1.274-1.409-1.47-2.248c-0.268-1.149-0.537-2.298-0.846-3.436
		c-0.08-0.296-0.31-0.552-0.471-0.827l0.027,0.078c-0.143-1.079-0.287-2.158-0.43-3.237L121.679,157.539z"/>
	<path style="fill:#EFEFEF;" d="M144.721,151.887c1.028-4.378,4.417-7.006,7.415-9.884c2.042-1.96,8.873-4.599,10.99-4.414
		c-2.562,1.097-4.986,2.076-7.359,3.166c-2.43,1.116-4.311,2.971-6.241,4.777C147.546,147.385,146.172,149.647,144.721,151.887z"/>
	<path style="fill:#EFEFEF;" d="M206.575,131.837c0.046,1.546-6.723,25.947-7.401,27.028
		C199.14,157.516,205.538,133.956,206.575,131.837z"/>
	<path style="fill:#EFEFEF;" d="M89.45,165.742c0.895-1.334,2.386-1.425,3.363-2.246c1.02-0.857,2.246-1.465,3.318-2.267
		c1.114-0.835,2.135-1.793,3.227-2.659c1.049-0.833,2.144-1.608,3.204-2.429c1.06-0.82,2.129-1.633,3.143-2.508
		c0.993-0.856,1.922-1.786,2.917-2.64c-1.414,2.553-9.604,9.337-16.364,13.633C90.678,165.629,90.678,165.629,89.45,165.742z"/>
	<path style="fill:#EFEFEF;" d="M205.665,161.569c-0.01-0.714-0.107-1.171-0.002-1.576c0.17-0.658,0.436-1.301,0.744-1.908
		c0.079-0.155,0.498-0.251,0.709-0.19c0.19,0.054,0.404,0.343,0.44,0.556C207.706,159.332,206.917,160.773,205.665,161.569z"/>
</g>
<path style="fill:#9C1C1F;" d="M710.634,273.672c0.187,0.944-20.318-2.191-30.538-1.94c-5.548,0.136-11.095-0.144-16.635-0.469
	c-6.073-0.356-12.187-0.206-18.241-0.744c-4.744-0.421-9.456-1.298-14.146-2.169c-0.27-0.05-0.545-0.141-0.817-0.261
	c-8.693,6.02-17.796,14.225-28.251,15.718c0.156,0.432,0.286,0.876,0.449,1.304c0.839,2.198,2.661,4.506,4.962,3.968
	c2.755-0.644,4.191,0.876,6.145,1.809c1.016,0.485,2.363,0.928,3.345,0.644c0.902-0.261,1.516-1.523,2.376-2.476
	c0.73,0.334,1.56,0.715,2.609,1.195c-0.763,0.841-1.353,1.49-1.897,2.09c0.566,1.575,1.384,2.475,2.984,2.263
	c2.057-0.272,0.98-2.241,1.652-3.663c1.462,0.821,3.424,1.252,3.759,2.236c1.029,3.023,3.412,3.163,5.743,3.275
	c8.261,0.396,16.53,0.605,24.796,0.905c18.114-7.725,35.828-14.962,52.002-25.888C710.851,273.737,710.447,272.728,710.634,273.672z
	"/>
<path style="fill:#9C1C1F;" d="M627.89,216.422c-2.166-4.205-5.366-7.877-8.102-11.79c-1.162-1.663-2.511-3.234-3.422-5.027
	c-6.084-11.98-13.86-22.893-21.261-34.045c-1.654-2.492-3.306-4.996-4.747-7.611c-0.634-1.151-1.027-2.534-1.146-3.856
	c-11.202-15.882-28.045-50.1-28.993-49.648c-0.853-1.201-1.826-2.375-2.587-3.675c-3.762-6.424-8.194-12.3-13.548-17.506
	c-3.783-3.678-7.355-7.806-12.184-9.923c-8.708-3.818-17.838-6.201-27.536-4.968c-3.072,0.391-3.664,1.035-3.577,4.417
	c0.041,1.624-0.579,2.426-2.257,2.588c-0.291-0.447-0.545-0.834-0.796-1.223c-1.415-2.197-2.443-2.484-4.703-1.245
	c-0.626,0.343-1.224,0.761-1.771,1.221c-5.365,4.506-9.662,10.026-13.463,15.776c-8.57,12.965-16.762,26.185-24.902,39.427
	c-4.191,6.818-7.885,13.94-11.935,20.847c-1.106,1.886-1.213,3.815-0.258,5.439c1.182,2.009,0.675,3.671-0.135,5.415
	c-2.719,5.855-5.478,11.691-8.277,17.508c-0.345,0.718-1.018,1.28-1.539,1.914c-0.225-0.134-0.451-0.268-0.676-0.402
	c0.165-0.64,0.239-1.322,0.51-1.915c1.34-2.933,2.775-5.824,4.091-8.767c1.023-2.287,2.016-4.599,2.81-6.97
	c0.201-0.6-0.203-1.827-0.704-2.116c-0.492-0.284-1.674,0.027-2.176,0.488c-0.951,0.873-1.821,1.947-2.392,3.101
	c-2.118,4.279-4.033,8.659-6.147,12.94c-4.657,9.43-9.484,18.777-14.059,28.246c-3.633,7.517-6.817,15.255-10.533,22.729
	c-3.288,6.614-5.344,13.537-6.701,20.75c-0.654,3.477-0.76,6.91-0.062,10.341c1.512,7.438,5.177,13.834,9.892,19.666
	c0.731,0.904,1.716,1.714,2.751,2.236c1.834,0.926,2.991,0.192,3.14-1.866c0.096-1.337,0.018-2.686,0.018-4.03
	c2.064,1.782,3.65,3.585,4.756,5.646c1.318,2.455,3.233,4.191,5.58,5.408c7.648,3.965,15.919,6.03,24.418,6.634
	c6.294,0.448,12.645,0.226,18.98,0.459c11.225,0.414,22.484,0.019,33.725-0.211c5.373-0.109,10.74-0.59,16.105-0.961
	c1.232-0.085,2.669,0.132,3.695-1.663c-1.078-0.812-2.101-1.584-3.57-2.69c14.793-0.532,29.058-1.793,43.4-0.44
	c-0.823,0.586-1.688,0.793-2.559,0.967c-1.406,0.281-2.887,0.361-4.197,0.879c-0.724,0.286-1.164,1.291-1.732,1.971
	c0.622,0.474,1.218,0.991,1.88,1.4c0.279,0.172,0.698,0.152,1.054,0.16c2.99,0.058,5.991,0.292,8.968,0.118
	c11.465-0.671,22.925-1.448,34.383-2.238c6.583-0.454,12.939-2.114,19.347-3.586c5.325-1.223,10.066-3.741,14.926-5.961
	c6.182-2.822,10.71-7.532,13.597-13.748c0.84-1.809,0.791-3.38-1.138-4.888c-1.995,2.242-3.886,4.369-5.778,6.494
	c1.066-2.869,2.823-5.243,3.896-7.893c1.101-2.72,1.534-5.71,2.329-8.857c0.155-0.003,0.304-0.007,0.459-0.01
	c-3.704-9.741-1.15-16.515-9.981-29.788C624.226,208.817,629.251,219.063,627.89,216.422z M402.896,254.777
	c1.556,4.855,4.717,9.178,4.914,14.494C405.404,264.711,402.532,260.319,402.896,254.777z M490.626,101.942
	c0.174,2.245-0.252,3.779-1.188,5.283c-4.021,6.457-7.987,12.948-11.96,19.436c-0.296,0.484-0.48,1.036-0.716,1.556
	c-0.316-0.265-0.633-0.53-0.949-0.795C480.664,119.079,485.514,110.736,490.626,101.942z M436.135,271.635
	c-1.451-0.444-2.901-0.887-4.352-1.331l0.238-0.779c1.619-0.109,3.125,0.154,4.358,1.31
	C436.298,271.103,436.217,271.369,436.135,271.635z M488.166,287.772c-2.145,0.099-4.303,0.191-6.444,0.074
	c-1.933-0.106-4.025,0.723-5.756-1.111c5.982-0.545,11.92-0.464,17.839,0.732C491.993,288.67,490.04,287.686,488.166,287.772z
	 M498.918,287.925c0.039-0.102,0.078-0.204,0.117-0.306h5.308c0.001,0.102,0.001,0.204,0.002,0.306H498.918z M605.037,262.233
	c-4.797,1.799-9.757,2.228-14.727,2.832c-13.317,1.621-26.672,2.386-40.101,2.486c-18.046,0.133-36.088,0.843-54.134,1.216
	c-6.69,0.138-13.387-0.049-20.079,0.043c-6.982,0.095-13.82-1.013-20.673-2.11c-2.359-0.378-4.78-0.367-7.14-0.738
	c-4.478-0.703-9.004-1.281-13.378-2.419c-4.335-1.128-8.222-3.39-10.925-7.123c-3.453-4.77-2.334-9.925-0.305-14.703
	c4.062-9.568,8.468-18.994,12.881-28.408c4.053-8.648,8.345-17.183,12.41-25.826c0.496-1.055,0.705-2.71,0.215-3.655
	c-0.732-1.413-0.546-2.439,0.066-3.674c1.533-3.091,3.026-6.202,4.618-9.476c3.362,0.63,3.421,0.665,4.918-1.803
	c3.533-5.824,7-11.688,10.504-17.53c5.845-9.743,11.738-19.456,17.521-29.235c1.76-2.975,3.022-6.253,4.867-9.167
	c3.062-4.837,6.278-9.591,9.681-14.192c2.92-3.947,9.258-5.803,13.882-4.35c1.097,0.345,2.291,0.889,3.055,1.703
	c3.262,3.476,6.699,6.858,9.474,10.706c3.769,5.225,6.915,10.895,10.475,16.277c2.236,3.38,4.751,6.575,7.119,9.87
	c0.906,1.26,1.902,2.488,2.596,3.862c3.26,6.455,8.339,11.625,12.289,17.583c6.604,9.964,13.194,19.941,19.589,30.04
	c7.037,11.112,13.814,22.389,20.768,33.554c4.166,6.689,8.501,13.272,12.676,19.955
	C617.754,245.277,615.583,258.277,605.037,262.233z"/>
<g>
	<path style="fill:#9C1C1F;" d="M798.495,263.663c0.508-0.686,0.871-1.675,1.34-1.727c2.751-0.309,2.036-1.974,1.773-3.661
		c-0.832,0.025-1.468,0.043-2.327,0.068c0.382-3.878,0.874-7.55,1.07-11.239c0.171-3.222-0.213-6.481,0.392-10
		c-2.027-1.485-4.012-3.108-5.846-5.076c-5.994-5.718-11.994-11.435-18.47-17.17c0.046,0.553,0.071,1.117,0.06,1.702
		c-0.278,14.585-0.568,29.17-0.698,43.757c-0.03,3.364-0.033,6.534-3.364,8.436c-1.111,0.634-2.345,1.385-3.559,1.456
		c-9.067,0.537-18.139,1.01-27.217,1.294c-2.959,0.092-5.933-0.543-8.907-0.643c-2.012-0.068-4.034,0.26-6.054,0.338
		c-3.934,0.152-7.872,0.385-11.805,0.344c-5.491-0.057-10.981-0.303-16.47-0.525c-4.163-0.168-7.612,1.879-11.775,1.675
		c-7.406-0.362-15.458-0.901-22.864-1.272c-1.313-0.066-6.523-0.308-7.835-0.408c-2.246-0.171-11.397,0.539-13.026-0.446
		c3.101,9.983,16.666,16.891,20.025,26.756c4.445,0.064,8.804,0.132,13.157,0.181c0.595,0.007,1.19-0.094,1.786-0.136
		c2.498-0.175,5-0.547,7.492-0.48c5.98,0.16,11.953,0.549,17.931,0.805c6.683,0.287,13.366,0.624,20.053,0.743
		c2.389,0.043,4.938-0.134,6.931-3.005c-1.727-0.45-3.032-1.054-4.351-1.084c-4.419-0.101-8.852,0.209-13.26-0.017
		c-8.347-0.427-16.682-1.103-25.02-1.717c-0.716-0.053-1.41-0.415-2.114-0.634c0.52-0.568,0.969-0.765,1.412-0.752
		c7.043,0.219,14.085,0.466,21.127,0.704c5.97,0.202,11.941,0.399,17.911,0.601c2.946,0.1,5.892,0.207,8.838,0.31
		c0.045,3.947,0.721,4.629,4.566,4.462c7.522-0.328,15.041-0.747,22.566-1.007c6.335-0.219,12.661-0.479,18.834-2.048
		c3.229-0.82,6.8-1.227,9.525-2.928c8.43-5.26,11.638-13.605,12-23.172C802.45,264.792,802.212,264.78,798.495,263.663z"/>
	<path style="fill:#9C1C1F;" d="M613.314,197.51c-0.336-11.109-0.707-22.22-0.766-33.331c-0.029-5.479,0.597-10.96,0.896-16.442
		c0.286-5.249,0.316-10.523,0.859-15.744c0.492-4.737,1.44-9.435,2.381-14.112c0.214-1.062,1.044-2.202,1.919-2.883
		c1.393-1.084,2.993-1.978,4.627-2.659c4.123-1.719,4.15-1.653,1.914-5.715c2.992-0.147,5.815-0.421,8.635-0.398
		c9.796,0.081,19.592,0.249,29.388,0.432c1.06,0.02,2.112,0.366,3.172,0.526c2.313,0.349,4.449,0.235,6.351-1.511
		c0.791-0.727,2.098-1.266,3.165-1.256c5.113,0.048,10.224,0.313,15.423,0.503c0.121,1.173,0.082,1.884,0.283,2.519
		c0.364,1.15,1.17,1.985,2.42,1.375c1.296-0.632,0.612-1.546,0.01-2.351c-0.128-0.172-0.139-0.431-0.357-1.168
		c1.623,0.136,3.066,0.257,4.692,0.394l-0.118,3.36c1.453,0.173,2.816,0.472,4.18,0.473c7.176,0.005,14.355-0.19,21.529-0.082
		c10.975,0.164,21.947,0.517,32.92,0.795c1.265,0.032,6.854,0.398,8.328,0.453c3.425-7.632,7.771-15.612,11.224-23.344
		c-2.145,0.061-9.977-0.414-12.126-0.407c-8.489,0.031-16.978,0.131-25.467,0.188c-5.856,0.039-11.721,0.242-17.566-0.01
		c-2.901-0.125-5.184,0.168-6.535,3.01c-0.069,0.145-0.424,0.155-0.87,0.301c-0.821-1.465-2.09-2.144-3.951-2.197
		c-4.774-0.135-9.538-0.576-14.31-0.807c-1.349-0.065-2.386-0.278-3.481-1.307c-0.937-0.881-2.526-1.401-3.858-1.469
		c-5.108-0.26-10.229-0.266-15.345-0.379c-7.983-0.177-15.967-0.323-23.948-0.555c-13.424-0.388-26.757,0.501-39.972,2.883
		c-2.922,0.527-5.812,1.401-8.606,2.419c-2.21,0.805-4.545,2.593-4.042,4.902c0.603,2.765-0.939,4.178-1.901,6.117
		c-0.5,1.009-0.964,2.349-0.694,3.335c0.248,0.906,1.5,1.539,2.44,2.413c-0.345,0.725-0.738,1.549-1.234,2.591
		c-0.829-0.776-1.47-1.375-2.061-1.928c-1.584,0.542-2.495,1.347-2.307,2.95c0.242,2.061,2.226,1.013,3.638,1.707
		c-0.843,1.45-1.303,3.405-2.292,3.725c-3.038,0.983-3.214,3.364-3.361,5.694c-0.496,7.872-0.822,15.756-1.218,23.634
		c-0.022,0.439,0.07,0.918,0.039,1.382c7.424,18.146,15.35,35.931,25.986,52.197C613.342,197.658,613.317,197.583,613.314,197.51z
		 M719.335,105.328c0.01,0.205,0.019,0.41,0.028,0.616c-0.833,0.031-1.667,0.063-2.5,0.094l-0.028-0.655
		C717.668,105.365,718.502,105.347,719.335,105.328z M620.272,108.676c-0.939,0.544-1.877,1.088-3.281,1.901
		C617.518,108.475,618.997,108.68,620.272,108.676z"/>
</g>
<path style="fill:#9C1C1F;" d="M769.048,89.315c-0.686-0.508-1.675-0.871-1.727-1.34c-0.309-2.751-1.974-2.036-3.661-1.773
	c0.025,0.832,0.043,1.468,0.068,2.327c-3.878-0.382-7.55-0.874-11.239-1.07c-3.222-0.171-6.481,0.213-10-0.392
	c-1.485,2.027-3.108,4.012-5.076,5.846c-5.718,5.994,13.703,18.979,28.289,19.108c3.364,0.03,6.534,0.033,8.436,3.364
	c0.634,1.111,1.385,2.345,1.456,3.559c0.537,9.067,1.01,18.139,1.294,27.217c0.092,2.959-0.543,5.933-0.643,8.907
	c-0.068,2.012,0.26,4.034,0.338,6.054c0.152,3.934,0.385,7.872,0.344,11.805c-0.057,5.491-0.303,10.981-0.525,16.47
	c-0.168,4.163-0.437,8.323-0.641,12.485c-0.362,7.406-0.7,14.813-1.07,22.218c-0.066,1.313-0.262,2.619-0.362,3.931
	c-0.171,2.246-0.757,4.139-1.741,5.768c9.983-3.101,20.255-5.569,30.121-8.927c0.064-4.445,0.132-8.804,0.181-13.157
	c0.007-0.595-0.094-1.19-0.135-1.786c-0.175-2.498-0.547-5-0.48-7.492c0.16-5.98,0.549-11.953,0.805-17.931
	c0.287-6.683,0.624-13.366,0.743-20.053c0.043-2.389-0.134-4.938-3.005-6.931c-0.45,1.727-1.054,3.032-1.084,4.351
	c-0.101,4.419,0.209,8.852-0.017,13.26c-0.427,8.347-1.103,16.682-1.717,25.02c-0.053,0.716-0.415,1.41-0.634,2.114
	c-0.568-0.52-0.765-0.97-0.752-1.412c0.219-7.043,0.466-14.085,0.704-21.127c0.202-5.97,0.399-11.941,0.601-17.911
	c0.1-2.946,0.207-5.892,0.31-8.838c3.947-0.045,4.629-0.721,4.462-4.566c-0.328-7.522-0.747-15.041-1.007-22.566
	c-0.219-6.335-0.479-12.661-2.048-18.834c-0.82-3.229-1.227-6.8-2.928-9.525c-5.26-8.43-13.605-11.638-23.172-12
	C770.177,85.359,770.165,85.597,769.048,89.315z"/>
<g>
	<path style="fill:#9C1C1F;" d="M986.094,176.264c-0.222-0.293-0.443-0.587-0.667-0.879c-1.264-1.648-1.413-3.075-0.909-4.949
		c1.996-7.42,4.76-14.523,8.507-21.233c1.742-3.12,3.57-6.191,5.342-9.294c0.228-0.398,0.353-0.855,0.645-1.582
		c-0.991-0.625-1.925-1.215-3.286-2.074c3.101-3.378,6.139-6.688,9.264-10.092c1.573,1.356,3.021,2.225,4.644,0.98
		c1.883-1.444,4.555-2.321,4.441-5.676c-0.997-0.129-1.884-0.244-3.183-0.412c1.877-1.715,3.51-3.207,5.134-4.691
		c2.809,2.787,2.952,2.851,6.22,0.955c5.368-3.114,10.478-6.775,16.094-9.332c7.019-3.196,14.381-5.429,22.217-6.35
		c6.868-0.807,13.565-0.034,20.338,0.226c1.522,0.059,9.379,0.962,10.284,3.792c12.79-2.913,9.426-13.183,11.354-19.244
		c0.367-1.155-5.911-2.73-5.591-4.038c-6.668-2.733-27.823-4.035-33.434-3.865c-5.825,0.176-11.672,0.802-17.426,1.738
		c-3.866,0.628-7.644,1.979-11.363,3.286c-6.642,2.334-13.489,4.256-19.173,8.736c-2.618,2.064-5.275,4.088-8.017,5.983
		c-9.374,6.48-18.219,13.568-25.849,22.083c-0.556,0.621-1.235,1.221-1.528,1.961c-0.217,0.549-0.08,1.422,0.242,1.936
		c0.211,0.338,1.049,0.443,1.576,0.385c0.697-0.078,1.394-0.356,2.038-0.662c0.58-0.276,1.088-0.704,1.628-1.065
		c0.109,0.134,0.218,0.268,0.327,0.402c-2.294,2.582-4.588,5.163-6.881,7.745l0.132-0.122c-2.174,2.997-4.665,5.818-6.449,9.032
		c-2.655,4.786-5.776,9.375-7.348,14.713C971.776,162.304,979.149,169.133,986.094,176.264z M1031.949,89.817
		c8.097-3.182,16.39-5.72,25.07-6.645c4.121-0.439,8.291-0.429,12.439-0.61c0.773-0.034,1.549-0.005,2.323-0.005
		c-1.616,1.467-3.507,1.289-5.354,1.313c-8.017,0.104-15.901,1.245-23.574,3.512c-3.284,0.97-6.355,2.645-9.561,3.904
		c-1.178,0.463-2.465,0.65-3.702,0.963l-0.363-0.723C1030.132,90.948,1030.97,90.202,1031.949,89.817z"/>
	<path style="fill:#9C1C1F;" d="M1150.378,205.229c-0.041,0.145-0.883,5.079-0.936,5.226c-1.35,3.804-2.321,7.686-4.6,11.195
		c-2.721,4.19-4.557,8.948-7.209,13.191c-5.583,8.934-12.682,16.403-21.922,21.743c-5.268,3.044-10.355,6.404-15.473,9.7
		c-1.287,0.829-2.458,1.885-3.52,2.993c-0.394,0.411-0.613,1.421-0.374,1.874c0.2,0.379,1.185,0.468,1.82,0.459
		c0.66-0.009,1.316-0.288,2.562-0.594c-6.916,5.18-26.865,9.249-33.992,7.066c2.87-1.266,6.424-0.049,8.809-3.35
		c-1.539-0.44-2.73-0.892-3.962-1.099c-1.051-0.178-2.174-0.234-3.222-0.07c-6.813,1.065-13.607-0.05-20.398-0.232
		c-2.907-0.078-5.934-0.972-8.638-2.123c-3.815-1.624-17.806-7.546-20.052-9.08c-5.011-3.422-13.166-9.359-16.735-14.204
		c-1.415,10.139-3.832,14.621-4.331,24.929c4.331,6.499,16.491,11.24,20.626,13.217c4.189,2.002,8.423,4.015,12.827,5.436
		c5.098,1.645,10.362,2.873,15.633,3.857c4.08,0.762,8.282,0.87,12.429,1.269c0.714,0.069,1.427,0.173,2.142,0.204
		c5.013,0.22,10.083,0.991,15.027,0.501c7.436-0.738,14.951-0.842,22.198-3.653c4.864-1.887,9.902-3.266,14.695-5.532
		c11.869-5.612,22.093-13.385,30.884-22.973c4.092-4.463,7.484-9.602,10.911-14.627c2.483-3.641,4.491-7.606,6.74-11.409
		c0.176-0.298,0.385-0.58,0.64-0.902c-0.035-0.73,0.357-1.456,1.041-1.759c0.012-0.698,0.421-1.262,0.998-1.552
		c-0.054-0.536,1.739-5.601,2.167-6.111C1162.205,220.926,1155.451,213.254,1150.378,205.229z M1050.66,278.226
		c-0.012-0.279-0.024-0.558-0.036-0.837h2.156c0.02,0.193,0.04,0.386,0.06,0.579C1052.113,278.053,1051.387,278.14,1050.66,278.226z
		 M1063.571,279.401c-2.247-0.18-4.494-0.36-6.741-0.54c0.019-0.286,0.037-0.572,0.055-0.858c2.267-0.107,4.501,0.298,6.749,0.48
		L1063.571,279.401z M1102.953,269.648c3.192-1.76,6.383-3.519,9.574-5.279C1110.197,267.745,1106.647,268.833,1102.953,269.648z
		 M1147.332,252.33c-3.057,3.954-6.541,7.579-9.859,11.33c-1.898,2.146-3.814,4.276-5.769,6.369
		c-0.522,0.559-1.217,0.955-2.006,1.557c0-0.56-0.089-0.842,0.014-0.995c0.597-0.889,1.126-1.864,1.882-2.599
		c8.564-8.319,15.425-17.991,22.091-27.851C1152.436,244.697,1150.135,248.704,1147.332,252.33z"/>
</g>
<g>
	<path style="fill:#9C1C1F;" d="M1070.363,269.187c-1.313,1.609-2.667,2.083-4.606,2.024c-7.681-0.233-15.229-1.287-22.621-3.389
		c-3.437-0.977-6.847-2.048-10.275-3.058c-0.44-0.13-0.913-0.146-1.688-0.263c-0.38,1.108-0.739,2.153-1.261,3.675
		c-4.001-2.24-7.922-4.434-11.955-6.692c0.957-1.842,1.47-3.452-0.116-4.745c-1.839-1.5-3.307-3.898-6.546-3.015
		c0.104,1,0.196,1.889,0.332,3.192c-2.101-1.432-3.93-2.677-5.748-3.916c2.065-3.375,2.094-3.529-0.503-6.272
		c-4.267-4.507-9.006-8.637-12.788-13.513c-2.705-3.488-5.088-7.184-7.173-11.075c-1.613,6.993-4.465,13.485-8.66,18.808
		c0.25,0.341,0.508,0.677,0.749,1.024c0.722,1.04,1.2,2.249,1.79,3.381l-0.62,0.519c-0.772-0.746-1.691-1.389-2.291-2.254
		c-0.278-0.4-0.532-0.814-0.806-1.217c-1.125,1.29-2.346,2.493-3.648,3.612c2.997,4.747,6.099,9.421,10.613,13.003
		c2.611,2.072,5.193,4.192,7.668,6.424c8.464,7.63,17.399,14.605,27.442,20.069c0.733,0.399,1.472,0.921,2.26,1.035
		c0.585,0.085,1.402-0.25,1.829-0.682c0.28-0.283,0.19-1.123,0.012-1.622c-0.236-0.661-0.667-1.275-1.113-1.831
		c-0.402-0.501-0.936-0.897-1.412-1.339c0.105-0.137,0.21-0.274,0.316-0.411c3.041,1.638,6.081,3.275,9.121,4.913l-0.149-0.1
		c3.417,1.425,6.736,3.2,10.274,4.196c5.269,1.482,10.453,3.462,16.01,3.763c5.98-7.948,10.927-16.696,16.267-25.096
		C1070.831,268.619,1070.596,268.902,1070.363,269.187z"/>
	<path style="fill:#9C1C1F;" d="M1131.853,129.606c-1.388-1.532-2.776-3.063-4.164-4.595c1.906,0.744,3.327,1.914,4.478,3.322
		c1.645-5.98,5.543-11.717,12.074-17.151c-6.819-6.995-14.579-12.834-23.165-17.633c-5.285-2.954-11.067-5.072-16.746-7.25
		c-4.115-1.578-8.436-2.619-12.655-3.932c-0.331-0.103-0.653-0.241-1.026-0.415c-0.702,0.202-1.499-0.012-1.951-0.608
		c-0.682,0.149-1.325-0.119-1.74-0.614c-0.509,0.176-5.851-0.403-6.446-0.701c-6.538,6.644-12.448,14.982-19.089,21.768
		c0.151,0.006,5.145-0.31,5.301-0.293c4.013,0.438,8.014,0.489,11.953,1.898c4.704,1.683,9.757,2.375,14.496,3.978
		c9.979,3.376,18.882,8.564,26.206,16.327c3.82,4.049,7.863,7.888,11.882,11.745C1131.235,133.479,1131.429,131.53,1131.853,129.606
		z M1094.634,90.539c4.722,0.166,9.151,1.483,13.325,3.376c4.552,2.064,8.882,4.62,13.296,6.985
		c2.525,1.353,5.039,2.727,7.526,4.148c0.664,0.379,1.209,0.965,1.977,1.593c-0.545,0.129-0.799,0.28-0.972,0.215
		c-1.003-0.376-2.073-0.666-2.963-1.233C1116.757,99.204,1105.765,94.755,1094.634,90.539z"/>
	<path style="fill:#9C1C1F;" d="M1169.618,214.297c-10.086-11.341-14.392-25.045-20.063-38.251c0.59,3.242,1.051,6.513,1.722,9.732
		c0.594,2.847,0.421,5.998-0.077,8.895c-0.702,4.086-3.243,19.065-4.219,21.604c-2.177,5.665-6.076,14.968-9.968,19.556
		c10.192-0.958,15.11,0.362,25.257-1.526c4.348-4.661,6.354-14.123,7.473-19.882C1169.703,214.38,1169.659,214.344,1169.618,214.297
		z"/>
</g>
<path style="fill:#9C1C1F;" d="M1348.641,121.366c-0.089-1.31-0.242-2.617-0.4-3.922c-0.706-5.838-1.787-11.508-6.853-15.419
	c-0.562-0.434-0.94-1.115-1.515-1.524c-1.441-1.024-2.886-2.07-4.437-2.909c-6.344-3.433-13.438-4.421-20.379-5.17
	c-8.419-0.908-16.96-0.804-25.45-0.876c-6.687-0.057-13.382,0.512-20.065,0.386c-7.398-0.139-14.784-0.814-22.181-1.141
	c-7.402-0.327-14.81-0.488-22.214-0.769c-3.333-0.127-6.66-0.404-9.992-0.554c-5.372-0.241-10.744-0.486-16.119-0.635
	c-6.909-0.192-13.82-0.374-20.731-0.405c-6.216-0.027-12.439,0.014-18.648,0.279c-9.649,0.412-19.12,1.748-27.13,7.794
	c-2.249,1.697-4.14,3.897-6.034,6.011c-0.36,0.402-0.234,1.735,0.171,2.189c0.429,0.481,1.484,0.633,2.218,0.543
	c0.645-0.079,1.259-0.645,1.827-1.076c1.808-1.372,3.536-2.855,5.392-4.158c2.459-1.725,5.208-2.751,8.231-3.024
	c-1.806,1.466-3.771,2.559-5.738,3.649c-6.812,3.775-12.428,8.309-11.115,17.314c0.063,0.433-0.237,0.918-0.368,1.379
	c-0.728-0.671-0.994-1.298-1.004-1.929c-0.032-2.033,0.052-4.067,0.05-6.101c-0.001-1.149,0.394-2.531-1.215-2.994
	c-1.527-0.439-2.55,0.492-3.321,1.589c-0.656,0.932-1.075,2.03-1.303,2.476c-0.098-0.009-0.193-0.019-0.29-0.028
	c-2.41,8.055-0.315,16.077,2.855,23.77c1.865,0.961,3.279,2.573,4.439,4.99c4.701,9.787,10.06,19.256,15.06,28.902
	c2.641,5.095,5.087,10.29,7.605,15.447c0.625,1.28,1.079,2.696,2.777,2.932c1.493-0.733,1.26-1.973,0.869-3.105
	c-0.895-2.594-1.721-5.238-2.915-7.696c-2.088-4.297-4.473-8.449-6.65-12.705c-0.839-1.64-1.452-3.397-2.168-5.101
	c0.211-0.108,0.422-0.216,0.632-0.324c0.445,0.467,1.001,0.868,1.318,1.41c9.197,15.743,16.271,32.543,24.256,48.946
	c-0.825-0.598-1.65-1.197-2.533-1.838c-1.584,1.17-0.914,2.359-0.334,3.523c2.239,4.494,4.383,9.038,6.759,13.458
	c3.057,5.686,6.287,11.279,9.478,16.892c0.878,1.544,1.097,3.063,0.544,4.711c4.66,8.273,10.208,15.984,14.761,24.118
	c0.164-0.177,0.36-0.349,0.594-0.517c5.218,6.209,10.441,12.423,15.664,18.637c-0.154,0.219-0.308,0.438-0.462,0.657
	c-0.229-0.118-0.467-0.224-0.706-0.329c0.6,0.813,1.203,1.619,1.842,2.375c0.015,0.009,0.029,0.02,0.044,0.029
	c5.64,3.187,10.86,7.025,17.934,7.05c9.349,0.032,17.691-1.577,25.249-7.841c7.233-5.995,12.525-13.217,16.38-21.47
	c2.756-5.9,8.099-10.269,9.492-16.868c0.023-0.109,0.124-0.203,0.192-0.301c1.978-2.851,3.979-5.686,5.931-8.554
	c3.773-5.545,6.677-11.513,8.81-17.878c0.794-2.371,1.728-4.725,2.878-6.942c3.687-7.108,7.48-14.163,11.282-21.211
	c1.985-3.681,3.976-7.365,6.141-10.941c3.527-5.824,7.216-11.549,10.789-17.346c0.422-0.685,0.558-1.551,0.802-2.341
	c0.312-1.009,0.528-2.054,0.908-3.035c3.205-8.279,7.487-16,12.093-23.568c1.027-1.688,1.448-3.743,2.164-5.623
	c0.203-0.534,0.349-1.151,0.716-1.552C1348.614,129.724,1348.929,125.625,1348.641,121.366z M1257.537,107.876
	c0.009,0.23,0.018,0.459,0.028,0.689l-3.478-0.177c-0.038-0.14-0.075-0.28-0.113-0.42
	C1255.161,107.938,1256.349,107.907,1257.537,107.876z M1166.922,92.695c11.713,0.252,23.422,0.7,35.132,1.096
	c0.219,0.007,0.434,0.177,0.651,0.27c-6.937,1.006-13.894,0.504-20.854,0.459c-6.888-0.045-13.787,1.19-21.377-0.485
	C1163.045,93.475,1164.993,92.653,1166.922,92.695z M1216.63,267.776c-2.272-1.773-11.956-18.4-15.254-26.391
	c1.052,0.796,1.833,1.11,2.165,1.683c2.988,5.168,5.902,10.379,8.826,15.584c1.62,2.886,3.216,5.786,4.823,8.679L1216.63,267.776z
	 M1319.195,133.723c-0.717,1.228-1.072,2.662-1.738,3.926c-1.325,2.516-2.731,4.991-4.145,7.459
	c-0.593,1.036-1.352,1.978-1.931,3.02c-4.063,7.317-8.205,14.594-12.116,21.992c-4.468,8.451-8.648,17.054-13.094,25.517
	c-3.002,5.714-6.352,11.244-9.36,16.955c-6.13,11.637-12.092,23.363-18.208,35.007c-2.557,4.869-5.228,9.685-8.031,14.417
	c-3.589,6.059-8.902,9.642-16.041,9.896c-1.794,0.064-3.794-0.589-5.404-1.459c-3.2-1.729-5.677-4.303-7.453-7.56
	c-4.345-7.972-8.717-15.93-13.198-23.827c-2.116-3.729-4.587-7.255-6.75-10.959c-2.773-4.748-5.515-9.521-8.053-14.396
	c-2.646-5.081-4.819-10.415-7.589-15.423c-3.288-5.944-7.044-11.628-10.503-17.48c-3.101-5.247-6.091-10.559-9.098-15.86
	c-5.659-9.977-10.967-20.127-15.525-30.668c-1.465-3.388-3.342-6.606-5.149-9.834c-0.503-0.899-1.475-1.524-2.151-2.341
	c-0.494-0.596-0.855-1.302-1.677-2.588c3.904,0.012,6.131-1.991,8.147-3.89c1.887-1.777,4.053-2.749,6.34-3.048
	c5.738-0.75,11.396-2.007,17.293-1.796c12.294,0.441,24.606,0.398,36.908,0.65c9.786,0.201,19.57,0.545,29.354,0.828
	c3.175,0.092,4.037-0.647,4.509-4.012l4.583,0.233c0.252,0.997,0.193,2.377,0.824,2.864c0.826,0.638,2.192,0.755,3.333,0.777
	c9.545,0.191,19.093,0.216,28.635,0.486c5.015,0.142,10.022,0.643,15.027,1.042c1.671,0.133,3.056-0.056,3.884-2.397
	c-13.051-1.251-25.982-1.085-38.739-2.818c7.827-0.992,37.823,0.22,47.988,1.711c0.495,2.921,2.474,4.14,5.398,4.605
	c3.113,0.496,6.768,6.066,6.419,9.385C1321.531,127.475,1320.932,130.746,1319.195,133.723z"/>
<g>
	<path style="fill:#9C1C1F;" d="M689.143,137.186c2.036-0.619,3.587-0.997,5.058-1.578c0.695-0.275,1.434-0.821,1.809-1.449
		c0.987-1.654,2.454-2.342,4.218-2.157c1.946,0.204,2.7,1.818,3.197,3.466c0.379,1.254,0.527,2.578,0.909,3.831
		c0.264,0.867,0.528,2.015,1.179,2.433c2.085,1.338,2.112,3.289,2.124,5.364c0.042,7.283,0.092,14.566,0.194,21.848
		c0.026,1.895,0.252,3.788,0.407,5.973c5.312,0.842,10.328-0.273,15.874-0.468c0.042-2.251,0.146-4.236,0.104-6.217
		c-0.162-7.532-0.203-15.047,1.536-22.454c0.438-1.865,0.595-3.795,0.965-5.678c0.097-0.494,0.233-0.982,0.4-1.457
		c1.936-5.517,4.262-6.592,7.971-3.384c1.474-0.584,2.977-1.244,4.523-1.775c2.795-0.96,2.99-0.618,5.333,2.376
		c2.134,2.727,3.509,5.97,3.968,9.402c0.837,6.256,1.636,12.534,2.017,18.83c0.578,9.555,0.772,19.133,1.148,28.701
		c0.361,9.201,0.787,18.399,1.098,27.601c0.105,3.116,0.034,6.186-2.653,8.591c-0.693,0.62-0.517,2.225-0.714,3.381
		c-0.34,1.989-0.37,4.088-1.052,5.95c-1.288,3.518-3.963,4.468-7.498,3.137c-1.208-0.455-2.511-1.027-3.744-0.972
		c-2.43,0.109-4.054-1.124-4.853-3.013c-1.245-2.943-2.466-6.034-2.868-9.168c-0.912-7.111-1.316-14.288-1.932-21.437
		c-0.162-1.879-0.34-3.757-0.524-5.774c-5.477-0.972-10.654-1.115-16.321-0.116c-0.312,4.449-0.632,8.821-0.918,13.196
		c-0.109,1.672-0.068,3.356-0.226,5.022c-0.284,2.996-1.022,3.362-3.889,2.103c-0.186-0.082-0.44-0.011-0.899-0.011
		c-0.751,3.465-1.004,6.982-0.811,10.554c0.103,1.909,0.123,3.825,0.103,5.737c-0.025,2.407-1.175,4.181-3.443,4.96
		c-2.296,0.789-4.165-0.414-5.839-1.817c-0.519-0.435-0.781-1.175-1.315-2.02c-1.863,1.059-3.811,1.967-5.905,0.564
		c-2.905-1.947-3.528-5.021-4.104-8.617c-0.722-4.51-0.889-9.086-0.665-13.648c0.228-4.647,0.038-9.317,0.038-14.04
		c-4.271-1.415-8.173-1-12.063-0.534c-1.341,0.161-1.612,1.298-1.697,2.413c-0.292,3.816-0.649,7.63-0.796,11.452
		c-0.272,7.047-0.393,14.099-0.633,21.147c-0.034,0.982-0.309,2.001-0.684,2.91c-0.809,1.958-2.749,2.291-4.138,0.691
		c-0.67-0.771-1.087-1.738-1.612-2.639c-1.916-0.134-2.334,1.083-2.49,2.453c-0.233,2.042-1.229,3.656-2.825,4.925
		c-1.42,1.128-3.486,0.812-4.483-0.702c-0.857-1.3-1.475-2.855-1.806-4.386c-0.359-1.664-1.006-2.954-2.62-3.56
		c-2.591-0.973-3.358-3.089-3.923-5.552c-1.87-8.156-1.227-16.436-1.433-24.678c-0.362-14.467,0.016-28.946-1.223-43.402
		c-0.446-5.205,0.194-10.518,0.539-15.769c0.131-1.992,0.946-3.89,2.445-5.611c1.245,0.831,2.294,1.531,3.427,2.287
		c1.632-1.219,1.396-3.045,1.685-4.603c0.432-2.332,1.37-4.286,3.193-5.851c1.304-1.12,2.498-1.01,3.319,0.348
		c1.344,2.223,3.155,3.815,5.34,5.175c0.78,0.485,1.278,1.732,1.512,2.724c0.604,2.554,1.171,5.141,1.425,7.748
		c0.684,7.019,1.163,14.058,1.789,21.083c0.453,5.079-0.347,6.236,6.333,5.575c2.24-0.222,4.538,0.209,6.81,0.244
		c2.958,0.046,3.689-0.575,3.664-3.519c-0.035-4.299-0.605-8.617-0.346-12.891c0.42-6.91,1.234-13.802,2.072-20.678
		C684.311,136.568,686.04,135.99,689.143,137.186z M745.263,203.092c0.032,0.037,0.064,0.074,0.097,0.112
		c0-2.466-0.064-4.933,0.016-7.396c0.107-3.312,0.041-6.667,0.574-9.917c0.514-3.138,0.717-9.604-0.686-13.022
		C745.263,182.942,745.263,193.017,745.263,203.092z M659.927,178.012c0.659-3.28,0.779-6.55,0.205-9.815
		c-0.453-2.578-0.914-5.117-0.328-7.771c0.286-1.295,0.049-2.705,0.049-4.063c-0.273,0.007-0.545,0.014-0.818,0.02
		C658.165,163.607,659.086,170.813,659.927,178.012z"/>
	<path style="fill:#9C1C1F;" d="M707.808,223.06c1.039,1.892,2.214,3.063,2.241,4.259c0.087,3.831,0.347,7.755-1.063,11.414
		c-1.945-0.111-2.584-1.253-2.601-2.427c-0.052-3.692,0.101-7.389,0.234-11.081C706.634,224.82,707.038,224.43,707.808,223.06z"/>
	<path style="fill:#9C1C1F;" d="M713.479,204.55c0.689,10.116,0.909,20.23,0.14,30.341c-0.307,0.001-0.613,0.001-0.92,0.002
		c0-10.127,0-20.254,0-30.381C712.959,204.525,713.219,204.537,713.479,204.55z"/>
	<path style="fill:#9C1C1F;" d="M667.192,153.764c0.582,6.513,1.093,12.149,1.554,17.79c0.012,0.149-0.521,0.343-1.075,0.686
		c-1.444-5.584-1.207-11.143-1.624-16.624C666.021,155.281,666.464,154.91,667.192,153.764z"/>
	<path style="fill:#9C1C1F;" d="M690.953,130.693c0.029,1.599-1.056,2.83-2.743,2.753c-1.412-0.064-2.2-0.867-2.215-2.274
		c-0.016-1.517,1.546-3.188,2.874-3.113C690.324,128.141,690.955,129.019,690.953,130.693z"/>
	<path style="fill:#9C1C1F;" d="M662.014,131.74c0.016,1.4-1.038,2.665-2.271,2.728c-1.321,0.067-2.708-1.337-2.652-2.767
		c0.056-1.42,0.9-2.118,2.278-2.191C660.868,129.429,661.999,130.398,662.014,131.74z"/>
	<path style="fill:#9C1C1F;" d="M707.712,247.978c-0.209-0.566-0.367-0.789-0.359-1.005c0.041-1.043-0.205-2.331,1.201-2.607
		c0.371-0.073,1.268,0.718,1.32,1.18C710.028,246.925,709.724,248.196,707.712,247.978z"/>
</g>
<g>
	<path style="fill:#9C1C1F;" d="M1014.238,182.56c0.493-2.403,1.047-4.796,1.466-7.212c1.219-7.023,3.607-13.561,7.74-19.425
		c1.246-1.767,2.446-3.515,0.758-5.839c-0.987-1.359-0.055-2.671,0.961-3.834c3.131-3.583,6.994-6.087,11.231-8.175
		c7.816-3.851,16.176-5.97,24.689-7.074c9.99-1.296,20.06-1.275,29.721,2.391c4.977,1.889,9.366,4.748,12.993,8.671
		c1.809,1.957,2.639,4.373,1.872,6.957c-0.444,1.495-0.141,2.396,0.791,3.527c2.643,3.209,1.474,8.161-2.297,9.801
		c-1.259,0.547-2.186,1.033-2.729,2.497c-0.326,0.877-1.731,1.847-2.694,1.894c-2.346,0.114-4.874,0.171-7.043-0.576
		c-4.255-1.465-8.497-3.174-12.401-5.387c-3.295-1.868-6.828-2.695-10.334-3.746c-0.977-0.293-2.111-0.111-3.17-0.067
		c-0.707,0.029-1.436,0.378-2.109,0.276c-8.927-1.363-15.415,2.907-20.967,9.151c-5.313,5.977-7.83,13.097-7.433,21.048
		c0.196,3.937,1.872,7.564,3.719,11.088c1.742,3.323,4.101,6.057,6.597,8.815c2.362,2.609,4.985,4.421,8.312,5.299
		c6.253,1.65,12.499,2.966,19.092,2.465c5.588-0.425,10.422-2.457,14.999-5.393c3.205-2.056,6.319-4.255,9.512-6.331
		c0.993-0.646,2.068-1.367,3.189-1.557c1.044-0.177,2.631-0.072,3.21,0.586c1.011,1.148,0.22,2.462-0.94,3.35
		c-0.664,0.509-1.395,0.933-2.035,1.468c-0.426,0.357-0.744,0.843-1.339,1.538c1.962,0.617,3.219-0.296,4.585-0.821
		c1.988-0.765,3.987-1.633,6.063-2.008c3.022-0.547,4.785,1.636,3.84,4.576c-0.394,1.225-1.146,2.335-1.814,3.652
		c0.885,1.361,2.563,2.178,2.291,4.436c-0.277,2.308-0.741,4.041-2.765,5.411c-1.851,1.252-3.368,2.808-4.044,5.237
		c-0.407,1.464-1.781,2.948-3.115,3.817c-8.926,5.813-18.427,10.179-29.314,10.592c-1.782,0.068-3.583-0.061-5.36-0.243
		c-1.275-0.131-2.659-0.199-3.25-1.769c-0.14-0.371-0.674-0.722-1.095-0.838c-2.826-0.784-5.67-1.502-9.025-2.377
		c1.682,3.26,6.687,1.62,6.599,6.169c-1.051,1.412-2.653,1.399-4.348,1.022c-6.45-1.434-12.624-3.58-18.299-7.036
		c-1.634-0.995-3.411-1.782-4.944-2.908c-2.315-1.701-4.59-3.557-3.548-7.422c6.674,4.473,13.322,8.571,21.931,10.077
		c-1.057-0.646-1.513-1.052-2.046-1.23c-6.058-2.025-11.588-5.121-16.532-9.056c-4.763-3.791-8.92-8.272-12.254-13.451
		c-1.291-2.006-2.721-3.932-4.209-5.798c-0.863-1.082-1.969-1.971-3.578-3.547c0.19,3.322,1.103,5.491,2.54,7.304
		c2.52,3.178,5.331,6.123,7.925,9.245c1.415,1.703,2.635,3.568,3.791,5.152c-1.013,2.043-2.201,1.74-3.293,1.143
		c-1.146-0.626-2.371-1.281-3.234-2.223c-3.947-4.312-8.205-8.398-10.609-13.902c-1.145-2.621-2.565-5.132-3.573-7.801
		c-2.801-7.413-3.914-15.045-1.99-22.855c0.503-2.041,1.614-3.949,2.569-5.856c0.524-1.047,1.447-1.568,2.698-1.083
		c1.124,0.436,1.797,1.195,1.719,2.437c-0.117,1.881-0.289,3.759-0.438,5.638C1013.73,182.486,1013.984,182.523,1014.238,182.56z
		 M1094.456,223.39c4.829,0.421,9.245-1.828,10.718-4.985C1101.375,220.172,1097.916,221.781,1094.456,223.39z M1099.626,148.064
		c-0.39-0.073-0.78-0.146-1.169-0.219c-0.1,0.661-0.2,1.322-0.299,1.983c0.419,0.059,0.839,0.117,1.258,0.176
		C1099.486,149.357,1099.556,148.71,1099.626,148.064z"/>
	<path style="fill:#9C1C1F;" d="M1048.13,165.1c-4.335,3.363-6.632,8.123-8.028,13.123c-1.384,4.958-2.575,10.144-0.082,15.955
		c-2.617-2.061-3.17-5.386-2.42-10.582c0.529-3.667,1.518-7.12,3.133-10.536C1042.396,169.546,1044.805,167.038,1048.13,165.1z"/>
	<path style="fill:#9C1C1F;" d="M1013.942,164.37c0.958-5.15,2.347-9.044,6.311-11.669c1.863,1.368,1.594,2.951,0.747,4.258
		c-1.474,2.276-3.207,4.388-4.889,6.523C1015.873,163.783,1015.309,163.828,1013.942,164.37z"/>
	<path style="fill:#9C1C1F;" d="M1121.551,208.313c1.536,0.083,2.591,1.239,2.556,2.802c-0.034,1.558-2.074,3.221-3.721,3.035
		c-1.154-0.131-2.417-1.763-2.406-3.11C1117.992,209.641,1119.851,208.222,1121.551,208.313z"/>
	<path style="fill:#9C1C1F;" d="M1106.068,199.795c-0.438-0.51-0.902-0.818-0.878-1.081c0.032-0.345,0.405-0.848,0.714-0.918
		c0.252-0.057,0.842,0.387,0.888,0.672C1106.841,198.778,1106.437,199.162,1106.068,199.795z"/>
</g>
<path style="fill:#9C1C1F;" d="M1228.527,217.944c0.203,3.253,0.469,6.504,0.585,9.76c0.067,1.895-0.032,3.805-0.218,5.693
	c-0.061,0.621-0.626,1.192-0.958,1.781c-2.095-0.201-2.797-1.652-3.175-3.148c-0.554-2.194-1.039-4.442-1.196-6.692
	c-0.274-3.932-0.216-7.887-0.414-11.826c-0.138-2.741-0.566-5.468-0.699-8.21c-0.289-5.967-0.519-11.937-0.688-17.909
	c-0.203-7.166-0.298-14.336-0.479-21.503c-0.095-3.762-0.479-4.156-4.111-4.2c-2.868-0.035-5.738,0.068-8.607,0.07
	c-2.411,0.002-4.673-0.364-6.887-1.596c-1.498-0.833-3.41-1.082-5.169-1.242c-1.971-0.18-3.357-1.056-4.508-2.556
	c-2.266-2.954-1.708-5.202,1.691-6.7c0.312-0.138,0.59-0.353,1.125-0.679c-1.072-0.403-1.958-0.662-2.779-1.058
	c-2.49-1.203-2.902-4.054-0.768-5.837c4.765-3.979,9.98-6.469,16.466-6.818c12.201-0.657,24.372-0.437,36.556-0.001
	c8.359,0.299,16.718,0.609,25.073,1c1.281,0.06,2.582,0.464,3.796,0.918c1.082,0.405,1.914,1.385,1.363,2.526
	c-0.314,0.652-1.368,1.109-2.175,1.319c-1.002,0.26-2.095,0.175-3.261,0.827c0.918,0.225,1.846,0.414,2.75,0.685
	c1.02,0.306,2.222,0.448,2.973,1.093c0.922,0.792,1.962,1.997,2.038,3.088c0.097,1.378-0.885,2.648-2.469,3.164
	c-0.856,0.279-1.635,0.794-2.734,1.346c0.975,1.143,1.721,2.019,2.411,2.827c-1.318,5.658-2.524,6.713-8.198,6.976
	c-3.941,0.183-7.889,0.218-11.833,0.351c-1.295,0.044-2.586,0.189-4.166,0.31c-0.239,2.603-0.65,5.061-0.655,7.52
	c-0.015,6.799,0.032,13.601,0.252,20.396c0.348,10.756,0.906,21.506,1.269,32.262c0.108,3.202,0.16,6.459-0.29,9.615
	c-0.865,6.061-4.205,7.862-9.9,5.516c-0.523,0.862-0.974,1.824-1.621,2.63c-1.599,1.99-3.005,2.057-4.768,0.275
	c-1.827-1.846-2.929-4.107-3.169-6.668c-0.345-3.688-0.438-7.399-0.759-11.09c-0.127-1.46-0.579-2.892-0.883-4.337
	C1229.068,217.864,1228.797,217.904,1228.527,217.944z M1222.445,155.421c-4.125-1.434-9.357-1.275-13.106,0.482
	C1213.938,156.593,1218.068,156.704,1222.445,155.421z M1264.474,142.032c0.046-0.356,0.092-0.711,0.138-1.067
	c-1.825-0.14-3.65-0.284-5.475-0.417c-1.895-0.139-3.793-0.401-5.684-0.358c-1.702,0.038-3.571-0.918-5.157,0.175
	c0.012,0.32,0.024,0.64,0.036,0.961C1253.712,141.56,1259.093,141.796,1264.474,142.032z M1244.065,173.12
	c-0.259,0.03-0.518,0.06-0.778,0.091c0,2.138,0.034,4.277-0.01,6.415c-0.043,2.145-0.058,4.298-0.272,6.43
	c-0.419,4.179-0.473,4.173,1.059,6.117C1244.065,185.558,1244.065,179.339,1244.065,173.12z M1244.524,206.038
	c-0.239,0.009-0.478,0.018-0.717,0.027c0.083,1.259,0.166,2.517,0.249,3.776c0.156-0.008,0.312-0.016,0.468-0.024
	C1244.524,208.557,1244.524,207.297,1244.524,206.038z"/>
<g>
	<path style="fill:#9C1C1F;" d="M465.701,214.33c0.606-1.026,1.387-1.992,1.765-3.096c0.321-0.94,0.632-2.575,0.161-2.975
		c-2.075-1.76-1.176-3.59-0.235-5.156c3.32-5.529,6.891-10.908,10.261-16.408c3.556-5.803,7.159-11.588,10.44-17.547
		c4.783-8.686,9.514-17.391,15.67-25.207c0.925-1.174,2.318-1.979,3.743-3.162c-1.296-1.758-0.704-3.581,1.18-4.747
		c2.241-1.388,4.283-3.324,7.519-1.863c3.091,1.396,4.684,3.868,6.322,6.495c1.706,2.736,3.568,5.376,5.21,8.149
		c3.165,5.347,6.279,10.726,9.278,16.167c0.601,1.09,0.465,2.562,0.907,3.771c0.515,1.41,0.931,3.308,2.017,3.978
		c4.303,2.656,6.614,6.891,9.024,10.939c4.28,7.189,8.053,14.678,12.23,21.93c1.662,2.885,3.779,5.519,5.821,8.166
		c0.417,0.541,1.402,0.804,2.16,0.89c2.249,0.255,4.519,0.324,6.775,0.527c2.998,0.269,5.776,1.74,6.254,4.553
		c0.525,3.094,1.451,5.892,2.429,8.828c1.192,3.579-1.89,7.416-5.551,8.864c-5.021,1.986-10.324,2.062-15.527,2.365
		c-10.602,0.617-21.234,0.719-31.852,1.081c-6.924,0.236-13.846,0.809-20.767,0.776c-8.478-0.04-16.952-0.612-25.431-0.842
		c-4.408-0.12-8.822,0.026-13.233,0.004c-2.388-0.012-4.779-0.233-7.164-0.166c-2.727,0.076-5.446,0.462-8.172,0.504
		c-0.817,0.013-1.987-0.449-2.4-1.082c-0.964-1.477-2.329-1.957-3.864-2.329c-3.437-0.833-5.048-2.341-5.328-5.356
		c-0.329-3.546,0.177-5.803,3.599-6.924c0.199-0.065,0.336-0.318,0.504-0.487c-2.571-4.195-1.425-6.755,3.61-7.634
		c3.053-0.533,6.152-0.819,9.24-1.123c1.512-0.149,2.834-0.46,3.513-1.995L465.701,214.33z M513.983,174.625
		c-5.363,6.181-8.867,12.966-12.497,19.574c-3.655,6.653-8.447,12.786-10.725,20.346c0.85,0.176,1.196,0.32,1.535,0.307
		c13.243-0.483,26.483-1.058,39.741-0.513c1.114,0.046,2.246-0.327,3.868-0.585c-0.709-1.629-1.128-2.838-1.738-3.943
		c-1.441-2.61-3.046-5.13-4.451-7.758c-2.402-4.491-4.668-9.054-7.055-13.552c-1.953-3.68-3.959-7.333-6.037-10.944
		C516.108,176.663,515.223,175.979,513.983,174.625z M529.358,235.303l-0.202,1.203c3.417-0.202,6.835-0.404,10.252-0.606v0
		C533.356,235.541,535.409,235.663,529.358,235.303z M544.12,234.645c4.462,1.089,7.231,0.875,9.689-0.572
		C550.138,234.29,547.129,234.468,544.12,234.645z M458.051,232.454c2.381,1.29,4.282,1.265,6.594,0.751
		C461.677,231.537,461.007,231.441,458.051,232.454z M500.423,180.009c0.213,0.127,0.427,0.254,0.64,0.381
		c1.716-1.594,2.8-3.551,2.867-6.098C502.761,176.197,501.592,178.103,500.423,180.009z M547.669,191.879
		c-0.135-1.461-0.326-2.98-2.021-3.502C546.321,189.545,546.995,190.712,547.669,191.879z M556.512,234.201l-0.084,0.581
		l3.408-0.204l0.002-0.112C557.755,234.299,558.594,234.366,556.512,234.201z M552.901,200.828c0.199-0.102,0.398-0.205,0.596-0.307
		c-0.329-0.541-0.658-1.082-0.988-1.622c-0.152,0.086-0.304,0.172-0.456,0.258C552.337,199.714,552.619,200.271,552.901,200.828z"/>
	<path style="fill:#9C1C1F;" d="M529.863,209.11c-0.666-0.619-1.372-1.042-1.749-1.664c-3.7-6.105-7.339-12.247-11.01-18.37
		c-0.736-1.227-1.599-2.38-2.285-3.632c-0.64-1.168-0.683-2.262,1.132-2.863c1.18,2.369,2.179,4.767,3.509,6.964
		c3.212,5.311,6.596,10.517,9.87,15.791C529.965,206.36,531.084,207.376,529.863,209.11z"/>
</g>
<g>
	<path style="fill:#9C1C1F;" d="M986.848,189.046c-0.148-4.127-0.101-8.262-0.128-12.541c0.459,0.057,1.311,0.165,2.715,0.34
		c-0.098-1.887,0.074-3.548-0.31-5.069c-1.551-6.14-3.169-12.267-4.954-18.343c-3.492-11.89-9.998-22.163-17.395-31.908
		c-6.945-7.131-14.318-13.959-20.675-21.609c-0.034,0.116-0.078,0.227-0.11,0.343c-0.082,0.292-0.451,0.504-0.759,0.83
		c-0.434-0.274-0.897-0.456-1.212-0.781c-3.818-3.949-8.51-6.41-13.566-8.42c-10.952-4.354-22.235-7.291-33.932-8.72
		c-11.068-1.352-22.124-1.994-33.149,0.266c-2.572,0.527-5.097,1.287-7.628,2c-7.462,2.103-14.983,4.028-22.341,6.451
		c-3.468,1.142-6.806,2.978-9.856,5.018c-3.357,2.246-3.104,3.451,0.393,5.349c0.083,0.045,0.102,0.209,0.406,0.883
		c-0.227,0.106-0.681,0.282-1.101,0.519c-5.638,3.179-10.737,7.104-15.52,11.433c-5.655,5.117-11.715,9.87-15.35,16.86
		c-0.317,0.611-1.48,1.027-2.307,1.094c-3.179,7.849-5.944,15.808-9.098,23.555c0.445,0.001,0.904,0.002,1.393,0.002
		c-0.156,1.3-0.121,2.344-0.418,3.284c-2.781,8.798-4.857,17.753-5.791,26.935c-0.313,3.079-0.195,6.213-0.101,9.317
		c0.026,0.87,0.667,1.721,0.851,2.163c-0.245,2.165-0.723,4.003-0.61,5.804c0.528,8.442,2.874,16.504,6.171,24.202
		c2.955,6.902,6.456,13.59,10.05,20.19c1.215,2.232,3.282,4.108,5.263,5.79c2.049,1.74,2.916,3.81,3.201,6.189
		c6.674,5.503,12.872,11.006,19.063,16.509c1.902,1.902,3.943,3.455,6.021,4.867c0.062-0.459,0.136-0.922,0.235-1.391
		c1.776,0.772,3.293,1.363,4.747,2.08c1.823,0.898,3.51,2.132,5.403,2.814c6.746,2.433,13.485,4.928,20.361,6.942
		c5.142,1.506,10.483,2.349,15.758,3.37c0.619,0.12,1.967-0.508,1.966-0.785c-0.003-0.805-0.309-1.85-0.887-2.354
		c-0.773-0.674-1.875-1.072-2.9-1.337c-2.659-0.686-5.337-1.334-8.039-1.816c-4.213-0.752-8.215-2.059-12.004-4.062
		c3.619,0.65,7.19,1.467,10.742,2.363c5.936,1.499,11.917,2.671,18.077,2.446c6.686-0.244,13.39-0.329,20.045-0.932
		c3.648-0.33,7.221-1.547,10.81-2.437c2.572-0.638,3.211-0.365,4.362,2.148c0.192,0.42,0.472,0.799,0.723,1.216
		c2.751,0.304,4.96-0.92,7.135-2.151c3.33-1.885,6.608-3.863,9.923-5.776c2.279-1.314,4.763-2.347,6.839-3.922
		c4.844-3.674,9.512-7.582,14.225-11.428c7.69-6.275,14.884-13.046,20.704-21.148c0.96-1.336,1.474-3.011,2.508-4.272
		c3.629-4.426,5.787-9.601,7.915-14.81c0.339-0.83,0.812-1.605,1.194-2.35c0.397,0.208,0.779,0.413,1.171,0.62
		c0.499-10.309,0.658-20.722,2.073-30.861c-0.414-0.561-0.824-1.126-1.224-1.7C987.29,191.404,986.888,190.155,986.848,189.046z
		 M779.238,198.508c0.682-3.219,1.265-5.969,1.966-9.276C782.837,192.952,781.992,196.508,779.238,198.508z M798.121,186.883
		c-0.09,5.806,0.146,11.618,0.026,17.593c-0.341-1.244-0.786-2.47-1.004-3.734c-1.367-7.957-0.894-15.919,0.071-23.871
		c0.31-2.554,0.743-5.094,1.12-7.641c0.188,0.059,0.375,0.117,0.563,0.175C798.625,175.23,798.211,181.054,798.121,186.883z
		 M926.912,111.76c2.813,1.571,5.583,3.227,8.291,4.971c0.674,0.434,1.119,1.224,1.636,1.901c-3.835-2.203-7.673-4.401-11.503-6.614
		c-1.021-0.59-2.016-1.227-2.868-2.223C923.954,110.442,925.504,110.973,926.912,111.76z M920.669,93.041
		c0.553,0.156,1.106,0.313,1.66,0.469c-0.042,0.179-0.084,0.358-0.126,0.537c-0.537-0.12-1.075-0.24-1.612-0.36
		C920.617,93.472,920.643,93.257,920.669,93.041z M917.851,92.451c-4.801-0.897-9.781-1.01-14.216-3.548
		C908.449,89.717,913.51,89.665,917.851,92.451z M805.324,148.479c-0.586,3.823-2.124,7.328-3.716,10.815
		C801.674,155.298,802.778,151.648,805.324,148.479z M961.64,216.53c-2.586,7.139-5.924,13.849-10.44,19.955
		c-5.885,7.958-13.525,13.837-22.32,18.169c-3.316,1.633-5.625,3.54-5.368,7.495c0.117,1.793-1.609,1.86-2.453,2.75l0.099-0.037
		c-3.692,3.086-7.864,5.364-12.467,7.481c-1.381-2.727-3.288-2.815-6.135-1.999c-3.587,1.027-7.338,1.961-11.28,1.164
		c-1.791-0.362-3.781,0.41-5.682,0.42c-11.578,0.058-22.333-3.356-32.864-7.802c-16.959-7.158-29.817-19.015-40.219-34
		c-4.578-6.596-7.028-13.904-8.474-21.501c-2.407-12.646-2.544-25.446-0.1-38.143c0.919-4.773,2.002-9.601,3.765-14.108
		c4.414-11.284,11.297-21.04,19.968-29.469c4.464-4.339,9.569-7.889,15.254-10.511c4.865-2.243,9.745-4.454,14.663-6.573
		c1.634-0.704,3.488-0.913,5.091-1.668c1.113-0.525,2.295-1.416,2.876-2.46c1.597-2.864,1.478-2.93,5.145-3.659
		c-0.341,1.371-0.363,2.706,1.305,3.063c1.389,0.297,2.832,0.801,4.198,0.666c7.562-0.748,15.13,0.003,22.484,1.175
		c9.043,1.442,18.009,3.919,25.8,9.238c2.948,2.013,5.847,4.099,8.807,6.093c0.778,0.524,1.674,1.056,2.569,1.172
		c0.825,0.107,1.908-0.121,2.512-0.633c0.325-0.276-0.014-1.491-0.248-2.22c-0.186-0.577-0.582-1.087-0.92-1.615
		c2.215,1.448,4.709,2.621,6.515,4.468c3.999,4.09,7.624,8.546,11.393,12.86c0.707,0.809,1.453,1.603,2.037,2.498
		c0.609,0.933,1.043,1.98,1.553,2.978c-0.256,0.188-0.513,0.375-0.769,0.562c-1.212-1.329-2.411-2.671-3.64-3.984
		c-0.972-1.038-1.882-2.177-3.016-3c-0.512-0.371-1.754-0.387-2.209-0.012c-0.492,0.407-0.821,1.608-0.578,2.199
		c0.764,1.863,1.699,3.688,2.808,5.37c1.839,2.79,4.01,5.366,5.784,8.193c5.616,8.949,8.982,18.706,10.092,29.226
		C968.502,192.884,965.884,204.815,961.64,216.53z"/>
	<path style="fill:#9C1C1F;" d="M877.499,294.6c2.581-2.714,5.796-1.988,8.559-2.255c3.772-0.365,7.674-0.439,11.302,0.966
		c0.057,0.312,0.115,0.623,0.172,0.935c-0.972,0.476-1.9,1.218-2.922,1.386C886.757,296.924,880.902,296.605,877.499,294.6z"/>
	<path style="fill:#9C1C1F;" d="M901.659,292.672c2.388-1.44,4.395-1.892,6.674-1.072
		C906.896,293.976,904.705,294.39,901.659,292.672z"/>
</g>
<g>
	<path style="fill:#9C1C1F;" d="M909.508,141.725c1.458-2.742,0.19-6.976,5.048-7.85c0.586,1.829,1.172,3.659,1.758,5.49
		c0.211,0.032,0.423,0.064,0.634,0.096c0.302-1.293,0.683-2.574,0.885-3.883c0.208-1.345,0.376-2.726,1.865-3.191
		c1.644-0.513,2.991,0.173,4.18,1.371c1.823,1.837,1.888,4.324,2.562,6.582c0.267,0.895,0.315,1.855,0.483,2.907
		c0.68,0.102,1.246,0.195,1.814,0.27c2.389,0.316,3.395,1.202,3.738,3.542c0.225,1.535,0.382,3.098,0.373,4.647
		c-0.063,11.104-0.381,22.212-0.211,33.312c0.142,9.315,1.005,18.618,1.225,27.934c0.163,6.926,0.032,13.879-0.433,20.789
		c-0.177,2.636-1.52,5.243-2.608,7.742c-0.352,0.809-1.581,1.724-2.419,1.733c-1.872,0.02-3.131,0.904-4.449,1.978
		c-3.989,3.252-6.077,2.699-8.071-2.076c-0.182-0.436-0.344-0.881-0.513-1.315c-0.245,0.034-0.578-0.009-0.643,0.103
		c-0.756,1.299-1.588,2.498-3.359,1.955c-1.521-0.467-1.725-1.782-1.89-3.149c-0.27-2.246-0.642-4.479-1.014-7.013
		c-0.783,0.325-1.458,0.48-1.992,0.844c-9.163,6.243-19.568,8.444-30.352,9.766c-7.141,0.875-13.688-1.286-20.368-2.938
		c-1.461-0.362-2.794-1.302-4.138-2.061c-9.611-5.434-16.879-13.121-22.206-22.776c-3.48-6.307-5.018-12.992-5.613-20.145
		c-0.499-6.002-0.432-11.895,0.262-17.841c0.461-3.947,1.075-4.448,5.33-3.321c3.544-14.731,12.221-25.57,25.972-32.65
		c-1.736-1.258-3.1-1.143-4.407-0.069c-5.81,4.771-12.047,9.109-15.926,15.839c-0.487,0.846-1.348,1.476-2.121,2.298
		c-1.587-1.555-1.311-2.932-0.606-4.219c4.307-7.854,9.789-14.419,18.902-16.919c0.452-0.124,0.953-0.273,1.293-0.569
		c4.652-4.044,10.682-4.937,16.25-6.03c8.217-1.612,16.746-1.324,24.787,1.598c4.908,1.784,9.551,4.297,14.314,6.481
		C908.374,141.226,908.907,141.458,909.508,141.725z M861.263,158.549c-0.29-0.213-0.579-0.426-0.869-0.639
		c-2.459,2.876-4.905,5.764-7.381,8.627c-6.657,7.698-9.694,16.545-8.85,26.763c0.274,3.313,1.176,6.352,2.722,9.202
		c1.189,2.193,3.06,4.08,3.928,6.369c1.312,3.459,3.992,5.239,6.869,6.982c0.613,0.372,1.229,0.743,1.819,1.149
		c4.455,3.06,9.474,3.715,14.684,3.281c0.683-0.057,1.694-0.99,1.834-1.667c0.247-1.191,0.172-2.466,1.444-3.046
		c1.177-0.536,2.507-1.322,3.676-1.187c5.102,0.585,8.931-1.745,12.714-4.707c9.116-7.139,12.718-16.501,11.198-27.784
		c-1.605-11.915-9.049-19.087-19.911-23.115c-1.522-0.564-3.295-0.719-4.936-0.654c-10.817,0.43-18.633,6.068-24.529,14.68
		c-1.382,2.019-2.18,4.477-3.025,6.813c-0.893,2.469-1.51,5.036-2.272,7.553c-0.172,0.568-0.297,1.293-0.705,1.616
		c-0.867,0.686-1.937,1.649-2.868,1.592c-1.307-0.08-1.791-1.464-1.608-2.773c0.265-1.888,0.352-3.875,1.033-5.616
		c1.167-2.981,2.744-5.802,4.136-8.696c2.416-5.021,5.836-9.291,9.79-13.172C860.61,159.681,860.899,159.077,861.263,158.549z
		 M926.091,198.134c1.461-6.634,0.714-37.953-0.797-41.87C924.383,158.784,924.906,192.879,926.091,198.134z M859.74,140.318
		c0.099,0.354,0.199,0.707,0.298,1.061c2.887-0.764,5.775-1.528,8.662-2.292c-0.04-0.185-0.081-0.37-0.121-0.556
		C865.633,139.126,862.687,139.722,859.74,140.318z"/>
	<path style="fill:#9C1C1F;" d="M934.8,155.848c0.181,0.256,0.5,0.5,0.522,0.769c0.298,3.681,0.728,7.362,0.781,11.049
		c0.076,5.252-0.282,10.51-0.181,15.76c0.117,6.079,0.541,12.152,0.809,18.229c0.21,4.774,0.405,9.548,0.554,14.324
		c0.027,0.853-0.206,1.714-0.564,2.546c-2.627-20.829-1.29-41.745-2.756-62.576C934.243,155.915,934.521,155.881,934.8,155.848z"/>
	<path style="fill:#9C1C1F;" d="M931.668,136.74c-0.149,1.02-0.171,1.381-0.258,1.726c-0.461,1.826-1.745,3.061-2.784,2.701
		c-0.982-0.34-1.647-2.27-1.279-3.797c0.082-0.341,0.201-0.739,0.44-0.964c0.729-0.684,1.524-1.296,2.294-1.936
		C930.701,135.357,931.321,136.244,931.668,136.74z"/>
	<path style="fill:#9C1C1F;" d="M828.317,167.398c-1.007-1.512-0.988-2.676,0.352-3.461c0.366-0.214,1.55,0.147,1.688,0.504
		C830.963,166.009,829.863,166.711,828.317,167.398z"/>
	<path style="fill:#9C1C1F;" d="M858.114,209.137c-0.713,0.349-1.61,1.171-2.163,0.982c-1.29-0.439-2.677-1.134-3.556-2.136
		c-2.779-3.168-4.802-6.814-5.929-10.913c-0.355-1.293-0.518-2.501,0.429-3.718c1.567-2.015,3.279-1.99,4.378,0.314
		c2.152,4.512,4.208,9.069,6.287,13.616C857.755,207.709,857.835,208.188,858.114,209.137z"/>
	<path style="fill:#9C1C1F;" d="M862.366,211.351c1.731-0.003,2.891,1.005,2.804,2.492c-0.083,1.422-1.049,2.098-2.299,2.292
		c-1.123,0.175-2.78-1.489-2.806-2.741C860.034,211.861,860.999,211.356,862.366,211.351z"/>
</g>
<g>
	<path style="fill:#EFEFEF;" d="M195.256,194.632c0.577-0.056,1.174-0.236,1.727-0.146c3.046,0.497,5.981,1.382,8.76,2.742
		c0.27,0.132,0.672,0.39,0.677,0.598c0.027,1.095,0.913,1.451,1.613,1.84c2.405,1.336,4.164,3.413,6.079,5.278
		c1.548,1.507,2.455,3.529,3.123,5.605c0.527,1.637,1.075,3.27,1.519,4.929c0.897,3.349,0.893,6.745-0.04,10.06
		c-0.683,2.425-1.531,4.846-3.065,6.904c-0.601,0.807-1.405,1.472-2.169,2.143c-0.437,0.383-0.994,0.799-1.587,0.304
		c-0.634-0.529-0.342-1.177-0.048-1.768c0.504-1.011,1.056-2,1.538-3.021c0.257-0.544,0.409-1.138,0.672-1.892
		c-1.05,0.137-1.105,0.813-1.368,1.287c-0.99,1.783-1.874,3.634-2.993,5.331c-0.699,1.061-1.742,1.898-2.639,2.827
		c-0.552,0.572-1.121,1.127-1.597,1.817c0.86,0.064,1.441-0.46,2.038-0.905c0.56-0.417,1.043-0.944,1.622-1.33
		c0.349-0.233,0.816-0.29,1.224-0.425c0.375,0.915-0.133,1.296-0.492,1.758c-1.629,2.099-3.953,3.298-6.093,4.733
		c-2.082,1.396-4.4,2.38-6.787,2.962c-2.006,0.489-4.169,0.542-6.251,0.467c-6.584-0.239-12.337-2.811-17.484-6.768
		c-1.803-1.386-3.035-3.342-4.068-5.374c-1.268-2.493-2.703-4.927-2.969-7.802c-0.054-0.589-0.134-1.181-0.114-1.769
		c0.057-1.692,0.309-1.92,1.92-1.944c0.793-2.682,1.35-5.444,2.434-7.979c1.052-2.458,2.646-4.685,3.904-7.085
		c-0.855,0.348-1.344,1.045-1.782,1.767c-0.614,1.013-1.171,2.062-1.774,3.082c-0.679,1.149-1.402,1.582-1.976,1.222
		c-0.558-0.349-0.611-1.247,0.043-2.364c0.897-1.533,1.905-3.001,2.858-4.501c1.826-2.875,4.404-5.061,7.091-6.993
		c3.328-2.393,7.044-4.017,11.229-4.66c3.1-0.476,6.08-0.075,9.111,0.215c0.019-0.102,0.039-0.205,0.058-0.307
		c-1.316-0.281-2.632-0.563-3.954-0.85C195.242,194.614,195.256,194.632,195.256,194.632z M185.445,206.313
		c1.458-0.192,2.561-1.105,3.751-1.836c-1.427,0.264-2.774,0.686-3.728,1.882c-0.284,0.153-0.568,0.306-0.852,0.459
		c0.064,0.088,0.128,0.176,0.192,0.263C185.021,206.825,185.233,206.569,185.445,206.313z M207.277,223.311
		c1.003-3.337,1.111-6.568-0.492-9.86c-1.454-2.986-3.812-4.926-6.562-6.443c-1.844-1.017-3.961-1.525-6.087-1.323
		c-2.797,0.265-5.444,0.987-7.899,2.555c-3.396,2.168-5.767,5.111-7.52,8.648c-0.095,0.191-0.147,0.405-0.203,0.613
		c-0.903,3.372-0.887,6.706,0.477,9.963c0.245,0.584,0.603,1.139,0.994,1.641c1.445,1.858,3.317,3.156,5.362,4.315
		c2.123,1.203,4.275,1.989,6.734,1.852c2.855-0.159,5.438-0.993,7.823-2.638C203.331,230.267,205.984,227.357,207.277,223.311z
		 M216.081,215.582c-0.062-2.772-2.758-8.667-4.762-9.569c1.013,1.711,1.994,3.17,2.768,4.732
		C214.859,212.304,215.425,213.965,216.081,215.582z"/>
	<path style="fill:#EFEFEF;" d="M107.262,223.261c0.138-0.86,0.095-1.876-0.25-2.651c-0.357-0.802-0.501-1.501-0.289-2.312
		c0.681-2.607,1.352-5.216,2.049-7.819c0.586-2.187,1.305-4.344,1.771-6.555c0.352-1.673,0.427-3.409,0.556-5.123
		c0.03-0.396-0.109-0.933-0.377-1.187c-0.3-0.284-0.834-0.321-1.313-0.48c-0.002-0.193,0.013-0.406-0.011-0.615
		c-0.178-1.546-1.054-1.946-2.309-1c-0.945,0.713-1.846,1.493-2.342,2.622c-0.799,1.817-1.601,3.632-2.382,5.403
		c-0.136-0.307-0.299-0.675-0.493-1.115c-1.01,0.405-1.105,1.158-1.259,1.812c-1.085,4.615-2.737,9.063-3.785,13.703
		c-1.138,5.037-2.9,9.931-4.315,14.909c-0.433,1.525-1.04,2.585-2.855,2.27c-0.203-0.035-0.426,0.061-0.641,0.068
		c-2.475,0.077-4.95,0.147-7.425,0.222c-0.744,0.022-1.092-0.378-1.122-1.077c-0.016-0.374-0.029-0.767,0.061-1.125
		c1.238-4.912,2.267-9.891,3.805-14.708c1.837-5.757,3.456-11.563,4.87-17.43c0.22-0.912,0.215-1.936,0.064-2.869
		c-0.336-2.085-1.072-2.484-3.154-1.9c-0.088-0.18-0.177-0.369-0.271-0.556c-0.667-1.323-1.121-1.467-2.403-0.767
		c-1.411,0.771-2.206,2.039-2.705,3.496c-0.489,1.427-0.873,2.889-1.322,4.329c-0.112,0.36-0.298,0.697-0.449,1.045
		c-0.005-0.932,0.244-1.755,0.428-2.593c0.173-0.787,0.362-1.585,0.39-2.384c0.027-0.774-0.553-1.032-1.199-0.614
		c-0.766,0.496-1.146,1.253-1.41,2.1c-0.943,3.031-1.932,6.049-2.848,9.089c-1.041,3.458-2.042,6.929-3.009,10.409
		c-0.147,0.53-0.262,1.364,0.023,1.668c1.188,1.267,0.795,2.575,0.385,3.934c-0.714,2.374-1.422,4.75-2.146,7.122
		c-0.069,0.225-0.237,0.42-0.358,0.629c-0.112-0.029-0.224-0.057-0.336-0.086c0.093-0.6,0.127-1.217,0.29-1.797
		c0.496-1.763,1.031-3.515,1.572-5.264c0.222-0.719,0.335-1.355-0.842-1.687c-0.425,1.009-0.874,1.97-1.238,2.962
		c-0.798,2.175-1.52,4.378-2.339,6.545c-0.474,1.254-0.688,1.315-2.087,1.244c-0.591-0.03-1.185-0.036-1.776-0.014
		c-1.829,0.067-3.656,0.191-5.485,0.219c-1.271,0.019-1.576-0.387-1.269-1.571c0.649-2.504,1.36-4.992,1.986-7.501
		c0.926-3.714,1.712-7.465,2.72-11.155c1.139-4.169,2.114-8.366,2.6-12.658c0.397-3.514,0.191-7.045-0.996-10.373
		c-0.113-0.318-0.237-0.629-0.366-0.936c-0.975,1.035-0.071,2.414-0.201,3.519c-0.657-0.677-0.679-1.854-0.941-2.761
		c-0.418-0.948-0.794-2.052-2.087-2.228c-1.845,0.012-2.177,1.263-3.02,2.546c-0.887-1.073-2.211-1.759-3.628-1.466
		c-0.156-0.042-0.281,0.428-0.208,0.782c0.303,0.75,0.919,1.583,0.44,2.126c-0.042,0.156-0.386-0.437-0.501-0.635
		c-0.679-1.854-1.412-5.397-3.193-4.364c-1.78,0.911-0.436,3.359,0.475,5.1c0.323,0.289,0.667,0.559,1.046,0.732
		c0.691,0.315,1.382,0.478,1.633,1.37c0.265,0.941,0.368,1.083,0.3,2.028c-0.91-2.004-0.985-2.097-2.152-2.626
		c-0.83,1.031-0.39,2.135-0.172,3.218c0.169,0.842,0.537,1.686,0.512,2.519c-0.09,2.958-0.015,5.967-0.552,8.855
		c-0.766,4.118-1.528,8.271-3.041,12.215c-0.269,0.701-0.694,1.347-0.919,2.059c-1.004,3.185-1.985,6.378-2.926,9.582
		c-0.466,1.586-0.832,1.874-2.492,1.916c-2.143,0.054-4.288,0.135-6.425,0.294c-2.176,0.162-2.693,0.731-2.838,2.89
		c-0.225,0.079-0.475,0.166-0.725,0.254c-1.465,0.516-2.962,0.958-4.386,1.571c-1.337,0.575-1.511,1.791-0.516,2.848
		c0.851,0.904,1.903,1.403,3.154,1.43c0.969,0.022,1.94-0.015,2.906,0.044c0.46,0.028,1.23,0.109,1.312,0.351
		c0.406,1.197,1.318,0.921,2.142,0.891c5.437-0.2,10.871-0.465,16.309-0.614c6.08-0.166,12.163-0.235,18.245-0.338
		c4.738-0.08,9.477-0.199,14.216-0.204c3.879-0.004,7.758,0.138,11.637,0.211c1.682,0.032,3.324-0.148,4.921-0.746
		c1.158-0.434,1.837-1.157,2.166-2.378c1.302-4.837,2.681-9.653,4.017-14.481C106.567,226.195,107.025,224.744,107.262,223.261z
		 M52.481,201.062c-0.065-0.059-0.165-0.108-0.185-0.18c-0.018-0.066,0.051-0.156,0.081-0.235c0.049,0.089,0.097,0.178,0.146,0.266
		C52.508,200.963,52.494,201.012,52.481,201.062z M41.75,243.594c-0.009-0.072-0.018-0.144-0.026-0.216
		c0.251-0.042,0.502-0.084,0.753-0.126c-0.005,0.11-0.011,0.22-0.016,0.329C42.224,243.586,41.987,243.59,41.75,243.594z
		 M47.186,243.347c-0.004-0.082-0.008-0.165-0.012-0.247c0.52-0.029,1.041-0.057,1.561-0.086c-0.008,0.107-0.015,0.215-0.023,0.322
		C48.204,243.34,47.695,243.344,47.186,243.347z M60.005,203.354c0.068-0.566,0.137-1.133,0.205-1.699
		c0.132,0.012,0.264,0.025,0.395,0.037c-0.063,0.567-0.126,1.134-0.189,1.701C60.278,203.38,60.141,203.367,60.005,203.354z
		 M56.255,222.309c0.242-3.258,0.861-6.44,1.913-9.533C58.021,216.053,57.477,219.25,56.255,222.309z M101.404,208.721
		c-0.03-0.007-0.059-0.014-0.089-0.021c0.142-0.535,0.284-1.069,0.426-1.604c0.031,0.001,0.063,0.001,0.094,0.002
		C101.691,207.639,101.547,208.18,101.404,208.721z"/>
	<path style="fill:#EFEFEF;" d="M126.09,201.815c0.161-0.426,0.367-0.841,0.475-1.28c0.489-1.997,1.168-3.911,2.114-5.747
		c0.881-1.71,1.475-2.196,2.739-1.902c1.158,0.269,2.412,1.737,2.336,2.984c-0.064,1.04-0.102,1.967,0.535,2.9
		c0.237,0.347,0.06,1.06-0.08,1.564c-0.575,2.076-1.196,4.139-1.824,6.2c-0.626,2.054-1.28,4.099-1.965,6.287
		c0.868-0.063,1.18-0.659,1.558-1.111c2.876-3.443,6.146-6.44,9.733-9.147c3.192-2.409,6.459-4.681,9.98-6.56
		c2.272-1.213,4.635-2.259,6.986-3.318c0.587-0.264,1.507-0.676,1.779,0.263c0.229,0.792-0.728,0.917-1.292,1.15
		c-1.277,0.528-2.572,1.015-3.859,1.519c0.041,0.126,0.082,0.252,0.122,0.379c0.561-0.184,1.118-0.381,1.683-0.55
		c1.081-0.324,2.191-0.568,3.241-0.971c0.569-0.218,1.158-0.601,1.53-1.073c1.034-1.312,3.075-2.075,4.718-1.622
		c0.155,0.043,0.303,0.112,0.456,0.165c2.674,0.931,3.013,2.351,1.017,4.337c-0.395,0.393-0.783,0.743-0.568,1.383
		c0.478,1.425-0.336,2.308-1.42,2.908c-1.41,0.781-2.893,1.437-4.373,2.082c-3.87,1.688-7.415,3.931-10.908,6.273
		c-0.683,0.458-0.76,1.082-0.805,1.812c-0.225,3.599,0.468,7.072,1.369,10.52c1.309,5.015,3.431,9.652,6.741,13.66
		c3.213,3.891,6.823,7.335,11.651,9.218c0.545,0.213,1.091,0.486,1.552,0.841c0.739,0.57,1.386,1.252,1.067,2.324
		c-0.316,1.059-1.093,1.556-2.149,1.669c-0.314,0.034-0.632,0.032-1.081,0.052c0.083,0.522,0.154,0.969,0.225,1.412
		c-0.129,0.15-0.209,0.309-0.338,0.383c-2.161,1.231-4.167,0.48-6.135-0.523c-0.525-0.268-1.003-0.63-1.494-0.961
		c-0.77-0.519-1.462-0.975-2.504-0.404c-0.435,0.238-1.3,0.004-1.819-0.285c-1.167-0.653-2.357-1.348-3.332-2.248
		c-4.943-4.562-8.699-9.962-11.086-16.272c-0.932-2.464-1.854-4.936-2.636-7.449c-0.392-1.258-0.461-2.617-0.72-4.203
		c-0.805,0.609-1.471,1.112-2.156,1.631c0.07,0.392,0.238,0.764,0.16,1.074c-0.066,0.264-0.396,0.482-0.644,0.676
		c-5.612,4.39-9.912,9.831-13.028,16.225c-0.117,0.24-0.257,0.471-0.409,0.691c-0.055,0.08-0.174,0.115-0.395,0.252
		c-0.261-1.83,1.246-2.938,1.48-4.499c-0.94,1.246-1.723,2.591-2.409,3.997c-0.26,0.532-0.464,1.092-0.727,1.623
		c-0.741,1.5-0.995,1.599-2.717,1.067c-0.239,0.221-0.514,0.467-0.777,0.723c-1.168,1.136-2.066,1.271-3.494,0.52
		c-2.512-1.322-3.303-3.186-2.604-6.248c0.228-0.997,0.535-1.977,0.827-2.958c1.953-6.551,3.911-13.101,5.868-19.652
		c0.061-0.206,0.053-0.509,0.19-0.603c1.062-0.732,0.745-1.918,1.028-2.91c0.854-3.002,1.722-6.001,2.662-8.977
		c0.47-1.487,1.027-2.96,1.704-4.362c0.357-0.74,1.016-1.355,1.614-1.951c0.398-0.397,1.034-0.594,1.457-0.15
		c0.267,0.281,0.382,0.897,0.287,1.298c-0.32,1.361-0.768,2.691-1.158,4.036c-0.161,0.555-0.299,1.116-0.447,1.675
		C125.774,201.707,125.932,201.761,126.09,201.815z M147.226,215.653c-0.545,4.41,2.98,14.861,6.153,17.283
		c-1.219-2.751-2.626-5.484-3.647-8.354C148.698,221.676,148.045,218.635,147.226,215.653z M120.28,213.149
		c-0.152-0.04-0.25-0.068-0.25-0.068c-1.405,4.785-2.804,9.57-4.196,14.357c-0.058,0.198-0.053,0.415-0.065,0.625
		c-0.002,0.039,0.047,0.091,0.085,0.121c0.041,0.032,0.097,0.046,0.217,0.1c0.16-0.168,0.44-0.327,0.501-0.547
		c1.265-4.566,2.51-9.137,3.739-13.712C120.387,213.745,120.294,213.42,120.28,213.149z M146.003,201.53
		c-1.78,0.704-3.348,1.937-3.882,3.058C143.803,203.711,144.782,202.451,146.003,201.53z M165.342,247.507
		c0.055-0.133,0.109-0.266,0.164-0.399c-0.748-0.373-1.496-0.746-2.244-1.119c-0.063,0.129-0.125,0.259-0.188,0.388
		C163.83,246.755,164.586,247.131,165.342,247.507z M151.794,197.852c-0.057-0.094-0.114-0.188-0.171-0.282
		c-0.319,0.202-0.638,0.405-0.957,0.607c0.041,0.071,0.082,0.141,0.123,0.212C151.123,198.211,151.459,198.031,151.794,197.852z
		 M157.04,237.941c-0.013-0.09,0.003-0.235-0.044-0.259c-0.088-0.045-0.212-0.02-0.321-0.024c0.036,0.088,0.051,0.202,0.115,0.258
		C156.842,237.96,156.954,237.936,157.04,237.941z"/>
	<path style="fill:#EFEFEF;" d="M105.862,229.095c-0.745-0.364-0.635-0.993-0.484-1.554c1.036-3.848,2.087-7.692,3.184-11.523
		c0.09-0.316,0.551-0.526,0.84-0.786c0.157,0.361,0.474,0.738,0.44,1.08c-0.089,0.906-0.269,1.815-0.521,2.691
		c-0.805,2.794-1.649,5.577-2.503,8.357C106.624,227.993,106.664,228.788,105.862,229.095z"/>
	<path style="fill:#EFEFEF;" d="M110.873,209.377c0.789,0.456,0.593,1.07,0.439,1.605c-0.142,0.495-0.396,0.965-0.662,1.409
		c-0.053,0.089-0.46,0.093-0.57-0.008c-0.17-0.157-0.296-0.434-0.315-0.67C109.721,211.163,110.201,210.197,110.873,209.377z"/>
	<g>
		<g>
			<path style="fill:#EFEFEF;" d="M309.852,208.285c0.539-0.469,0.818-0.683,1.065-0.931c4.138-4.165,8.24-8.367,12.433-12.476
				c0.938-0.919,2.156-1.578,3.312-2.241c1.358-0.779,1.461-0.695,1.981,0.762c0.853-0.31,1.685-0.72,2.565-0.906
				c1.461-0.309,2.251,0.476,2.193,1.958c-0.029,0.736,0.089,1.478,0.057,2.214c-0.021,0.468-0.114,0.968-0.314,1.387
				c-2.06,4.3-3.495,8.819-4.619,13.432c-0.878,3.605-1.85,7.215-1.906,10.96c-0.071,4.718,0.394,9.362,2.27,13.764
				c0.232,0.544,0.557,1.049,0.78,1.596c0.232,0.567,0.395,1.163,0.621,1.848c-1.061,0.172-1.412-0.465-1.625-1.004
				c-0.769-1.945-1.597-3.887-2.125-5.903c-1.138-4.348-1.382-8.804-1.116-13.29c-0.591,1.964-0.91,5.869-0.605,8.143
				c0.551,4.115,1.398,8.163,3.22,11.934c0.419,0.867,1.023,1.644,1.46,2.504c0.166,0.325,0.103,0.767,0.144,1.155
				c-0.443-0.029-0.942,0.058-1.314-0.12c-0.396-0.189-0.672-0.629-1.204-0.832c0.109,0.249,0.17,0.538,0.336,0.741
				c0.919,1.127,1.884,2.217,2.792,3.352c0.617,0.772,1.191,1.649,0.659,2.656c-0.494,0.935-1.28,1.426-2.453,1.553
				c-2.83,0.306-5.198-0.42-7.17-2.498c-2.832-2.984-4.872-6.291-5.728-10.451c-0.766-3.725-0.793-7.383-0.311-11.067
				c0.327-2.502,0.943-4.975,1.572-7.425c0.521-2.03,1.256-4.005,1.883-6.008c0.09-0.287,0.11-0.596,0.232-1.29
				c-0.55,0.575-0.839,0.854-1.102,1.155c-1.205,1.376-2.405,2.757-3.603,4.139c-1.234,1.424-2.462,2.853-3.695,4.277
				c-3.21,3.706-6.56,7.272-10.332,10.425c-1.404,1.174-2.679,2.509-4.122,3.628c-2.246,1.742-4.799,2.91-7.625,3.328
				c-3.187,0.472-5.833-0.515-7.754-3.191c-0.094-0.131-0.198-0.256-0.283-0.393c-0.835-1.342-0.714-1.964,0.719-3.057
				c-0.259-0.509-0.533-1.048-0.88-1.731c-0.545,0.528-0.943,0.915-1.389,1.347c-1.187-0.815-1.609-1.962-1.622-3.209
				c-0.029-2.865,0.187-5.718,1.127-8.454c0.541-1.574,1.101-3.151,1.809-4.653c0.539-1.143,0.649-1.092,1.818-0.369
				c0.098-0.369,0.191-0.719,0.301-1.132c-0.172-0.131-0.315-0.315-0.497-0.367c-0.853-0.247-0.97-0.831-0.629-1.506
				c1.261-2.497,2.457-5.037,3.883-7.438c1.239-2.087,2.873-3.931,4.767-5.456c2.343-1.887,4.702-3.858,7.694-4.619
				c1.539-0.391,3.185-0.467,4.784-0.479c0.758-0.006,1.57,0.379,2.267,0.755c1.096,0.591,1.181,0.854,1.305,2.257
				c1.499,0.473,2.357,1.633,2.664,3.113c0.425,2.051,0.679,4.137,1.007,6.207C309.63,206.918,309.718,207.454,309.852,208.285z
				 M289.386,218.219c-0.203,1.431-0.555,2.86-0.566,4.293c-0.011,1.298,0.744,2.407,1.974,2.898
				c1.192,0.476,2.189-0.148,3.003-1.036c0.29-0.317,0.57-0.645,0.833-0.984c2.407-3.101,4.147-6.555,5.15-10.337
				c0.449-1.693,0.905-3.458,0.337-5.245c-0.633-1.993-2.656-2.502-4.192-1.122c-1.46,1.311-2.543,2.846-3.447,4.594
				C291.313,213.534,290.13,215.758,289.386,218.219z M300.453,228.593c1.607-0.781,9.843-9.62,10.286-11.039
				C309.724,218.137,301.176,227.311,300.453,228.593z M280.846,218.591c0.038,0.013,0.075,0.026,0.113,0.039
				c0.058-0.176,0.116-0.351,0.175-0.527c-0.034-0.012-0.068-0.024-0.101-0.035C280.97,218.242,280.908,218.416,280.846,218.591z"/>
			<path style="fill:#EFEFEF;" d="M335.973,196.87c-3.694,7.799-5.478,16.156-7.253,24.878c-0.424-2.287,0.023-4.167,0.507-6.011
				c0.969-3.687,1.957-7.372,3.095-11.009C333.184,201.973,334.268,199.285,335.973,196.87z"/>
			<path style="fill:#EFEFEF;" d="M295.455,194.276c-2.987,1.667-5.556,3.84-8.034,6.132c-2.514,2.325-4.078,5.335-5.828,8.382
				c-0.504-0.666-0.163-1.078,0.052-1.46c1.592-2.833,3.443-5.491,5.843-7.691c1.699-1.558,3.538-2.971,5.369-4.377
				C293.587,194.702,294.416,194.201,295.455,194.276z"/>
		</g>
		<path style="fill:#EFEFEF;" d="M333.091,244.663c-0.096,0.04-0.205,0.132-0.289,0.112c-0.903-0.205-1.49-0.723-1.359-1.287
			c0.047-0.202,0.444-0.47,0.665-0.457C332.835,243.078,333.109,243.588,333.091,244.663z"/>
	</g>
	<path style="fill:#EFEFEF;" d="M282.686,245.409c-0.48-0.371-1.049-0.655-1.618-0.877c-5.034-1.963-8.797-5.553-12.147-9.61
		c-3.451-4.179-5.663-9.013-7.028-14.242c-0.939-3.595-1.662-7.216-1.427-10.969c0.048-0.761,0.128-1.412,0.84-1.889
		c3.642-2.441,7.337-4.78,11.372-6.54c1.543-0.673,3.089-1.357,4.56-2.171c1.129-0.625,1.979-1.546,1.48-3.032
		c-0.224-0.667,0.18-1.032,0.592-1.442c2.081-2.071,1.728-3.552-1.06-4.522c-0.159-0.055-0.314-0.127-0.475-0.172
		c-1.713-0.472-3.841,0.323-4.919,1.691c-0.388,0.492-1.002,0.891-1.595,1.118c-1.095,0.42-2.252,0.675-3.379,1.013
		c-0.589,0.176-1.17,0.381-1.755,0.573c-0.042-0.132-0.085-0.263-0.127-0.395c1.342-0.525,2.692-1.032,4.024-1.583
		c0.588-0.243,1.586-0.374,1.347-1.199c-0.284-0.979-1.243-0.549-1.855-0.274c-2.451,1.103-4.915,2.195-7.284,3.459
		c-3.671,1.959-7.077,4.327-10.405,6.839c-15.366,10.258-26.788,25.281-26.693,24.955c-0.598,0.853-1.2,1.714-1.814,2.582
		c-0.496,0.685-0.942,1.395-1.345,2.126c-0.232,0.777-0.464,1.553-0.695,2.33c-0.305,1.023-0.625,2.045-0.863,3.084
		c-0.729,3.193,0.096,5.136,2.714,6.514c1.489,0.783,2.425,0.642,3.643-0.542c0.275-0.268,0.562-0.523,0.811-0.754
		c1.795,0.555,2.06,0.451,2.833-1.113c0.273-0.554,0.487-1.137,0.758-1.692c0.715-1.466,1.531-2.869,2.511-4.167
		c-0.243,1.627-1.815,2.782-1.543,4.69c0.231-0.143,0.355-0.18,0.412-0.263c0.158-0.23,0.304-0.47,0.426-0.721
		c3.249-6.666,7.732-12.339,13.582-16.916c0.259-0.202,0.603-0.43,0.672-0.705c0.081-0.323-0.094-0.711-0.167-1.12
		c0.715-0.541,1.409-1.065,2.248-1.7c0.27,1.653,0.342,3.07,0.751,4.382c0.816,2.62,1.777,5.198,2.749,7.766
		c2.488,6.579,6.405,12.208,11.558,16.965c1.017,0.939,2.257,1.663,3.474,2.344c0.541,0.302,1.443,0.546,1.896,0.298
		c1.087-0.596,1.808-0.12,2.611,0.421c0.512,0.345,1.011,0.723,1.558,1.002c2.052,1.046,4.143,1.829,6.397,0.545
		c0.135-0.077,0.218-0.243,0.353-0.399c-0.073-0.462-0.148-0.929-0.234-1.472c0.468-0.021,0.799-0.019,1.127-0.054
		c1.102-0.118,1.912-0.636,2.241-1.74C284.131,246.715,283.457,246.004,282.686,245.409z M252.254,203.296
		c0.556-1.168,2.192-2.454,4.048-3.188C255.028,201.067,254.008,202.381,252.254,203.296z M261.291,196.834
		c-0.043-0.074-0.085-0.147-0.128-0.221c0.333-0.211,0.665-0.422,0.998-0.633c0.059,0.098,0.119,0.196,0.178,0.294
		C261.99,196.46,261.64,196.647,261.291,196.834z M257.577,214.832c0.854,3.109,1.535,6.28,2.613,9.31
		c1.065,2.992,2.531,5.841,3.802,8.71C260.684,230.325,257.009,219.429,257.577,214.832z M267.549,238.043
		c-0.067-0.058-0.083-0.176-0.12-0.268c0.113,0.004,0.242-0.022,0.334,0.025c0.049,0.025,0.033,0.176,0.046,0.27
		C267.719,238.064,267.603,238.089,267.549,238.043z M276.464,248.043c-0.788-0.392-1.576-0.785-2.364-1.177
		c0.065-0.135,0.13-0.27,0.196-0.405c0.78,0.389,1.56,0.778,2.34,1.167C276.578,247.766,276.521,247.904,276.464,248.043z"/>
</g>
</svg>
