<svg xmlns="http://www.w3.org/2000/svg" viewBox="0 0 64.682 62.329" width="65" height="63" fill="#efefef">
	<path d="M62.592,34.014c0.067-0.102,0.12-0.202,0.191-0.285c0.184-0.213,0.35-0.452,0.571-0.617
		c0.347-0.259,0.652-0.137,0.747,0.29c0.153,0.692,0.197,1.394,0.053,2.096c-0.169,0.82-0.322,1.644-0.514,2.458
		c-0.111,0.472-0.269,0.935-0.435,1.391c-0.362,0.991-0.737,1.977-1.119,2.961c-0.351,0.904-0.712,1.804-1.081,2.701
		c-0.095,0.23-0.256,0.432-0.36,0.659c-0.649,1.413-1.582,2.643-2.511,3.874c-0.221,0.292-0.433,0.587-0.637,0.891
		c-0.234,0.348-0.637,0.579-0.954,0.875c-0.268,0.25-0.536,0.504-0.77,0.784c-0.324,0.387-0.638,0.774-1.073,1.049
		c-0.197,0.124-0.375,0.283-0.543,0.446c-0.955,0.927-1.999,1.733-3.148,2.407c-0.517,0.304-1.014,0.641-1.526,0.956
		c-0.112,0.069-0.243,0.107-0.367,0.156c-0.093,0.037-0.212,0.042-0.28,0.105c-0.379,0.347-0.854,0.522-1.302,0.743
		c-0.674,0.331-1.336,0.678-2.062,0.902c-0.573,0.177-1.114,0.459-1.668,0.695c-0.092,0.039-0.176,0.109-0.272,0.129
		c-0.834,0.176-1.617,0.521-2.436,0.74c-0.693,0.186-1.42,0.24-2.117,0.415c-1.556,0.39-3.135,0.502-4.73,0.515
		c-1.054,0.009-2.107,0.074-3.161,0.075c-0.601,0-1.211-0.027-1.801-0.134c-1.071-0.195-2.13-0.457-3.193-0.693
		c-0.604-0.134-1.215-0.243-1.808-0.415c-0.964-0.28-1.917-0.6-2.873-0.907c-0.191-0.061-0.377-0.141-0.565-0.21
		c-1.811-0.664-3.559-1.472-5.238-2.415c-0.872-0.49-1.668-1.116-2.504-1.671c-1.243-0.824-2.246-1.904-3.228-3.007
		c-0.256-0.288-0.53-0.562-0.776-0.859c-0.534-0.643-1.051-1.3-1.583-1.944c-0.235-0.284-0.476-0.566-0.743-0.817
		c-0.221-0.208-0.401-0.127-0.441,0.179c-0.022,0.165-0.011,0.335-0.007,0.502c0.006,0.268-0.05,0.507-0.312,0.636
		c-0.252,0.124-0.501,0.071-0.712-0.089c-0.389-0.294-0.734-0.626-0.955-1.08c-0.519-1.068-1.062-2.124-1.59-3.187
		c-0.074-0.149-0.11-0.316-0.176-0.469c-0.12-0.273-0.25-0.542-0.375-0.813c-0.056-0.12-0.138-0.237-0.159-0.364
		c-0.098-0.589-0.351-1.115-0.619-1.639c-0.075-0.147-0.125-0.31-0.166-0.471C1.19,41.267,1.15,40.966,1.062,40.68
		c-0.391-1.272-0.566-2.585-0.759-3.894C0.109,35.473,0.008,34.153,0,32.827c-0.009-1.665,0.125-3.322,0.491-4.943
		c0.194-0.86,0.312-1.735,0.556-2.591c0.195-0.684,0.289-1.41,0.544-2.083c0.314-0.828,0.679-1.637,1.022-2.453
		c0.039-0.092,0.094-0.179,0.124-0.274c0.313-0.985,0.855-1.852,1.399-2.718c0.364-0.58,0.735-1.156,1.106-1.731
		c0.336-0.521,0.674-1.04,1.016-1.556c0.313-0.475,0.642-0.94,0.946-1.42c0.244-0.384,0.538-0.714,0.854-1.043
		c0.568-0.589,1.066-1.244,1.598-1.867c0.184-0.216,0.366-0.436,0.573-0.629c0.906-0.848,1.88-1.614,2.892-2.33
		c0.041-0.029,0.094-0.052,0.119-0.091c0.6-0.928,1.704-1.185,2.487-1.871c0.787-0.689,1.709-1.172,2.626-1.661
		c0.088-0.047,0.173-0.106,0.247-0.173c0.628-0.568,1.41-0.807,2.187-1.076c0.519-0.18,1.003-0.462,1.508-0.687
		c0.213-0.095,0.434-0.18,0.659-0.235c1.417-0.341,2.845-0.64,4.252-1.019c0.757-0.204,1.518-0.24,2.287-0.283
		c0.368-0.021,0.734-0.081,1.102-0.086c1.375-0.022,2.749-0.011,4.107,0.263c0.278,0.056,0.569,0.047,0.849,0.097
		c0.94,0.166,1.875,0.36,2.817,0.515c1.477,0.243,2.89,0.735,4.334,1.105c0.287,0.074,0.539,0.283,0.826,0.357
		c1.183,0.308,2.21,0.951,3.285,1.492c0.104,0.053,0.212,0.109,0.3,0.184c0.617,0.528,1.325,0.908,2.048,1.265
		c0.103,0.051,0.223,0.114,0.278,0.206c0.555,0.92,1.489,1.434,2.26,2.121c0.399,0.355,0.886,0.623,1.239,1.015
		c0.884,0.984,1.722,2.009,2.561,3.032c0.489,0.596,0.965,1.204,1.41,1.834c0.444,0.629,0.849,1.286,1.258,1.938
		c0.373,0.596,0.755,1.188,1.084,1.809c0.319,0.603,0.581,1.236,0.857,1.861c0.271,0.612,0.531,1.229,0.792,1.845
		c0.557,1.316,1.009,2.665,1.243,4.078c0.107,0.644,0.179,1.293,0.266,1.94c0.004,0.033,0.01,0.068,0.004,0.1
		c-0.194,0.989,0.097,1.968,0.059,2.955c-0.037,0.971-0.029,1.944-0.048,2.915c-0.004,0.183-0.055,0.365-0.065,0.549
		C62.35,33.679,62.329,33.889,62.592,34.014z M30.204,2.397C29.361,2.493,28.478,2.577,27.6,2.7
		c-0.48,0.067-0.953,0.188-1.424,0.304c-0.746,0.184-1.509,0.328-2.228,0.592c-1.208,0.444-2.389,0.962-3.575,1.465
		c-0.196,0.083-0.368,0.233-0.531,0.375c-0.061,0.053-0.11,0.192-0.082,0.255c0.03,0.067,0.161,0.135,0.241,0.127
		c0.298-0.031,0.609-0.047,0.885-0.151c0.878-0.328,1.721-0.765,2.617-1.021c0.849-0.242,1.707-0.455,2.555-0.706
		c0.657-0.195,1.333-0.34,2.009-0.456c0.691-0.118,1.359-0.363,2.075-0.357c0.331,0.003,0.666-0.077,0.993-0.148
		c0.094-0.02,0.246-0.159,0.233-0.206c-0.03-0.108-0.131-0.255-0.226-0.275C30.852,2.439,30.549,2.43,30.204,2.397z M60.703,30.876
		c0.05,0.001,0.1,0.002,0.15,0.004c0.061-0.111,0.172-0.221,0.176-0.335c0.025-0.762,0.04-1.525,0.027-2.287
		c-0.003-0.171-0.116-0.388-0.339-0.364c-0.25,0.027-0.217,0.265-0.211,0.44c0.023,0.714,0.055,1.428,0.095,2.142
		C60.608,30.611,60.668,30.743,60.703,30.876z"/>
	<path d="M49.116,2.265c0.312,0.109,0.648,0.176,0.932,0.335c0.658,0.366,1.318,0.739,1.929,1.176
		c0.981,0.7,1.92,1.454,2.705,2.387c0.441,0.524,0.964,0.978,1.422,1.49c0.602,0.672,1.212,1.343,1.755,2.063
		c0.715,0.947,1.398,1.921,2.037,2.92c0.611,0.956,1.228,1.911,1.551,3.028c0.18,0.622,0.57,1.183,0.75,1.805
		c0.213,0.734,0.309,1.503,0.437,2.259c0.024,0.14-0.015,0.305-0.071,0.44c-0.159,0.382-0.63,0.468-0.903,0.158
		c-0.117-0.133-0.194-0.311-0.254-0.481c-0.112-0.315-0.194-0.641-0.295-0.96c-0.196-0.622-0.381-1.242-0.709-1.82
		c-0.27-0.476-0.394-1.035-0.663-1.512c-0.476-0.844-1.012-1.654-1.526-2.476c-0.089-0.142-0.199-0.27-0.287-0.412
		c-0.532-0.86-1.266-1.554-1.924-2.309c-0.528-0.606-1.071-1.202-1.635-1.775c-0.361-0.367-0.773-0.684-1.162-1.025
		c-0.327-0.287-0.646-0.582-0.979-0.861c-0.563-0.472-1.143-0.924-1.699-1.403c-0.596-0.513-1.178-1.043-1.757-1.576
		c-0.121-0.111-0.204-0.265-0.3-0.402c-0.15-0.213-0.266-0.439-0.127-0.699c0.139-0.259,0.39-0.291,0.651-0.289
		c0.034,0,0.067,0,0.101,0C49.103,2.304,49.11,2.285,49.116,2.265z"/>
	<path d="M63.102,24.916c-0.032-0.317-0.081-0.732-0.114-1.147c-0.014-0.182-0.017-0.369,0.009-0.549
		c0.06-0.413,0.25-0.625,0.568-0.669c0.327-0.045,0.668,0.132,0.837,0.437c0.024,0.044,0.053,0.09,0.059,0.138
		c0.108,0.923,0.386,1.842,0.084,2.777c-0.04,0.125-0.088,0.258-0.169,0.358c-0.272,0.34-0.604,0.338-0.891,0.012
		C63.204,25.954,63.09,25.582,63.102,24.916z"/>
	<path d="M10.036,53.854c-0.014,0.333-0.266,0.509-0.532,0.406c-0.138-0.054-0.273-0.135-0.386-0.232
		c-0.432-0.37-0.881-0.725-1.271-1.137c-0.222-0.234-0.368-0.554-0.496-0.857c-0.111-0.263,0-0.54,0.194-0.674
		c0.226-0.156,0.441-0.054,0.599,0.087c0.664,0.59,1.3,1.21,1.758,1.982C9.984,53.567,10.002,53.744,10.036,53.854z"/>
	<path d="M12.193,55.703c0.054,0.012,0.166,0.01,0.244,0.06c0.28,0.177,0.568,0.349,0.815,0.567
		c0.283,0.25,0.2,0.561-0.151,0.694c-0.595,0.226-1.353-0.262-1.397-0.901C11.688,55.87,11.854,55.713,12.193,55.703z"/>
	<path d="M22.632,61.063c0.354,0,0.693,0.317,0.704,0.658c0.01,0.298-0.269,0.601-0.557,0.607
		c-0.325,0.006-0.755-0.434-0.751-0.769C22.031,61.311,22.332,61.064,22.632,61.063z"/>
	<path d="M17.021,59.79c-0.366-0.009-0.657-0.28-0.664-0.62c-0.006-0.269,0.194-0.439,0.502-0.43
		c0.362,0.011,0.728,0.325,0.739,0.633C17.607,59.628,17.371,59.798,17.021,59.79z"/>
</svg>