<svg xmlns="http://www.w3.org/2000/svg" xmlns:xlink="http://www.w3.org/1999/xlink"><symbol id="arrow-right" viewBox="0 0 36.3 18.7"><style>.st0{fill:none;stroke:#000;stroke-linecap:round;stroke-linejoin:round;stroke-miterlimit:10}</style><path class="st0" d="M26.7 18.2l8.4-8.2.6-.6-.7-.7L26.6.5M35.5 9.4H.5"/></symbol><symbol id="car" viewBox="0 0 28.497 23.607"><path d="M21.788 19.252c-.479.037-.995.037-1.474.074-1.843.147-3.65.848-5.53 1.033-2.064.185-3.834-.737-5.825-1.033-1.364-.184-2.839.074-4.13-.516-1.106-.516-1.88-1.659-2.212-2.839-.332-1.18-.332-2.433-.295-3.687.037-.848.074-1.733.221-2.581.405-1.991 1.585-3.687 2.876-5.199 1.29-1.548 2.36-2.912 4.424-3.318 1.106-.221 2.286-.185 3.429-.185l4.535.111c.59 0 1.216.037 1.77.221.774.258 1.438.848 1.991 1.438 1.18 1.216 2.249 2.544 3.133 3.981.627.995 1.18 2.064 1.364 3.208.147.922.037 1.88.037 2.802 0 1.106.147 2.212-.147 3.282-.405 1.474-1.622 2.728-3.133 3.06-.297.074-.665.112-1.034.148zM3.465 7.491s10.913 4.977 21.678 0M2.396 11.289s4.24-.443 5.457 2.728M26.138 11.363s-4.24-.443-5.457 2.728M12.091 14.017h4.24M1.806 8.229c-.774-.774-1.033-1.733-.59-2.175.443-.443 1.438-.185 2.175.59M26.691 8.339c.774-.774 1.033-1.733.59-2.175-.443-.443-1.438-.185-2.175.59" fill="none" stroke="#c8d4e3" stroke-width="2" stroke-linecap="round" stroke-linejoin="round" stroke-miterlimit="10"/><path d="M7.852 19.657v1.438a1.52 1.52 0 0 1-1.512 1.512H4.607a1.52 1.52 0 0 1-1.512-1.512v-3.981M20.645 19.657v1.438a1.52 1.52 0 0 0 1.512 1.512h1.733a1.52 1.52 0 0 0 1.512-1.512v-3.613" fill="none" stroke="#c8d4e3" stroke-width="2" stroke-linecap="round" stroke-linejoin="round" stroke-miterlimit="10"/></symbol><symbol id="clock" viewBox="0 0 47 47"><g fill="none" stroke="#c8d4e3" stroke-width="2" stroke-miterlimit="10"><path d="M23.5 1C35.975 1 46 11.248 46 23.5S35.752 46 23.5 46 1 35.53 1 23.5 11.025 1 23.5 1z"/><path d="M23.5 11.693v12.03l10.693 7.797" stroke-linecap="round" stroke-linejoin="round"/></g></symbol><symbol id="drivers-license" viewBox="0 0 180 180"><circle cx="90" cy="90" r="90" fill="#9c1c1f"/><path d="M80.02 108.863H59.109c-2.839 0-5.109-2.271-5.109-5.062V67.562c0-2.791 2.271-5.062 5.109-5.062h53.696c2.791 0 5.109 2.271 5.109 5.109V99.07M117.631 70.779H54.237M92.557 90.176h19.87M92.557 81.66h9.462M106.277 81.66h5.677" fill="none" stroke="#fff" stroke-width="2" stroke-linecap="round" stroke-linejoin="round" stroke-miterlimit="10"/><path d="M78.837 103.423h-19.87s1.892-6.623 9.935-7.096v-2.365s-2.365-2.365-2.365-4.258c-2.034-1.798-1.892-4.258 0-5.677.284-2.791-.946-6.15 4.258-6.623h1.892s9.935-4.258 7.57 4.258v2.365s3.075 3.075-.473 5.63c0 0-.473 2.886-2.839 4.305" fill="none" stroke="#fff" stroke-width="2" stroke-linecap="round" stroke-linejoin="round" stroke-miterlimit="10"/><path d="M76.945 93.961v2.365s5.204 0 8.516 3.312M110.819 121.495c-.615.047-1.277.047-1.892.095-2.365.189-4.684 1.088-7.096 1.325-2.649.237-4.92-.946-7.475-1.325-1.75-.237-3.643.095-5.299-.662-1.419-.662-2.413-2.129-2.839-3.643-.426-1.514-.426-3.122-.378-4.731.047-1.088.095-2.224.284-3.312.52-2.555 2.034-4.731 3.69-6.671 1.656-1.987 3.028-3.737 5.677-4.258 1.419-.284 2.933-.237 4.4-.237l5.819.142c.757 0 1.561.047 2.271.284.993.331 1.845 1.088 2.555 1.845 1.514 1.561 2.886 3.264 4.021 5.109.804 1.277 1.514 2.649 1.75 4.116.189 1.183.047 2.413.047 3.596 0 1.419.189 2.839-.189 4.211-.52 1.892-2.082 3.501-4.021 3.927-.379.094-.852.142-1.325.189zM87.306 106.403s14.004 6.387 27.818 0M85.934 111.276s5.441-.568 7.002 3.501M116.401 111.371s-5.441-.568-7.002 3.501M98.376 114.777h5.441M85.177 107.349c-.993-.993-1.325-2.224-.757-2.791.568-.568 1.845-.237 2.791.757M117.111 107.491c.993-.993 1.325-2.224.757-2.791-.568-.568-1.845-.237-2.791.757" fill="none" stroke="#fff" stroke-width="2" stroke-linecap="round" stroke-linejoin="round" stroke-miterlimit="10"/><path d="M92.936 122.015v1.845c0 1.088-.899 1.94-1.94 1.94h-2.224a1.949 1.949 0 0 1-1.94-1.94v-5.109M109.352 122.015v1.845c0 1.088.899 1.94 1.94 1.94h2.224c1.088 0 1.94-.899 1.94-1.94v-4.636" fill="none" stroke="#fff" stroke-width="2" stroke-linecap="round" stroke-linejoin="round" stroke-miterlimit="10"/></symbol><symbol id="exams" viewBox="0 0 180 180"><circle cx="90" cy="90" r="90" fill="#9c1c1f"/><g fill="none" stroke="#fff" stroke-width="2" stroke-linecap="round" stroke-linejoin="round" stroke-miterlimit="10"><path d="M89.82 80.929c7.27 0 13.194-5.924 13.194-13.194 0-7.36-5.924-13.284-13.194-13.284-7.27 0-13.194 5.924-13.194 13.194-.091 7.36 5.923 13.284 13.194 13.284zM67.29 95.2c0-1.167-1.077-2.064-2.423-2.064s-2.423.987-2.423 2.154v4.667h1.436c.987-1.705 2.154-3.231 3.41-4.757zM117.555 100.586v-4.667c0-1.167-1.077-2.154-2.423-2.154-1.077 0-1.975.628-2.244 1.526 1.346 1.616 2.513 3.411 3.501 5.206h1.167v.089zM106.335 111.716h-6.283a13.856 13.856 0 0 0-.718-1.705l6.732-5.924m-43.264 12.296a2.85 2.85 0 0 0 2.334 1.167h49.816c.539 0 1.077-.18 1.526-.449m-42.366-13.015l6.463 5.745c-.359.628-.628 1.257-.898 1.885h-5.655m40.032-11.13c-.359-.718-.808-1.346-1.257-1.975a26.97 26.97 0 0 0-1.975-2.513l-.09-.09-.09-.09c-5.116-5.565-12.387-9.066-20.555-9.066s-15.438 3.501-20.555 9.066l-.09.09-.09.09a27.272 27.272 0 0 0-1.975 2.513c-.269.449-.539.898-.898 1.257m23.341 4.577c-1.795 0-3.59.449-5.116 1.257l-8.886-7.899c3.86-3.231 8.796-5.206 14.182-5.206s10.322 1.975 14.182 5.206l-9.066 7.988c-1.526-.807-3.411-1.346-5.296-1.346zM72.407 112.703c0-.359-.09-.718-.269-.987-.359-.628-.987-1.077-1.705-1.077H64.329v-.539H70.343c.539 0 .987-.18 1.346-.539s.628-.898.628-1.436c0-.539-.18-1.077-.539-1.436s-.898-.628-1.436-.628h-6.014v-.449h6.104a1.993 1.993 0 0 0 1.975-1.975c0-.539-.18-.987-.539-1.346-.359-.359-.898-.628-1.436-.628h-9.246c-3.142 0-3.052 6.463-3.052 6.463s0 6.552 3.052 6.552H70.342c1.167 0 2.065-.898 2.065-1.975zM118.901 102.381h-9.246c-.449 0-.898.18-1.167.359-.449.359-.808.987-.808 1.616 0 1.077.898 1.975 1.975 1.975h6.104v.449h-6.104c-.449 0-.898.18-1.257.449-.449.359-.808.898-.808 1.616 0 .269.09.539.18.808.269.718.987 1.257 1.885 1.257H115.669v.539h-6.013c-.449 0-.808.09-1.077.359a2.041 2.041 0 0 0-.898 1.705c0 1.077.898 1.975 1.975 1.975h9.155c3.052 0 3.052-6.552 3.052-6.552s.18-6.555-2.962-6.555z"/></g></symbol><symbol id="experience" viewBox="0 0 29.538 21.976"><path d="M29.538 3.201A3.205 3.205 0 0 0 26.336 0H3.201C1.436 0 0 1.427 0 3.181v15.614c0 1.754 1.436 3.181 3.201 3.181H26.336c1.765 0 3.201-1.427 3.201-3.181 0-.024-.012-.044-.014-.068.002-.025.015-.047.015-.073V3.201zM3.201 2h23.135c.663 0 1.202.539 1.202 1.202v.366H2v-.387C2 2.53 2.539 2 3.201 2zm23.135 17.976H3.201A1.192 1.192 0 0 1 2 18.795V5.567h25.538v13.087c0 .024.012.044.014.068-.002.025-.015.047-.015.073 0 .652-.539 1.181-1.201 1.181z" fill="#c8d4e3"/><path d="M26.174 11.924h-8.562a1 1 0 1 0 0 2h8.562a1 1 0 1 0 0-2zM17.612 10.255h4.077a1 1 0 1 0 0-2h-4.077a1 1 0 0 0 0 2zM12.053 14.899c.549-.557.82-1.215.946-1.633.625-.564.805-1.172.84-1.606.061-.745-.265-1.367-.525-1.736v-.537c.329-1.291.141-2.254-.56-2.867-1.162-1.015-3.17-.38-3.9-.097l-.708.003c-2.726.247-2.723 2.206-2.722 3.147v.244c-.398.435-.632.98-.655 1.55-.026.655.216 1.29.687 1.821.133.594.487 1.149.792 1.542-3.199.717-4.031 3.497-4.068 3.628a1 1 0 1 0 1.923.548c.006-.021.652-2.173 3.377-2.334a1 1 0 0 0 .941-.998v-1.019a.997.997 0 0 0-.293-.707c-.356-.356-.723-.926-.726-1.128a.997.997 0 0 0-.338-.749c-.198-.175-.303-.361-.296-.525.007-.167.131-.295.234-.372.223-.167.366-.421.395-.698.027-.263.028-.535.028-.807-.002-.989-.002-1.069.811-1.147h.815c.134 0 .269-.028.392-.08.827-.351 1.804-.471 1.99-.32.001.002.122.229-.083.967a1.008 1.008 0 0 0-.037.268v1.019c0 .266.105.52.293.707.053.053.254.327.239.517-.012.147-.206.309-.32.391-.209.15-.354.387-.401.641-.001.008-.155.811-.752 1.169-.032.019-.051.051-.08.073a.922.922 0 0 0-.16.146.961.961 0 0 0-.1.148.952.952 0 0 0-.083.177 1.018 1.018 0 0 0-.04.196c-.005.04-.023.075-.023.116v1.02a1 1 0 0 0 .746.967c1.084.286 3.429 1.24 3.753 2.367a1 1 0 0 0 1.237.685.999.999 0 0 0 .684-1.237c-.541-1.884-2.905-2.977-4.253-3.46z" fill="#c8d4e3"/></symbol><symbol id="facebook" viewBox="0 0 64.682 62.329"><g fill="#efefef"><path d="M62.592 34.014c.067-.102.12-.202.191-.285.184-.213.35-.452.571-.617.347-.259.652-.137.747.29.153.692.197 1.394.053 2.096-.169.82-.322 1.644-.514 2.458-.111.472-.269.935-.435 1.391a157.671 157.671 0 0 1-2.2 5.662c-.095.23-.256.432-.36.659-.649 1.413-1.582 2.643-2.511 3.874-.221.292-.433.587-.637.891-.234.348-.637.579-.954.875-.268.25-.536.504-.77.784-.324.387-.638.774-1.073 1.049a3.4 3.4 0 0 0-.543.446 16.478 16.478 0 0 1-3.148 2.407c-.517.304-1.014.641-1.526.956-.112.069-.243.107-.367.156-.093.037-.212.042-.28.105-.379.347-.854.522-1.302.743-.674.331-1.336.678-2.062.902-.573.177-1.114.459-1.668.695-.092.039-.176.109-.272.129-.834.176-1.617.521-2.436.74-.693.186-1.42.24-2.117.415-1.556.39-3.135.502-4.73.515-1.054.009-2.107.074-3.161.075-.601 0-1.211-.027-1.801-.134-1.071-.195-2.13-.457-3.193-.693-.604-.134-1.215-.243-1.808-.415-.964-.28-1.917-.6-2.873-.907-.191-.061-.377-.141-.565-.21a35.989 35.989 0 0 1-5.238-2.415c-.872-.49-1.668-1.116-2.504-1.671-1.243-.824-2.246-1.904-3.228-3.007-.256-.288-.53-.562-.776-.859-.534-.643-1.051-1.3-1.583-1.944a8.87 8.87 0 0 0-.743-.817c-.221-.208-.401-.127-.441.179-.022.165-.011.335-.007.502.006.268-.05.507-.312.636-.252.124-.501.071-.712-.089-.389-.294-.734-.626-.955-1.08-.519-1.068-1.062-2.124-1.59-3.187-.074-.149-.11-.316-.176-.469-.12-.273-.25-.542-.375-.813-.056-.12-.138-.237-.159-.364-.098-.589-.351-1.115-.619-1.639a2.27 2.27 0 0 1-.166-.471c-.074-.291-.114-.592-.202-.878-.391-1.272-.566-2.585-.759-3.894A28.22 28.22 0 0 1 0 32.827c-.009-1.665.125-3.322.491-4.943.194-.86.312-1.735.556-2.591.195-.684.289-1.41.544-2.083.314-.828.679-1.637 1.022-2.453.039-.092.094-.179.124-.274.313-.985.855-1.852 1.399-2.718.364-.58.735-1.156 1.106-1.731.336-.521.674-1.04 1.016-1.556.313-.475.642-.94.946-1.42.244-.384.538-.714.854-1.043.568-.589 1.066-1.244 1.598-1.867.184-.216.366-.436.573-.629a27.189 27.189 0 0 1 2.892-2.33c.041-.029.094-.052.119-.091.6-.928 1.704-1.185 2.487-1.871.787-.689 1.709-1.172 2.626-1.661.088-.047.173-.106.247-.173.628-.568 1.41-.807 2.187-1.076.519-.18 1.003-.462 1.508-.687a3.92 3.92 0 0 1 .659-.235c1.417-.341 2.845-.64 4.252-1.019.757-.204 1.518-.24 2.287-.283.368-.021.734-.081 1.102-.086 1.375-.022 2.749-.011 4.107.263.278.056.569.047.849.097.94.166 1.875.36 2.817.515 1.477.243 2.89.735 4.334 1.105.287.074.539.283.826.357 1.183.308 2.21.951 3.285 1.492.104.053.212.109.3.184.617.528 1.325.908 2.048 1.265.103.051.223.114.278.206.555.92 1.489 1.434 2.26 2.121.399.355.886.623 1.239 1.015.884.984 1.722 2.009 2.561 3.032.489.596.965 1.204 1.41 1.834.444.629.849 1.286 1.258 1.938.373.596.755 1.188 1.084 1.809.319.603.581 1.236.857 1.861.271.612.531 1.229.792 1.845.557 1.316 1.009 2.665 1.243 4.078.107.644.179 1.293.266 1.94.004.033.01.068.004.1-.194.989.097 1.968.059 2.955-.037.971-.029 1.944-.048 2.915-.004.183-.055.365-.065.549-.009.196-.03.406.233.531zM30.204 2.397c-.843.096-1.726.18-2.604.303-.48.067-.953.188-1.424.304-.746.184-1.509.328-2.228.592-1.208.444-2.389.962-3.575 1.465-.196.083-.368.233-.531.375-.061.053-.11.192-.082.255.03.067.161.135.241.127.298-.031.609-.047.885-.151.878-.328 1.721-.765 2.617-1.021.849-.242 1.707-.455 2.555-.706.657-.195 1.333-.34 2.009-.456.691-.118 1.359-.363 2.075-.357.331.003.666-.077.993-.148.094-.02.246-.159.233-.206-.03-.108-.131-.255-.226-.275-.29-.059-.593-.068-.938-.101zm30.499 28.479l.15.004c.061-.111.172-.221.176-.335.025-.762.04-1.525.027-2.287-.003-.171-.116-.388-.339-.364-.25.027-.217.265-.211.44.023.714.055 1.428.095 2.142.007.135.067.267.102.4z"/><path d="M49.116 2.265c.312.109.648.176.932.335.658.366 1.318.739 1.929 1.176.981.7 1.92 1.454 2.705 2.387.441.524.964.978 1.422 1.49.602.672 1.212 1.343 1.755 2.063a45.903 45.903 0 0 1 2.037 2.92c.611.956 1.228 1.911 1.551 3.028.18.622.57 1.183.75 1.805.213.734.309 1.503.437 2.259a.845.845 0 0 1-.071.44c-.159.382-.63.468-.903.158a1.47 1.47 0 0 1-.254-.481c-.112-.315-.194-.641-.295-.96-.196-.622-.381-1.242-.709-1.82-.27-.476-.394-1.035-.663-1.512-.476-.844-1.012-1.654-1.526-2.476-.089-.142-.199-.27-.287-.412-.532-.86-1.266-1.554-1.924-2.309a39.76 39.76 0 0 0-1.635-1.775c-.361-.367-.773-.684-1.162-1.025-.327-.287-.646-.582-.979-.861-.563-.472-1.143-.924-1.699-1.403a70.774 70.774 0 0 1-1.757-1.576c-.121-.111-.204-.265-.3-.402-.15-.213-.266-.439-.127-.699.139-.259.39-.291.651-.289h.101l.021-.061zM63.102 24.916c-.032-.317-.081-.732-.114-1.147a2.518 2.518 0 0 1 .009-.549c.06-.413.25-.625.568-.669a.847.847 0 0 1 .837.437c.024.044.053.09.059.138.108.923.386 1.842.084 2.777-.04.125-.088.258-.169.358-.272.34-.604.338-.891.012-.281-.319-.395-.691-.383-1.357zM10.036 53.854c-.014.333-.266.509-.532.406a1.369 1.369 0 0 1-.386-.232c-.432-.37-.881-.725-1.271-1.137-.222-.234-.368-.554-.496-.857a.56.56 0 0 1 .194-.674c.226-.156.441-.054.599.087.664.59 1.3 1.21 1.758 1.982.082.138.1.315.134.425zM12.193 55.703c.054.012.166.01.244.06.28.177.568.349.815.567.283.25.2.561-.151.694-.595.226-1.353-.262-1.397-.901-.016-.253.15-.41.489-.42zM22.632 61.063c.354 0 .693.317.704.658.01.298-.269.601-.557.607-.325.006-.755-.434-.751-.769.003-.248.304-.495.604-.496zM17.021 59.79c-.366-.009-.657-.28-.664-.62-.006-.269.194-.439.502-.43.362.011.728.325.739.633.009.255-.227.425-.577.417z"/></g><path d="M29.716 32.447h-3.657v-4.325h3.657v-3.403a5.65 5.65 0 0 1 1.521-4.22 5.513 5.513 0 0 1 4.053-1.495 22.769 22.769 0 0 1 3.332.194v3.842h-2.286a2.219 2.219 0 0 0-1.759.571 2.444 2.444 0 0 0-.378 1.521v2.989h4.036l-.571 4.325h-3.482v10.885h-4.466V32.447z" fill="none" stroke="#9c1c1f" stroke-width="2" stroke-linecap="round" stroke-linejoin="round" stroke-miterlimit="10"/></symbol><symbol id="gear" viewBox="0 0 44.012 46.959"><path d="M22.009 15.848a7.632 7.632 0 1 1-7.632 7.676 7.64 7.64 0 0 1 7.606-7.675l.026-.001z" fill="none" stroke="#c9d5e4" stroke-width="2" stroke-linecap="round" stroke-linejoin="round"/><path d="M19.722 45.959h4.565a3.249 3.249 0 0 0 3.24-3.248V39.67a17.203 17.203 0 0 0 5.735-3.309l2.599 1.525a3.264 3.264 0 0 0 1.62.433 3.247 3.247 0 0 0 2.832-1.62l2.261-3.959a3.24 3.24 0 0 0-1.185-4.426l-.001-.001-2.599-1.525a17.255 17.255 0 0 0 0-6.618l2.599-1.525a3.241 3.241 0 0 0 1.194-4.424l-.007-.012-2.278-3.95a3.248 3.248 0 0 0-4.435-1.187l-2.599 1.525a17.193 17.193 0 0 0-5.735-3.309V4.24A3.249 3.249 0 0 0 24.288 1h-4.565a3.249 3.249 0 0 0-3.24 3.24v3.049a17.203 17.203 0 0 0-5.735 3.309l-2.6-1.524a3.24 3.24 0 0 0-4.426 1.185l-.001.001-2.287 3.959a3.241 3.241 0 0 0 1.186 4.426l.001.001 2.642 1.525a17.255 17.255 0 0 0 0 6.618l-2.642 1.525a3.24 3.24 0 0 0-1.188 4.425l.001.001 2.287 3.959a3.252 3.252 0 0 0 1.923 1.551c.282.078.574.116.866.113a3.23 3.23 0 0 0 1.611-.433l2.599-1.525a17.241 17.241 0 0 0 5.726 3.309v3.041a3.259 3.259 0 0 0 3.276 3.204z" fill="none" stroke="#c9d5e4" stroke-width="2" stroke-linecap="round" stroke-linejoin="round"/></symbol><symbol id="instagram" viewBox="0 0 64.682 62.329"><g fill="#efefef"><path d="M62.592 34.014c.067-.102.12-.202.191-.285.184-.213.35-.452.571-.617.347-.259.652-.137.747.29.153.692.197 1.394.053 2.096-.169.82-.322 1.644-.514 2.458-.111.472-.269.935-.435 1.391a157.671 157.671 0 0 1-2.2 5.662c-.095.23-.256.432-.36.659-.649 1.413-1.582 2.643-2.511 3.874-.221.292-.433.587-.637.891-.234.348-.637.579-.954.875-.268.25-.536.504-.77.784-.324.387-.638.774-1.073 1.049a3.4 3.4 0 0 0-.543.446 16.478 16.478 0 0 1-3.148 2.407c-.517.304-1.014.641-1.526.956-.112.069-.243.107-.367.156-.093.037-.212.042-.28.105-.379.347-.854.522-1.302.743-.674.331-1.336.678-2.062.902-.573.177-1.114.459-1.668.695-.092.039-.176.109-.272.129-.834.176-1.617.521-2.436.74-.693.186-1.42.24-2.117.415-1.556.39-3.135.502-4.73.515-1.054.009-2.107.074-3.161.075-.601 0-1.211-.027-1.801-.134-1.071-.195-2.13-.457-3.193-.693-.604-.134-1.215-.243-1.808-.415-.964-.28-1.917-.6-2.873-.907-.191-.061-.377-.141-.565-.21a35.989 35.989 0 0 1-5.238-2.415c-.872-.49-1.668-1.116-2.504-1.671-1.243-.824-2.246-1.904-3.228-3.007-.256-.288-.53-.562-.776-.859-.534-.643-1.051-1.3-1.583-1.944a8.87 8.87 0 0 0-.743-.817c-.221-.208-.401-.127-.441.179-.022.165-.011.335-.007.502.006.268-.05.507-.312.636-.252.124-.501.071-.712-.089-.389-.294-.734-.626-.955-1.08-.519-1.068-1.062-2.124-1.59-3.187-.074-.149-.11-.316-.176-.469-.12-.273-.25-.542-.375-.813-.056-.12-.138-.237-.159-.364-.098-.589-.351-1.115-.619-1.639a2.27 2.27 0 0 1-.166-.471c-.074-.291-.114-.592-.202-.878-.391-1.272-.566-2.585-.759-3.894A28.22 28.22 0 0 1 0 32.827c-.009-1.665.125-3.322.491-4.943.194-.86.312-1.735.556-2.591.195-.684.289-1.41.544-2.083.314-.828.679-1.637 1.022-2.453.039-.092.094-.179.124-.274.313-.985.855-1.852 1.399-2.718.364-.58.735-1.156 1.106-1.731.336-.521.674-1.04 1.016-1.556.313-.475.642-.94.946-1.42.244-.384.538-.714.854-1.043.568-.589 1.066-1.244 1.598-1.867.184-.216.366-.436.573-.629a27.189 27.189 0 0 1 2.892-2.33c.041-.029.094-.052.119-.091.6-.928 1.704-1.185 2.487-1.871.787-.689 1.709-1.172 2.626-1.661.088-.047.173-.106.247-.173.628-.568 1.41-.807 2.187-1.076.519-.18 1.003-.462 1.508-.687a3.92 3.92 0 0 1 .659-.235c1.417-.341 2.845-.64 4.252-1.019.757-.204 1.518-.24 2.287-.283.368-.021.734-.081 1.102-.086 1.375-.022 2.749-.011 4.107.263.278.056.569.047.849.097.94.166 1.875.36 2.817.515 1.477.243 2.89.735 4.334 1.105.287.074.539.283.826.357 1.183.308 2.21.951 3.285 1.492.104.053.212.109.3.184.617.528 1.325.908 2.048 1.265.103.051.223.114.278.206.555.92 1.489 1.434 2.26 2.121.399.355.886.623 1.239 1.015.884.984 1.722 2.009 2.561 3.032.489.596.965 1.204 1.41 1.834.444.629.849 1.286 1.258 1.938.373.596.755 1.188 1.084 1.809.319.603.581 1.236.857 1.861.271.612.531 1.229.792 1.845.557 1.316 1.009 2.665 1.243 4.078.107.644.179 1.293.266 1.94.004.033.01.068.004.1-.194.989.097 1.968.059 2.955-.037.971-.029 1.944-.048 2.915-.004.183-.055.365-.065.549-.009.196-.03.406.233.531zM30.204 2.397c-.843.096-1.726.18-2.604.303-.48.067-.953.188-1.424.304-.746.184-1.509.328-2.228.592-1.208.444-2.389.962-3.575 1.465-.196.083-.368.233-.531.375-.061.053-.11.192-.082.255.03.067.161.135.241.127.298-.031.609-.047.885-.151.878-.328 1.721-.765 2.617-1.021.849-.242 1.707-.455 2.555-.706.657-.195 1.333-.34 2.009-.456.691-.118 1.359-.363 2.075-.357.331.003.666-.077.993-.148.094-.02.246-.159.233-.206-.03-.108-.131-.255-.226-.275-.29-.059-.593-.068-.938-.101zm30.499 28.479l.15.004c.061-.111.172-.221.176-.335.025-.762.04-1.525.027-2.287-.003-.171-.116-.388-.339-.364-.25.027-.217.265-.211.44.023.714.055 1.428.095 2.142.007.135.067.267.102.4z"/><path d="M49.116 2.265c.312.109.648.176.932.335.658.366 1.318.739 1.929 1.176.981.7 1.92 1.454 2.705 2.387.441.524.964.978 1.422 1.49.602.672 1.212 1.343 1.755 2.063a45.903 45.903 0 0 1 2.037 2.92c.611.956 1.228 1.911 1.551 3.028.18.622.57 1.183.75 1.805.213.734.309 1.503.437 2.259a.845.845 0 0 1-.071.44c-.159.382-.63.468-.903.158a1.47 1.47 0 0 1-.254-.481c-.112-.315-.194-.641-.295-.96-.196-.622-.381-1.242-.709-1.82-.27-.476-.394-1.035-.663-1.512-.476-.844-1.012-1.654-1.526-2.476-.089-.142-.199-.27-.287-.412-.532-.86-1.266-1.554-1.924-2.309a39.76 39.76 0 0 0-1.635-1.775c-.361-.367-.773-.684-1.162-1.025-.327-.287-.646-.582-.979-.861-.563-.472-1.143-.924-1.699-1.403a70.774 70.774 0 0 1-1.757-1.576c-.121-.111-.204-.265-.3-.402-.15-.213-.266-.439-.127-.699.139-.259.39-.291.651-.289h.101l.021-.061zM63.102 24.916c-.032-.317-.081-.732-.114-1.147a2.518 2.518 0 0 1 .009-.549c.06-.413.25-.625.568-.669a.847.847 0 0 1 .837.437c.024.044.053.09.059.138.108.923.386 1.842.084 2.777-.04.125-.088.258-.169.358-.272.34-.604.338-.891.012-.281-.319-.395-.691-.383-1.357zM10.036 53.854c-.014.333-.266.509-.532.406a1.369 1.369 0 0 1-.386-.232c-.432-.37-.881-.725-1.271-1.137-.222-.234-.368-.554-.496-.857a.56.56 0 0 1 .194-.674c.226-.156.441-.054.599.087.664.59 1.3 1.21 1.758 1.982.082.138.1.315.134.425zM12.193 55.703c.054.012.166.01.244.06.28.177.568.349.815.567.283.25.2.561-.151.694-.595.226-1.353-.262-1.397-.901-.016-.253.15-.41.489-.42zM22.632 61.063c.354 0 .693.317.704.658.01.298-.269.601-.557.607-.325.006-.755-.434-.751-.769.003-.248.304-.495.604-.496zM17.021 59.79c-.366-.009-.657-.28-.664-.62-.006-.269.194-.439.502-.43.362.011.728.325.739.633.009.255-.227.425-.577.417z"/></g><path d="M45.438 24.776c0 1.109.062 2.934.062 5.495s0 4.406-.093 5.536a11.13 11.13 0 0 1-.498 2.924 6.936 6.936 0 0 1-4.199 4.199c-.948.296-1.931.463-2.924.498-1.13.062-2.965.093-5.536.093s-4.437-.083-5.536-.083a9.336 9.336 0 0 1-2.924-.56 6.213 6.213 0 0 1-2.571-1.566 6.878 6.878 0 0 1-1.628-2.571c-.3-.947-.468-1.931-.498-2.924-.062-1.171-.093-3.006-.093-5.577s.031-4.427.093-5.526c.03-.993.197-1.977.498-2.924a6.934 6.934 0 0 1 4.199-4.147 10.745 10.745 0 0 1 2.924-.55c1.099-.062 2.965-.093 5.526-.093s4.406 0 5.536.093c.993.03 1.977.197 2.924.498a6.936 6.936 0 0 1 4.199 4.199c.304.969.485 1.972.539 2.986zM31.96 35.216a4.956 4.956 0 0 0 4.956-4.956h0a4.956 4.956 0 0 0-4.956-4.945 4.74 4.74 0 0 0-3.494 1.451 4.748 4.748 0 0 0-1.462 3.494 4.746 4.746 0 0 0 1.462 3.504 4.776 4.776 0 0 0 3.494 1.452zm8.978-12.068a1.495 1.495 0 0 0-.477-1.12 1.495 1.495 0 0 0-1.12-.477 1.608 1.608 0 0 0-1.597 1.597 1.608 1.608 0 0 0 1.586 1.628h.011c.416.011.815-.164 1.089-.477.302-.31.482-.719.508-1.151z" fill="none" stroke="#9c1c1f" stroke-width="2" stroke-miterlimit="10"/></symbol><symbol id="learning" viewBox="0 0 180 180"><circle cx="90" cy="90" r="90" fill="#9c1c1f"/><path d="M91.538 54.416l33.439 30.647-31.573 10.13-3.884 1.32-31.092-31.929 33.11-10.168zm-7.084 49.097L52.74 71.743a3.826 3.826 0 0 1-.74-2.277 3.88 3.88 0 0 1 2.688-3.658l3.74-1.225m26.027 48.787L52.74 81.64a3.832 3.832 0 0 1-.74-2.285v-.025a3.847 3.847 0 0 1 2.466-3.592l1.618-.649m28.442 48.308L52.74 91.627A3.826 3.826 0 0 1 52 89.35v-.025a3.855 3.855 0 0 1 2.466-3.617l1.734-.611m35.107 34.725c.02-.006.039.028.058.021l33.563-10.844v4.17L88.85 124.787a3.889 3.889 0 0 1-4.324-1.389 3.82 3.82 0 0 1-.756-2.31c0-.821.259-1.62.74-2.285a3.853 3.853 0 0 1 1.948-1.406l38.471-12.39v4.1m-38.463-1.697l29.616-9.601 8.838-2.798.008 4.339m-33.621 10.596a.984.984 0 0 0 .058-.019l33.563-10.804v6.052m-35.888 1.362c-1.098.006-2.212-.324-3.076-1.016-2.532-2.027-2.738-6.535.461-8.009l38.503-12.415v4.586M91.307 100.08a.984.984 0 0 0 .058-.019l33.563-10.804v5.417" fill="none" stroke="#fff" stroke-width="2" stroke-linecap="round" stroke-linejoin="round" stroke-miterlimit="10"/><path d="M91.538 63.524l18.47 16.593-19.818 6.411-16.793-17.431 18.141-5.573zM89.142 116.49c-1.098.006-2.292-.364-3.156-1.056-2.532-2.027-2.738-6.535.461-8.009" fill="none" stroke="#fff" stroke-width="2" stroke-linecap="round" stroke-linejoin="round" stroke-miterlimit="10"/></symbol><symbol id="logo-red-sign" viewBox="0 0 371.896 358.368"><path d="M359.883 195.569c.388-.585.688-1.16 1.1-1.637 1.057-1.222 2.014-2.601 3.285-3.55 1.995-1.49 3.75-.788 4.294 1.669.882 3.981 1.135 8.013.305 12.053-.969 4.715-1.851 9.451-2.955 14.135-.64 2.712-1.545 5.374-2.503 7.996a913.14 913.14 0 0 1-6.433 17.024 789.598 789.598 0 0 1-6.218 15.527c-.545 1.322-1.47 2.484-2.07 3.789-3.732 8.126-9.094 15.195-14.435 22.273a114.8 114.8 0 0 0-3.661 5.121c-1.345 2.001-3.664 3.331-5.486 5.032-1.539 1.437-3.079 2.899-4.428 4.51-1.862 2.224-3.667 4.453-6.168 6.033-1.131.714-2.159 1.626-3.123 2.562-5.489 5.329-11.495 9.962-18.099 13.839-2.974 1.746-5.833 3.686-8.771 5.494-.644.396-1.398.618-2.11.898-.536.211-1.217.243-1.609.602-2.181 1.995-4.907 3.002-7.488 4.271-3.873 1.904-7.684 3.896-11.855 5.185-3.295 1.019-6.405 2.636-9.592 3.998-.531.227-1.014.628-1.563.744-4.797 1.012-9.299 2.994-14.006 4.257-3.983 1.068-8.165 1.381-12.169 2.385-8.944 2.242-18.025 2.886-27.196 2.963-6.058.051-12.115.427-18.172.429-3.455.002-6.965-.154-10.354-.77-6.158-1.118-12.245-2.626-18.359-3.984-3.471-.771-6.984-1.399-10.393-2.387-5.544-1.607-11.021-3.448-16.519-5.213-1.099-.353-2.165-.811-3.25-1.209a206.725 206.725 0 0 1-30.115-13.887c-5.016-2.818-9.588-6.418-14.398-9.608-7.146-4.74-12.915-10.944-18.559-17.291-1.474-1.658-3.046-3.232-4.462-4.937-3.069-3.698-6.04-7.477-9.104-11.179-1.35-1.631-2.735-3.255-4.275-4.7-1.273-1.195-2.305-.728-2.538 1.03-.126.948-.061 1.925-.038 2.889.036 1.541-.29 2.914-1.796 3.658-1.449.715-2.881.406-4.094-.511-2.238-1.691-4.221-3.598-5.493-6.211-2.986-6.138-6.109-12.21-9.145-18.324-.425-.855-.63-1.816-1.014-2.694-.687-1.571-1.436-3.115-2.153-4.673-.319-.693-.791-1.364-.912-2.092-.561-3.388-2.02-6.413-3.561-9.425-.433-.846-.721-1.783-.957-2.708-.428-1.673-.656-3.404-1.162-5.05-2.248-7.312-3.252-14.861-4.364-22.39a161.625 161.625 0 0 1-1.74-22.762c-.052-9.571.717-19.103 2.824-28.419 1.118-4.943 1.793-9.973 3.198-14.895 1.123-3.933 1.659-8.109 3.125-11.977 1.805-4.761 3.902-9.41 5.878-14.106.223-.531.539-1.029.712-1.575 1.797-5.665 4.919-10.647 8.042-15.625a915.976 915.976 0 0 1 6.362-9.952c1.932-2.993 3.877-5.977 5.84-8.949 1.802-2.729 3.688-5.405 5.44-8.166 1.4-2.208 3.091-4.107 4.911-5.994 3.263-3.385 6.13-7.151 9.186-10.737 1.058-1.241 2.107-2.506 3.294-3.616 5.211-4.874 10.806-9.279 16.63-13.396.236-.167.54-.296.687-.524 3.449-5.335 9.796-6.815 14.299-10.759 4.523-3.963 9.829-6.739 15.099-9.548.506-.27.994-.608 1.419-.992 3.608-3.264 8.106-4.639 12.577-6.188 2.986-1.034 5.766-2.655 8.668-3.948 1.223-.544 2.493-1.038 3.79-1.35 8.148-1.96 16.358-3.682 24.446-5.858C160.784.997 165.157.788 169.576.541c2.115-.118 4.222-.463 6.336-.497 7.908-.127 15.808-.062 23.615 1.515 1.599.323 3.272.272 4.882.557 5.404.954 10.781 2.07 16.195 2.962 8.494 1.399 16.616 4.225 24.92 6.351 1.651.423 3.101 1.625 4.751 2.054 6.804 1.77 12.709 5.466 18.887 8.58.601.303 1.217.625 1.723 1.058 3.55 3.038 7.619 5.222 11.777 7.273.591.291 1.282.655 1.6 1.183 3.19 5.291 8.562 8.245 12.997 12.192 2.293 2.041 5.095 3.581 7.121 5.837 5.08 5.657 9.899 11.553 14.724 17.434 2.811 3.426 5.55 6.925 8.106 10.543 2.554 3.614 4.881 7.392 7.231 11.145 2.145 3.425 4.343 6.832 6.232 10.399 1.835 3.465 3.34 7.109 4.93 10.7 1.558 3.518 3.052 7.065 4.553 10.608 3.203 7.565 5.804 15.32 7.149 23.446.612 3.702 1.029 7.436 1.531 11.155.026.19.059.393.023.577-1.116 5.687.559 11.315.342 16.991-.214 5.583-.166 11.175-.278 16.762-.021 1.054-.318 2.1-.374 3.155-.059 1.118-.181 2.327 1.334 3.048zM173.661 13.78c-4.843.553-9.923 1.04-14.972 1.746-2.757.386-5.478 1.08-8.187 1.749-4.291 1.059-8.679 1.885-12.808 3.401-6.946 2.552-13.736 5.534-20.554 8.423-1.125.477-2.115 1.339-3.051 2.156-.35.305-.632 1.103-.471 1.468.17.387.928.777 1.385.73 1.712-.176 3.503-.273 5.09-.866 5.047-1.884 9.895-4.401 15.05-5.868 4.88-1.389 9.815-2.615 14.693-4.061 3.78-1.12 7.664-1.956 11.553-2.619 3.974-.678 7.811-2.089 11.933-2.051 1.903.017 3.827-.444 5.707-.849.54-.116 1.416-.917 1.342-1.183-.172-.62-.753-1.464-1.302-1.579-1.68-.352-3.423-.403-5.408-.597zm175.358 163.748l.864.021c.353-.641.99-1.273 1.011-1.924.143-4.382.228-8.769.156-13.152-.016-.981-.664-2.231-1.949-2.094-1.439.153-1.246 1.526-1.214 2.529.133 4.107.315 8.213.545 12.315.044.777.384 1.537.587 2.305z" fill="#9c1c1f"/><path d="M282.4 13.023c1.796.626 3.724 1.015 5.361 1.925 3.784 2.103 7.576 4.25 11.093 6.761 5.641 4.027 11.039 8.361 15.555 13.722 2.538 3.012 5.543 5.626 8.176 8.564 3.464 3.866 6.97 7.724 10.092 11.861 4.108 5.445 8.04 11.043 11.714 16.789 3.513 5.495 7.063 10.985 8.919 17.41 1.033 3.576 3.278 6.802 4.315 10.377 1.224 4.22 1.776 8.639 2.512 12.991.136.803-.089 1.755-.41 2.529-.912 2.198-3.62 2.69-5.194.908-.673-.762-1.114-1.79-1.46-2.767-.641-1.813-1.115-3.684-1.694-5.52-1.127-3.576-2.191-7.144-4.077-10.467-1.554-2.737-2.266-5.951-3.813-8.693-2.738-4.851-5.82-9.507-8.775-14.234-.51-.816-1.146-1.552-1.652-2.37-3.061-4.947-7.278-8.933-11.062-13.274-3.038-3.485-6.157-6.91-9.399-10.205-2.077-2.111-4.447-3.935-6.679-5.894-1.878-1.648-3.713-3.347-5.626-4.951-3.236-2.714-6.569-5.313-9.77-8.067-3.429-2.95-6.775-5.999-10.104-9.062-.696-.64-1.172-1.523-1.727-2.31-.863-1.224-1.528-2.523-.729-4.019.797-1.491 2.242-1.675 3.743-1.664h.578l.113-.34zM362.813 143.26c-.185-1.822-.463-4.206-.654-6.598-.083-1.046-.097-2.122.052-3.156.343-2.374 1.439-3.592 3.264-3.845 1.878-.261 3.841.76 4.814 2.515.139.251.306.518.338.791.618 5.308 2.219 10.592.485 15.965-.232.72-.508 1.482-.97 2.06-1.564 1.954-3.475 1.945-5.125.071-1.618-1.837-2.272-3.974-2.204-7.803zM57.701 309.638c-.078 1.915-1.527 2.927-3.06 2.332a7.86 7.86 0 0 1-2.22-1.331c-2.485-2.125-5.066-4.171-7.305-6.537-1.274-1.346-2.118-3.185-2.853-4.93-.638-1.514.002-3.104 1.117-3.875 1.299-.899 2.536-.309 3.443.498 3.816 3.391 7.473 6.958 10.106 11.396.474.799.581 1.816.772 2.447zM70.107 320.269c.311.07.952.057 1.403.343 1.607 1.02 3.268 2.008 4.686 3.261 1.627 1.437 1.152 3.224-.867 3.992-3.423 1.302-7.779-1.508-8.03-5.181-.099-1.45.857-2.353 2.808-2.415zM130.126 351.092c2.034-.001 3.983 1.822 4.047 3.785.056 1.711-1.546 3.458-3.201 3.49-1.87.036-4.343-2.496-4.319-4.422.019-1.431 1.748-2.852 3.473-2.853zM97.867 343.769c-2.104-.05-3.778-1.613-3.82-3.567-.033-1.547 1.113-2.527 2.888-2.47 2.081.066 4.184 1.869 4.248 3.641.052 1.463-1.304 2.444-3.316 2.396z" fill="#9c1c1f"/><path d="M125.55 113.668c-.457.029-.898-.007-1.328-.287.175-.382.488-.322.767-.324 1.16-.009 2.321-.002 3.481-.019 1.402-.02 2.805-.085 4.207-.082 1.78.004 3.563.018 5.34.108.824.042 1.65.228 2.452.436.52.135.9.531.916 1.114.038 1.351-.061 2.682-.461 3.995-.659 2.163-1.494 4.272-1.923 6.509-.31 1.614-.727 3.209-1.12 4.806-.38 1.544-.379 3.093-.192 4.663.129 1.085.311 2.143.894 3.082.251.405.558.784.89 1.126.419.432.506.665.311 1.215a4.793 4.793 0 0 0-.156.538c-.133.59-.379.821-.993.851-.349.017-.701-.032-1.051-.033-.267-.001-.546-.019-.799.048-1.191.314-2.205.02-3.151-.752-1.523-1.243-2.243-2.85-2.369-4.78a25.401 25.401 0 0 1 .298-5.965c.323-1.886.74-3.75 1.176-5.614a95.554 95.554 0 0 1 1.499-5.624c.029-.098.009-.21.016-.428-.326-.07-.651-.192-.979-.2-1.025-.023-2.051.006-3.077-.003-.46-.004-.662.227-.787.646-.602 2.017-1.231 4.025-1.84 6.039a348.329 348.329 0 0 0-1.355 4.581c-.328 1.141-.608 2.296-.95 3.432a8.863 8.863 0 0 1-.672 1.642 1.725 1.725 0 0 1-.729.707c-.443.21-.656.526-.773.966a6.804 6.804 0 0 1-.287.843c-.175.424-.504.694-.932.843-.444.155-.766-.003-.834-.46-.039-.257.003-.539.063-.797.209-.893.446-1.78.664-2.672.053-.218.073-.444.108-.666l-.164-.041c-.089.238-.196.472-.265.716-.189.676-.357 1.358-.545 2.034a5.487 5.487 0 0 1-.291.84c-.23.496-.546.735-.831.628-.387-.144-.488-.494-.485-.857.005-.511-.022-1.04.098-1.53.313-1.284.696-2.55 1.055-3.822.081-.285.177-.567.268-.849.134-.417.093-.814-.204-1.14-.354-.389-.364-.809-.223-1.281.626-2.094 1.234-4.194 1.866-6.286.25-.826.549-1.638.814-2.459.071-.22.099-.454.163-.758-.372-.047-.66-.116-.948-.115-1.322.006-2.643.039-3.964.045-.624.003-.985.215-1.285.84-.627 1.31-.87 2.722-1.29 4.085a261.638 261.638 0 0 0-1.46 4.971c-.431 1.505-.822 3.022-1.268 4.522-.254.853-.582 1.683-.877 2.523-.114.324-.295.594-.664.632-.36.037-.494.28-.61.566-.122.3-.22.615-.388.888-.526.855-1.57.94-2.257.236-.194-.199-.465-.378-.731-.439-.465-.108-.728-.39-.797-.81-.091-.553-.188-1.13-.126-1.678.271-2.376.931-4.653 1.897-6.84.228-.515.528-1.01.165-1.603-.078-.127-.01-.374.047-.547.471-1.434.95-2.865 1.439-4.293.297-.869.624-1.727.917-2.596.178-.53.033-.766-.561-.781-1.024-.025-2.05.024-3.075.032-.322.002-.652.009-.965-.052-.941-.183-1.062-.465-.568-1.372-.26-.077-.52-.12-.747-.231-.177-.087-.427-.247-.44-.393-.018-.2.102-.51.263-.607.363-.22.783-.352 1.189-.492.354-.122.72-.205 1.095-.31-.518-.854-.328-1.201.671-1.246 1.832-.083 3.665-.174 5.498-.198 3.208-.042 6.416-.036 9.624-.045.1 0 .2.055.35.1l-.142.617c.847.177 1.639.208 2.424-.091.259.075.514.204.771.21.938.022 1.877.017 2.814-.006.524-.013 1.046-.081 1.569-.124l-.016-.172-5.134.095zm10.932 16.472c.3-1.32.595-2.642.903-3.961.305-1.309.624-2.615.936-3.923l-.154-.048c-.088.297-.184.593-.263.893-.504 1.927-1.002 3.855-1.507 5.782-.109.419-.119.831.085 1.257zm-24.387.209l.236.103c.225-.643.447-1.287.675-1.93.486-1.374.5-1.441.326-2.097-.68 1.309-.97 2.613-1.237 3.924zm14.783-7.511c-.486 1.036-1.202 4.057-1.156 4.809.597-1.671.852-3.249 1.156-4.809zm-12.77.975c.716-.684 1.05-1.984.784-2.65l-.784 2.65zm26.452-6.833c.63-.436.706-.903.374-1.55l-.374 1.55z" fill="#fff"/><path d="M87.039 110.748c-.328-.056-.485-.109-.641-.105-1.186.028-2.373.044-3.557.11-1.858.104-3.715.242-5.571.371-1.157.081-2.311.213-3.469.244-.692.019-1.415-.016-2.077-.197-1.176-.322-1.569-1.217-1.102-2.329.094-.223.307-.439.521-.561.743-.425 1.574-.54 2.415-.588.647-.037 1.293-.087 1.94-.099.365-.007.629-.096.73-.484.097-.368.403-.49.731-.553.423-.082.848-.184 1.276-.205 4.176-.203 8.352-.422 12.53-.566 1.48-.051 2.967.089 4.45.154.813.035.813.047.916.935.201-.019.438.023.602-.067 1.32-.727 2.577-.352 3.795.231 1.51.723 2.542 1.934 3.061 3.505.335 1.014.246 2.108-.122 3.106-.41 1.109-.933 2.18-1.459 3.241-.364.734-.388.87.314 1.305 2.08 1.29 3.218 3.228 3.754 5.538a7.165 7.165 0 0 1-.271 4.148c-.437 1.188-.791 2.42-1.356 3.545-1.305 2.598-3.316 4.574-5.824 6.017-1.423.819-2.882 1.597-4.389 2.242-.927.397-1.965.578-2.972.728-1.059.157-1.137.033-1.243-1.069-.601-.3-1.255-.566-1.84-.94a4.01 4.01 0 0 1-1.095-1.038c-.461-.651-.017-1.507.785-1.621.234-.033.471-.046.811-.079-.134-.22-.205-.38-.315-.507-.159-.182-.357-.329-.519-.509-.526-.584-.527-.666-.064-1.422.583-.075 1.103.153 1.584.45 1.72 1.061 3.53.944 5.276.233 1.902-.775 3.523-1.992 4.589-3.817.244-.417.437-.865.645-1.303.081-.17.141-.351.204-.529.113-.318.261-.666.647-.595.202.038.356.328.573.546.239-.403.238-.891.239-1.33-.331-.178-.709-.268-.879-.507-.16-.225-.137-.607-.131-.919.034-1.904-.744-2.946-2.5-3.626-1.203-.466-2.408-.354-3.65-.015-2.352.643-4.352 1.85-6.101 3.513-.916.871-1.441 2.01-2.105 3.055-.771 1.215-1.086 2.574-1.373 3.951-.149.712-.316 1.402-.937 1.917-.234.194-.291.621-.392.952-.231.758-.508 1.475-1.18 1.974-.348.258-.681.438-1.11.216-.442-.229-.479-.628-.417-1.045.191-1.281.368-2.565.609-3.837.211-1.113.511-2.208.753-3.316.078-.354.098-.72.164-1.232-.419.247-.424.533-.479.768-.342 1.444-.68 2.889-.996 4.339-.235 1.08-.432 2.168-.65 3.252-.059.291-.103.624-.49.646-.386.022-.738-.157-.815-.532a5.469 5.469 0 0 1-.107-1.515c.229-2.953 1.191-5.746 1.889-8.599.688-2.812 1.572-5.56 2.554-8.273.632-1.746 1.31-3.492 2.311-5.076.457-.717.967-1.408 1.53-2.227zm15.386 1.158c-.278.539-.27 1.109-.197 1.686.251-.539.367-1.092.185-1.676.018-.538.086-1.089-.298-1.526l-.175.048c.162.488.326.976.485 1.468zM92.048 138.57c.693-.049 1.405.01 2.039-.38-.652.036-1.293.148-1.932.268-.039.007-.065.08-.103.116l-.78-.231-.028.132.804.095zm5.963-26.014l-.262.034-.636-1.998c-.141-.009-.355-.054-.56-.03-1.425.167-2.697.736-3.835 1.581-1.46 1.085-2.408 2.592-3.258 4.162-.326.602-.584 1.563-.562 2.001.232-.109.46-.186.656-.312 1.179-.759 2.546-1.009 3.848-1.434.2-.065.426-.047.64-.072 2.438-.279 2.217.183 3.159-2.305.12-.316.175-.687.559-.827.33.373.33.373.39 1.07.695-1.211.68-2.315-.044-3.175-.033.434-.064.87-.095 1.305zm-11.603 1.662c-1.067 1.07-3.283 6.695-3.009 7.724.892-2.619 1.685-5.276 3.009-7.724zm12.997 21.538c1.704-1.055 2.819-2.606 3.597-4.189l-3.597 4.189z" fill="#fff"/><path d="M55.019 119.628c.41-.188 1.066-1.089 1.324-1.641-.768-.486-.761-.684-.264-1.458 1.004-1.563 2.485-2.524 4.181-3.009 2.315-.662 4.694-.143 6.132 2.047.202.308.334.676.425 1.036.045.178-.01.466-.135.585-.331.316-.379.688-.394 1.103-.017.457-.086.911-.104 1.368a.797.797 0 0 0 .227.583c.023-.501.031-1.004.073-1.503.03-.358-.072-.904.41-.929.501-.026.43.518.464.876.035.375.032.752.057 1.128.013.201.049.401.082.653.177-.056.296-.061.367-.122.672-.583 1.351-1.159 1.999-1.768.999-.939 1.974-1.903 2.961-2.855.291-.281.605-.541.873-.842.679-.762 1.584-1.107 2.523-1.371.19-.054.466.049.653.161.386.232.578.618.706 1.048.097.326.223.651.383.951.245.459.135.897-.03 1.328-.221.578-.428 1.17-.721 1.712-1.249 2.306-1.968 4.78-2.389 7.351-.329 2.015-.202 4.023.126 6.026l-.018-.025.215 1.622-.013-.039c-.077 2.095.741 3.888 1.879 5.574.256.379.548.741.756 1.145.254.495.102.785-.406 1.027-.23.109-.47.235-.645.413-.477.486-1.377.666-1.911.245-.567-.447-1.153-.927-1.558-1.512-.876-1.268-1.6-2.628-1.863-4.184-.057-.338-.183-.664-.31-1.111-.108.501.004 1.082.25 1.841.132.408.222.832.298 1.254.032.178.014.383-.044.555-.117.35-.442.424-.689.143a2.436 2.436 0 0 1-.4-.695c-.579-1.442-.861-2.966-.97-4.496-.122-1.718-.084-3.45-.066-5.175.008-.717.144-1.433.233-2.255-.191.096-.322.124-.396.205-1.741 1.891-3.648 3.607-5.62 5.244-2.058 1.707-4.231 3.259-6.598 4.527-.72.386-1.432.754-2.263.805-1.182.072-2.299-.114-3.044-1.134-.988-1.355-1.582-2.874-1.663-4.573-.106-2.243.322-4.42.94-6.545.359-1.233.985-2.394 1.556-3.556.414-.843.905-1.653 1.416-2.443.353-.547.68-.667.972-.512.343.183.356.597.039 1.214-.119.246-.24.487-.361.728l.122.045.233-.79zm6.331 1.934c-.43-.988-.96-1.089-1.621-.346-.054.06-.094.133-.151.19-.644.637-1.109 1.413-1.422 2.235a30.837 30.837 0 0 0-1.153 3.775c-.102.426.079.956.247 1.393.085.221.419.448.66.472.172.017.452-.263.552-.474.196-.411.432-.738.871-.899a.544.544 0 0 0 .253-.192c.443-.669.944-1.312 1.293-2.028.351-.72.602-1.502.795-2.283.164-.664.322-1.36.079-2.126l-.403.283zm12.428 3.402c-.586 1.146-.737 4.957-.302 6.088l.302-6.088zm-16.528-1.833c-.561.988-1.13 1.999-1.15 3.22l1.15-3.22zm10.133-1.633c1.05-.708 1.063-.722 1.242-1.265-.402.334-.753.62-1.094.916-.051.043-.061.135-.148.349zm-15.054 12.337c-.087.512-.087.512.315.879l-.315-.879zM157.883 113.222c.289-.028.588-.118.865-.073 1.526.249 2.996.692 4.388 1.373.135.066.337.195.339.299.014.548.457.727.808.921 1.205.669 2.086 1.71 3.045 2.644.775.755 1.23 1.768 1.564 2.808.264.82.538 1.638.761 2.469a9.401 9.401 0 0 1-.02 5.039c-.342 1.215-.767 2.427-1.535 3.459-.301.404-.704.737-1.087 1.073-.219.192-.498.4-.795.152-.317-.265-.171-.59-.024-.885.253-.507.529-1.002.77-1.513.129-.273.205-.57.337-.948-.526.069-.554.407-.685.645-.496.893-.939 1.82-1.499 2.67-.35.532-.872.951-1.322 1.416-.277.286-.561.565-.8.91.431.032.722-.231 1.021-.453.281-.209.523-.473.812-.666.175-.117.409-.146.613-.213.188.458-.067.649-.246.881-.816 1.051-1.98 1.652-3.052 2.371a10.646 10.646 0 0 1-3.4 1.484c-1.005.245-2.088.272-3.131.234-3.298-.119-6.18-1.408-8.758-3.39-.903-.694-1.52-1.674-2.038-2.692-.635-1.249-1.354-2.468-1.487-3.908-.027-.295-.067-.592-.057-.886.028-.847.155-.962.962-.974.397-1.344.676-2.727 1.219-3.997.527-1.232 1.326-2.347 1.956-3.549-.428.174-.673.523-.892.885-.308.508-.586 1.033-.889 1.544-.34.575-.702.792-.99.612-.28-.175-.306-.625.021-1.184.449-.768.954-1.503 1.432-2.255.915-1.44 2.206-2.535 3.552-3.503 1.667-1.199 3.528-2.012 5.625-2.334 1.553-.238 3.045-.037 4.564.108l.029-.154c-.659-.141-1.319-.282-1.981-.426l.005.006zm-4.915 5.852c.731-.096 1.283-.553 1.879-.92-.715.132-1.39.344-1.867.943l-.427.23.096.132.319-.385zm10.936 8.514c.502-1.672.556-3.29-.247-4.939-.728-1.496-1.909-2.468-3.287-3.227-.924-.51-1.984-.764-3.049-.663-1.401.133-2.727.494-3.957 1.28-1.701 1.086-2.889 2.56-3.767 4.332-.047.096-.074.203-.102.307-.452 1.689-.444 3.359.239 4.991.123.293.302.57.498.822.724.93 1.662 1.581 2.686 2.162 1.063.603 2.141.996 3.373.928 1.43-.08 2.724-.498 3.919-1.322 1.718-1.186 3.047-2.644 3.694-4.671zm4.411-3.871c-.031-1.389-1.382-4.341-2.386-4.793.507.857.999 1.588 1.387 2.37.387.781.67 1.613.999 2.423zM251.429 113.222c.289-.028.588-.118.865-.073 1.526.249 2.996.692 4.388 1.373.135.066.337.195.339.299.014.548.457.727.808.921 1.205.669 2.086 1.71 3.045 2.644.775.755 1.23 1.768 1.564 2.808.264.82.538 1.638.761 2.469a9.401 9.401 0 0 1-.02 5.039c-.342 1.215-.767 2.427-1.535 3.459-.301.404-.704.737-1.087 1.073-.219.192-.498.4-.795.152-.317-.265-.171-.59-.024-.885.253-.507.529-1.002.77-1.513.129-.273.205-.57.337-.948-.526.069-.554.407-.685.645-.496.893-.939 1.82-1.499 2.67-.35.532-.872.951-1.322 1.416-.277.286-.561.565-.8.91.431.032.722-.231 1.021-.453.281-.209.523-.473.812-.666.175-.117.409-.146.613-.213.188.458-.067.649-.246.881-.816 1.051-1.98 1.652-3.052 2.371a10.646 10.646 0 0 1-3.4 1.484c-1.005.245-2.088.272-3.131.234-3.298-.119-6.18-1.408-8.758-3.39-.903-.694-1.52-1.674-2.038-2.692-.635-1.249-1.354-2.468-1.487-3.908-.027-.295-.067-.592-.057-.886.028-.847.155-.962.962-.974.397-1.344.676-2.727 1.219-3.997.527-1.232 1.326-2.347 1.956-3.549-.428.174-.673.523-.892.885-.308.508-.586 1.033-.889 1.544-.34.575-.702.792-.99.612-.28-.175-.306-.625.021-1.184.449-.768.954-1.503 1.432-2.255.915-1.44 2.206-2.535 3.552-3.503 1.667-1.199 3.528-2.012 5.625-2.334 1.553-.238 3.045-.037 4.564.108l.029-.154c-.659-.141-1.319-.282-1.981-.426a.047.047 0 0 1 .005.006zm-4.915 5.852c.731-.096 1.283-.553 1.879-.92-.715.132-1.39.344-1.867.943l-.427.23.096.132.319-.385zm10.936 8.514c.502-1.672.556-3.29-.247-4.939-.728-1.496-1.909-2.468-3.287-3.227-.924-.51-1.984-.764-3.049-.663-1.401.133-2.727.494-3.957 1.28-1.701 1.086-2.889 2.56-3.767 4.332-.047.096-.074.203-.102.307-.452 1.689-.444 3.359.239 4.991.123.293.302.57.498.822.724.93 1.662 1.581 2.686 2.162 1.063.603 2.141.996 3.373.928 1.43-.08 2.724-.498 3.919-1.322 1.717-1.186 3.047-2.644 3.694-4.671zm4.41-3.871c-.031-1.389-1.382-4.341-2.386-4.793.507.857.999 1.588 1.387 2.37.387.781.671 1.613.999 2.423z" fill="#fff"/><path d="M74.948 132.086c.126-2.449.234-4.889.734-7.315.301-1.459.716-2.87 1.145-4.284.12-.396.335-.764.506-1.145l.146.061c-.295.999-.644 1.986-.875 3-.394 1.733-.845 3.469-1.03 5.229-.179 1.705-.066 3.442-.05 5.165.003.341.146.681.231 1.021.245.986.494 1.97.774 3.087-.465-.341-.638-.706-.737-1.126a48.516 48.516 0 0 0-.424-1.721c-.04-.148-.155-.277-.236-.414l.013.039-.215-1.621.018.024zM86.491 129.255c.515-2.193 2.212-3.509 3.715-4.951 1.023-.982 4.444-2.304 5.505-2.211-1.283.549-2.497 1.04-3.686 1.586-1.217.559-2.159 1.488-3.126 2.393-.993.928-1.681 2.06-2.408 3.183zM117.475 119.211c.023.774-3.368 12.997-3.708 13.539-.017-.676 3.189-12.477 3.708-13.539zM58.804 136.195c.448-.668 1.195-.714 1.685-1.125.511-.429 1.125-.734 1.662-1.136.558-.418 1.07-.898 1.616-1.332.526-.417 1.074-.806 1.605-1.217.531-.411 1.066-.818 1.574-1.256.497-.429.963-.895 1.461-1.323-.708 1.279-4.811 4.677-8.197 6.829-.791.503-.791.503-1.406.56zM117.019 134.105c-.005-.358-.053-.587-.001-.79.085-.33.218-.652.373-.956.039-.078.25-.126.355-.095.095.027.202.172.221.279.075.441-.321 1.163-.948 1.562zM134.995 220.235c.07.298-6.477-.469-9.719-.275-1.76.105-3.525.078-5.288.037-1.932-.045-3.872.071-5.801-.032-1.511-.081-3.017-.307-4.516-.531a1.186 1.186 0 0 1-.262-.074c-2.693 2.009-5.492 4.716-8.795 5.307.054.136.101.275.157.409.291.689.895 1.401 1.62 1.205.868-.235 1.341.231 1.972.506.328.143.761.268 1.069.167.284-.093.464-.5.727-.813l.842.35-.579.685c.197.494.467.77.973.685.65-.109.286-.723.484-1.182.474.244 1.101.359 1.219.668.361.949 1.119.966 1.86.976 2.628.033 5.256.007 7.884.01 5.666-2.655 11.21-5.152 16.224-8.802-.001.722-.141.406-.071.704z" fill="#fff"/><path d="M107.779 202.236c-.688-1.336-1.705-2.503-2.574-3.746-.369-.528-.798-1.028-1.087-1.597-1.933-3.807-4.404-7.274-6.756-10.818-.525-.792-1.05-1.588-1.508-2.418a3.187 3.187 0 0 1-.364-1.225c-3.559-5.046-8.911-15.919-9.212-15.776-.271-.382-.58-.755-.822-1.168-1.195-2.041-2.604-3.908-4.305-5.562-1.202-1.169-2.337-2.48-3.871-3.153-2.767-1.213-5.668-1.97-8.749-1.578-.976.124-1.164.329-1.137 1.403.013.516-.184.771-.717.822a66.132 66.132 0 0 1-.253-.389c-.449-.698-.776-.789-1.495-.396a3.498 3.498 0 0 0-.563.388c-1.705 1.432-3.07 3.186-4.278 5.013-2.723 4.12-5.326 8.32-7.913 12.528-1.332 2.166-2.506 4.429-3.792 6.624-.351.599-.385 1.212-.082 1.728.376.638.214 1.167-.043 1.721a455.148 455.148 0 0 1-2.63 5.563c-.11.228-.323.407-.489.608l-.215-.128c.052-.203.076-.42.162-.608.426-.932.882-1.851 1.3-2.786.325-.727.641-1.461.893-2.215.064-.191-.065-.581-.224-.672-.156-.09-.532.009-.691.155a3.464 3.464 0 0 0-.76.985c-.673 1.36-1.281 2.751-1.953 4.112-1.48 2.996-3.013 5.966-4.467 8.975-1.154 2.389-2.166 4.847-3.347 7.222-1.045 2.102-1.698 4.301-2.129 6.593-.208 1.105-.241 2.196-.02 3.286.48 2.364 1.645 4.396 3.143 6.249.232.287.545.545.874.711.583.294.95.061.998-.593.031-.425.006-.854.006-1.28.656.566 1.16 1.139 1.511 1.794.419.78 1.027 1.332 1.773 1.718 2.43 1.26 5.058 1.916 7.759 2.108 2 .142 4.018.072 6.031.146 3.567.131 7.144.006 10.716-.067 1.707-.035 3.413-.187 5.117-.305.392-.027.848.042 1.174-.529l-1.134-.855c4.701-.169 9.233-.57 13.79-.14-.262.186-.536.252-.813.307-.447.089-.917.115-1.334.279-.23.091-.37.41-.55.626.198.151.387.315.597.445.089.055.222.048.335.051.95.019 1.904.093 2.85.037 3.643-.213 7.284-.46 10.925-.711 2.092-.144 4.111-.672 6.148-1.14 1.692-.389 3.198-1.189 4.743-1.894 1.964-.897 3.403-2.393 4.32-4.368.267-.575.251-1.074-.362-1.553l-1.836 2.064c.339-.912.897-1.666 1.238-2.508.35-.864.488-1.814.74-2.814l.146-.003c-1.177-3.095-.365-5.248-3.172-9.465-2.807-4.217-1.21-.962-1.642-1.801zm-71.492 12.187c.494 1.543 1.499 2.916 1.562 4.605-.765-1.448-1.678-2.844-1.562-4.605zm27.876-48.563c.055.713-.08 1.201-.377 1.679-1.278 2.052-2.538 4.114-3.8 6.176-.094.154-.153.329-.228.495l-.302-.253 4.707-8.097zm-17.314 53.92l-1.383-.423.076-.247c.515-.035.993.049 1.385.416l-.078.254zm16.532 5.128c-.682.032-1.367.061-2.047.023-.614-.034-1.279.23-1.829-.353 1.901-.173 3.788-.148 5.668.233-.575.382-1.196.069-1.792.097zm3.417.048l.037-.097h1.687l.001.097h-1.725zm33.719-8.164c-1.524.572-3.1.708-4.68.9-4.232.515-8.475.758-12.742.79-5.734.042-11.467.268-17.201.386-2.126.044-4.254-.015-6.38.014-2.219.03-4.391-.322-6.569-.671-.75-.12-1.519-.117-2.269-.235-1.423-.223-2.861-.407-4.251-.769-1.378-.359-2.613-1.077-3.471-2.263-1.097-1.516-.742-3.154-.097-4.672 1.291-3.04 2.691-6.035 4.093-9.027 1.288-2.748 2.652-5.46 3.943-8.206.158-.335.224-.861.068-1.161-.233-.449-.174-.775.021-1.167.487-.982.961-1.971 1.467-3.011 1.068.2 1.087.211 1.563-.573 1.123-1.851 2.224-3.714 3.338-5.57 1.857-3.096 3.73-6.182 5.567-9.289.559-.945.96-1.987 1.547-2.913a75.903 75.903 0 0 1 3.076-4.51c.928-1.254 2.942-1.844 4.411-1.382.349.11.728.283.971.541 1.037 1.105 2.129 2.179 3.01 3.402 1.197 1.66 2.197 3.462 3.328 5.172.711 1.074 1.51 2.089 2.262 3.136.288.4.604.79.825 1.227 1.036 2.051 2.65 3.694 3.905 5.587 2.099 3.166 4.192 6.336 6.225 9.545 2.236 3.531 4.389 7.114 6.599 10.662 1.324 2.125 2.701 4.217 4.028 6.341 1.454 2.329.764 6.459-2.587 7.716z" fill="#fff"/><g fill="#fff"><path d="M162.784 216.074c.154-.223.258-.542.406-.564.87-.129.624-.65.522-1.182l-.738.048c.078-1.236.193-2.407.214-3.581.018-1.025-.14-2.056.013-3.18-.66-.449-1.309-.942-1.913-1.547-1.967-1.749-3.936-3.497-6.057-5.246.021.175.035.354.038.54.075 4.635.146 9.269.268 13.903.028 1.069.063 2.075-.974 2.716-.346.214-.729.466-1.114.502-2.873.272-5.749.523-8.628.715-.939.062-1.89-.106-2.836-.105-.64.001-1.278.128-1.919.175-1.248.092-2.495.21-3.745.241-1.744.043-3.49.027-5.236.017-1.324-.007-2.396.682-3.72.664-2.356-.032-4.919-.113-7.275-.148-.418-.006-2.075-.025-2.492-.042-.715-.029-3.613.299-4.141.004 1.096 3.135 5.481 5.178 6.658 8.273 1.412-.029 2.797-.057 4.18-.09.189-.005.377-.043.565-.063.791-.083 1.582-.229 2.374-.236 1.901-.016 3.802.041 5.703.055 2.125.016 4.252.049 6.376.012.759-.013 1.566-.098 2.167-1.032-.554-.123-.975-.301-1.394-.296-1.404.017-2.809.165-4.211.143-2.656-.042-5.31-.164-7.964-.266-.228-.009-.452-.116-.678-.178.159-.186.299-.254.44-.254 2.239-.009 4.478-.01 6.717-.013l5.694-.009h2.81c.058 1.253.281 1.462 1.5 1.366 2.385-.188 4.768-.405 7.154-.572 2.009-.14 4.015-.294 5.958-.861 1.016-.297 2.146-.466 2.992-1.036 2.618-1.765 3.544-4.45 3.552-7.493.002-1.065-.073-1.066-1.266-1.38zM103.24 197.137c-.231-3.524-.473-7.048-.616-10.576-.07-1.74.067-3.487.101-5.231.032-1.67-.017-3.345.097-5.009.103-1.51.352-3.012.598-4.508.056-.34.307-.711.577-.937.43-.36.928-.662 1.44-.896 1.29-.592 1.299-.571.544-1.836.949-.08 1.842-.199 2.738-.223 3.112-.084 6.224-.14 9.337-.191.337-.006.675.093 1.013.132.738.085 1.415.025 2-.551.243-.24.652-.426.991-.434 1.624-.042 3.25-.015 4.903-.013.051.371.047.597.118.797.128.361.394.617.784.41.404-.215.177-.498-.023-.747-.043-.053-.049-.135-.126-.367l1.494.073v1.068c.463.039.9.119 1.333.104 2.279-.079 4.556-.221 6.836-.267 3.487-.07 6.975-.081 10.463-.115.402-.004 2.181.05 2.65.051 1.002-2.462 2.293-5.044 3.303-7.538-.68.043-3.173-.02-3.855.006-2.695.105-5.39.231-8.085.344-1.859.078-3.719.208-5.578.193-.922-.007-1.644.111-2.042 1.029-.02.047-.133.054-.273.105-.277-.456-.688-.658-1.279-.654-1.517.011-3.035-.076-4.553-.096-.429-.006-.761-.062-1.12-.376-.307-.269-.818-.417-1.242-.423-1.625-.025-3.251.03-4.877.051-2.537.033-5.074.076-7.611.092-4.267.027-8.491.458-12.661 1.362-.922.2-1.83.51-2.706.864-.693.28-1.414.874-1.229 1.602.222.871-.252 1.337-.535 1.964-.148.326-.28.757-.183 1.067.089.285.493.472.802.739l-.363.836-.676-.589c-.497.19-.777.456-.7.963.1.652.718.297 1.174.501-.252.47-.376 1.096-.686 1.209-.954.346-.983 1.104-1.004 1.846-.069 2.505-.085 5.012-.123 7.519-.002.14.033.291.028.438 2.56 5.679 5.276 11.238 8.835 16.285-.003-.026-.011-.05-.013-.073zm32.637-30.457l.016.195-.793.058-.016-.208.793-.045zm-31.42 2.17l-1.021.64c.144-.673.616-.625 1.021-.64z"/></g><path d="M151.484 161.039c-.223-.154-.542-.258-.564-.406-.129-.87-.65-.624-1.182-.522l.048.738c-1.236-.078-2.407-.193-3.581-.214-1.025-.018-2.056.14-3.18-.013-.449.66-.942 1.309-1.547 1.913-1.749 1.967 4.563 5.874 9.197 5.752 1.069-.028 2.075-.063 2.716.974.214.346.466.729.502 1.114.272 2.873.523 5.749.715 8.628.062.939-.106 1.89-.105 2.836.001.64.128 1.278.175 1.919.092 1.248.21 2.495.241 3.745.043 1.744.027 3.49.017 5.236-.007 1.324-.046 2.648-.064 3.972-.032 2.356-.057 4.712-.092 7.067-.006.418-.054.835-.071 1.252-.029.715-.194 1.323-.489 1.851 3.135-1.096 6.37-1.995 9.465-3.172-.029-1.412-.057-2.797-.09-4.18-.005-.189-.043-.377-.063-.565-.083-.791-.229-1.582-.236-2.374-.016-1.901.041-3.802.055-5.703.016-2.125.049-4.252.012-6.376-.013-.759-.098-1.566-1.032-2.167-.123.554-.301.975-.296 1.394.017 1.404.165 2.809.143 4.211-.042 2.656-.164 5.31-.266 7.964-.009.228-.116.452-.178.678-.186-.159-.254-.299-.254-.44-.009-2.239-.01-4.478-.013-6.717l-.009-5.694v-2.81c1.253-.058 1.462-.281 1.366-1.5-.188-2.385-.405-4.768-.572-7.154-.14-2.009-.294-4.015-.861-5.958-.297-1.016-.466-2.146-1.036-2.992-1.765-2.618-4.45-3.544-7.493-3.552-1.063-.004-1.065.072-1.378 1.265z" fill="#fff"/><g fill="#fff"><path d="M221.597 189.476l-.212-.279c-.402-.524-.449-.977-.289-1.572.634-2.358 1.512-4.615 2.703-6.747.554-.991 1.134-1.967 1.697-2.953.072-.127.112-.272.205-.503l-1.044-.659 2.944-3.207c.5.431.96.707 1.476.311.598-.459 1.447-.737 1.411-1.804l-1.011-.131 1.631-1.491c.893.886.938.906 1.976.303 1.706-.99 3.329-2.153 5.114-2.965 2.23-1.015 4.57-1.725 7.06-2.018 2.182-.257 4.31-.011 6.462.072.484.019 2.98.306 3.268 1.205 4.064-.926 2.995-4.189 3.608-6.115.117-.367-1.878-.868-1.777-1.283-2.119-.868-8.841-1.282-10.624-1.228a42.678 42.678 0 0 0-5.537.552c-1.228.2-2.429.629-3.611 1.044-2.111.742-4.286 1.352-6.092 2.776a50.566 50.566 0 0 1-2.547 1.901c-2.979 2.059-5.789 4.311-8.213 7.017-.177.197-.393.388-.485.623-.069.174-.025.452.077.615.067.107.333.141.501.122.222-.025.443-.113.647-.21.184-.088.346-.224.517-.339l.104.128-2.187 2.461.042-.039c-.691.952-1.482 1.849-2.049 2.87-.844 1.521-1.835 2.979-2.335 4.675 2.021 2.432 4.364 4.602 6.57 6.868zm14.571-27.469c2.573-1.011 5.208-1.818 7.966-2.111 1.309-.139 2.634-.136 3.952-.194.246-.011.492-.002.738-.002-.513.466-1.114.41-1.701.417a27.62 27.62 0 0 0-7.491 1.116c-1.044.308-2.019.84-3.038 1.241-.374.147-.783.207-1.176.306l-.115-.23c.288-.183.554-.42.865-.543zM273.798 198.679c-.013.046-.281 1.614-.297 1.661-.429 1.209-.738 2.442-1.462 3.557-.865 1.331-1.448 2.843-2.291 4.191-1.774 2.839-4.03 5.212-6.966 6.909-1.674.967-3.29 2.035-4.917 3.082a6.296 6.296 0 0 0-1.118.951c-.125.131-.195.451-.119.596.063.12.377.149.578.146.21-.003.418-.092.814-.189-2.198 1.646-8.536 2.939-10.801 2.245.912-.402 2.041-.016 2.799-1.064-.489-.14-.867-.283-1.259-.349a3.26 3.26 0 0 0-1.024-.022c-2.165.338-4.324-.016-6.482-.074-.924-.025-1.885-.309-2.745-.675-1.212-.516-5.658-2.398-6.371-2.885-1.592-1.087-4.184-2.974-5.317-4.513-.45 3.222-1.218 4.646-1.376 7.921 1.376 2.065 5.24 3.571 6.554 4.2 1.331.636 2.676 1.276 4.076 1.727 1.62.523 3.292.913 4.967 1.226 1.296.242 2.632.276 3.949.403.227.022.453.055.681.065 1.593.07 3.204.315 4.775.159 2.363-.234 4.751-.268 7.053-1.161 1.545-.599 3.146-1.038 4.669-1.758 3.771-1.783 7.02-4.253 9.813-7.3 1.3-1.418 2.378-3.051 3.467-4.648.789-1.157 1.427-2.417 2.142-3.625.056-.095.122-.184.203-.287a.578.578 0 0 1 .331-.559.56.56 0 0 1 .317-.493c-.017-.17.553-1.78.689-1.942-1.573-2.507-3.719-4.945-5.332-7.495zm-31.685 23.195l-.011-.266h.685l.019.184-.693.082zm4.103.373l-2.142-.172.018-.273c.72-.034 1.43.095 2.144.153l-.02.292zm12.513-3.098l3.042-1.677c-.74 1.072-1.868 1.418-3.042 1.677zm14.102-5.503c-.971 1.256-2.078 2.408-3.133 3.6-.603.682-1.212 1.359-1.833 2.024-.166.177-.387.303-.637.495 0-.178-.028-.267.005-.316.19-.282.358-.592.598-.826 2.721-2.643 4.901-5.717 7.019-8.85-.397 1.447-1.129 2.721-2.019 3.873z"/></g><g fill="#fff"><path d="M248.374 219.002c-.417.511-.848.662-1.464.643-2.44-.074-4.839-.409-7.188-1.077-1.092-.31-2.176-.651-3.265-.972-.14-.041-.29-.047-.536-.084l-.401 1.168-3.799-2.126c.304-.585.467-1.097-.037-1.508-.584-.477-1.051-1.239-2.08-.958l.106 1.014-1.826-1.244c.656-1.073.665-1.121-.16-1.993-1.356-1.432-2.862-2.744-4.063-4.294a24.984 24.984 0 0 1-2.279-3.519c-.513 2.222-1.419 4.285-2.752 5.976.079.108.161.215.238.325.229.331.381.715.569 1.074l-.197.165c-.245-.237-.537-.441-.728-.716-.088-.127-.169-.259-.256-.387-.357.41-.745.792-1.159 1.148.952 1.508 1.938 2.994 3.372 4.132.83.658 1.65 1.332 2.436 2.041 2.69 2.424 5.528 4.641 8.72 6.377.233.127.468.293.718.329.186.027.445-.079.581-.217.089-.09.06-.357.004-.516a2.093 2.093 0 0 0-.354-.582c-.128-.159-.297-.285-.449-.425l.1-.131 2.898 1.561-.047-.032c1.086.453 2.14 1.017 3.265 1.333 1.674.471 3.321 1.1 5.087 1.196 1.9-2.525 3.472-5.305 5.169-7.974-.074.093-.149.182-.223.273zM267.912 174.65l-1.323-1.46a3.397 3.397 0 0 1 1.423 1.056c.523-1.9 1.761-3.723 3.836-5.45-2.167-2.223-4.633-4.078-7.361-5.603-1.679-.939-3.517-1.612-5.321-2.304-1.308-.501-2.68-.832-4.021-1.249a2.721 2.721 0 0 1-.326-.132.58.58 0 0 1-.62-.193.56.56 0 0 1-.553-.195c-.162.056-1.859-.128-2.048-.223-2.077 2.111-3.955 4.761-6.066 6.917.048.002 1.635-.099 1.685-.093 1.275.139 2.547.155 3.798.603 1.495.535 3.1.755 4.606 1.264 3.171 1.073 6 2.721 8.327 5.188 1.214 1.286 2.498 2.506 3.776 3.732a8.168 8.168 0 0 1 .188-1.858zm-11.826-12.413c1.5.053 2.908.471 4.234 1.073 1.446.656 2.822 1.468 4.225 2.22.802.43 1.601.866 2.391 1.318.211.12.384.307.628.506-.173.041-.254.089-.309.068-.319-.12-.659-.212-.941-.392-3.199-2.04-6.691-3.454-10.228-4.793zM279.912 201.561c-3.205-3.604-4.573-7.958-6.375-12.154.188 1.03.334 2.069.547 3.092.189.905.134 1.906-.024 2.826-.223 1.298-1.031 6.058-1.34 6.865-.692 1.8-1.931 4.756-3.167 6.214 3.238-.304 4.801.115 8.025-.485 1.382-1.481 2.019-4.488 2.375-6.317-.014-.015-.028-.026-.041-.041z"/></g><path d="M335.588 170.15a23.558 23.558 0 0 0-.19-1.238c-.318-1.841-.753-3.623-2.424-4.782-.185-.129-.316-.339-.505-.459-.474-.302-.949-.61-1.455-.852-2.069-.987-4.336-1.186-6.55-1.312-2.686-.152-5.395.018-8.09.133-2.123.09-4.238.378-6.361.446-2.35.075-4.705-.02-7.057-.004-2.354.016-4.708.084-7.062.114-1.06.014-2.12-.021-3.18-.014-1.709.01-3.417.019-5.125.059-2.196.051-4.392.104-6.585.206a125.53 125.53 0 0 0-5.913.39c-3.055.286-6.039.863-8.484 2.911-.686.575-1.251 1.304-1.818 2.005-.108.133-.046.554.09.692.144.146.481.177.713.136.203-.035.389-.225.562-.371.552-.465 1.076-.963 1.644-1.406a5.315 5.315 0 0 1 2.563-1.092c-.549.495-1.156.873-1.762 1.251-2.101 1.308-3.81 2.837-3.248 5.674.027.136-.06.295-.095.444-.242-.201-.336-.396-.35-.596-.043-.645-.049-1.291-.083-1.937-.019-.364.084-.81-.434-.93-.492-.115-.801.197-1.028.558-.193.306-.308.661-.374.807l-.092-.004c-.635 2.595.16 5.107 1.289 7.497.608.275 1.082.764 1.489 1.512 1.65 3.03 3.503 5.948 5.245 8.929.92 1.574 1.78 3.183 2.663 4.779.219.396.386.838.929.885.462-.257.368-.646.226-.999-.326-.809-.631-1.634-1.049-2.395-.732-1.33-1.556-2.609-2.315-3.924-.293-.507-.516-1.055-.77-1.584l.195-.113c.149.141.332.259.441.426 3.173 4.847 5.689 10.064 8.487 15.141l-.833-.542c-.484.397-.252.763-.049 1.123.783 1.39 1.537 2.797 2.362 4.162 1.062 1.755 2.177 3.478 3.28 5.207.303.476.398.954.248 1.486 1.612 2.55 3.497 4.908 5.073 7.415a1.2 1.2 0 0 1 .18-.174l5.272 5.661-.136.216c-.074-.034-.152-.063-.229-.093.204.248.408.494.623.724l.014.008c1.841.92 3.56 2.054 5.805 1.948 2.967-.141 5.589-.786 7.886-2.896 2.199-2.019 3.761-4.397 4.852-7.078.779-1.917 2.404-3.389 2.74-5.506.006-.035.036-.066.056-.099.582-.937 1.171-1.869 1.744-2.81a23.027 23.027 0 0 0 2.507-5.816 15.5 15.5 0 0 1 .801-2.249 466.69 466.69 0 0 1 3.238-6.913c.571-1.2 1.143-2.402 1.772-3.571 1.025-1.905 2.103-3.782 3.144-5.679.123-.224.152-.501.217-.756.083-.325.134-.66.239-.978.883-2.679 2.118-5.198 3.457-7.674.299-.552.399-1.211.596-1.819.056-.173.092-.371.202-.504.929-1.123.962-2.429.802-3.776zm-29.128-2.81l.02.218h-1.106l-.043-.131 1.129-.087zm-29.001-3.356c3.721-.109 7.444-.156 11.166-.219.07-.001.141.049.211.075-2.185.431-4.401.384-6.611.482-2.187.097-4.356.6-6.792.191.808-.218 1.413-.511 2.026-.529zm18.6 54.758c-.75-.526-4.091-5.646-5.266-8.129.347.236.6.323.714.499 1.032 1.592 2.041 3.198 3.052 4.803.561.89 1.114 1.784 1.671 2.676l-.171.151zm30.384-44.195c-.208.401-.297.862-.488 1.274-.38.82-.786 1.628-1.195 2.434-.172.338-.397.649-.564.99-1.171 2.388-2.368 4.764-3.49 7.174-1.281 2.754-2.469 5.551-3.743 8.309-.86 1.862-1.834 3.671-2.697 5.532-1.757 3.792-3.46 7.609-5.213 11.403a103.017 103.017 0 0 1-2.316 4.705c-1.041 1.981-2.669 3.204-4.931 3.399-.568.049-1.213-.126-1.738-.376-1.043-.497-1.871-1.274-2.487-2.279a500.133 500.133 0 0 0-4.573-7.348c-.732-1.149-1.573-2.228-2.319-3.369-.957-1.462-1.904-2.932-2.788-4.439-.922-1.57-1.697-3.227-2.657-4.772-1.139-1.833-2.423-3.576-3.615-5.378-1.069-1.615-2.103-3.252-3.143-4.886-1.957-3.075-3.805-6.21-5.422-9.482-.52-1.052-1.167-2.042-1.793-3.038-.174-.277-.493-.46-.72-.708-.166-.181-.292-.399-.574-.794 1.239-.059 1.913-.731 2.523-1.366a3.559 3.559 0 0 1 1.963-1.069c1.809-.33 3.584-.821 5.459-.849 3.909-.059 7.815-.271 11.723-.389 3.109-.094 6.219-.143 9.329-.211 1.009-.022 1.271-.27 1.366-1.346h1.458c.096.312.1.751.308.895.272.189.708.204 1.07.193 3.032-.093 6.062-.239 9.095-.308 1.594-.036 3.191.042 4.786.088.532.015.969-.067 1.194-.823-4.162-.186-8.263.075-12.339-.269 2.468-.441 12.006-.541 15.256-.231.204.919.852 1.274 1.787 1.374.996.107 2.246 1.816 2.188 2.874-.059 1.065-.196 2.113-.7 3.086z" fill="#fff"/><g fill="#fff"><path d="M127.242 177.059c.647-.197 1.14-.317 1.607-.501.221-.087.456-.261.575-.46.314-.526.78-.744 1.34-.685.618.065.858.578 1.016 1.101.12.399.168.819.289 1.217.084.276.168.64.375.773.663.425.671 1.045.675 1.704.013 2.314.029 4.628.062 6.942.008.602.08 1.204.129 1.898 1.688.268 3.282-.087 5.044-.149.013-.715.047-1.346.033-1.976-.052-2.393-.064-4.781.488-7.135.139-.593.189-1.206.307-1.804.031-.157.074-.312.127-.463.615-1.753 1.354-2.095 2.533-1.075.468-.185.946-.395 1.437-.564.888-.305.95-.196 1.694.755a6.179 6.179 0 0 1 1.261 2.987c.266 1.988.52 3.983.641 5.983.184 3.036.245 6.08.365 9.12.115 2.923.25 5.846.349 8.77.033.99.011 1.965-.843 2.73-.22.197-.164.707-.227 1.074-.108.632-.118 1.299-.334 1.891-.409 1.118-1.259 1.42-2.383.997-.384-.145-.798-.326-1.19-.309-.772.035-1.288-.357-1.542-.958-.396-.935-.784-1.917-.911-2.913-.29-2.26-.418-4.54-.614-6.812-.051-.597-.108-1.194-.166-1.835-1.74-.309-3.385-.354-5.186-.037-.099 1.414-.201 2.803-.292 4.193-.035.531-.022 1.066-.072 1.596-.09.952-.325 1.068-1.236.668-.059-.026-.14-.003-.286-.003a12.554 12.554 0 0 0-.258 3.353c.033.606.039 1.215.033 1.823-.008.765-.373 1.328-1.094 1.576-.729.251-1.324-.132-1.855-.577-.165-.138-.248-.373-.418-.642-.592.336-1.211.625-1.876.179-.923-.619-1.121-1.595-1.304-2.738-.229-1.433-.282-2.887-.211-4.337.072-1.477.012-2.961.012-4.461-1.357-.45-2.597-.318-3.833-.17-.426.051-.512.413-.539.767-.093 1.212-.206 2.424-.253 3.639-.086 2.239-.125 4.48-.201 6.719a2.746 2.746 0 0 1-.217.925c-.257.622-.873.728-1.315.22-.213-.245-.345-.552-.512-.838-.609-.042-.742.344-.791.78-.074.649-.39 1.162-.898 1.565a.975.975 0 0 1-1.425-.223 4.183 4.183 0 0 1-.574-1.394c-.114-.529-.32-.939-.832-1.131-.823-.309-1.067-.981-1.247-1.764-.594-2.592-.39-5.223-.455-7.841-.115-4.597.005-9.198-.389-13.791-.142-1.654.062-3.342.171-5.011.042-.633.301-1.236.777-1.783l1.089.727c.519-.387.444-.968.535-1.463.137-.741.435-1.362 1.015-1.859.414-.356.794-.321 1.055.111.427.706 1.002 1.212 1.697 1.644.248.154.406.55.48.865.192.811.372 1.634.453 2.462.217 2.23.37 4.467.568 6.699.144 1.614-.11 1.982 2.012 1.772.712-.07 1.442.066 2.164.078.94.015 1.172-.183 1.164-1.118-.011-1.366-.192-2.738-.11-4.096.133-2.196.392-4.386.658-6.571.123-1.013.673-1.196 1.659-.816zM145.074 198l.031.035c0-.783-.02-1.568.005-2.35.034-1.052.013-2.118.182-3.151.163-.997.228-3.052-.218-4.138V198zm-27.116-7.969c.21-1.042.247-2.081.065-3.119-.144-.819-.29-1.626-.104-2.469.091-.411.016-.859.016-1.291l-.26.006c-.277 2.296.016 4.586.283 6.873z"/><path d="M133.173 204.345c.33.601.703.973.712 1.353.028 1.217.11 2.464-.338 3.627-.618-.035-.821-.398-.826-.771-.017-1.173.032-2.348.074-3.521.004-.128.133-.253.378-.688zM134.974 198.464c.219 3.214.289 6.428.044 9.641l-.292.001v-9.654l.248.012zM120.267 182.326c.185 2.069.347 3.86.494 5.653.004.047-.166.109-.342.218-.459-1.774-.383-3.541-.516-5.282-.008-.107.133-.224.364-.589zM127.817 174.996c.009.508-.336.899-.871.875-.449-.02-.699-.275-.704-.723-.005-.482.491-1.013.913-.989.462.026.662.305.662.837zM118.622 175.328c.005.445-.33.847-.722.867-.42.021-.861-.425-.843-.879.018-.451.286-.673.724-.696.476-.026.836.282.841.708zM133.142 212.263c-.067-.18-.117-.251-.114-.319.013-.331-.065-.741.382-.829.118-.023.403.228.419.375.049.438-.048.842-.687.773z"/></g><path d="M230.54 191.477c.157-.764.333-1.524.466-2.292.387-2.232 1.146-4.309 2.459-6.172.396-.562.777-1.117.241-1.855-.314-.432-.018-.849.305-1.218.995-1.139 2.222-1.934 3.569-2.597 2.483-1.224 5.14-1.897 7.845-2.248 3.174-.412 6.374-.405 9.444.76 1.581.6 2.976 1.509 4.129 2.755.575.622.839 1.39.595 2.211-.141.475-.045.761.251 1.121.84 1.02.468 2.593-.73 3.114-.4.174-.695.328-.867.793-.103.279-.55.587-.856.602-.745.036-1.549.054-2.238-.183-1.352-.466-2.7-1.008-3.94-1.712-1.047-.594-2.17-.856-3.284-1.19-.311-.093-.671-.035-1.007-.021-.225.009-.456.12-.67.088-2.837-.433-4.898.924-6.662 2.908-1.688 1.899-2.488 4.162-2.362 6.688.062 1.251.595 2.404 1.182 3.523.554 1.056 1.303 1.924 2.096 2.801.75.829 1.584 1.405 2.641 1.684 1.987.524 3.971.943 6.067.783 1.775-.135 3.311-.781 4.766-1.714 1.019-.653 2.008-1.352 3.023-2.012.316-.205.657-.434 1.013-.495.332-.056.836-.023 1.02.186.321.365.07.782-.299 1.064-.211.162-.443.296-.647.466-.135.113-.236.268-.425.489.623.196 1.023-.094 1.457-.261.632-.243 1.267-.519 1.926-.638.96-.174 1.52.52 1.22 1.454-.125.389-.364.742-.576 1.161.281.432.814.692.728 1.409-.088.733-.235 1.284-.879 1.719-.588.398-1.07.892-1.285 1.664-.129.465-.566.937-.99 1.213-2.836 1.847-5.855 3.234-9.314 3.366a12.282 12.282 0 0 1-1.703-.077c-.405-.042-.845-.063-1.033-.562-.044-.118-.214-.229-.348-.266-.898-.249-1.802-.477-2.868-.755.534 1.036 2.125.515 2.097 1.96-.334.449-.843.445-1.381.325-2.049-.455-4.011-1.138-5.815-2.236-.519-.316-1.084-.566-1.571-.924-.736-.54-1.458-1.13-1.127-2.358 2.121 1.421 4.233 2.723 6.969 3.202-.336-.205-.481-.334-.65-.391a17.154 17.154 0 0 1-5.253-2.877 17.752 17.752 0 0 1-3.894-4.274c-.41-.637-.865-1.25-1.337-1.842-.274-.344-.626-.626-1.137-1.127.06 1.056.35 1.745.807 2.321.801 1.01 1.694 1.946 2.518 2.937.45.541.837 1.134 1.205 1.637-.322.649-.7.553-1.046.363-.364-.199-.753-.407-1.027-.706-1.254-1.37-2.607-2.668-3.371-4.417-.364-.833-.815-1.631-1.135-2.479-.89-2.355-1.244-4.781-.632-7.262.16-.649.513-1.255.816-1.861.166-.333.46-.498.857-.344.357.139.571.38.546.774-.037.598-.092 1.194-.139 1.792.079.009.16.021.24.033zm25.489 12.973c1.535.134 2.938-.581 3.406-1.584l-3.406 1.584zm1.643-23.935l-.372-.07-.095.63.4.056.067-.616z" fill="#fff"/><path d="M241.309 185.929c-1.377 1.069-2.107 2.581-2.551 4.17-.44 1.575-.818 3.223-.026 5.07-.832-.655-1.007-1.711-.769-3.362a11.55 11.55 0 0 1 .996-3.348c.528-1.118 1.294-1.915 2.35-2.53z" fill="#9c1c1f"/><path d="M230.446 185.696c.305-1.637.746-2.874 2.005-3.708.592.435.506.938.237 1.353-.468.723-1.019 1.394-1.553 2.073-.075.096-.254.11-.689.282zM264.639 199.659c.488.026.823.394.812.89-.011.495-.659 1.023-1.182.964-.367-.042-.768-.56-.765-.988.004-.444.595-.895 1.135-.866zM259.719 196.953c-.139-.162-.287-.26-.279-.343.01-.11.129-.27.227-.292.08-.018.268.123.282.213.016.099-.112.221-.23.422zM298.63 202.72c.064 1.034.149 2.067.186 3.101.021.602-.01 1.209-.069 1.809-.019.197-.199.379-.304.566-.666-.064-.889-.525-1.009-1-.176-.697-.33-1.411-.38-2.126-.087-1.249-.069-2.506-.132-3.758-.044-.871-.18-1.738-.222-2.609a284.351 284.351 0 0 1-.219-5.69c-.064-2.277-.095-4.555-.152-6.833-.03-1.195-.152-1.32-1.306-1.335-.911-.011-1.823.022-2.735.022-.766.001-1.485-.116-2.188-.507-.476-.265-1.084-.344-1.642-.395-.626-.057-1.067-.335-1.432-.812-.72-.939-.543-1.653.537-2.129.099-.044.188-.112.357-.216-.341-.128-.622-.21-.883-.336-.791-.382-.922-1.288-.244-1.855 1.514-1.264 3.171-2.055 5.232-2.166 3.877-.209 7.744-.139 11.616 0 2.656.095 5.312.194 7.967.318.407.019.82.148 1.206.292.344.129.608.44.433.803-.1.207-.435.352-.691.419-.318.083-.666.055-1.036.263.292.071.587.132.874.218.324.097.706.142.945.347.293.252.623.635.648.981.031.438-.281.841-.785 1.005-.272.089-.519.252-.869.428l.766.898c-.419 1.798-.802 2.133-2.605 2.217-1.252.058-2.507.069-3.76.112-.411.014-.822.06-1.324.099-.076.827-.206 1.608-.208 2.389-.005 2.16.01 4.322.08 6.481.111 3.418.288 6.833.403 10.251.034 1.017.051 2.052-.092 3.055-.275 1.926-1.336 2.498-3.146 1.753-.166.274-.31.58-.515.836-.508.632-.955.654-1.515.087a3.416 3.416 0 0 1-1.007-2.119c-.11-1.172-.139-2.351-.241-3.524-.04-.464-.184-.919-.281-1.378l-.258.038zm-1.932-19.867c-1.311-.456-2.973-.405-4.164.153 1.461.22 2.773.255 4.164-.153zm13.354-4.254l.044-.339c-.58-.044-1.16-.09-1.74-.133-.602-.044-1.205-.127-1.806-.114-.541.012-1.135-.292-1.639.055l.012.305 5.129.226zm-6.484 9.878l-.247.029c0 .679.011 1.359-.003 2.038-.014.682-.019 1.366-.086 2.043-.133 1.328-.15 1.326.337 1.944l-.001-6.054zm.145 10.459l-.228.009.079 1.2.149-.008v-1.201z" fill="#fff"/><g fill="#fff"><path d="M56.42 201.9c.186-.33.428-.642.54-.995.096-.301.184-.822.032-.946-.671-.546-.397-1.133-.109-1.636 1.018-1.778 2.117-3.51 3.152-5.28 1.092-1.867 2.198-3.728 3.201-5.643 1.462-2.791 2.908-5.587 4.812-8.111.286-.379.723-.644 1.168-1.029-.423-.55-.247-1.133.344-1.516.703-.456 1.339-1.084 2.377-.641.991.423 1.513 1.198 2.051 2.022.56.858 1.169 1.684 1.709 2.554a193.18 193.18 0 0 1 3.054 5.075c.198.342.165.811.313 1.192.173.445.318 1.045.667 1.25 1.385.816 2.147 2.145 2.939 3.416 1.407 2.256 2.655 4.61 4.03 6.886.547.906 1.237 1.729 1.903 2.556.136.169.451.246.692.269.716.066 1.438.073 2.156.123.954.066 1.846.515 2.017 1.405.187.979.5 1.862.83 2.788.402 1.129-.552 2.368-1.705 2.852-1.582.664-3.266.723-4.917.853-3.364.266-6.741.368-10.112.553-2.198.121-4.393.348-6.592.383-2.694.043-5.389-.083-8.085-.1-1.401-.009-2.802.066-4.204.088-.759.012-1.52-.043-2.277-.006-.866.042-1.727.182-2.593.214-.26.009-.634-.13-.77-.328-.316-.463-.753-.606-1.243-.715-1.097-.242-1.619-.71-1.728-1.667-.128-1.124.018-1.845 1.098-2.223.063-.022.105-.103.157-.158-.844-1.316-.497-2.137 1.097-2.449.966-.189 1.949-.301 2.928-.417.479-.057.897-.165 1.103-.657l-.035.038zm15.077-12.931c-1.663 1.999-2.732 4.177-3.841 6.301-1.117 2.138-2.599 4.117-3.273 6.534.271.05.382.094.49.087 4.204-.241 8.406-.51 12.622-.424.354.007.711-.119 1.225-.211-.236-.513-.377-.894-.578-1.241-.475-.82-1.001-1.61-1.465-2.435-.793-1.411-1.542-2.846-2.331-4.259a116.135 116.135 0 0 0-1.99-3.437c-.171-.282-.457-.493-.859-.915zm5.283 19.175l-.056.384 3.253-.26-3.197-.124zm4.686-.306c1.425.317 2.303.231 3.074-.245l-3.074.245zm-27.357-.13c.765.394 1.369.374 2.1.195-.954-.51-1.168-.536-2.1-.195zm13.116-16.94l.206.117c.535-.518.866-1.146.871-1.956l-1.077 1.839zm15.087 3.461c-.052-.463-.123-.945-.665-1.099l.665 1.099zm3.087 13.386l-.023.185 1.081-.087v-.035l-1.058-.063zm-1.366-10.578l.187-.102-.324-.509-.143.085.28.526z"/><path d="M76.768 199.82c-.216-.192-.443-.322-.567-.517-1.216-1.915-2.412-3.842-3.619-5.763-.242-.385-.523-.746-.75-1.139-.211-.367-.232-.714.341-.917.391.745.724 1.5 1.16 2.189 1.055 1.666 2.164 3.298 3.239 4.952.211.32.573.636.196 1.195z"/></g><g fill="#fff"><path d="M221.837 193.537c-.047-1.311-.032-2.625-.041-3.985l.863.108c-.031-.6.024-1.127-.098-1.611a157.95 157.95 0 0 0-1.574-5.828c-1.11-3.778-3.177-7.042-5.527-10.139-2.207-2.266-4.55-4.436-6.57-6.866-.011.037-.025.072-.035.109-.026.093-.143.16-.241.264-.138-.087-.285-.145-.385-.248-1.213-1.255-2.704-2.037-4.311-2.675a43.267 43.267 0 0 0-10.782-2.771c-3.517-.43-7.03-.634-10.533.084-.817.167-1.62.409-2.424.636-2.371.668-4.761 1.28-7.099 2.05-1.102.363-2.163.946-3.132 1.594-1.067.714-.986 1.097.125 1.7.026.014.032.066.129.28-.072.034-.216.09-.35.165-1.792 1.01-3.412 2.257-4.932 3.633-1.797 1.626-3.722 3.136-4.878 5.357-.101.194-.47.326-.733.348-1.01 2.494-1.889 5.023-2.891 7.485l.443.001c-.049.413-.038.745-.133 1.043-.884 2.796-1.543 5.641-1.84 8.558-.1.978-.062 1.974-.032 2.961.008.276.212.547.27.687-.078.688-.23 1.272-.194 1.844.168 2.682.913 5.244 1.961 7.69.939 2.193 2.051 4.318 3.193 6.415.386.709 1.043 1.305 1.672 1.84.651.553.927 1.211 1.017 1.967 2.121 1.749 4.09 3.497 6.057 5.246.604.604 1.253 1.098 1.913 1.547.02-.146.043-.293.075-.442.564.245 1.046.433 1.509.661.579.285 1.115.677 1.717.894 2.143.773 4.285 1.566 6.47 2.206 1.634.479 3.331.746 5.007 1.071.197.038.625-.161.625-.249-.001-.256-.098-.588-.282-.748-.245-.214-.596-.341-.922-.425a34.498 34.498 0 0 0-2.554-.577 12.938 12.938 0 0 1-3.814-1.291c1.15.207 2.285.466 3.413.751 1.886.476 3.787.849 5.744.777 2.124-.078 4.255-.105 6.369-.296 1.159-.105 2.295-.492 3.435-.774.817-.203 1.02-.116 1.386.683.061.133.15.254.23.386.874.097 1.576-.292 2.267-.684 1.058-.599 2.1-1.227 3.153-1.835.724-.418 1.513-.746 2.173-1.246 1.539-1.168 3.023-2.409 4.52-3.631 2.444-1.994 4.73-4.145 6.579-6.72.305-.425.468-.957.797-1.358 1.153-1.406 1.839-3.051 2.515-4.706.108-.264.258-.51.38-.747l.372.197c.158-3.276.209-6.584.659-9.806a26.443 26.443 0 0 1-.389-.54 2.052 2.052 0 0 1-.342-1.04zm-65.968 3.007l.625-2.948c.519 1.182.25 2.312-.625 2.948zm6-3.694c-.029 1.845.046 3.691.008 5.59-.108-.395-.25-.785-.319-1.187-.434-2.528-.284-5.058.023-7.585.099-.812.236-1.619.356-2.428l.179.056c-.086 1.851-.218 3.702-.247 5.554zm40.924-23.87a48.015 48.015 0 0 1 2.634 1.58c.214.138.356.389.52.604-1.219-.7-2.438-1.398-3.655-2.101-.325-.188-.641-.39-.911-.707.472.205.964.374 1.412.624zm-1.984-5.948l.527.149-.04.171-.512-.115.025-.205zm-.896-.188c-1.525-.285-3.108-.321-4.517-1.127 1.53.259 3.138.242 4.517 1.127zm-35.755 17.803c-.186 1.215-.675 2.328-1.181 3.436.021-1.269.372-2.429 1.181-3.436zm49.669 21.623c-.822 2.269-1.882 4.401-3.317 6.341-1.87 2.529-4.298 4.397-7.092 5.773-1.054.519-1.787 1.125-1.706 2.381.037.57-.511.591-.78.874l.031-.012c-1.173.981-2.499 1.704-3.961 2.377-.439-.866-1.045-.894-1.949-.635-1.14.326-2.332.623-3.584.37-.569-.115-1.201.13-1.805.133-3.679.018-7.096-1.066-10.442-2.479-5.389-2.275-9.474-6.042-12.779-10.804-1.455-2.096-2.233-4.418-2.693-6.832-.765-4.018-.808-8.085-.032-12.12.292-1.517.636-3.051 1.196-4.483 1.402-3.585 3.59-6.685 6.345-9.364a17.37 17.37 0 0 1 4.847-3.34 204.28 204.28 0 0 1 4.659-2.089c.519-.224 1.108-.29 1.618-.53.354-.167.729-.45.914-.782.507-.91.469-.931 1.635-1.163-.108.435-.115.86.415.973.441.094.9.255 1.334.212 2.403-.238 4.808.001 7.144.373 2.874.458 5.722 1.245 8.198 2.935.937.64 1.858 1.302 2.799 1.936.247.167.532.336.816.372.262.034.606-.038.798-.201.103-.088-.004-.474-.079-.705-.059-.183-.185-.345-.292-.513.704.46 1.496.833 2.07 1.42 1.271 1.3 2.423 2.715 3.62 4.086.225.257.462.509.647.794.193.297.331.629.494.946l-.244.179c-.385-.422-.766-.849-1.157-1.266-.309-.33-.598-.692-.958-.953-.163-.118-.557-.123-.702-.004-.156.129-.261.511-.184.699.243.592.54 1.172.892 1.706.584.887 1.274 1.705 1.838 2.603a21.5 21.5 0 0 1 3.207 9.286c.42 3.993-.412 7.784-1.761 11.506z"/><path d="M187.092 227.077c.82-.862 1.842-.632 2.72-.717 1.199-.116 2.439-.139 3.591.307l.055.297c-.309.151-.604.387-.929.44-2.496.411-4.356.31-5.437-.327zM194.768 226.464c.759-.458 1.396-.601 2.121-.341-.457.756-1.153.887-2.121.341z"/></g><g fill="#fff"><path d="M196.619 178.123c.425-.891-.035-2.217 1.495-2.561l.633 1.719.202.022c.078-.415.182-.827.228-1.245.047-.43.082-.871.548-1.039.515-.186.952.014 1.346.378.604.558.659 1.347.903 2.054.097.28.126.584.193.916.217.023.398.045.58.061.763.068 1.094.335 1.235 1.073.093.484.164.978.182 1.47.132 3.526.184 7.056.39 10.578.173 2.955.574 5.897.772 8.851a72.77 72.77 0 0 1 .148 6.605c-.02.839-.411 1.685-.722 2.493-.101.262-.478.569-.744.583-.594.032-.982.33-1.385.689-1.222 1.087-1.892.94-2.591-.548-.064-.136-.121-.275-.181-.41-.077.014-.184.005-.203.042-.222.423-.47.815-1.04.667-.489-.127-.572-.542-.643-.974-.117-.709-.265-1.413-.418-2.212-.244.114-.456.173-.621.295-2.823 2.107-6.096 2.949-9.501 3.517-2.255.376-4.363-.22-6.506-.653-.469-.095-.905-.375-1.342-.598-3.126-1.593-5.538-3.934-7.362-6.926-1.191-1.955-1.771-4.056-2.058-6.318a28.28 28.28 0 0 1-.161-5.667c.092-1.259.28-1.427 1.647-1.127.923-4.725 3.529-8.285 7.797-10.721-.568-.376-1-.32-1.4.039-1.779 1.594-3.7 3.057-4.838 5.247-.143.275-.408.487-.642.758-.525-.472-.456-.913-.25-1.331 1.26-2.552 2.91-4.712 5.768-5.63.142-.046.299-.1.403-.198 1.421-1.348 3.323-1.714 5.076-2.137 2.586-.624 5.298-.65 7.891.167 1.583.499 3.091 1.233 4.633 1.861.171.068.343.134.538.21zm-15.085 6.003l-.285-.191c-.741.947-1.478 1.897-2.225 2.84-2.008 2.535-2.851 5.385-2.442 8.618.132 1.048.46 2 .99 2.884.408.68 1.027 1.253 1.334 1.968.464 1.08 1.339 1.608 2.276 2.122.2.11.4.219.593.34 1.456.91 3.059 1.049 4.707.84.216-.027.524-.338.559-.554.062-.381.021-.785.417-.987.366-.186.778-.454 1.151-.427 1.628.116 2.811-.676 3.971-1.669 2.796-2.391 3.811-5.413 3.174-8.974-.673-3.76-3.134-5.935-6.638-7.065-.491-.158-1.056-.183-1.576-.14-3.428.285-5.832 2.182-7.585 4.997-.411.66-.631 1.451-.867 2.204-.25.796-.41 1.62-.618 2.429-.047.183-.077.415-.202.523-.266.23-.592.55-.888.545-.416-.007-.589-.44-.548-.858.058-.603.058-1.235.251-1.797.33-.962.791-1.879 1.194-2.817.698-1.627 1.725-3.029 2.927-4.316.138-.147.222-.342.33-.515zm21.123 11.677c.373-2.126-.294-12.058-.827-13.281-.255.813.379 11.629.827 13.281zm-21.856-17.444l.109.333 2.718-.847-.046-.175-2.781.689zM204.842 182.26c.061.079.166.152.176.237.145 1.164.332 2.327.4 3.497.096 1.666.055 3.34.159 5.006.12 1.928.339 3.85.507 5.776.132 1.513.26 3.026.372 4.54.02.27-.042.547-.144.816-1.12-6.576-.982-13.234-1.733-19.827.087-.016.175-.031.263-.045z"/><path d="M203.585 176.237c-.033.326-.035.441-.058.551-.121.586-.512.996-.847.896-.316-.095-.554-.698-.458-1.188.021-.109.054-.237.127-.312.222-.227.466-.432.702-.646l.534.699zM171.197 187.387c-.34-.466-.35-.836.064-1.104.113-.073.494.025.543.137.214.489-.126.727-.607.967zM181.228 200.228c-.222.121-.495.394-.673.342-.415-.122-.865-.323-1.158-.629a8.72 8.72 0 0 1-2.032-3.383c-.131-.406-.199-.787.085-1.186.47-.661 1.014-.677 1.394.04.745 1.403 1.46 2.821 2.183 4.236.068.132.1.283.201.58zM182.608 200.873c.55-.025.931.279.924.753-.007.452-.304.68-.698.759-.354.071-.903-.435-.928-.832-.031-.486.269-.66.702-.68z"/></g><path d="M207.35 127.563c.069-.431.048-.94-.125-1.328-.179-.402-.251-.752-.145-1.158.341-1.306.677-2.613 1.026-3.917.293-1.095.654-2.176.887-3.283.176-.838.214-1.708.278-2.566.015-.198-.054-.467-.189-.595-.15-.142-.418-.161-.658-.24-.001-.097.007-.203-.005-.308-.089-.775-.528-.975-1.156-.501-.474.357-.925.748-1.173 1.313l-1.193 2.707-.247-.559c-.506.203-.554.58-.631.908-.544 2.312-1.371 4.54-1.896 6.864-.57 2.523-1.453 4.975-2.161 7.469-.217.764-.521 1.295-1.43 1.137-.102-.018-.214.031-.321.034-1.24.039-2.48.074-3.72.111-.373.011-.547-.189-.562-.54-.008-.187-.014-.384.031-.563.62-2.46 1.136-4.955 1.906-7.368.92-2.884 1.731-5.792 2.439-8.731.11-.457.108-.97.032-1.437-.168-1.044-.537-1.244-1.58-.952-.044-.09-.089-.185-.136-.279-.334-.663-.562-.735-1.204-.384-.707.386-1.105 1.021-1.355 1.751-.245.715-.437 1.447-.662 2.169-.056.18-.149.349-.225.523-.002-.467.122-.879.214-1.299.087-.394.181-.794.195-1.194.013-.388-.277-.517-.601-.308-.384.248-.574.628-.706 1.052-.473 1.519-.968 3.03-1.426 4.553a248.21 248.21 0 0 0-1.507 5.214c-.074.266-.131.683.012.836.595.635.398 1.29.193 1.971-.358 1.189-.712 2.38-1.075 3.567-.034.113-.118.21-.179.315l-.168-.043c.047-.301.063-.609.145-.9.248-.883.517-1.761.787-2.637.111-.36.168-.679-.422-.845-.213.506-.438.987-.62 1.484-.4 1.089-.761 2.193-1.172 3.278-.237.628-.345.659-1.046.623a10.16 10.16 0 0 0-.89-.007c-.916.034-1.831.096-2.748.11-.636.01-.789-.194-.636-.787.325-1.254.681-2.501.995-3.758.464-1.86.858-3.739 1.363-5.588.57-2.088 1.059-4.191 1.302-6.341.199-1.76.095-3.529-.499-5.196a10.133 10.133 0 0 0-.183-.469c-.488.518-.035 1.209-.101 1.763-.329-.339-.34-.929-.471-1.383-.209-.475-.398-1.028-1.045-1.116-.924.006-1.09.633-1.513 1.275-.444-.537-1.108-.881-1.817-.734-.078-.021-.141.214-.104.392.152.376.46.793.22 1.065-.021.078-.193-.219-.251-.318-.34-.929-.707-2.704-1.6-2.186-.892.457-.218 1.683.238 2.555.162.145.334.28.524.367.346.158.692.239.818.686.133.471.184.543.15 1.016-.456-1.004-.494-1.051-1.078-1.316-.416.517-.195 1.069-.086 1.612.085.422.269.844.256 1.262-.045 1.482-.007 2.989-.276 4.436-.384 2.063-.765 4.143-1.523 6.119-.135.351-.348.675-.46 1.031a257.809 257.809 0 0 0-1.466 4.8c-.233.795-.417.939-1.248.96a66.424 66.424 0 0 0-3.218.147c-1.09.081-1.349.366-1.422 1.448l-.363.127c-.734.259-1.484.48-2.197.787-.67.288-.757.897-.258 1.427.426.453.953.703 1.58.717.485.011.972-.007 1.456.022.231.014.616.054.657.176.204.6.66.461 1.073.446 2.723-.1 5.446-.233 8.17-.308 3.046-.083 6.093-.118 9.139-.169 2.374-.04 4.747-.1 7.121-.102 1.943-.002 3.886.069 5.829.106.842.016 1.665-.074 2.465-.373.58-.217.92-.58 1.085-1.191.652-2.423 1.343-4.835 2.012-7.254.203-.73.433-1.457.551-2.2zm-27.441-11.12c-.033-.03-.083-.054-.092-.09-.009-.033.025-.078.041-.118l.073.133c-.009.026-.015.05-.022.075zm-5.376 21.306l-.013-.108.377-.063-.008.165-.356.006zm2.724-.124l-.006-.124.782-.043a9.339 9.339 0 0 0-.011.161l-.765.006zm6.421-20.034l.103-.851.198.019-.095.852a13.076 13.076 0 0 1-.206-.02zm-1.878 9.495c.121-1.632.431-3.226.958-4.775-.074 1.642-.346 3.243-.958 4.775zm22.616-6.806l-.045-.011.213-.803.047.001-.215.813zM216.782 116.82c.081-.213.184-.421.238-.641.245-1 .585-1.959 1.059-2.879.441-.857.739-1.1 1.372-.953.58.135 1.208.87 1.17 1.495-.032.521-.051.985.268 1.452.119.174.03.531-.04.784-.288 1.04-.599 2.074-.914 3.106-.313 1.029-.641 2.053-.984 3.149.435-.032.591-.33.78-.557 1.441-1.725 3.079-3.226 4.876-4.582 1.599-1.207 3.235-2.345 4.999-3.286 1.138-.607 2.322-1.132 3.5-1.662.294-.132.755-.339.891.132.115.397-.365.459-.647.576-.64.265-1.288.508-1.933.761l.061.19c.281-.092.56-.191.843-.276.542-.162 1.098-.285 1.623-.487.285-.109.58-.301.766-.537.518-.657 1.54-1.039 2.363-.812.078.021.152.056.228.083 1.339.466 1.509 1.178.509 2.173-.198.197-.392.372-.284.693.24.714-.168 1.156-.711 1.457-.706.391-1.449.72-2.191 1.043-1.939.846-3.714 1.969-5.464 3.142-.342.229-.381.542-.403.908-.113 1.803.235 3.543.686 5.27.656 2.512 1.718 4.835 3.377 6.843 1.61 1.949 3.418 3.674 5.836 4.617.273.107.547.243.777.421.37.286.694.627.534 1.164-.158.53-.547.779-1.077.836-.157.017-.317.016-.542.026l.113.707c-.065.075-.105.155-.169.192-1.083.617-2.087.241-3.073-.262-.263-.134-.502-.316-.749-.482-.386-.26-.732-.489-1.255-.202-.218.119-.651.002-.911-.143-.585-.327-1.181-.675-1.669-1.126-2.476-2.285-4.358-4.99-5.553-8.151-.467-1.234-.929-2.472-1.321-3.731-.196-.63-.231-1.311-.361-2.105l-1.08.817c.035.196.119.383.08.538-.033.132-.198.242-.323.339-2.811 2.199-4.965 4.925-6.526 8.127-.059.12-.129.236-.205.346-.027.04-.087.058-.198.126-.131-.917.624-1.472.741-2.253a12.167 12.167 0 0 0-1.207 2.002c-.13.267-.233.547-.364.813-.371.752-.499.801-1.361.535-.12.111-.257.234-.389.362-.585.569-1.035.637-1.75.26-1.258-.662-1.655-1.596-1.304-3.13.114-.499.268-.99.414-1.482.978-3.282 1.959-6.563 2.939-9.844.031-.103.027-.255.095-.302.532-.367.373-.961.515-1.458.428-1.504.862-3.006 1.333-4.497a16.32 16.32 0 0 1 .853-2.185c.179-.371.509-.679.809-.977.199-.199.518-.298.73-.075.134.141.191.449.144.65-.16.682-.385 1.348-.58 2.022-.081.278-.15.559-.224.839l.24.081zm10.587 6.932c-.273 2.209 1.493 7.444 3.082 8.658-.611-1.378-1.315-2.747-1.827-4.185-.517-1.455-.844-2.979-1.255-4.473zm-13.498-1.254a6.84 6.84 0 0 1-.125-.034c-.704 2.397-1.404 4.794-2.102 7.192-.029.099-.026.208-.032.313-.001.02.024.045.043.06.021.016.048.023.109.05.08-.084.22-.164.251-.274a904.495 904.495 0 0 0 1.873-6.869c.037-.139-.01-.302-.017-.438zm12.886-5.82c-.892.353-1.677.97-1.945 1.532.842-.44 1.333-1.071 1.945-1.532zm9.687 23.031l.082-.2-1.124-.56-.094.195 1.136.565zm-6.787-24.874l-.086-.141-.479.304.062.106.503-.269zm2.628 20.082c-.006-.045.001-.118-.022-.13-.044-.022-.106-.01-.161-.012.018.044.026.101.058.129.026.023.082.01.125.013z" fill="#fff"/><path d="M206.649 130.486c-.373-.182-.318-.497-.242-.778a381.738 381.738 0 0 1 1.595-5.772c.045-.158.276-.264.421-.393.079.181.237.37.22.541a7.644 7.644 0 0 1-.261 1.348c-.403 1.4-.826 2.794-1.254 4.186-.097.316-.077.714-.479.868zM209.159 120.608c.395.228.297.536.22.804a3.012 3.012 0 0 1-.332.706c-.027.045-.23.047-.286-.004a.557.557 0 0 1-.158-.335c-.021-.276.219-.76.556-1.171z" fill="#fff"/><g fill="#fff"><path d="M308.833 120.061c.27-.235.41-.342.533-.466 2.073-2.086 4.127-4.191 6.228-6.249.47-.46 1.08-.791 1.659-1.123.68-.39.732-.348.993.382.427-.155.844-.361 1.285-.454.732-.155 1.128.238 1.098.981-.015.369.045.741.029 1.109-.01.234-.057.485-.157.695-1.032 2.154-1.751 4.417-2.314 6.728-.44 1.806-.927 3.614-.955 5.49-.036 2.363.198 4.69 1.137 6.895.116.272.279.525.391.799.116.284.198.583.311.926-.531.086-.707-.233-.814-.503-.385-.974-.8-1.947-1.064-2.957-.57-2.178-.692-4.41-.559-6.657-.296.984-.456 2.94-.303 4.079.276 2.061.7 4.089 1.613 5.978.21.434.512.824.732 1.254.083.163.051.384.072.579-.222-.015-.472.029-.658-.06-.198-.095-.336-.315-.603-.417.055.125.085.27.168.371.46.565.944 1.111 1.398 1.679.309.387.596.826.33 1.33-.248.468-.641.715-1.229.778-1.418.153-2.604-.21-3.592-1.251-1.419-1.495-2.441-3.151-2.869-5.235-.384-1.866-.397-3.698-.156-5.544.164-1.253.472-2.492.787-3.719.261-1.017.629-2.006.943-3.009.045-.144.055-.299.116-.646-.275.288-.42.428-.552.579-.604.689-1.205 1.381-1.805 2.073-.618.713-1.233 1.429-1.851 2.142-1.608 1.857-3.286 3.643-5.176 5.222-.703.588-1.342 1.257-2.065 1.817-1.125.873-2.404 1.458-3.82 1.667-1.596.236-2.922-.258-3.884-1.598-.047-.066-.099-.128-.142-.197-.418-.672-.357-.984.36-1.531l-.441-.867-.696.675c-.594-.408-.806-.983-.812-1.607-.014-1.435.094-2.864.565-4.235.271-.788.552-1.579.906-2.331.27-.573.325-.547.91-.185l.151-.567c-.086-.066-.158-.158-.249-.184-.427-.124-.486-.416-.315-.754.632-1.251 1.231-2.523 1.945-3.726a10.247 10.247 0 0 1 2.388-2.733c1.174-.945 2.355-1.933 3.854-2.314.771-.196 1.595-.234 2.396-.24.38-.003.787.19 1.136.378.549.296.592.428.654 1.131.751.237 1.181.818 1.334 1.56.213 1.027.34 2.072.504 3.109l.155.953zm-10.252 4.977c-.102.717-.278 1.433-.284 2.15-.005.65.373 1.206.989 1.452.597.238 1.097-.074 1.504-.519.145-.159.285-.323.417-.493a14.417 14.417 0 0 0 2.58-5.178c.225-.848.453-1.732.169-2.627-.317-.998-1.33-1.253-2.1-.562-.731.657-1.274 1.426-1.727 2.301-.583 1.129-1.176 2.243-1.548 3.476zm5.543 5.197c.805-.391 4.931-4.819 5.152-5.53-.507.292-4.789 4.887-5.152 5.53zm-9.821-5.011l.057.02.087-.264-.051-.018-.093.262z"/><path d="M321.917 114.343c-1.85 3.907-2.744 8.093-3.633 12.462-.212-1.145.011-2.087.254-3.011.485-1.847.981-3.693 1.55-5.515.432-1.379.976-2.726 1.829-3.936zM301.621 113.044c-1.496.835-2.783 1.924-4.024 3.072-1.259 1.165-2.043 2.672-2.92 4.199-.252-.333-.081-.54.026-.731.798-1.419 1.725-2.75 2.927-3.853.851-.781 1.772-1.488 2.69-2.193.365-.28.781-.532 1.301-.494zM320.474 138.284c-.048.02-.103.066-.145.056-.452-.103-.746-.362-.681-.644.023-.101.222-.236.333-.229.364.023.502.279.493.817z"/></g><path d="M295.225 138.658a3.29 3.29 0 0 0-.81-.439c-2.522-.983-4.407-2.782-6.085-4.814-1.729-2.093-2.836-4.515-3.52-7.134-.47-1.801-.832-3.615-.715-5.494.024-.381.064-.707.421-.946 1.824-1.223 3.676-2.395 5.697-3.276.773-.337 1.548-.68 2.284-1.088.566-.313.991-.774.741-1.519-.112-.334.09-.517.297-.722 1.042-1.037.866-1.779-.531-2.265-.08-.028-.157-.064-.238-.086-.858-.237-1.924.162-2.464.847-.194.247-.502.446-.799.56-.548.21-1.128.338-1.693.507-.295.088-.586.191-.879.287l-.064-.198c.672-.263 1.348-.517 2.016-.793.295-.122.794-.187.675-.601-.142-.49-.623-.275-.929-.137-1.228.553-2.462 1.099-3.649 1.733-1.839.981-3.545 2.168-5.212 3.426-7.697 5.139-13.419 12.664-13.371 12.5-.3.428-.601.859-.909 1.293a10.19 10.19 0 0 0-.674 1.065l-.348 1.167c-.153.513-.313 1.024-.432 1.545-.365 1.599.048 2.573 1.36 3.263.746.392 1.215.322 1.825-.272.138-.134.281-.262.406-.378.899.278 1.032.226 1.419-.557.137-.277.244-.569.38-.848.358-.734.767-1.437 1.258-2.088-.122.815-.909 1.394-.773 2.349.116-.072.178-.09.207-.132a2.98 2.98 0 0 0 .214-.361c1.627-3.339 3.873-6.181 6.804-8.473.13-.101.302-.215.337-.353.041-.162-.047-.356-.084-.561l1.126-.852c.135.828.171 1.538.376 2.195.409 1.312.89 2.604 1.377 3.89 1.246 3.296 3.209 6.115 5.79 8.498.509.47 1.131.833 1.74 1.174.271.151.723.274.95.149.544-.298.906-.06 1.308.211.257.173.506.362.781.502 1.028.524 2.076.916 3.204.273.067-.038.109-.122.177-.2l-.117-.738c.234-.011.4-.01.565-.027.552-.059.958-.318 1.123-.871.162-.557-.176-.913-.562-1.211zm-15.244-21.096c.279-.585 1.098-1.229 2.028-1.597-.639.481-1.15 1.139-2.028 1.597zm4.526-3.237l-.064-.111.5-.317.089.147-.525.281zm-1.86 9.016c.428 1.557.769 3.146 1.309 4.663.533 1.499 1.268 2.926 1.905 4.363-1.658-1.265-3.499-6.723-3.214-9.026zm4.995 11.627c-.034-.029-.041-.088-.06-.134.057.002.121-.011.167.013.024.012.016.088.023.135-.045-.004-.103.009-.13-.014zm4.466 5.009l-1.184-.59.098-.203 1.172.584-.086.209z" fill="#fff"/></symbol><symbol id="make-request" viewBox="0 0 180 180"><circle cx="90" cy="90" r="90" fill="#9c1c1f"/><path d="M64.85 58v64c0 .4.3.7.7.8h48.8c.4 0 .8-.4.8-.8V70.2c0-.4-.1-.4-.4-.8l-12-12c-.1-.1-.3-.2-.5-.2h-36.7c-.3.1-.7.4-.7.8zm50.3 11.9h-12.7V57.2m-31.3 19.6l4.6 4.6c.3.3.8.3 1.1 0l9.1-9.1m4 7h18.3M71.15 92l4.6 4.6c.3.3.8.3 1.1 0l9.1-9.1m4 7.1h18.3m-37.1 12.7l4.6 4.6c.3.3.8.3 1.1 0h0l9.1-9.2m4 7.1h18.3" fill="none" stroke="#fff" stroke-width="2" stroke-miterlimit="10"/></symbol><symbol id="map-pin" viewBox="0 0 47.28 47.44"><path d="M19.63 12.64a4.001 4.001 0 1 1 .001.05l-.001-.05z" fill="none" stroke="#c8d4e3" stroke-width="2" stroke-linecap="round" stroke-linejoin="round"/><path d="M10.68 13.35C11.09 7.29 16 1 23.5 1s12.41 6.25 12.82 12.34a13.397 13.397 0 0 1-2.76 8.86L23.5 35.69 13.42 22.22a13.401 13.401 0 0 1-2.74-8.86v-.01zm17.21 16.46h15.39l3 16.63H1l3-16.61h15.11" fill="none" stroke="#c8d4e3" stroke-width="2" stroke-linecap="round" stroke-linejoin="round"/></symbol><symbol id="price" viewBox="0 0 22.99 22.99"><path d="M11.5 1a18.38 18.38 0 0 0-7.26 1.34 7 7 0 0 0-2.31 1.52A3.05 3.05 0 0 0 1 5.95V17a3.07 3.07 0 0 0 .93 2.08 7 7 0 0 0 2.31 1.53A18.35 18.35 0 0 0 11.5 22a18.35 18.35 0 0 0 7.26-1.34 7 7 0 0 0 2.31-1.53A3.06 3.06 0 0 0 22 17V5.95a3.07 3.07 0 0 0-.93-2.08 7 7 0 0 0-2.31-1.53A18.38 18.38 0 0 0 11.5 1z" fill="none" stroke="#c8d4e3" stroke-miterlimit="10" stroke-width="2"/><path d="M1 6v0c.15 1.48 1.49 2.61 3.37 3.42a18.52 18.52 0 0 0 7.1 1.27 18.52 18.52 0 0 0 7.1-1.27C20.47 8.65 21.8 7.52 22 6M1 13.41v0c.15 1.48 1.49 2.61 3.37 3.42a18.52 18.52 0 0 0 7.1 1.27 18.52 18.52 0 0 0 7.1-1.27c1.87-.8 3.21-1.94 3.37-3.42" fill="none" stroke="#c8d4e3" stroke-miterlimit="10" stroke-width="2"/><path d="M1 9.83v0c.15 1.48 1.49 2.61 3.37 3.42a18.52 18.52 0 0 0 7.1 1.27 18.52 18.52 0 0 0 7.1-1.27c1.87-.8 3.21-1.94 3.37-3.42" fill="none" stroke="#c8d4e3" stroke-miterlimit="10" stroke-width="2"/></symbol><symbol id="rating" viewBox="0 0 16.052 25.172"><path d="M1 8.026A7.034 7.034 0 0 1 8.026 1c3.873 0 7.026 3.152 7.026 7.026s-3.153 7.026-7.026 7.026A7.034 7.034 0 0 1 1 8.026zM12.021 13.8l1.692 10.372-5.19-2.966a1 1 0 0 0-.996 0l-5.19 2.966L4.032 13.8m.983-5.774a3.015 3.015 0 0 1 3.011-3.011" fill="none" stroke="#c8d4e3" stroke-width="2" stroke-linecap="round" stroke-linejoin="round" stroke-miterlimit="10"/></symbol><symbol id="rudder" viewBox="0 0 46.917 46.917"><g fill="none" stroke="#c8d4e3" stroke-width="2" stroke-linecap="round" stroke-linejoin="round" stroke-miterlimit="10"><path d="M23.385 28.999c-3.25 0-5.894-2.644-5.894-5.894s2.644-5.894 5.894-5.894 5.894 2.644 5.894 5.894-2.644 5.894-5.894 5.894zm4.011-1.635L25.15 40.977m-3.585 0l-2.247-13.613"/><path d="M23.385 20.332a2.773 2.773 0 1 0 0 5.546 2.773 2.773 0 0 0 0-5.546z"/></g><path fill="none" stroke="#c8d4e3" stroke-width="2" stroke-linecap="round" stroke-linejoin="round" stroke-miterlimit="10" d="M17.577 24.492L7.066 15.554M8.913 12.482l12.513 5.085M39.682 15.384l-10.511 8.938M25.01 17.398l12.826-5.086"/><circle cx="23.458" cy="23.458" r="18.437" fill="none" stroke="#c8d4e3" stroke-width="2" stroke-linecap="round" stroke-linejoin="round" stroke-miterlimit="10"/><circle cx="23.458" cy="23.458" r="22.458" fill="none" stroke="#c8d4e3" stroke-width="2" stroke-linecap="round" stroke-linejoin="round" stroke-miterlimit="10"/></symbol><symbol id="teachers" viewBox="0 0 53.31 28.2"><path d="M41.686 1a5.245 5.245 0 0 0-5.211 5.211 5.402 5.402 0 0 0 5.211 5.312 5.402 5.402 0 0 0 5.312-5.211h0A5.289 5.289 0 0 0 41.731 1h-.045zM36.655 23.224H52.31c-.202-3.369-1.19-7.277-4.919-9.343-.696-.393-1.482-.101-2.662.292a7.838 7.838 0 0 1-2.942.595 7.545 7.545 0 0 1-2.953-.595c-1.123-.393-1.965-.685-2.65-.292a9.588 9.588 0 0 0-3.683 3.818M26.582 4.987a5.256 5.256 0 0 0-5.211 5.211 5.392 5.392 0 0 0 5.211 5.301 5.39 5.39 0 0 0 5.312-5.211h0a5.29 5.29 0 0 0-5.278-5.301h-.034z" fill="none" stroke="#c8d4e3" stroke-width="2" stroke-linecap="round" stroke-linejoin="round" stroke-miterlimit="10"/><path d="M16.026 27.2h21.18c-.191-3.369-1.179-7.277-4.919-9.332-.685-.393-1.471-.101-2.65.292a7.875 7.875 0 0 1-2.953.584 7.484 7.484 0 0 1-2.942-.584c-1.123-.393-1.976-.685-2.662-.292-2.157 1.269-4.818 3.829-5.054 9.332zM11.579 1a5.289 5.289 0 0 0-5.267 5.312h0a5.401 5.401 0 0 0 5.312 5.211 5.401 5.401 0 0 0 5.211-5.312A5.245 5.245 0 0 0 11.624 1h-.045z" fill="none" stroke="#c8d4e3" stroke-width="2" stroke-linecap="round" stroke-linejoin="round" stroke-miterlimit="10"/><path d="M20.81 17.699a9.588 9.588 0 0 0-3.683-3.818c-.685-.393-1.527-.101-2.65.292a7.545 7.545 0 0 1-2.953.595 7.877 7.877 0 0 1-2.942-.595c-1.179-.393-1.965-.685-2.662-.292-3.73 2.066-4.718 5.974-4.92 9.343h15.655" fill="none" stroke="#c8d4e3" stroke-width="2" stroke-linecap="round" stroke-linejoin="round" stroke-miterlimit="10"/></symbol><symbol id="technique" viewBox="0 0 48.133 46.606"><path d="M25.995 1l21.139 19.374-19.959 6.403-2.456.835L5.064 7.428 25.995 1zm-4.479 31.038L1.468 11.954A2.42 2.42 0 0 1 1 10.515a2.452 2.452 0 0 1 1.699-2.312l2.364-.774m16.454 30.84L1.468 18.21A2.419 2.419 0 0 1 1 16.766v-.016c0-1.007.619-1.909 1.559-2.271l1.023-.41m17.98 30.539L1.468 24.524A2.42 2.42 0 0 1 1 23.085v-.016a2.436 2.436 0 0 1 1.559-2.286l1.096-.386m43.448 15.109v2.636l-22.808 7.344a2.457 2.457 0 0 1-2.743-3.783c.305-.42.737-.731 1.232-.889l24.32-7.833v2.592m-24.316-1.072l18.723-6.069 5.587-1.769.005 2.743m0-.144v3.826m-22.688.861c-.694.004-1.399-.205-1.944-.642-1.6-1.282-1.731-4.131.291-5.063l24.341-7.848v2.899m0-.27v3.424" fill="none" stroke="#c8d4e3" stroke-width="2" stroke-linecap="round" stroke-linejoin="round" stroke-miterlimit="10"/><path d="M24.48 40.241c-.694.004-1.449-.23-1.995-.667-1.6-1.282-1.731-4.131.291-5.063" fill="none" stroke="#c8d4e3" stroke-width="2" stroke-linecap="round" stroke-linejoin="round" stroke-miterlimit="10"/></symbol><symbol id="user" viewBox="0 0 23.18 24.213"><path d="M11.556 1a5.256 5.256 0 0 0-5.211 5.211 5.392 5.392 0 0 0 5.211 5.301 5.39 5.39 0 0 0 5.312-5.211h0A5.29 5.29 0 0 0 11.59 1h-.034zM1 23.213h21.18c-.191-3.369-1.179-7.277-4.919-9.332-.685-.393-1.471-.101-2.65.292a7.875 7.875 0 0 1-2.953.584 7.484 7.484 0 0 1-2.942-.584c-1.123-.393-1.976-.685-2.662-.292C3.897 15.15 1.236 17.71 1 23.213z" fill="none" stroke="#c8d4e3" stroke-width="2" stroke-linecap="round" stroke-linejoin="round" stroke-miterlimit="10"/></symbol></svg>